<svg width="64" height="64" viewBox="0 0 64 64" fill="none" xmlns="http://www.w3.org/2000/svg">
<path d="M4.05828 0.361206H0.755371V3.66412H4.05828V0.361206Z" fill="#203C56"/>
<path d="M7.3612 0.361206H4.05828V3.66412H7.3612V0.361206Z" fill="#203C56"/>
<path d="M4.05828 3.66412H0.755371V6.96703H4.05828V3.66412Z" fill="#203C56"/>
<path d="M7.3612 3.66412H4.05828V6.96703H7.3612V3.66412Z" fill="#8D697A"/>
<path d="M10.6641 3.66412H7.3612V6.96703H10.6641V3.66412Z" fill="#203C56"/>
<path d="M13.967 3.66412H10.6641V6.96703H13.967V3.66412Z" fill="#203C56"/>
<path d="M4.05828 6.96703H0.755371V10.2699H4.05828V6.96703Z" fill="#203C56"/>
<path d="M7.3612 6.96703H4.05828V10.2699H7.3612V6.96703Z" fill="#8D697A"/>
<path d="M10.6641 6.96703H7.3612V10.2699H10.6641V6.96703Z" fill="#D08159"/>
<path d="M13.967 6.96703H10.6641V10.2699H13.967V6.96703Z" fill="#8D697A"/>
<path d="M17.2699 6.96703H13.967V10.2699H17.2699V6.96703Z" fill="#203C56"/>
<path d="M20.5728 6.96703H17.2699V10.2699H20.5728V6.96703Z" fill="#203C56"/>
<path d="M4.05828 10.2699H0.755371V13.5729H4.05828V10.2699Z" fill="#203C56"/>
<path d="M7.3612 10.2699H4.05828V13.5729H7.3612V10.2699Z" fill="#8D697A"/>
<path d="M10.6641 10.2699H7.3612V13.5729H10.6641V10.2699Z" fill="#D08159"/>
<path d="M13.967 10.2699H10.6641V13.5729H13.967V10.2699Z" fill="#D08159"/>
<path d="M17.2699 10.2699H13.967V13.5729H17.2699V10.2699Z" fill="#D08159"/>
<path d="M20.5728 10.2699H17.2699V13.5729H20.5728V10.2699Z" fill="#8D697A"/>
<path d="M23.8758 10.2699H20.5728V13.5729H23.8758V10.2699Z" fill="#203C56"/>
<path d="M27.1787 10.2699H23.8758V13.5729H27.1787V10.2699Z" fill="#203C56"/>
<path d="M4.05828 13.5729H0.755371V16.8758H4.05828V13.5729Z" fill="#203C56"/>
<path d="M7.3612 13.5729H4.05828V16.8758H7.3612V13.5729Z" fill="#8D697A"/>
<path d="M10.6641 13.5729H7.3612V16.8758H10.6641V13.5729Z" fill="#D08159"/>
<path d="M13.967 13.5729H10.6641V16.8758H13.967V13.5729Z" fill="#FFAA5E"/>
<path d="M17.2699 13.5729H13.967V16.8758H17.2699V13.5729Z" fill="#FFAA5E"/>
<path d="M20.5728 13.5729H17.2699V16.8758H20.5728V13.5729Z" fill="#D08159"/>
<path d="M23.8758 13.5729H20.5728V16.8758H23.8758V13.5729Z" fill="#D08159"/>
<path d="M27.1787 13.5729H23.8758V16.8758H27.1787V13.5729Z" fill="#8D697A"/>
<path d="M30.4816 13.5729H27.1787V16.8758H30.4816V13.5729Z" fill="#203C56"/>
<path d="M33.7845 13.5729H30.4816V16.8758H33.7845V13.5729Z" fill="#203C56"/>
<path d="M4.05828 16.8758H0.755371V20.1787H4.05828V16.8758Z" fill="#203C56"/>
<path d="M7.3612 16.8758H4.05828V20.1787H7.3612V16.8758Z" fill="#8D697A"/>
<path d="M10.6641 16.8758H7.3612V20.1787H10.6641V16.8758Z" fill="#D08159"/>
<path d="M13.967 16.8758H10.6641V20.1787H13.967V16.8758Z" fill="#FFAA5E"/>
<path d="M17.2699 16.8758H13.967V20.1787H17.2699V16.8758Z" fill="#FFAA5E"/>
<path d="M20.5728 16.8758H17.2699V20.1787H20.5728V16.8758Z" fill="#FFAA5E"/>
<path d="M23.8758 16.8758H20.5728V20.1787H23.8758V16.8758Z" fill="#FFAA5E"/>
<path d="M27.1787 16.8758H23.8758V20.1787H27.1787V16.8758Z" fill="#D08159"/>
<path d="M30.4816 16.8758H27.1787V20.1787H30.4816V16.8758Z" fill="#D08159"/>
<path d="M33.7845 16.8758H30.4816V20.1787H33.7845V16.8758Z" fill="#8D697A"/>
<path d="M37.0874 16.8758H33.7845V20.1787H37.0874V16.8758Z" fill="#203C56"/>
<path d="M40.3903 16.8758H37.0874V20.1787H40.3903V16.8758Z" fill="#203C56"/>
<path d="M4.05828 20.1787H0.755371V23.4816H4.05828V20.1787Z" fill="#203C56"/>
<path d="M7.3612 20.1787H4.05828V23.4816H7.3612V20.1787Z" fill="#8D697A"/>
<path d="M10.6641 20.1787H7.3612V23.4816H10.6641V20.1787Z" fill="#D08159"/>
<path d="M13.967 20.1787H10.6641V23.4816H13.967V20.1787Z" fill="#D08159"/>
<path d="M17.2699 20.1787H13.967V23.4816H17.2699V20.1787Z" fill="#D08159"/>
<path d="M20.5728 20.1787H17.2699V23.4816H20.5728V20.1787Z" fill="#FFAA5E"/>
<path d="M23.8758 20.1787H20.5728V23.4816H23.8758V20.1787Z" fill="#FFAA5E"/>
<path d="M27.1787 20.1787H23.8758V23.4816H27.1787V20.1787Z" fill="#FFAA5E"/>
<path d="M30.4816 20.1787H27.1787V23.4816H30.4816V20.1787Z" fill="#FFAA5E"/>
<path d="M33.7845 20.1787H30.4816V23.4816H33.7845V20.1787Z" fill="#D08159"/>
<path d="M37.0874 20.1787H33.7845V23.4816H37.0874V20.1787Z" fill="#D08159"/>
<path d="M40.3903 20.1787H37.0874V23.4816H40.3903V20.1787Z" fill="#8D697A"/>
<path d="M43.6932 20.1787H40.3903V23.4816H43.6932V20.1787Z" fill="#203C56"/>
<path d="M46.9961 20.1787H43.6932V23.4816H46.9961V20.1787Z" fill="#203C56"/>
<path d="M4.05828 23.4816H0.755371V26.7845H4.05828V23.4816Z" fill="#203C56"/>
<path d="M7.3612 23.4816H4.05828V26.7845H7.3612V23.4816Z" fill="#544E68"/>
<path d="M10.6641 23.4816H7.3612V26.7845H10.6641V23.4816Z" fill="#D08159"/>
<path d="M13.967 23.4816H10.6641V26.7845H13.967V23.4816Z" fill="#D08159"/>
<path d="M17.2699 23.4816H13.967V26.7845H17.2699V23.4816Z" fill="#D08159"/>
<path d="M20.5728 23.4816H17.2699V26.7845H20.5728V23.4816Z" fill="#D08159"/>
<path d="M23.8758 23.4816H20.5728V26.7845H23.8758V23.4816Z" fill="#D08159"/>
<path d="M27.1787 23.4816H23.8758V26.7845H27.1787V23.4816Z" fill="#FFAA5E"/>
<path d="M30.4816 23.4816H27.1787V26.7845H30.4816V23.4816Z" fill="#FFAA5E"/>
<path d="M33.7845 23.4816H30.4816V26.7845H33.7845V23.4816Z" fill="#FFAA5E"/>
<path d="M37.0874 23.4816H33.7845V26.7845H37.0874V23.4816Z" fill="#FFAA5E"/>
<path d="M40.3903 23.4816H37.0874V26.7845H40.3903V23.4816Z" fill="#D08159"/>
<path d="M43.6932 23.4816H40.3903V26.7845H43.6932V23.4816Z" fill="#D08159"/>
<path d="M46.9961 23.4816H43.6932V26.7845H46.9961V23.4816Z" fill="#8D697A"/>
<path d="M50.2991 23.4816H46.9961V26.7845H50.2991V23.4816Z" fill="#203C56"/>
<path d="M53.602 23.4816H50.2991V26.7845H53.602V23.4816Z" fill="#203C56"/>
<path d="M4.05828 26.7845H0.755371V30.0874H4.05828V26.7845Z" fill="#203C56"/>
<path d="M7.3612 26.7845H4.05828V30.0874H7.3612V26.7845Z" fill="#544E68"/>
<path d="M10.6641 26.7845H7.3612V30.0874H10.6641V26.7845Z" fill="#D08159"/>
<path d="M13.967 26.7845H10.6641V30.0874H13.967V26.7845Z" fill="#FFAA5E"/>
<path d="M17.2699 26.7845H13.967V30.0874H17.2699V26.7845Z" fill="#FFAA5E"/>
<path d="M20.5728 26.7845H17.2699V30.0874H20.5728V26.7845Z" fill="#D08159"/>
<path d="M23.8758 26.7845H20.5728V30.0874H23.8758V26.7845Z" fill="#D08159"/>
<path d="M27.1787 26.7845H23.8758V30.0874H27.1787V26.7845Z" fill="#D08159"/>
<path d="M30.4816 26.7845H27.1787V30.0874H30.4816V26.7845Z" fill="#D08159"/>
<path d="M33.7845 26.7845H30.4816V30.0874H33.7845V26.7845Z" fill="#FFAA5E"/>
<path d="M37.0874 26.7845H33.7845V30.0874H37.0874V26.7845Z" fill="#FFAA5E"/>
<path d="M40.3903 26.7845H37.0874V30.0874H40.3903V26.7845Z" fill="#FFAA5E"/>
<path d="M43.6932 26.7845H40.3903V30.0874H43.6932V26.7845Z" fill="#FFAA5E"/>
<path d="M46.9961 26.7845H43.6932V30.0874H46.9961V26.7845Z" fill="#D08159"/>
<path d="M50.2991 26.7845H46.9961V30.0874H50.2991V26.7845Z" fill="#D08159"/>
<path d="M53.602 26.7845H50.2991V30.0874H53.602V26.7845Z" fill="#8D697A"/>
<path d="M56.9049 26.7845H53.602V30.0874H56.9049V26.7845Z" fill="#203C56"/>
<path d="M60.2078 26.7845H56.9049V30.0874H60.2078V26.7845Z" fill="#203C56"/>
<path d="M4.05828 30.0874H0.755371V33.3903H4.05828V30.0874Z" fill="#203C56"/>
<path d="M7.3612 30.0874H4.05828V33.3903H7.3612V30.0874Z" fill="#544E68"/>
<path d="M10.6641 30.0874H7.3612V33.3903H10.6641V30.0874Z" fill="#D08159"/>
<path d="M13.967 30.0874H10.6641V33.3903H13.967V30.0874Z" fill="#D08159"/>
<path d="M17.2699 30.0874H13.967V33.3903H17.2699V30.0874Z" fill="#D08159"/>
<path d="M20.5728 30.0874H17.2699V33.3903H20.5728V30.0874Z" fill="#FFAA5E"/>
<path d="M23.8758 30.0874H20.5728V33.3903H23.8758V30.0874Z" fill="#FFAA5E"/>
<path d="M27.1787 30.0874H23.8758V33.3903H27.1787V30.0874Z" fill="#D08159"/>
<path d="M30.4816 30.0874H27.1787V33.3903H30.4816V30.0874Z" fill="#D08159"/>
<path d="M33.7845 30.0874H30.4816V33.3903H33.7845V30.0874Z" fill="#D08159"/>
<path d="M37.0874 30.0874H33.7845V33.3903H37.0874V30.0874Z" fill="#D08159"/>
<path d="M40.3903 30.0874H37.0874V33.3903H40.3903V30.0874Z" fill="#FFAA5E"/>
<path d="M43.6932 30.0874H40.3903V33.3903H43.6932V30.0874Z" fill="#FFAA5E"/>
<path d="M46.9961 30.0874H43.6932V33.3903H46.9961V30.0874Z" fill="#FFAA5E"/>
<path d="M50.2991 30.0874H46.9961V33.3903H50.2991V30.0874Z" fill="#FFAA5E"/>
<path d="M53.602 30.0874H50.2991V33.3903H53.602V30.0874Z" fill="#D08159"/>
<path d="M56.9049 30.0874H53.602V33.3903H56.9049V30.0874Z" fill="#D08159"/>
<path d="M60.2078 30.0874H56.9049V33.3903H60.2078V30.0874Z" fill="#8D697A"/>
<path d="M63.5107 30.0874H60.2078V33.3903H63.5107V30.0874Z" fill="#203C56"/>
<path d="M4.05828 33.3903H0.755371V36.6932H4.05828V33.3903Z" fill="#203C56"/>
<path d="M7.3612 33.3903H4.05828V36.6932H7.3612V33.3903Z" fill="#544E68"/>
<path d="M10.6641 33.3903H7.3612V36.6932H10.6641V33.3903Z" fill="#D08159"/>
<path d="M13.967 33.3903H10.6641V36.6932H13.967V33.3903Z" fill="#D08159"/>
<path d="M17.2699 33.3903H13.967V36.6932H17.2699V33.3903Z" fill="#D08159"/>
<path d="M20.5728 33.3903H17.2699V36.6932H20.5728V33.3903Z" fill="#D08159"/>
<path d="M23.8758 33.3903H20.5728V36.6932H23.8758V33.3903Z" fill="#D08159"/>
<path d="M27.1787 33.3903H23.8758V36.6932H27.1787V33.3903Z" fill="#FFAA5E"/>
<path d="M30.4816 33.3903H27.1787V36.6932H30.4816V33.3903Z" fill="#FFAA5E"/>
<path d="M33.7845 33.3903H30.4816V36.6932H33.7845V33.3903Z" fill="#D08159"/>
<path d="M37.0874 33.3903H33.7845V36.6932H37.0874V33.3903Z" fill="#D08159"/>
<path d="M40.3903 33.3903H37.0874V36.6932H40.3903V33.3903Z" fill="#D08159"/>
<path d="M43.6932 33.3903H40.3903V36.6932H43.6932V33.3903Z" fill="#D08159"/>
<path d="M46.9961 33.3903H43.6932V36.6932H46.9961V33.3903Z" fill="#FFAA5E"/>
<path d="M50.2991 33.3903H46.9961V36.6932H50.2991V33.3903Z" fill="#8D697A"/>
<path d="M53.602 33.3903H50.2991V36.6932H53.602V33.3903Z" fill="#544E68"/>
<path d="M56.9049 33.3903H53.602V36.6932H56.9049V33.3903Z" fill="#203C56"/>
<path d="M60.2078 33.3903H56.9049V36.6932H60.2078V33.3903Z" fill="#203C56"/>
<path d="M4.05828 36.6932H0.755371V39.9962H4.05828V36.6932Z" fill="#203C56"/>
<path d="M7.3612 36.6932H4.05828V39.9962H7.3612V36.6932Z" fill="#544E68"/>
<path d="M10.6641 36.6932H7.3612V39.9962H10.6641V36.6932Z" fill="#D08159"/>
<path d="M13.967 36.6932H10.6641V39.9962H13.967V36.6932Z" fill="#D08159"/>
<path d="M17.2699 36.6932H13.967V39.9962H17.2699V36.6932Z" fill="#D08159"/>
<path d="M20.5728 36.6932H17.2699V39.9962H20.5728V36.6932Z" fill="#D08159"/>
<path d="M23.8758 36.6932H20.5728V39.9962H23.8758V36.6932Z" fill="#D08159"/>
<path d="M27.1787 36.6932H23.8758V39.9962H27.1787V36.6932Z" fill="#D08159"/>
<path d="M30.4816 36.6932H27.1787V39.9962H30.4816V36.6932Z" fill="#D08159"/>
<path d="M33.7845 36.6932H30.4816V39.9962H33.7845V36.6932Z" fill="#FFAA5E"/>
<path d="M37.0874 36.6932H33.7845V39.9962H37.0874V36.6932Z" fill="#FFAA5E"/>
<path d="M40.3903 36.6932H37.0874V39.9962H40.3903V36.6932Z" fill="#D08159"/>
<path d="M43.6932 36.6932H40.3903V39.9962H43.6932V36.6932Z" fill="#8D697A"/>
<path d="M46.9961 36.6932H43.6932V39.9962H46.9961V36.6932Z" fill="#544E68"/>
<path d="M50.2991 36.6932H46.9961V39.9962H50.2991V36.6932Z" fill="#203C56"/>
<path d="M53.602 36.6932H50.2991V39.9962H53.602V36.6932Z" fill="#203C56"/>
<path d="M4.05828 39.9962H0.755371V43.2991H4.05828V39.9962Z" fill="#203C56"/>
<path d="M7.3612 39.9962H4.05828V43.2991H7.3612V39.9962Z" fill="#544E68"/>
<path d="M10.6641 39.9962H7.3612V43.2991H10.6641V39.9962Z" fill="#D08159"/>
<path d="M13.967 39.9962H10.6641V43.2991H13.967V39.9962Z" fill="#D08159"/>
<path d="M17.2699 39.9962H13.967V43.2991H17.2699V39.9962Z" fill="#D08159"/>
<path d="M20.5728 39.9962H17.2699V43.2991H20.5728V39.9962Z" fill="#D08159"/>
<path d="M23.8758 39.9962H20.5728V43.2991H23.8758V39.9962Z" fill="#D08159"/>
<path d="M27.1787 39.9962H23.8758V43.2991H27.1787V39.9962Z" fill="#D08159"/>
<path d="M30.4816 39.9962H27.1787V43.2991H30.4816V39.9962Z" fill="#D08159"/>
<path d="M33.7845 39.9962H30.4816V43.2991H33.7845V39.9962Z" fill="#D08159"/>
<path d="M37.0874 39.9962H33.7845V43.2991H37.0874V39.9962Z" fill="#8D697A"/>
<path d="M40.3903 39.9962H37.0874V43.2991H40.3903V39.9962Z" fill="#544E68"/>
<path d="M43.6932 39.9962H40.3903V43.2991H43.6932V39.9962Z" fill="#203C56"/>
<path d="M46.9961 39.9962H43.6932V43.2991H46.9961V39.9962Z" fill="#203C56"/>
<path d="M4.05828 43.2991H0.755371V46.602H4.05828V43.2991Z" fill="#203C56"/>
<path d="M7.3612 43.2991H4.05828V46.602H7.3612V43.2991Z" fill="#544E68"/>
<path d="M10.6641 43.2991H7.3612V46.602H10.6641V43.2991Z" fill="#D08159"/>
<path d="M13.967 43.2991H10.6641V46.602H13.967V43.2991Z" fill="#D08159"/>
<path d="M17.2699 43.2991H13.967V46.602H17.2699V43.2991Z" fill="#D08159"/>
<path d="M20.5728 43.2991H17.2699V46.602H20.5728V43.2991Z" fill="#D08159"/>
<path d="M23.8758 43.2991H20.5728V46.602H23.8758V43.2991Z" fill="#D08159"/>
<path d="M27.1787 43.2991H23.8758V46.602H27.1787V43.2991Z" fill="#D08159"/>
<path d="M30.4816 43.2991H27.1787V46.602H30.4816V43.2991Z" fill="#8D697A"/>
<path d="M33.7845 43.2991H30.4816V46.602H33.7845V43.2991Z" fill="#544E68"/>
<path d="M37.0874 43.2991H33.7845V46.602H37.0874V43.2991Z" fill="#203C56"/>
<path d="M40.3903 43.2991H37.0874V46.602H40.3903V43.2991Z" fill="#203C56"/>
<path d="M4.05828 46.602H0.755371V49.9049H4.05828V46.602Z" fill="#203C56"/>
<path d="M7.3612 46.602H4.05828V49.9049H7.3612V46.602Z" fill="#544E68"/>
<path d="M10.6641 46.602H7.3612V49.9049H10.6641V46.602Z" fill="#D08159"/>
<path d="M13.967 46.602H10.6641V49.9049H13.967V46.602Z" fill="#D08159"/>
<path d="M17.2699 46.602H13.967V49.9049H17.2699V46.602Z" fill="#D08159"/>
<path d="M20.5728 46.602H17.2699V49.9049H20.5728V46.602Z" fill="#D08159"/>
<path d="M23.8758 46.602H20.5728V49.9049H23.8758V46.602Z" fill="#8D697A"/>
<path d="M27.1787 46.602H23.8758V49.9049H27.1787V46.602Z" fill="#544E68"/>
<path d="M30.4816 46.602H27.1787V49.9049H30.4816V46.602Z" fill="#203C56"/>
<path d="M33.7845 46.602H30.4816V49.9049H33.7845V46.602Z" fill="#203C56"/>
<path d="M4.05828 49.9049H0.755371V53.2078H4.05828V49.9049Z" fill="#203C56"/>
<path d="M7.3612 49.9049H4.05828V53.2078H7.3612V49.9049Z" fill="#544E68"/>
<path d="M10.6641 49.9049H7.3612V53.2078H10.6641V49.9049Z" fill="#D08159"/>
<path d="M13.967 49.9049H10.6641V53.2078H13.967V49.9049Z" fill="#D08159"/>
<path d="M17.2699 49.9049H13.967V53.2078H17.2699V49.9049Z" fill="#8D697A"/>
<path d="M20.5728 49.9049H17.2699V53.2078H20.5728V49.9049Z" fill="#544E68"/>
<path d="M23.8758 49.9049H20.5728V53.2078H23.8758V49.9049Z" fill="#203C56"/>
<path d="M27.1787 49.9049H23.8758V53.2078H27.1787V49.9049Z" fill="#203C56"/>
<path d="M4.05828 53.2078H0.755371V56.5107H4.05828V53.2078Z" fill="#203C56"/>
<path d="M7.3612 53.2078H4.05828V56.5107H7.3612V53.2078Z" fill="#544E68"/>
<path d="M10.6641 53.2078H7.3612V56.5107H10.6641V53.2078Z" fill="#8D697A"/>
<path d="M13.967 53.2078H10.6641V56.5107H13.967V53.2078Z" fill="#544E68"/>
<path d="M17.2699 53.2078H13.967V56.5107H17.2699V53.2078Z" fill="#203C56"/>
<path d="M20.5728 53.2078H17.2699V56.5107H20.5728V53.2078Z" fill="#203C56"/>
<path d="M4.05828 56.5107H0.755371V59.8136H4.05828V56.5107Z" fill="#203C56"/>
<path d="M7.3612 56.5107H4.05828V59.8136H7.3612V56.5107Z" fill="#544E68"/>
<path d="M10.6641 56.5107H7.3612V59.8136H10.6641V56.5107Z" fill="#203C56"/>
<path d="M13.967 56.5107H10.6641V59.8136H13.967V56.5107Z" fill="#203C56"/>
<path d="M4.05828 59.8136H0.755371V63.1165H4.05828V59.8136Z" fill="#203C56"/>
<path d="M7.3612 59.8136H4.05828V63.1165H7.3612V59.8136Z" fill="#203C56"/>
</svg>
