<svg width="63" height="64" viewBox="0 0 63 64" fill="none" xmlns="http://www.w3.org/2000/svg">
<path d="M59.4524 0.883545H56.1495V4.18646H59.4524V0.883545Z" fill="#203C56"/>
<path d="M62.7553 0.883545H59.4524V4.18646H62.7553V0.883545Z" fill="#203C56"/>
<path d="M52.8466 4.18646H49.5437V7.48937H52.8466V4.18646Z" fill="#203C56"/>
<path d="M56.1495 4.18646H52.8466V7.48937H56.1495V4.18646Z" fill="#203C56"/>
<path d="M59.4524 4.18646H56.1495V7.48937H59.4524V4.18646Z" fill="#8D697A"/>
<path d="M62.7553 4.18646H59.4524V7.48937H62.7553V4.18646Z" fill="#203C56"/>
<path d="M46.2408 7.48937H42.9379V10.7923H46.2408V7.48937Z" fill="#203C56"/>
<path d="M49.5437 7.48937H46.2408V10.7923H49.5437V7.48937Z" fill="#203C56"/>
<path d="M52.8466 7.48937H49.5437V10.7923H52.8466V7.48937Z" fill="#8D697A"/>
<path d="M56.1495 7.48937H52.8466V10.7923H56.1495V7.48937Z" fill="#D08159"/>
<path d="M59.4524 7.48937H56.1495V10.7923H59.4524V7.48937Z" fill="#8D697A"/>
<path d="M62.7553 7.48937H59.4524V10.7923H62.7553V7.48937Z" fill="#203C56"/>
<path d="M39.635 10.7923H36.332V14.0952H39.635V10.7923Z" fill="#203C56"/>
<path d="M42.9379 10.7923H39.635V14.0952H42.9379V10.7923Z" fill="#203C56"/>
<path d="M46.2408 10.7923H42.9379V14.0952H46.2408V10.7923Z" fill="#8D697A"/>
<path d="M49.5437 10.7923H46.2408V14.0952H49.5437V10.7923Z" fill="#D08159"/>
<path d="M52.8466 10.7923H49.5437V14.0952H52.8466V10.7923Z" fill="#D08159"/>
<path d="M56.1495 10.7923H52.8466V14.0952H56.1495V10.7923Z" fill="#D08159"/>
<path d="M59.4524 10.7923H56.1495V14.0952H59.4524V10.7923Z" fill="#8D697A"/>
<path d="M62.7553 10.7923H59.4524V14.0952H62.7553V10.7923Z" fill="#203C56"/>
<path d="M33.0291 14.0952H29.7262V17.3981H33.0291V14.0952Z" fill="#203C56"/>
<path d="M36.332 14.0952H33.0291V17.3981H36.332V14.0952Z" fill="#203C56"/>
<path d="M39.635 14.0952H36.332V17.3981H39.635V14.0952Z" fill="#8D697A"/>
<path d="M42.9379 14.0952H39.635V17.3981H42.9379V14.0952Z" fill="#D08159"/>
<path d="M46.2408 14.0952H42.9379V17.3981H46.2408V14.0952Z" fill="#D08159"/>
<path d="M49.5437 14.0952H46.2408V17.3981H49.5437V14.0952Z" fill="#FFAA5E"/>
<path d="M52.8466 14.0952H49.5437V17.3981H52.8466V14.0952Z" fill="#FFAA5E"/>
<path d="M56.1495 14.0952H52.8466V17.3981H56.1495V14.0952Z" fill="#D08159"/>
<path d="M59.4524 14.0952H56.1495V17.3981H59.4524V14.0952Z" fill="#8D697A"/>
<path d="M62.7553 14.0952H59.4524V17.3981H62.7553V14.0952Z" fill="#203C56"/>
<path d="M26.4233 17.3981H23.1204V20.701H26.4233V17.3981Z" fill="#203C56"/>
<path d="M29.7262 17.3981H26.4233V20.701H29.7262V17.3981Z" fill="#203C56"/>
<path d="M33.0291 17.3981H29.7262V20.701H33.0291V17.3981Z" fill="#8D697A"/>
<path d="M36.332 17.3981H33.0291V20.701H36.332V17.3981Z" fill="#D08159"/>
<path d="M39.635 17.3981H36.332V20.701H39.635V17.3981Z" fill="#D08159"/>
<path d="M42.9379 17.3981H39.635V20.701H42.9379V17.3981Z" fill="#FFAA5E"/>
<path d="M46.2408 17.3981H42.9379V20.701H46.2408V17.3981Z" fill="#FFAA5E"/>
<path d="M49.5437 17.3981H46.2408V20.701H49.5437V17.3981Z" fill="#FFAA5E"/>
<path d="M52.8466 17.3981H49.5437V20.701H52.8466V17.3981Z" fill="#FFAA5E"/>
<path d="M56.1495 17.3981H52.8466V20.701H56.1495V17.3981Z" fill="#D08159"/>
<path d="M59.4524 17.3981H56.1495V20.701H59.4524V17.3981Z" fill="#8D697A"/>
<path d="M62.7553 17.3981H59.4524V20.701H62.7553V17.3981Z" fill="#203C56"/>
<path d="M19.8175 20.701H16.5146V24.0039H19.8175V20.701Z" fill="#203C56"/>
<path d="M23.1204 20.701H19.8175V24.0039H23.1204V20.701Z" fill="#203C56"/>
<path d="M26.4233 20.701H23.1204V24.0039H26.4233V20.701Z" fill="#8D697A"/>
<path d="M29.7262 20.701H26.4233V24.0039H29.7262V20.701Z" fill="#D08159"/>
<path d="M33.0291 20.701H29.7262V24.0039H33.0291V20.701Z" fill="#D08159"/>
<path d="M36.332 20.701H33.0291V24.0039H36.332V20.701Z" fill="#FFAA5E"/>
<path d="M39.635 20.701H36.332V24.0039H39.635V20.701Z" fill="#FFAA5E"/>
<path d="M42.9379 20.701H39.635V24.0039H42.9379V20.701Z" fill="#FFAA5E"/>
<path d="M46.2408 20.701H42.9379V24.0039H46.2408V20.701Z" fill="#FFAA5E"/>
<path d="M49.5437 20.701H46.2408V24.0039H49.5437V20.701Z" fill="#D08159"/>
<path d="M52.8466 20.701H49.5437V24.0039H52.8466V20.701Z" fill="#D08159"/>
<path d="M56.1495 20.701H52.8466V24.0039H56.1495V20.701Z" fill="#D08159"/>
<path d="M59.4524 20.701H56.1495V24.0039H59.4524V20.701Z" fill="#8D697A"/>
<path d="M62.7553 20.701H59.4524V24.0039H62.7553V20.701Z" fill="#203C56"/>
<path d="M13.2117 24.0039H9.90874V27.3068H13.2117V24.0039Z" fill="#203C56"/>
<path d="M16.5146 24.0039H13.2117V27.3068H16.5146V24.0039Z" fill="#203C56"/>
<path d="M19.8175 24.0039H16.5146V27.3068H19.8175V24.0039Z" fill="#8D697A"/>
<path d="M23.1204 24.0039H19.8175V27.3068H23.1204V24.0039Z" fill="#D08159"/>
<path d="M26.4233 24.0039H23.1204V27.3068H26.4233V24.0039Z" fill="#D08159"/>
<path d="M29.7262 24.0039H26.4233V27.3068H29.7262V24.0039Z" fill="#FFAA5E"/>
<path d="M33.0291 24.0039H29.7262V27.3068H33.0291V24.0039Z" fill="#FFAA5E"/>
<path d="M36.332 24.0039H33.0291V27.3068H36.332V24.0039Z" fill="#FFAA5E"/>
<path d="M39.635 24.0039H36.332V27.3068H39.635V24.0039Z" fill="#FFAA5E"/>
<path d="M42.9379 24.0039H39.635V27.3068H42.9379V24.0039Z" fill="#D08159"/>
<path d="M46.2408 24.0039H42.9379V27.3068H46.2408V24.0039Z" fill="#D08159"/>
<path d="M49.5437 24.0039H46.2408V27.3068H49.5437V24.0039Z" fill="#D08159"/>
<path d="M52.8466 24.0039H49.5437V27.3068H52.8466V24.0039Z" fill="#D08159"/>
<path d="M56.1495 24.0039H52.8466V27.3068H56.1495V24.0039Z" fill="#D08159"/>
<path d="M59.4524 24.0039H56.1495V27.3068H59.4524V24.0039Z" fill="#544E68"/>
<path d="M62.7553 24.0039H59.4524V27.3068H62.7553V24.0039Z" fill="#203C56"/>
<path d="M6.60583 27.3068H3.30291V30.6098H6.60583V27.3068Z" fill="#203C56"/>
<path d="M9.90874 27.3068H6.60583V30.6098H9.90874V27.3068Z" fill="#203C56"/>
<path d="M13.2117 27.3068H9.90874V30.6098H13.2117V27.3068Z" fill="#8D697A"/>
<path d="M16.5146 27.3068H13.2117V30.6098H16.5146V27.3068Z" fill="#D08159"/>
<path d="M19.8175 27.3068H16.5146V30.6098H19.8175V27.3068Z" fill="#D08159"/>
<path d="M23.1204 27.3068H19.8175V30.6098H23.1204V27.3068Z" fill="#FFAA5E"/>
<path d="M26.4233 27.3068H23.1204V30.6098H26.4233V27.3068Z" fill="#FFAA5E"/>
<path d="M29.7262 27.3068H26.4233V30.6098H29.7262V27.3068Z" fill="#FFAA5E"/>
<path d="M33.0291 27.3068H29.7262V30.6098H33.0291V27.3068Z" fill="#FFAA5E"/>
<path d="M36.332 27.3068H33.0291V30.6098H36.332V27.3068Z" fill="#D08159"/>
<path d="M39.635 27.3068H36.332V30.6098H39.635V27.3068Z" fill="#D08159"/>
<path d="M42.9379 27.3068H39.635V30.6098H42.9379V27.3068Z" fill="#D08159"/>
<path d="M46.2408 27.3068H42.9379V30.6098H46.2408V27.3068Z" fill="#D08159"/>
<path d="M49.5437 27.3068H46.2408V30.6098H49.5437V27.3068Z" fill="#FFAA5E"/>
<path d="M52.8466 27.3068H49.5437V30.6098H52.8466V27.3068Z" fill="#FFAA5E"/>
<path d="M56.1495 27.3068H52.8466V30.6098H56.1495V27.3068Z" fill="#D08159"/>
<path d="M59.4524 27.3068H56.1495V30.6098H59.4524V27.3068Z" fill="#544E68"/>
<path d="M62.7553 27.3068H59.4524V30.6098H62.7553V27.3068Z" fill="#203C56"/>
<path d="M3.30291 30.6098H0V33.9127H3.30291V30.6098Z" fill="#203C56"/>
<path d="M6.60583 30.6098H3.30291V33.9127H6.60583V30.6098Z" fill="#8D697A"/>
<path d="M9.90874 30.6098H6.60583V33.9127H9.90874V30.6098Z" fill="#D08159"/>
<path d="M13.2117 30.6098H9.90874V33.9127H13.2117V30.6098Z" fill="#D08159"/>
<path d="M16.5146 30.6098H13.2117V33.9127H16.5146V30.6098Z" fill="#FFAA5E"/>
<path d="M19.8175 30.6098H16.5146V33.9127H19.8175V30.6098Z" fill="#FFAA5E"/>
<path d="M23.1204 30.6098H19.8175V33.9127H23.1204V30.6098Z" fill="#FFAA5E"/>
<path d="M26.4233 30.6098H23.1204V33.9127H26.4233V30.6098Z" fill="#FFAA5E"/>
<path d="M29.7262 30.6098H26.4233V33.9127H29.7262V30.6098Z" fill="#D08159"/>
<path d="M33.0291 30.6098H29.7262V33.9127H33.0291V30.6098Z" fill="#D08159"/>
<path d="M36.332 30.6098H33.0291V33.9127H36.332V30.6098Z" fill="#D08159"/>
<path d="M39.635 30.6098H36.332V33.9127H39.635V30.6098Z" fill="#D08159"/>
<path d="M42.9379 30.6098H39.635V33.9127H42.9379V30.6098Z" fill="#FFAA5E"/>
<path d="M46.2408 30.6098H42.9379V33.9127H46.2408V30.6098Z" fill="#FFAA5E"/>
<path d="M49.5437 30.6098H46.2408V33.9127H49.5437V30.6098Z" fill="#D08159"/>
<path d="M52.8466 30.6098H49.5437V33.9127H52.8466V30.6098Z" fill="#D08159"/>
<path d="M56.1495 30.6098H52.8466V33.9127H56.1495V30.6098Z" fill="#D08159"/>
<path d="M59.4524 30.6098H56.1495V33.9127H59.4524V30.6098Z" fill="#544E68"/>
<path d="M62.7553 30.6098H59.4524V33.9127H62.7553V30.6098Z" fill="#203C56"/>
<path d="M6.60583 33.9127H3.30291V37.2156H6.60583V33.9127Z" fill="#203C56"/>
<path d="M9.90874 33.9127H6.60583V37.2156H9.90874V33.9127Z" fill="#203C56"/>
<path d="M13.2117 33.9127H9.90874V37.2156H13.2117V33.9127Z" fill="#544E68"/>
<path d="M16.5146 33.9127H13.2117V37.2156H16.5146V33.9127Z" fill="#8D697A"/>
<path d="M19.8175 33.9127H16.5146V37.2156H19.8175V33.9127Z" fill="#FFAA5E"/>
<path d="M23.1204 33.9127H19.8175V37.2156H23.1204V33.9127Z" fill="#D08159"/>
<path d="M26.4233 33.9127H23.1204V37.2156H26.4233V33.9127Z" fill="#D08159"/>
<path d="M29.7262 33.9127H26.4233V37.2156H29.7262V33.9127Z" fill="#D08159"/>
<path d="M33.0291 33.9127H29.7262V37.2156H33.0291V33.9127Z" fill="#D08159"/>
<path d="M36.332 33.9127H33.0291V37.2156H36.332V33.9127Z" fill="#FFAA5E"/>
<path d="M39.635 33.9127H36.332V37.2156H39.635V33.9127Z" fill="#FFAA5E"/>
<path d="M42.9379 33.9127H39.635V37.2156H42.9379V33.9127Z" fill="#D08159"/>
<path d="M46.2408 33.9127H42.9379V37.2156H46.2408V33.9127Z" fill="#D08159"/>
<path d="M49.5437 33.9127H46.2408V37.2156H49.5437V33.9127Z" fill="#D08159"/>
<path d="M52.8466 33.9127H49.5437V37.2156H52.8466V33.9127Z" fill="#D08159"/>
<path d="M56.1495 33.9127H52.8466V37.2156H56.1495V33.9127Z" fill="#D08159"/>
<path d="M59.4524 33.9127H56.1495V37.2156H59.4524V33.9127Z" fill="#544E68"/>
<path d="M62.7553 33.9127H59.4524V37.2156H62.7553V33.9127Z" fill="#203C56"/>
<path d="M13.2117 37.2156H9.90874V40.5185H13.2117V37.2156Z" fill="#203C56"/>
<path d="M16.5146 37.2156H13.2117V40.5185H16.5146V37.2156Z" fill="#203C56"/>
<path d="M19.8175 37.2156H16.5146V40.5185H19.8175V37.2156Z" fill="#544E68"/>
<path d="M23.1204 37.2156H19.8175V40.5185H23.1204V37.2156Z" fill="#8D697A"/>
<path d="M26.4233 37.2156H23.1204V40.5185H26.4233V37.2156Z" fill="#D08159"/>
<path d="M29.7262 37.2156H26.4233V40.5185H29.7262V37.2156Z" fill="#FFAA5E"/>
<path d="M33.0291 37.2156H29.7262V40.5185H33.0291V37.2156Z" fill="#FFAA5E"/>
<path d="M36.332 37.2156H33.0291V40.5185H36.332V37.2156Z" fill="#D08159"/>
<path d="M39.635 37.2156H36.332V40.5185H39.635V37.2156Z" fill="#D08159"/>
<path d="M42.9379 37.2156H39.635V40.5185H42.9379V37.2156Z" fill="#D08159"/>
<path d="M46.2408 37.2156H42.9379V40.5185H46.2408V37.2156Z" fill="#D08159"/>
<path d="M49.5437 37.2156H46.2408V40.5185H49.5437V37.2156Z" fill="#D08159"/>
<path d="M52.8466 37.2156H49.5437V40.5185H52.8466V37.2156Z" fill="#D08159"/>
<path d="M56.1495 37.2156H52.8466V40.5185H56.1495V37.2156Z" fill="#D08159"/>
<path d="M59.4524 37.2156H56.1495V40.5185H59.4524V37.2156Z" fill="#544E68"/>
<path d="M62.7553 37.2156H59.4524V40.5185H62.7553V37.2156Z" fill="#203C56"/>
<path d="M19.8175 40.5185H16.5146V43.8214H19.8175V40.5185Z" fill="#203C56"/>
<path d="M23.1204 40.5185H19.8175V43.8214H23.1204V40.5185Z" fill="#203C56"/>
<path d="M26.4233 40.5185H23.1204V43.8214H26.4233V40.5185Z" fill="#544E68"/>
<path d="M29.7262 40.5185H26.4233V43.8214H29.7262V40.5185Z" fill="#8D697A"/>
<path d="M33.0291 40.5185H29.7262V43.8214H33.0291V40.5185Z" fill="#D08159"/>
<path d="M36.332 40.5185H33.0291V43.8214H36.332V40.5185Z" fill="#D08159"/>
<path d="M39.635 40.5185H36.332V43.8214H39.635V40.5185Z" fill="#D08159"/>
<path d="M42.9379 40.5185H39.635V43.8214H42.9379V40.5185Z" fill="#D08159"/>
<path d="M46.2408 40.5185H42.9379V43.8214H46.2408V40.5185Z" fill="#D08159"/>
<path d="M49.5437 40.5185H46.2408V43.8214H49.5437V40.5185Z" fill="#D08159"/>
<path d="M52.8466 40.5185H49.5437V43.8214H52.8466V40.5185Z" fill="#D08159"/>
<path d="M56.1495 40.5185H52.8466V43.8214H56.1495V40.5185Z" fill="#D08159"/>
<path d="M59.4524 40.5185H56.1495V43.8214H59.4524V40.5185Z" fill="#544E68"/>
<path d="M62.7553 40.5185H59.4524V43.8214H62.7553V40.5185Z" fill="#203C56"/>
<path d="M26.4233 43.8214H23.1204V47.1243H26.4233V43.8214Z" fill="#203C56"/>
<path d="M29.7262 43.8214H26.4233V47.1243H29.7262V43.8214Z" fill="#203C56"/>
<path d="M33.0291 43.8214H29.7262V47.1243H33.0291V43.8214Z" fill="#544E68"/>
<path d="M36.332 43.8214H33.0291V47.1243H36.332V43.8214Z" fill="#8D697A"/>
<path d="M39.635 43.8214H36.332V47.1243H39.635V43.8214Z" fill="#D08159"/>
<path d="M42.9379 43.8214H39.635V47.1243H42.9379V43.8214Z" fill="#D08159"/>
<path d="M46.2408 43.8214H42.9379V47.1243H46.2408V43.8214Z" fill="#D08159"/>
<path d="M49.5437 43.8214H46.2408V47.1243H49.5437V43.8214Z" fill="#D08159"/>
<path d="M52.8466 43.8214H49.5437V47.1243H52.8466V43.8214Z" fill="#D08159"/>
<path d="M56.1495 43.8214H52.8466V47.1243H56.1495V43.8214Z" fill="#D08159"/>
<path d="M59.4524 43.8214H56.1495V47.1243H59.4524V43.8214Z" fill="#544E68"/>
<path d="M62.7553 43.8214H59.4524V47.1243H62.7553V43.8214Z" fill="#203C56"/>
<path d="M33.0291 47.1243H29.7262V50.4272H33.0291V47.1243Z" fill="#203C56"/>
<path d="M36.332 47.1243H33.0291V50.4272H36.332V47.1243Z" fill="#203C56"/>
<path d="M39.635 47.1243H36.332V50.4272H39.635V47.1243Z" fill="#544E68"/>
<path d="M42.9379 47.1243H39.635V50.4272H42.9379V47.1243Z" fill="#8D697A"/>
<path d="M46.2408 47.1243H42.9379V50.4272H46.2408V47.1243Z" fill="#D08159"/>
<path d="M49.5437 47.1243H46.2408V50.4272H49.5437V47.1243Z" fill="#D08159"/>
<path d="M52.8466 47.1243H49.5437V50.4272H52.8466V47.1243Z" fill="#D08159"/>
<path d="M56.1495 47.1243H52.8466V50.4272H56.1495V47.1243Z" fill="#D08159"/>
<path d="M59.4524 47.1243H56.1495V50.4272H59.4524V47.1243Z" fill="#544E68"/>
<path d="M62.7553 47.1243H59.4524V50.4272H62.7553V47.1243Z" fill="#203C56"/>
<path d="M39.635 50.4272H36.332V53.7301H39.635V50.4272Z" fill="#203C56"/>
<path d="M42.9379 50.4272H39.635V53.7301H42.9379V50.4272Z" fill="#203C56"/>
<path d="M46.2408 50.4272H42.9379V53.7301H46.2408V50.4272Z" fill="#544E68"/>
<path d="M49.5437 50.4272H46.2408V53.7301H49.5437V50.4272Z" fill="#8D697A"/>
<path d="M52.8466 50.4272H49.5437V53.7301H52.8466V50.4272Z" fill="#D08159"/>
<path d="M56.1495 50.4272H52.8466V53.7301H56.1495V50.4272Z" fill="#D08159"/>
<path d="M59.4524 50.4272H56.1495V53.7301H59.4524V50.4272Z" fill="#544E68"/>
<path d="M62.7553 50.4272H59.4524V53.7301H62.7553V50.4272Z" fill="#203C56"/>
<path d="M46.2408 53.7301H42.9379V57.0331H46.2408V53.7301Z" fill="#203C56"/>
<path d="M49.5437 53.7301H46.2408V57.0331H49.5437V53.7301Z" fill="#203C56"/>
<path d="M52.8466 53.7301H49.5437V57.0331H52.8466V53.7301Z" fill="#544E68"/>
<path d="M56.1495 53.7301H52.8466V57.0331H56.1495V53.7301Z" fill="#8D697A"/>
<path d="M59.4524 53.7301H56.1495V57.0331H59.4524V53.7301Z" fill="#544E68"/>
<path d="M62.7553 53.7301H59.4524V57.0331H62.7553V53.7301Z" fill="#203C56"/>
<path d="M52.8466 57.0331H49.5437V60.336H52.8466V57.0331Z" fill="#203C56"/>
<path d="M56.1495 57.0331H52.8466V60.336H56.1495V57.0331Z" fill="#203C56"/>
<path d="M59.4524 57.0331H56.1495V60.336H59.4524V57.0331Z" fill="#544E68"/>
<path d="M62.7553 57.0331H59.4524V60.336H62.7553V57.0331Z" fill="#203C56"/>
<path d="M59.4524 60.336H56.1495V63.6389H59.4524V60.336Z" fill="#203C56"/>
<path d="M62.7553 60.336H59.4524V63.6389H62.7553V60.336Z" fill="#203C56"/>
</svg>
