<svg width="145" height="60" viewBox="0 0 145 60" fill="none" xmlns="http://www.w3.org/2000/svg">
<path d="M67.4 19.4V21.812H69.812V31.388H67.4V33.8H65.024V36.212H62.612V33.8H60.2V41H55.412V19.4H67.4ZM60.2 31.388H65.024V21.812H60.2V31.388ZM65.024 41V36.212H67.4V38.588H69.812V41H65.024ZM79.0086 21.812V29.012H86.2086V31.388H79.0086V38.588H88.6206V41H74.2206V19.4H88.6206V21.812H79.0086ZM106.691 24.188H101.903V21.812H97.0789V38.588H101.903V31.388H99.4909V29.012H106.691V38.588H104.279V41H94.7029V38.588H92.2909V21.812H94.7029V19.4H104.279V21.812H106.691V24.188ZM123.509 19.4V21.776H125.921V41H121.133V31.388H116.309V41H111.521V21.776H113.933V19.4H123.509ZM116.309 29.012H121.133V21.776H116.309V29.012ZM140.364 38.588V36.212H142.74V41H130.752V19.4H135.54V38.588H140.364Z" fill="#FFAA5E"/>
<path d="M12.1875 7.5H11.25V8.4375H12.1875V7.5Z" fill="#FFAA5E"/>
<path d="M13.125 7.5H12.1875V8.4375H13.125V7.5Z" fill="#FFAA5E"/>
<path d="M14.0625 7.5H13.125V8.4375H14.0625V7.5Z" fill="#FFAA5E"/>
<path d="M12.1875 8.4375H11.25V9.375H12.1875V8.4375Z" fill="#FFAA5E"/>
<path d="M14.0625 8.4375H13.125V9.375H14.0625V8.4375Z" fill="#FFAA5E"/>
<path d="M12.1875 9.375H11.25V10.3125H12.1875V9.375Z" fill="#FFAA5E"/>
<path d="M12.1875 10.3125H11.25V11.25H12.1875V10.3125Z" fill="#FFAA5E"/>
<path d="M13.125 10.3125H12.1875V11.25H13.125V10.3125Z" fill="#FFAA5E"/>
<path d="M14.0625 10.3125H13.125V11.25H14.0625V10.3125Z" fill="#FFAA5E"/>
<path d="M15 10.3125H14.0625V11.25H15V10.3125Z" fill="#FFAA5E"/>
<path d="M15.9375 10.3125H15V11.25H15.9375V10.3125Z" fill="#FFAA5E"/>
<path d="M16.875 10.3125H15.9375V11.25H16.875V10.3125Z" fill="#FFAA5E"/>
<path d="M17.8125 10.3125H16.875V11.25H17.8125V10.3125Z" fill="#FFAA5E"/>
<path d="M18.75 10.3125H17.8125V11.25H18.75V10.3125Z" fill="#FFAA5E"/>
<path d="M19.6875 10.3125H18.75V11.25H19.6875V10.3125Z" fill="#FFAA5E"/>
<path d="M20.625 10.3125H19.6875V11.25H20.625V10.3125Z" fill="#FFAA5E"/>
<path d="M21.5625 10.3125H20.625V11.25H21.5625V10.3125Z" fill="#FFAA5E"/>
<path d="M22.5 10.3125H21.5625V11.25H22.5V10.3125Z" fill="#FFAA5E"/>
<path d="M23.4375 10.3125H22.5V11.25H23.4375V10.3125Z" fill="#FFAA5E"/>
<path d="M24.375 10.3125H23.4375V11.25H24.375V10.3125Z" fill="#FFAA5E"/>
<path d="M24.375 11.25H23.4375V12.1875H24.375V11.25Z" fill="#FFAA5E"/>
<path d="M12.1875 12.1875H11.25V13.125H12.1875V12.1875Z" fill="#FFAA5E"/>
<path d="M13.125 12.1875H12.1875V13.125H13.125V12.1875Z" fill="#FFAA5E"/>
<path d="M14.0625 12.1875H13.125V13.125H14.0625V12.1875Z" fill="#FFAA5E"/>
<path d="M15 12.1875H14.0625V13.125H15V12.1875Z" fill="#FFAA5E"/>
<path d="M15.9375 12.1875H15V13.125H15.9375V12.1875Z" fill="#FFAA5E"/>
<path d="M16.875 12.1875H15.9375V13.125H16.875V12.1875Z" fill="#FFAA5E"/>
<path d="M17.8125 12.1875H16.875V13.125H17.8125V12.1875Z" fill="#FFAA5E"/>
<path d="M18.75 12.1875H17.8125V13.125H18.75V12.1875Z" fill="#FFAA5E"/>
<path d="M19.6875 12.1875H18.75V13.125H19.6875V12.1875Z" fill="#FFAA5E"/>
<path d="M20.625 12.1875H19.6875V13.125H20.625V12.1875Z" fill="#FFAA5E"/>
<path d="M21.5625 12.1875H20.625V13.125H21.5625V12.1875Z" fill="#FFAA5E"/>
<path d="M22.5 12.1875H21.5625V13.125H22.5V12.1875Z" fill="#FFAA5E"/>
<path d="M24.375 12.1875H23.4375V13.125H24.375V12.1875Z" fill="#FFAA5E"/>
<path d="M9.375 13.125H8.4375V14.0625H9.375V13.125Z" fill="#FFAA5E"/>
<path d="M10.3125 13.125H9.375V14.0625H10.3125V13.125Z" fill="#FFAA5E"/>
<path d="M12.1875 13.125H11.25V14.0625H12.1875V13.125Z" fill="#FFAA5E"/>
<path d="M22.5 13.125H21.5625V14.0625H22.5V13.125Z" fill="#FFAA5E"/>
<path d="M24.375 13.125H23.4375V14.0625H24.375V13.125Z" fill="#FFAA5E"/>
<path d="M25.3125 13.125H24.375V14.0625H25.3125V13.125Z" fill="#FFAA5E"/>
<path d="M26.25 13.125H25.3125V14.0625H26.25V13.125Z" fill="#FFAA5E"/>
<path d="M27.1875 13.125H26.25V14.0625H27.1875V13.125Z" fill="#FFAA5E"/>
<path d="M28.125 13.125H27.1875V14.0625H28.125V13.125Z" fill="#FFAA5E"/>
<path d="M29.0625 13.125H28.125V14.0625H29.0625V13.125Z" fill="#FFAA5E"/>
<path d="M30 13.125H29.0625V14.0625H30V13.125Z" fill="#FFAA5E"/>
<path d="M30.9375 13.125H30V14.0625H30.9375V13.125Z" fill="#FFAA5E"/>
<path d="M31.875 13.125H30.9375V14.0625H31.875V13.125Z" fill="#FFAA5E"/>
<path d="M32.8125 13.125H31.875V14.0625H32.8125V13.125Z" fill="#FFAA5E"/>
<path d="M33.75 13.125H32.8125V14.0625H33.75V13.125Z" fill="#FFAA5E"/>
<path d="M34.6875 13.125H33.75V14.0625H34.6875V13.125Z" fill="#FFAA5E"/>
<path d="M35.625 13.125H34.6875V14.0625H35.625V13.125Z" fill="#FFAA5E"/>
<path d="M36.5625 13.125H35.625V14.0625H36.5625V13.125Z" fill="#FFAA5E"/>
<path d="M37.5 13.125H36.5625V14.0625H37.5V13.125Z" fill="#FFAA5E"/>
<path d="M38.4375 13.125H37.5V14.0625H38.4375V13.125Z" fill="#FFAA5E"/>
<path d="M42.1875 13.125H41.25V14.0625H42.1875V13.125Z" fill="#FFAA5E"/>
<path d="M9.375 14.0625H8.4375V15H9.375V14.0625Z" fill="#FFAA5E"/>
<path d="M12.1875 14.0625H11.25V15H12.1875V14.0625Z" fill="#FFAA5E"/>
<path d="M14.0625 14.0625H13.125V15H14.0625V14.0625Z" fill="#FFAA5E"/>
<path d="M15 14.0625H14.0625V15H15V14.0625Z" fill="#FFAA5E"/>
<path d="M15.9375 14.0625H15V15H15.9375V14.0625Z" fill="#FFAA5E"/>
<path d="M16.875 14.0625H15.9375V15H16.875V14.0625Z" fill="#FFAA5E"/>
<path d="M17.8125 14.0625H16.875V15H17.8125V14.0625Z" fill="#FFAA5E"/>
<path d="M18.75 14.0625H17.8125V15H18.75V14.0625Z" fill="#FFAA5E"/>
<path d="M19.6875 14.0625H18.75V15H19.6875V14.0625Z" fill="#FFAA5E"/>
<path d="M20.625 14.0625H19.6875V15H20.625V14.0625Z" fill="#FFAA5E"/>
<path d="M21.5625 14.0625H20.625V15H21.5625V14.0625Z" fill="#FFAA5E"/>
<path d="M22.5 14.0625H21.5625V15H22.5V14.0625Z" fill="#FFAA5E"/>
<path d="M23.4375 14.0625H22.5V15H23.4375V14.0625Z" fill="#FFAA5E"/>
<path d="M24.375 14.0625H23.4375V15H24.375V14.0625Z" fill="#FFAA5E"/>
<path d="M25.3125 14.0625H24.375V15H25.3125V14.0625Z" fill="#FFAA5E"/>
<path d="M26.25 14.0625H25.3125V15H26.25V14.0625Z" fill="#FFAA5E"/>
<path d="M27.1875 14.0625H26.25V15H27.1875V14.0625Z" fill="#FFAA5E"/>
<path d="M28.125 14.0625H27.1875V15H28.125V14.0625Z" fill="#FFAA5E"/>
<path d="M29.0625 14.0625H28.125V15H29.0625V14.0625Z" fill="#FFAA5E"/>
<path d="M30 14.0625H29.0625V15H30V14.0625Z" fill="#FFAA5E"/>
<path d="M30.9375 14.0625H30V15H30.9375V14.0625Z" fill="#FFAA5E"/>
<path d="M31.875 14.0625H30.9375V15H31.875V14.0625Z" fill="#FFAA5E"/>
<path d="M32.8125 14.0625H31.875V15H32.8125V14.0625Z" fill="#FFAA5E"/>
<path d="M33.75 14.0625H32.8125V15H33.75V14.0625Z" fill="#FFAA5E"/>
<path d="M34.6875 14.0625H33.75V15H34.6875V14.0625Z" fill="#FFAA5E"/>
<path d="M35.625 14.0625H34.6875V15H35.625V14.0625Z" fill="#FFAA5E"/>
<path d="M36.5625 14.0625H35.625V15H36.5625V14.0625Z" fill="#FFAA5E"/>
<path d="M37.5 14.0625H36.5625V15H37.5V14.0625Z" fill="#FFAA5E"/>
<path d="M38.4375 14.0625H37.5V15H38.4375V14.0625Z" fill="#FFAA5E"/>
<path d="M41.25 14.0625H40.3125V15H41.25V14.0625Z" fill="#FFAA5E"/>
<path d="M42.1875 14.0625H41.25V15H42.1875V14.0625Z" fill="#FFAA5E"/>
<path d="M9.375 15H8.4375V15.9375H9.375V15Z" fill="#FFAA5E"/>
<path d="M10.3125 15H9.375V15.9375H10.3125V15Z" fill="#FFAA5E"/>
<path d="M11.25 15H10.3125V15.9375H11.25V15Z" fill="#FFAA5E"/>
<path d="M12.1875 15H11.25V15.9375H12.1875V15Z" fill="#FFAA5E"/>
<path d="M14.0625 15H13.125V15.9375H14.0625V15Z" fill="#FFAA5E"/>
<path d="M21.5625 15H20.625V15.9375H21.5625V15Z" fill="#FFAA5E"/>
<path d="M22.5 15H21.5625V15.9375H22.5V15Z" fill="#FFAA5E"/>
<path d="M23.4375 15H22.5V15.9375H23.4375V15Z" fill="#FFAA5E"/>
<path d="M24.375 15H23.4375V15.9375H24.375V15Z" fill="#FFAA5E"/>
<path d="M25.3125 15H24.375V15.9375H25.3125V15Z" fill="#FFAA5E"/>
<path d="M26.25 15H25.3125V15.9375H26.25V15Z" fill="#FFAA5E"/>
<path d="M27.1875 15H26.25V15.9375H27.1875V15Z" fill="#FFAA5E"/>
<path d="M28.125 15H27.1875V15.9375H28.125V15Z" fill="#FFAA5E"/>
<path d="M29.0625 15H28.125V15.9375H29.0625V15Z" fill="#FFAA5E"/>
<path d="M30 15H29.0625V15.9375H30V15Z" fill="#FFAA5E"/>
<path d="M30.9375 15H30V15.9375H30.9375V15Z" fill="#FFAA5E"/>
<path d="M31.875 15H30.9375V15.9375H31.875V15Z" fill="#FFAA5E"/>
<path d="M32.8125 15H31.875V15.9375H32.8125V15Z" fill="#FFAA5E"/>
<path d="M33.75 15H32.8125V15.9375H33.75V15Z" fill="#FFAA5E"/>
<path d="M34.6875 15H33.75V15.9375H34.6875V15Z" fill="#FFAA5E"/>
<path d="M35.625 15H34.6875V15.9375H35.625V15Z" fill="#FFAA5E"/>
<path d="M36.5625 15H35.625V15.9375H36.5625V15Z" fill="#FFAA5E"/>
<path d="M37.5 15H36.5625V15.9375H37.5V15Z" fill="#FFAA5E"/>
<path d="M38.4375 15H37.5V15.9375H38.4375V15Z" fill="#FFAA5E"/>
<path d="M40.3125 15H39.375V15.9375H40.3125V15Z" fill="#FFAA5E"/>
<path d="M41.25 15H40.3125V15.9375H41.25V15Z" fill="#FFAA5E"/>
<path d="M42.1875 15H41.25V15.9375H42.1875V15Z" fill="#FFAA5E"/>
<path d="M14.0625 15.9375H13.125V16.875H14.0625V15.9375Z" fill="#FFAA5E"/>
<path d="M15.9375 15.9375H15V16.875H15.9375V15.9375Z" fill="#FFAA5E"/>
<path d="M16.875 15.9375H15.9375V16.875H16.875V15.9375Z" fill="#FFAA5E"/>
<path d="M17.8125 15.9375H16.875V16.875H17.8125V15.9375Z" fill="#FFAA5E"/>
<path d="M18.75 15.9375H17.8125V16.875H18.75V15.9375Z" fill="#FFAA5E"/>
<path d="M19.6875 15.9375H18.75V16.875H19.6875V15.9375Z" fill="#FFAA5E"/>
<path d="M20.625 15.9375H19.6875V16.875H20.625V15.9375Z" fill="#FFAA5E"/>
<path d="M21.5625 15.9375H20.625V16.875H21.5625V15.9375Z" fill="#FFAA5E"/>
<path d="M22.5 15.9375H21.5625V16.875H22.5V15.9375Z" fill="#FFAA5E"/>
<path d="M23.4375 15.9375H22.5V16.875H23.4375V15.9375Z" fill="#FFAA5E"/>
<path d="M24.375 15.9375H23.4375V16.875H24.375V15.9375Z" fill="#FFAA5E"/>
<path d="M25.3125 15.9375H24.375V16.875H25.3125V15.9375Z" fill="#FFAA5E"/>
<path d="M26.25 15.9375H25.3125V16.875H26.25V15.9375Z" fill="#FFAA5E"/>
<path d="M27.1875 15.9375H26.25V16.875H27.1875V15.9375Z" fill="#FFAA5E"/>
<path d="M28.125 15.9375H27.1875V16.875H28.125V15.9375Z" fill="#FFAA5E"/>
<path d="M29.0625 15.9375H28.125V16.875H29.0625V15.9375Z" fill="#FFAA5E"/>
<path d="M30 15.9375H29.0625V16.875H30V15.9375Z" fill="#FFAA5E"/>
<path d="M30.9375 15.9375H30V16.875H30.9375V15.9375Z" fill="#FFAA5E"/>
<path d="M31.875 15.9375H30.9375V16.875H31.875V15.9375Z" fill="#FFAA5E"/>
<path d="M32.8125 15.9375H31.875V16.875H32.8125V15.9375Z" fill="#FFAA5E"/>
<path d="M33.75 15.9375H32.8125V16.875H33.75V15.9375Z" fill="#FFAA5E"/>
<path d="M34.6875 15.9375H33.75V16.875H34.6875V15.9375Z" fill="#FFAA5E"/>
<path d="M35.625 15.9375H34.6875V16.875H35.625V15.9375Z" fill="#FFAA5E"/>
<path d="M36.5625 15.9375H35.625V16.875H36.5625V15.9375Z" fill="#FFAA5E"/>
<path d="M37.5 15.9375H36.5625V16.875H37.5V15.9375Z" fill="#FFAA5E"/>
<path d="M38.4375 15.9375H37.5V16.875H38.4375V15.9375Z" fill="#FFAA5E"/>
<path d="M39.375 15.9375H38.4375V16.875H39.375V15.9375Z" fill="#FFAA5E"/>
<path d="M40.3125 15.9375H39.375V16.875H40.3125V15.9375Z" fill="#FFAA5E"/>
<path d="M41.25 15.9375H40.3125V16.875H41.25V15.9375Z" fill="#FFAA5E"/>
<path d="M42.1875 15.9375H41.25V16.875H42.1875V15.9375Z" fill="#FFAA5E"/>
<path d="M11.25 16.875H10.3125V17.8125H11.25V16.875Z" fill="#FFAA5E"/>
<path d="M12.1875 16.875H11.25V17.8125H12.1875V16.875Z" fill="#FFAA5E"/>
<path d="M14.0625 16.875H13.125V17.8125H14.0625V16.875Z" fill="#FFAA5E"/>
<path d="M15.9375 16.875H15V17.8125H15.9375V16.875Z" fill="#FFAA5E"/>
<path d="M20.625 16.875H19.6875V17.8125H20.625V16.875Z" fill="#FFAA5E"/>
<path d="M21.5625 16.875H20.625V17.8125H21.5625V16.875Z" fill="#FFAA5E"/>
<path d="M22.5 16.875H21.5625V17.8125H22.5V16.875Z" fill="#FFAA5E"/>
<path d="M23.4375 16.875H22.5V17.8125H23.4375V16.875Z" fill="#FFAA5E"/>
<path d="M24.375 16.875H23.4375V17.8125H24.375V16.875Z" fill="#FFAA5E"/>
<path d="M25.3125 16.875H24.375V17.8125H25.3125V16.875Z" fill="#FFAA5E"/>
<path d="M26.25 16.875H25.3125V17.8125H26.25V16.875Z" fill="#FFAA5E"/>
<path d="M27.1875 16.875H26.25V17.8125H27.1875V16.875Z" fill="#FFAA5E"/>
<path d="M28.125 16.875H27.1875V17.8125H28.125V16.875Z" fill="#FFAA5E"/>
<path d="M29.0625 16.875H28.125V17.8125H29.0625V16.875Z" fill="#FFAA5E"/>
<path d="M30 16.875H29.0625V17.8125H30V16.875Z" fill="#FFAA5E"/>
<path d="M30.9375 16.875H30V17.8125H30.9375V16.875Z" fill="#FFAA5E"/>
<path d="M31.875 16.875H30.9375V17.8125H31.875V16.875Z" fill="#FFAA5E"/>
<path d="M32.8125 16.875H31.875V17.8125H32.8125V16.875Z" fill="#FFAA5E"/>
<path d="M33.75 16.875H32.8125V17.8125H33.75V16.875Z" fill="#FFAA5E"/>
<path d="M34.6875 16.875H33.75V17.8125H34.6875V16.875Z" fill="#FFAA5E"/>
<path d="M35.625 16.875H34.6875V17.8125H35.625V16.875Z" fill="#FFAA5E"/>
<path d="M36.5625 16.875H35.625V17.8125H36.5625V16.875Z" fill="#FFAA5E"/>
<path d="M37.5 16.875H36.5625V17.8125H37.5V16.875Z" fill="#FFAA5E"/>
<path d="M38.4375 16.875H37.5V17.8125H38.4375V16.875Z" fill="#FFAA5E"/>
<path d="M39.375 16.875H38.4375V17.8125H39.375V16.875Z" fill="#FFAA5E"/>
<path d="M40.3125 16.875H39.375V17.8125H40.3125V16.875Z" fill="#FFAA5E"/>
<path d="M41.25 16.875H40.3125V17.8125H41.25V16.875Z" fill="#FFAA5E"/>
<path d="M42.1875 16.875H41.25V17.8125H42.1875V16.875Z" fill="#FFAA5E"/>
<path d="M11.25 17.8125H10.3125V18.75H11.25V17.8125Z" fill="#FFAA5E"/>
<path d="M14.0625 17.8125H13.125V18.75H14.0625V17.8125Z" fill="#FFAA5E"/>
<path d="M15.9375 17.8125H15V18.75H15.9375V17.8125Z" fill="#FFAA5E"/>
<path d="M17.8125 17.8125H16.875V18.75H17.8125V17.8125Z" fill="#FFAA5E"/>
<path d="M18.75 17.8125H17.8125V18.75H18.75V17.8125Z" fill="#FFAA5E"/>
<path d="M19.6875 17.8125H18.75V18.75H19.6875V17.8125Z" fill="#FFAA5E"/>
<path d="M20.625 17.8125H19.6875V18.75H20.625V17.8125Z" fill="#FFAA5E"/>
<path d="M21.5625 17.8125H20.625V18.75H21.5625V17.8125Z" fill="#FFAA5E"/>
<path d="M22.5 17.8125H21.5625V18.75H22.5V17.8125Z" fill="#FFAA5E"/>
<path d="M23.4375 17.8125H22.5V18.75H23.4375V17.8125Z" fill="#FFAA5E"/>
<path d="M24.375 17.8125H23.4375V18.75H24.375V17.8125Z" fill="#FFAA5E"/>
<path d="M25.3125 17.8125H24.375V18.75H25.3125V17.8125Z" fill="#FFAA5E"/>
<path d="M26.25 17.8125H25.3125V18.75H26.25V17.8125Z" fill="#FFAA5E"/>
<path d="M27.1875 17.8125H26.25V18.75H27.1875V17.8125Z" fill="#FFAA5E"/>
<path d="M28.125 17.8125H27.1875V18.75H28.125V17.8125Z" fill="#FFAA5E"/>
<path d="M29.0625 17.8125H28.125V18.75H29.0625V17.8125Z" fill="#FFAA5E"/>
<path d="M30 17.8125H29.0625V18.75H30V17.8125Z" fill="#FFAA5E"/>
<path d="M30.9375 17.8125H30V18.75H30.9375V17.8125Z" fill="#FFAA5E"/>
<path d="M31.875 17.8125H30.9375V18.75H31.875V17.8125Z" fill="#FFAA5E"/>
<path d="M32.8125 17.8125H31.875V18.75H32.8125V17.8125Z" fill="#FFAA5E"/>
<path d="M33.75 17.8125H32.8125V18.75H33.75V17.8125Z" fill="#FFAA5E"/>
<path d="M34.6875 17.8125H33.75V18.75H34.6875V17.8125Z" fill="#FFAA5E"/>
<path d="M35.625 17.8125H34.6875V18.75H35.625V17.8125Z" fill="#FFAA5E"/>
<path d="M36.5625 17.8125H35.625V18.75H36.5625V17.8125Z" fill="#FFAA5E"/>
<path d="M37.5 17.8125H36.5625V18.75H37.5V17.8125Z" fill="#FFAA5E"/>
<path d="M38.4375 17.8125H37.5V18.75H38.4375V17.8125Z" fill="#FFAA5E"/>
<path d="M39.375 17.8125H38.4375V18.75H39.375V17.8125Z" fill="#FFAA5E"/>
<path d="M40.3125 17.8125H39.375V18.75H40.3125V17.8125Z" fill="#FFAA5E"/>
<path d="M41.25 17.8125H40.3125V18.75H41.25V17.8125Z" fill="#FFAA5E"/>
<path d="M42.1875 17.8125H41.25V18.75H42.1875V17.8125Z" fill="#FFAA5E"/>
<path d="M11.25 18.75H10.3125V19.6875H11.25V18.75Z" fill="#FFAA5E"/>
<path d="M12.1875 18.75H11.25V19.6875H12.1875V18.75Z" fill="#FFAA5E"/>
<path d="M13.125 18.75H12.1875V19.6875H13.125V18.75Z" fill="#FFAA5E"/>
<path d="M14.0625 18.75H13.125V19.6875H14.0625V18.75Z" fill="#FFAA5E"/>
<path d="M15.9375 18.75H15V19.6875H15.9375V18.75Z" fill="#FFAA5E"/>
<path d="M17.8125 18.75H16.875V19.6875H17.8125V18.75Z" fill="#FFAA5E"/>
<path d="M19.6875 18.75H18.75V19.6875H19.6875V18.75Z" fill="#FFAA5E"/>
<path d="M20.625 18.75H19.6875V19.6875H20.625V18.75Z" fill="#FFAA5E"/>
<path d="M21.5625 18.75H20.625V19.6875H21.5625V18.75Z" fill="#FFAA5E"/>
<path d="M22.5 18.75H21.5625V19.6875H22.5V18.75Z" fill="#FFAA5E"/>
<path d="M23.4375 18.75H22.5V19.6875H23.4375V18.75Z" fill="#FFAA5E"/>
<path d="M24.375 18.75H23.4375V19.6875H24.375V18.75Z" fill="#FFAA5E"/>
<path d="M25.3125 18.75H24.375V19.6875H25.3125V18.75Z" fill="#FFAA5E"/>
<path d="M26.25 18.75H25.3125V19.6875H26.25V18.75Z" fill="#FFAA5E"/>
<path d="M27.1875 18.75H26.25V19.6875H27.1875V18.75Z" fill="#FFAA5E"/>
<path d="M28.125 18.75H27.1875V19.6875H28.125V18.75Z" fill="#FFAA5E"/>
<path d="M29.0625 18.75H28.125V19.6875H29.0625V18.75Z" fill="#FFAA5E"/>
<path d="M30 18.75H29.0625V19.6875H30V18.75Z" fill="#FFAA5E"/>
<path d="M30.9375 18.75H30V19.6875H30.9375V18.75Z" fill="#FFAA5E"/>
<path d="M31.875 18.75H30.9375V19.6875H31.875V18.75Z" fill="#FFAA5E"/>
<path d="M32.8125 18.75H31.875V19.6875H32.8125V18.75Z" fill="#FFAA5E"/>
<path d="M33.75 18.75H32.8125V19.6875H33.75V18.75Z" fill="#FFAA5E"/>
<path d="M34.6875 18.75H33.75V19.6875H34.6875V18.75Z" fill="#FFAA5E"/>
<path d="M35.625 18.75H34.6875V19.6875H35.625V18.75Z" fill="#FFAA5E"/>
<path d="M36.5625 18.75H35.625V19.6875H36.5625V18.75Z" fill="#FFAA5E"/>
<path d="M37.5 18.75H36.5625V19.6875H37.5V18.75Z" fill="#FFAA5E"/>
<path d="M38.4375 18.75H37.5V19.6875H38.4375V18.75Z" fill="#FFAA5E"/>
<path d="M39.375 18.75H38.4375V19.6875H39.375V18.75Z" fill="#FFAA5E"/>
<path d="M40.3125 18.75H39.375V19.6875H40.3125V18.75Z" fill="#FFAA5E"/>
<path d="M41.25 18.75H40.3125V19.6875H41.25V18.75Z" fill="#FFAA5E"/>
<path d="M42.1875 18.75H41.25V19.6875H42.1875V18.75Z" fill="#FFAA5E"/>
<path d="M15.9375 19.6875H15V20.625H15.9375V19.6875Z" fill="#FFAA5E"/>
<path d="M17.8125 19.6875H16.875V20.625H17.8125V19.6875Z" fill="#FFAA5E"/>
<path d="M19.6875 19.6875H18.75V20.625H19.6875V19.6875Z" fill="#FFAA5E"/>
<path d="M20.625 19.6875H19.6875V20.625H20.625V19.6875Z" fill="#FFAA5E"/>
<path d="M21.5625 19.6875H20.625V20.625H21.5625V19.6875Z" fill="#FFAA5E"/>
<path d="M22.5 19.6875H21.5625V20.625H22.5V19.6875Z" fill="#FFAA5E"/>
<path d="M23.4375 19.6875H22.5V20.625H23.4375V19.6875Z" fill="#FFAA5E"/>
<path d="M24.375 19.6875H23.4375V20.625H24.375V19.6875Z" fill="#FFAA5E"/>
<path d="M25.3125 19.6875H24.375V20.625H25.3125V19.6875Z" fill="#FFAA5E"/>
<path d="M26.25 19.6875H25.3125V20.625H26.25V19.6875Z" fill="#FFAA5E"/>
<path d="M27.1875 19.6875H26.25V20.625H27.1875V19.6875Z" fill="#FFAA5E"/>
<path d="M28.125 19.6875H27.1875V20.625H28.125V19.6875Z" fill="#FFAA5E"/>
<path d="M29.0625 19.6875H28.125V20.625H29.0625V19.6875Z" fill="#FFAA5E"/>
<path d="M30 19.6875H29.0625V20.625H30V19.6875Z" fill="#FFAA5E"/>
<path d="M30.9375 19.6875H30V20.625H30.9375V19.6875Z" fill="#FFAA5E"/>
<path d="M31.875 19.6875H30.9375V20.625H31.875V19.6875Z" fill="#FFAA5E"/>
<path d="M32.8125 19.6875H31.875V20.625H32.8125V19.6875Z" fill="#FFAA5E"/>
<path d="M33.75 19.6875H32.8125V20.625H33.75V19.6875Z" fill="#FFAA5E"/>
<path d="M34.6875 19.6875H33.75V20.625H34.6875V19.6875Z" fill="#FFAA5E"/>
<path d="M36.5625 19.6875H35.625V20.625H36.5625V19.6875Z" fill="#FFAA5E"/>
<path d="M37.5 19.6875H36.5625V20.625H37.5V19.6875Z" fill="#FFAA5E"/>
<path d="M38.4375 19.6875H37.5V20.625H38.4375V19.6875Z" fill="#FFAA5E"/>
<path d="M39.375 19.6875H38.4375V20.625H39.375V19.6875Z" fill="#FFAA5E"/>
<path d="M40.3125 19.6875H39.375V20.625H40.3125V19.6875Z" fill="#FFAA5E"/>
<path d="M41.25 19.6875H40.3125V20.625H41.25V19.6875Z" fill="#FFAA5E"/>
<path d="M42.1875 19.6875H41.25V20.625H42.1875V19.6875Z" fill="#FFAA5E"/>
<path d="M13.125 20.625H12.1875V21.5625H13.125V20.625Z" fill="#FFAA5E"/>
<path d="M14.0625 20.625H13.125V21.5625H14.0625V20.625Z" fill="#FFAA5E"/>
<path d="M15.9375 20.625H15V21.5625H15.9375V20.625Z" fill="#FFAA5E"/>
<path d="M17.8125 20.625H16.875V21.5625H17.8125V20.625Z" fill="#FFAA5E"/>
<path d="M19.6875 20.625H18.75V21.5625H19.6875V20.625Z" fill="#FFAA5E"/>
<path d="M20.625 20.625H19.6875V21.5625H20.625V20.625Z" fill="#FFAA5E"/>
<path d="M21.5625 20.625H20.625V21.5625H21.5625V20.625Z" fill="#FFAA5E"/>
<path d="M22.5 20.625H21.5625V21.5625H22.5V20.625Z" fill="#FFAA5E"/>
<path d="M23.4375 20.625H22.5V21.5625H23.4375V20.625Z" fill="#FFAA5E"/>
<path d="M24.375 20.625H23.4375V21.5625H24.375V20.625Z" fill="#FFAA5E"/>
<path d="M25.3125 20.625H24.375V21.5625H25.3125V20.625Z" fill="#FFAA5E"/>
<path d="M26.25 20.625H25.3125V21.5625H26.25V20.625Z" fill="#FFAA5E"/>
<path d="M27.1875 20.625H26.25V21.5625H27.1875V20.625Z" fill="#FFAA5E"/>
<path d="M28.125 20.625H27.1875V21.5625H28.125V20.625Z" fill="#FFAA5E"/>
<path d="M29.0625 20.625H28.125V21.5625H29.0625V20.625Z" fill="#FFAA5E"/>
<path d="M30 20.625H29.0625V21.5625H30V20.625Z" fill="#FFAA5E"/>
<path d="M30.9375 20.625H30V21.5625H30.9375V20.625Z" fill="#FFAA5E"/>
<path d="M31.875 20.625H30.9375V21.5625H31.875V20.625Z" fill="#FFAA5E"/>
<path d="M32.8125 20.625H31.875V21.5625H32.8125V20.625Z" fill="#FFAA5E"/>
<path d="M33.75 20.625H32.8125V21.5625H33.75V20.625Z" fill="#FFAA5E"/>
<path d="M34.6875 20.625H33.75V21.5625H34.6875V20.625Z" fill="#FFAA5E"/>
<path d="M36.5625 20.625H35.625V21.5625H36.5625V20.625Z" fill="#FFAA5E"/>
<path d="M38.4375 20.625H37.5V21.5625H38.4375V20.625Z" fill="#FFAA5E"/>
<path d="M39.375 20.625H38.4375V21.5625H39.375V20.625Z" fill="#FFAA5E"/>
<path d="M40.3125 20.625H39.375V21.5625H40.3125V20.625Z" fill="#FFAA5E"/>
<path d="M41.25 20.625H40.3125V21.5625H41.25V20.625Z" fill="#FFAA5E"/>
<path d="M42.1875 20.625H41.25V21.5625H42.1875V20.625Z" fill="#FFAA5E"/>
<path d="M13.125 21.5625H12.1875V22.5H13.125V21.5625Z" fill="#FFAA5E"/>
<path d="M15.9375 21.5625H15V22.5H15.9375V21.5625Z" fill="#FFAA5E"/>
<path d="M17.8125 21.5625H16.875V22.5H17.8125V21.5625Z" fill="#FFAA5E"/>
<path d="M19.6875 21.5625H18.75V22.5H19.6875V21.5625Z" fill="#FFAA5E"/>
<path d="M20.625 21.5625H19.6875V22.5H20.625V21.5625Z" fill="#FFAA5E"/>
<path d="M21.5625 21.5625H20.625V22.5H21.5625V21.5625Z" fill="#FFAA5E"/>
<path d="M22.5 21.5625H21.5625V22.5H22.5V21.5625Z" fill="#FFAA5E"/>
<path d="M23.4375 21.5625H22.5V22.5H23.4375V21.5625Z" fill="#FFAA5E"/>
<path d="M24.375 21.5625H23.4375V22.5H24.375V21.5625Z" fill="#FFAA5E"/>
<path d="M25.3125 21.5625H24.375V22.5H25.3125V21.5625Z" fill="#FFAA5E"/>
<path d="M26.25 21.5625H25.3125V22.5H26.25V21.5625Z" fill="#FFAA5E"/>
<path d="M27.1875 21.5625H26.25V22.5H27.1875V21.5625Z" fill="#FFAA5E"/>
<path d="M28.125 21.5625H27.1875V22.5H28.125V21.5625Z" fill="#FFAA5E"/>
<path d="M29.0625 21.5625H28.125V22.5H29.0625V21.5625Z" fill="#FFAA5E"/>
<path d="M30 21.5625H29.0625V22.5H30V21.5625Z" fill="#FFAA5E"/>
<path d="M30.9375 21.5625H30V22.5H30.9375V21.5625Z" fill="#FFAA5E"/>
<path d="M31.875 21.5625H30.9375V22.5H31.875V21.5625Z" fill="#FFAA5E"/>
<path d="M32.8125 21.5625H31.875V22.5H32.8125V21.5625Z" fill="#FFAA5E"/>
<path d="M33.75 21.5625H32.8125V22.5H33.75V21.5625Z" fill="#FFAA5E"/>
<path d="M34.6875 21.5625H33.75V22.5H34.6875V21.5625Z" fill="#FFAA5E"/>
<path d="M36.5625 21.5625H35.625V22.5H36.5625V21.5625Z" fill="#FFAA5E"/>
<path d="M38.4375 21.5625H37.5V22.5H38.4375V21.5625Z" fill="#FFAA5E"/>
<path d="M40.3125 21.5625H39.375V22.5H40.3125V21.5625Z" fill="#FFAA5E"/>
<path d="M41.25 21.5625H40.3125V22.5H41.25V21.5625Z" fill="#FFAA5E"/>
<path d="M42.1875 21.5625H41.25V22.5H42.1875V21.5625Z" fill="#FFAA5E"/>
<path d="M13.125 22.5H12.1875V23.4375H13.125V22.5Z" fill="#FFAA5E"/>
<path d="M14.0625 22.5H13.125V23.4375H14.0625V22.5Z" fill="#FFAA5E"/>
<path d="M15 22.5H14.0625V23.4375H15V22.5Z" fill="#FFAA5E"/>
<path d="M15.9375 22.5H15V23.4375H15.9375V22.5Z" fill="#FFAA5E"/>
<path d="M17.8125 22.5H16.875V23.4375H17.8125V22.5Z" fill="#FFAA5E"/>
<path d="M19.6875 22.5H18.75V23.4375H19.6875V22.5Z" fill="#FFAA5E"/>
<path d="M20.625 22.5H19.6875V23.4375H20.625V22.5Z" fill="#FFAA5E"/>
<path d="M21.5625 22.5H20.625V23.4375H21.5625V22.5Z" fill="#FFAA5E"/>
<path d="M22.5 22.5H21.5625V23.4375H22.5V22.5Z" fill="#FFAA5E"/>
<path d="M23.4375 22.5H22.5V23.4375H23.4375V22.5Z" fill="#FFAA5E"/>
<path d="M24.375 22.5H23.4375V23.4375H24.375V22.5Z" fill="#FFAA5E"/>
<path d="M25.3125 22.5H24.375V23.4375H25.3125V22.5Z" fill="#FFAA5E"/>
<path d="M26.25 22.5H25.3125V23.4375H26.25V22.5Z" fill="#FFAA5E"/>
<path d="M27.1875 22.5H26.25V23.4375H27.1875V22.5Z" fill="#FFAA5E"/>
<path d="M28.125 22.5H27.1875V23.4375H28.125V22.5Z" fill="#FFAA5E"/>
<path d="M32.8125 22.5H31.875V23.4375H32.8125V22.5Z" fill="#FFAA5E"/>
<path d="M33.75 22.5H32.8125V23.4375H33.75V22.5Z" fill="#FFAA5E"/>
<path d="M34.6875 22.5H33.75V23.4375H34.6875V22.5Z" fill="#FFAA5E"/>
<path d="M36.5625 22.5H35.625V23.4375H36.5625V22.5Z" fill="#FFAA5E"/>
<path d="M38.4375 22.5H37.5V23.4375H38.4375V22.5Z" fill="#FFAA5E"/>
<path d="M40.3125 22.5H39.375V23.4375H40.3125V22.5Z" fill="#FFAA5E"/>
<path d="M41.25 22.5H40.3125V23.4375H41.25V22.5Z" fill="#FFAA5E"/>
<path d="M17.8125 23.4375H16.875V24.375H17.8125V23.4375Z" fill="#FFAA5E"/>
<path d="M19.6875 23.4375H18.75V24.375H19.6875V23.4375Z" fill="#FFAA5E"/>
<path d="M20.625 23.4375H19.6875V24.375H20.625V23.4375Z" fill="#FFAA5E"/>
<path d="M21.5625 23.4375H20.625V24.375H21.5625V23.4375Z" fill="#FFAA5E"/>
<path d="M22.5 23.4375H21.5625V24.375H22.5V23.4375Z" fill="#FFAA5E"/>
<path d="M23.4375 23.4375H22.5V24.375H23.4375V23.4375Z" fill="#FFAA5E"/>
<path d="M24.375 23.4375H23.4375V24.375H24.375V23.4375Z" fill="#FFAA5E"/>
<path d="M25.3125 23.4375H24.375V24.375H25.3125V23.4375Z" fill="#FFAA5E"/>
<path d="M26.25 23.4375H25.3125V24.375H26.25V23.4375Z" fill="#FFAA5E"/>
<path d="M27.1875 23.4375H26.25V24.375H27.1875V23.4375Z" fill="#FFAA5E"/>
<path d="M33.75 23.4375H32.8125V24.375H33.75V23.4375Z" fill="#FFAA5E"/>
<path d="M34.6875 23.4375H33.75V24.375H34.6875V23.4375Z" fill="#FFAA5E"/>
<path d="M35.625 23.4375H34.6875V24.375H35.625V23.4375Z" fill="#FFAA5E"/>
<path d="M36.5625 23.4375H35.625V24.375H36.5625V23.4375Z" fill="#FFAA5E"/>
<path d="M38.4375 23.4375H37.5V24.375H38.4375V23.4375Z" fill="#FFAA5E"/>
<path d="M40.3125 23.4375H39.375V24.375H40.3125V23.4375Z" fill="#FFAA5E"/>
<path d="M15 24.375H14.0625V25.3125H15V24.375Z" fill="#FFAA5E"/>
<path d="M15.9375 24.375H15V25.3125H15.9375V24.375Z" fill="#FFAA5E"/>
<path d="M17.8125 24.375H16.875V25.3125H17.8125V24.375Z" fill="#FFAA5E"/>
<path d="M19.6875 24.375H18.75V25.3125H19.6875V24.375Z" fill="#FFAA5E"/>
<path d="M20.625 24.375H19.6875V25.3125H20.625V24.375Z" fill="#FFAA5E"/>
<path d="M21.5625 24.375H20.625V25.3125H21.5625V24.375Z" fill="#FFAA5E"/>
<path d="M22.5 24.375H21.5625V25.3125H22.5V24.375Z" fill="#FFAA5E"/>
<path d="M23.4375 24.375H22.5V25.3125H23.4375V24.375Z" fill="#FFAA5E"/>
<path d="M24.375 24.375H23.4375V25.3125H24.375V24.375Z" fill="#FFAA5E"/>
<path d="M25.3125 24.375H24.375V25.3125H25.3125V24.375Z" fill="#FFAA5E"/>
<path d="M26.25 24.375H25.3125V25.3125H26.25V24.375Z" fill="#FFAA5E"/>
<path d="M34.6875 24.375H33.75V25.3125H34.6875V24.375Z" fill="#FFAA5E"/>
<path d="M35.625 24.375H34.6875V25.3125H35.625V24.375Z" fill="#FFAA5E"/>
<path d="M36.5625 24.375H35.625V25.3125H36.5625V24.375Z" fill="#FFAA5E"/>
<path d="M38.4375 24.375H37.5V25.3125H38.4375V24.375Z" fill="#FFAA5E"/>
<path d="M40.3125 24.375H39.375V25.3125H40.3125V24.375Z" fill="#FFAA5E"/>
<path d="M15 25.3125H14.0625V26.25H15V25.3125Z" fill="#FFAA5E"/>
<path d="M17.8125 25.3125H16.875V26.25H17.8125V25.3125Z" fill="#FFAA5E"/>
<path d="M19.6875 25.3125H18.75V26.25H19.6875V25.3125Z" fill="#FFAA5E"/>
<path d="M20.625 25.3125H19.6875V26.25H20.625V25.3125Z" fill="#FFAA5E"/>
<path d="M21.5625 25.3125H20.625V26.25H21.5625V25.3125Z" fill="#FFAA5E"/>
<path d="M22.5 25.3125H21.5625V26.25H22.5V25.3125Z" fill="#FFAA5E"/>
<path d="M23.4375 25.3125H22.5V26.25H23.4375V25.3125Z" fill="#FFAA5E"/>
<path d="M24.375 25.3125H23.4375V26.25H24.375V25.3125Z" fill="#FFAA5E"/>
<path d="M25.3125 25.3125H24.375V26.25H25.3125V25.3125Z" fill="#FFAA5E"/>
<path d="M35.625 25.3125H34.6875V26.25H35.625V25.3125Z" fill="#FFAA5E"/>
<path d="M36.5625 25.3125H35.625V26.25H36.5625V25.3125Z" fill="#FFAA5E"/>
<path d="M37.5 25.3125H36.5625V26.25H37.5V25.3125Z" fill="#FFAA5E"/>
<path d="M38.4375 25.3125H37.5V26.25H38.4375V25.3125Z" fill="#FFAA5E"/>
<path d="M40.3125 25.3125H39.375V26.25H40.3125V25.3125Z" fill="#FFAA5E"/>
<path d="M15 26.25H14.0625V27.1875H15V26.25Z" fill="#FFAA5E"/>
<path d="M15.9375 26.25H15V27.1875H15.9375V26.25Z" fill="#FFAA5E"/>
<path d="M16.875 26.25H15.9375V27.1875H16.875V26.25Z" fill="#FFAA5E"/>
<path d="M17.8125 26.25H16.875V27.1875H17.8125V26.25Z" fill="#FFAA5E"/>
<path d="M19.6875 26.25H18.75V27.1875H19.6875V26.25Z" fill="#FFAA5E"/>
<path d="M20.625 26.25H19.6875V27.1875H20.625V26.25Z" fill="#FFAA5E"/>
<path d="M21.5625 26.25H20.625V27.1875H21.5625V26.25Z" fill="#FFAA5E"/>
<path d="M22.5 26.25H21.5625V27.1875H22.5V26.25Z" fill="#FFAA5E"/>
<path d="M23.4375 26.25H22.5V27.1875H23.4375V26.25Z" fill="#FFAA5E"/>
<path d="M24.375 26.25H23.4375V27.1875H24.375V26.25Z" fill="#FFAA5E"/>
<path d="M25.3125 26.25H24.375V27.1875H25.3125V26.25Z" fill="#FFAA5E"/>
<path d="M36.5625 26.25H35.625V27.1875H36.5625V26.25Z" fill="#FFAA5E"/>
<path d="M37.5 26.25H36.5625V27.1875H37.5V26.25Z" fill="#FFAA5E"/>
<path d="M38.4375 26.25H37.5V27.1875H38.4375V26.25Z" fill="#FFAA5E"/>
<path d="M39.375 26.25H38.4375V27.1875H39.375V26.25Z" fill="#FFAA5E"/>
<path d="M40.3125 26.25H39.375V27.1875H40.3125V26.25Z" fill="#FFAA5E"/>
<path d="M19.6875 27.1875H18.75V28.125H19.6875V27.1875Z" fill="#FFAA5E"/>
<path d="M20.625 27.1875H19.6875V28.125H20.625V27.1875Z" fill="#FFAA5E"/>
<path d="M21.5625 27.1875H20.625V28.125H21.5625V27.1875Z" fill="#FFAA5E"/>
<path d="M22.5 27.1875H21.5625V28.125H22.5V27.1875Z" fill="#FFAA5E"/>
<path d="M23.4375 27.1875H22.5V28.125H23.4375V27.1875Z" fill="#FFAA5E"/>
<path d="M24.375 27.1875H23.4375V28.125H24.375V27.1875Z" fill="#FFAA5E"/>
<path d="M25.3125 27.1875H24.375V28.125H25.3125V27.1875Z" fill="#FFAA5E"/>
<path d="M37.5 27.1875H36.5625V28.125H37.5V27.1875Z" fill="#FFAA5E"/>
<path d="M38.4375 27.1875H37.5V28.125H38.4375V27.1875Z" fill="#FFAA5E"/>
<path d="M39.375 27.1875H38.4375V28.125H39.375V27.1875Z" fill="#FFAA5E"/>
<path d="M40.3125 27.1875H39.375V28.125H40.3125V27.1875Z" fill="#FFAA5E"/>
<path d="M19.6875 28.125H18.75V29.0625H19.6875V28.125Z" fill="#FFAA5E"/>
<path d="M20.625 28.125H19.6875V29.0625H20.625V28.125Z" fill="#FFAA5E"/>
<path d="M21.5625 28.125H20.625V29.0625H21.5625V28.125Z" fill="#FFAA5E"/>
<path d="M22.5 28.125H21.5625V29.0625H22.5V28.125Z" fill="#FFAA5E"/>
<path d="M23.4375 28.125H22.5V29.0625H23.4375V28.125Z" fill="#FFAA5E"/>
<path d="M24.375 28.125H23.4375V29.0625H24.375V28.125Z" fill="#FFAA5E"/>
<path d="M25.3125 28.125H24.375V29.0625H25.3125V28.125Z" fill="#FFAA5E"/>
<path d="M38.4375 28.125H37.5V29.0625H38.4375V28.125Z" fill="#FFAA5E"/>
<path d="M39.375 28.125H38.4375V29.0625H39.375V28.125Z" fill="#FFAA5E"/>
<path d="M40.3125 28.125H39.375V29.0625H40.3125V28.125Z" fill="#FFAA5E"/>
<path d="M19.6875 29.0625H18.75V30H19.6875V29.0625Z" fill="#FFAA5E"/>
<path d="M20.625 29.0625H19.6875V30H20.625V29.0625Z" fill="#FFAA5E"/>
<path d="M21.5625 29.0625H20.625V30H21.5625V29.0625Z" fill="#FFAA5E"/>
<path d="M22.5 29.0625H21.5625V30H22.5V29.0625Z" fill="#FFAA5E"/>
<path d="M23.4375 29.0625H22.5V30H23.4375V29.0625Z" fill="#FFAA5E"/>
<path d="M24.375 29.0625H23.4375V30H24.375V29.0625Z" fill="#FFAA5E"/>
<path d="M25.3125 29.0625H24.375V30H25.3125V29.0625Z" fill="#FFAA5E"/>
<path d="M26.25 29.0625H25.3125V30H26.25V29.0625Z" fill="#FFAA5E"/>
<path d="M39.375 29.0625H38.4375V30H39.375V29.0625Z" fill="#FFAA5E"/>
<path d="M40.3125 29.0625H39.375V30H40.3125V29.0625Z" fill="#FFAA5E"/>
<path d="M19.6875 30H18.75V30.9375H19.6875V30Z" fill="#FFAA5E"/>
<path d="M20.625 30H19.6875V30.9375H20.625V30Z" fill="#FFAA5E"/>
<path d="M21.5625 30H20.625V30.9375H21.5625V30Z" fill="#FFAA5E"/>
<path d="M22.5 30H21.5625V30.9375H22.5V30Z" fill="#FFAA5E"/>
<path d="M23.4375 30H22.5V30.9375H23.4375V30Z" fill="#FFAA5E"/>
<path d="M24.375 30H23.4375V30.9375H24.375V30Z" fill="#FFAA5E"/>
<path d="M25.3125 30H24.375V30.9375H25.3125V30Z" fill="#FFAA5E"/>
<path d="M26.25 30H25.3125V30.9375H26.25V30Z" fill="#FFAA5E"/>
<path d="M27.1875 30H26.25V30.9375H27.1875V30Z" fill="#FFAA5E"/>
<path d="M40.3125 30H39.375V30.9375H40.3125V30Z" fill="#FFAA5E"/>
<path d="M19.6875 30.9375H18.75V31.875H19.6875V30.9375Z" fill="#FFAA5E"/>
<path d="M20.625 30.9375H19.6875V31.875H20.625V30.9375Z" fill="#FFAA5E"/>
<path d="M21.5625 30.9375H20.625V31.875H21.5625V30.9375Z" fill="#FFAA5E"/>
<path d="M22.5 30.9375H21.5625V31.875H22.5V30.9375Z" fill="#FFAA5E"/>
<path d="M23.4375 30.9375H22.5V31.875H23.4375V30.9375Z" fill="#FFAA5E"/>
<path d="M24.375 30.9375H23.4375V31.875H24.375V30.9375Z" fill="#FFAA5E"/>
<path d="M25.3125 30.9375H24.375V31.875H25.3125V30.9375Z" fill="#FFAA5E"/>
<path d="M26.25 30.9375H25.3125V31.875H26.25V30.9375Z" fill="#FFAA5E"/>
<path d="M27.1875 30.9375H26.25V31.875H27.1875V30.9375Z" fill="#FFAA5E"/>
<path d="M28.125 30.9375H27.1875V31.875H28.125V30.9375Z" fill="#FFAA5E"/>
<path d="M19.6875 31.875H18.75V32.8125H19.6875V31.875Z" fill="#FFAA5E"/>
<path d="M20.625 31.875H19.6875V32.8125H20.625V31.875Z" fill="#FFAA5E"/>
<path d="M21.5625 31.875H20.625V32.8125H21.5625V31.875Z" fill="#FFAA5E"/>
<path d="M22.5 31.875H21.5625V32.8125H22.5V31.875Z" fill="#FFAA5E"/>
<path d="M23.4375 31.875H22.5V32.8125H23.4375V31.875Z" fill="#FFAA5E"/>
<path d="M24.375 31.875H23.4375V32.8125H24.375V31.875Z" fill="#FFAA5E"/>
<path d="M25.3125 31.875H24.375V32.8125H25.3125V31.875Z" fill="#FFAA5E"/>
<path d="M26.25 31.875H25.3125V32.8125H26.25V31.875Z" fill="#FFAA5E"/>
<path d="M27.1875 31.875H26.25V32.8125H27.1875V31.875Z" fill="#FFAA5E"/>
<path d="M28.125 31.875H27.1875V32.8125H28.125V31.875Z" fill="#FFAA5E"/>
<path d="M29.0625 31.875H28.125V32.8125H29.0625V31.875Z" fill="#FFAA5E"/>
<path d="M19.6875 32.8125H18.75V33.75H19.6875V32.8125Z" fill="#FFAA5E"/>
<path d="M20.625 32.8125H19.6875V33.75H20.625V32.8125Z" fill="#FFAA5E"/>
<path d="M21.5625 32.8125H20.625V33.75H21.5625V32.8125Z" fill="#FFAA5E"/>
<path d="M22.5 32.8125H21.5625V33.75H22.5V32.8125Z" fill="#FFAA5E"/>
<path d="M23.4375 32.8125H22.5V33.75H23.4375V32.8125Z" fill="#FFAA5E"/>
<path d="M24.375 32.8125H23.4375V33.75H24.375V32.8125Z" fill="#FFAA5E"/>
<path d="M25.3125 32.8125H24.375V33.75H25.3125V32.8125Z" fill="#FFAA5E"/>
<path d="M26.25 32.8125H25.3125V33.75H26.25V32.8125Z" fill="#FFAA5E"/>
<path d="M27.1875 32.8125H26.25V33.75H27.1875V32.8125Z" fill="#FFAA5E"/>
<path d="M28.125 32.8125H27.1875V33.75H28.125V32.8125Z" fill="#FFAA5E"/>
<path d="M29.0625 32.8125H28.125V33.75H29.0625V32.8125Z" fill="#FFAA5E"/>
<path d="M30 32.8125H29.0625V33.75H30V32.8125Z" fill="#FFAA5E"/>
<path d="M19.6875 33.75H18.75V34.6875H19.6875V33.75Z" fill="#FFAA5E"/>
<path d="M20.625 33.75H19.6875V34.6875H20.625V33.75Z" fill="#FFAA5E"/>
<path d="M21.5625 33.75H20.625V34.6875H21.5625V33.75Z" fill="#FFAA5E"/>
<path d="M22.5 33.75H21.5625V34.6875H22.5V33.75Z" fill="#FFAA5E"/>
<path d="M23.4375 33.75H22.5V34.6875H23.4375V33.75Z" fill="#FFAA5E"/>
<path d="M24.375 33.75H23.4375V34.6875H24.375V33.75Z" fill="#FFAA5E"/>
<path d="M25.3125 33.75H24.375V34.6875H25.3125V33.75Z" fill="#FFAA5E"/>
<path d="M26.25 33.75H25.3125V34.6875H26.25V33.75Z" fill="#FFAA5E"/>
<path d="M27.1875 33.75H26.25V34.6875H27.1875V33.75Z" fill="#FFAA5E"/>
<path d="M28.125 33.75H27.1875V34.6875H28.125V33.75Z" fill="#FFAA5E"/>
<path d="M29.0625 33.75H28.125V34.6875H29.0625V33.75Z" fill="#FFAA5E"/>
<path d="M30 33.75H29.0625V34.6875H30V33.75Z" fill="#FFAA5E"/>
<path d="M30.9375 33.75H30V34.6875H30.9375V33.75Z" fill="#FFAA5E"/>
<path d="M19.6875 34.6875H18.75V35.625H19.6875V34.6875Z" fill="#FFAA5E"/>
<path d="M20.625 34.6875H19.6875V35.625H20.625V34.6875Z" fill="#FFAA5E"/>
<path d="M21.5625 34.6875H20.625V35.625H21.5625V34.6875Z" fill="#FFAA5E"/>
<path d="M22.5 34.6875H21.5625V35.625H22.5V34.6875Z" fill="#FFAA5E"/>
<path d="M23.4375 34.6875H22.5V35.625H23.4375V34.6875Z" fill="#FFAA5E"/>
<path d="M24.375 34.6875H23.4375V35.625H24.375V34.6875Z" fill="#FFAA5E"/>
<path d="M25.3125 34.6875H24.375V35.625H25.3125V34.6875Z" fill="#FFAA5E"/>
<path d="M26.25 34.6875H25.3125V35.625H26.25V34.6875Z" fill="#FFAA5E"/>
<path d="M27.1875 34.6875H26.25V35.625H27.1875V34.6875Z" fill="#FFAA5E"/>
<path d="M28.125 34.6875H27.1875V35.625H28.125V34.6875Z" fill="#FFAA5E"/>
<path d="M29.0625 34.6875H28.125V35.625H29.0625V34.6875Z" fill="#FFAA5E"/>
<path d="M30 34.6875H29.0625V35.625H30V34.6875Z" fill="#FFAA5E"/>
<path d="M30.9375 34.6875H30V35.625H30.9375V34.6875Z" fill="#FFAA5E"/>
<path d="M31.875 34.6875H30.9375V35.625H31.875V34.6875Z" fill="#FFAA5E"/>
<path d="M19.6875 35.625H18.75V36.5625H19.6875V35.625Z" fill="#FFAA5E"/>
<path d="M20.625 35.625H19.6875V36.5625H20.625V35.625Z" fill="#FFAA5E"/>
<path d="M21.5625 35.625H20.625V36.5625H21.5625V35.625Z" fill="#FFAA5E"/>
<path d="M22.5 35.625H21.5625V36.5625H22.5V35.625Z" fill="#FFAA5E"/>
<path d="M23.4375 35.625H22.5V36.5625H23.4375V35.625Z" fill="#FFAA5E"/>
<path d="M24.375 35.625H23.4375V36.5625H24.375V35.625Z" fill="#FFAA5E"/>
<path d="M25.3125 35.625H24.375V36.5625H25.3125V35.625Z" fill="#FFAA5E"/>
<path d="M26.25 35.625H25.3125V36.5625H26.25V35.625Z" fill="#FFAA5E"/>
<path d="M27.1875 35.625H26.25V36.5625H27.1875V35.625Z" fill="#FFAA5E"/>
<path d="M28.125 35.625H27.1875V36.5625H28.125V35.625Z" fill="#FFAA5E"/>
<path d="M29.0625 35.625H28.125V36.5625H29.0625V35.625Z" fill="#FFAA5E"/>
<path d="M30 35.625H29.0625V36.5625H30V35.625Z" fill="#FFAA5E"/>
<path d="M30.9375 35.625H30V36.5625H30.9375V35.625Z" fill="#FFAA5E"/>
<path d="M31.875 35.625H30.9375V36.5625H31.875V35.625Z" fill="#FFAA5E"/>
<path d="M32.8125 35.625H31.875V36.5625H32.8125V35.625Z" fill="#FFAA5E"/>
<path d="M19.6875 36.5625H18.75V37.5H19.6875V36.5625Z" fill="#FFAA5E"/>
<path d="M20.625 36.5625H19.6875V37.5H20.625V36.5625Z" fill="#FFAA5E"/>
<path d="M21.5625 36.5625H20.625V37.5H21.5625V36.5625Z" fill="#FFAA5E"/>
<path d="M22.5 36.5625H21.5625V37.5H22.5V36.5625Z" fill="#FFAA5E"/>
<path d="M23.4375 36.5625H22.5V37.5H23.4375V36.5625Z" fill="#FFAA5E"/>
<path d="M24.375 36.5625H23.4375V37.5H24.375V36.5625Z" fill="#FFAA5E"/>
<path d="M25.3125 36.5625H24.375V37.5H25.3125V36.5625Z" fill="#FFAA5E"/>
<path d="M26.25 36.5625H25.3125V37.5H26.25V36.5625Z" fill="#FFAA5E"/>
<path d="M27.1875 36.5625H26.25V37.5H27.1875V36.5625Z" fill="#FFAA5E"/>
<path d="M28.125 36.5625H27.1875V37.5H28.125V36.5625Z" fill="#FFAA5E"/>
<path d="M29.0625 36.5625H28.125V37.5H29.0625V36.5625Z" fill="#FFAA5E"/>
<path d="M30 36.5625H29.0625V37.5H30V36.5625Z" fill="#FFAA5E"/>
<path d="M30.9375 36.5625H30V37.5H30.9375V36.5625Z" fill="#FFAA5E"/>
<path d="M31.875 36.5625H30.9375V37.5H31.875V36.5625Z" fill="#FFAA5E"/>
<path d="M32.8125 36.5625H31.875V37.5H32.8125V36.5625Z" fill="#FFAA5E"/>
<path d="M33.75 36.5625H32.8125V37.5H33.75V36.5625Z" fill="#FFAA5E"/>
<path d="M19.6875 37.5H18.75V38.4375H19.6875V37.5Z" fill="#FFAA5E"/>
<path d="M20.625 37.5H19.6875V38.4375H20.625V37.5Z" fill="#FFAA5E"/>
<path d="M21.5625 37.5H20.625V38.4375H21.5625V37.5Z" fill="#FFAA5E"/>
<path d="M22.5 37.5H21.5625V38.4375H22.5V37.5Z" fill="#FFAA5E"/>
<path d="M23.4375 37.5H22.5V38.4375H23.4375V37.5Z" fill="#FFAA5E"/>
<path d="M24.375 37.5H23.4375V38.4375H24.375V37.5Z" fill="#FFAA5E"/>
<path d="M25.3125 37.5H24.375V38.4375H25.3125V37.5Z" fill="#FFAA5E"/>
<path d="M26.25 37.5H25.3125V38.4375H26.25V37.5Z" fill="#FFAA5E"/>
<path d="M27.1875 37.5H26.25V38.4375H27.1875V37.5Z" fill="#FFAA5E"/>
<path d="M28.125 37.5H27.1875V38.4375H28.125V37.5Z" fill="#FFAA5E"/>
<path d="M29.0625 37.5H28.125V38.4375H29.0625V37.5Z" fill="#FFAA5E"/>
<path d="M30 37.5H29.0625V38.4375H30V37.5Z" fill="#FFAA5E"/>
<path d="M30.9375 37.5H30V38.4375H30.9375V37.5Z" fill="#FFAA5E"/>
<path d="M31.875 37.5H30.9375V38.4375H31.875V37.5Z" fill="#FFAA5E"/>
<path d="M32.8125 37.5H31.875V38.4375H32.8125V37.5Z" fill="#FFAA5E"/>
<path d="M33.75 37.5H32.8125V38.4375H33.75V37.5Z" fill="#FFAA5E"/>
<path d="M34.6875 37.5H33.75V38.4375H34.6875V37.5Z" fill="#FFAA5E"/>
<path d="M19.6875 38.4375H18.75V39.375H19.6875V38.4375Z" fill="#FFAA5E"/>
<path d="M20.625 38.4375H19.6875V39.375H20.625V38.4375Z" fill="#FFAA5E"/>
<path d="M21.5625 38.4375H20.625V39.375H21.5625V38.4375Z" fill="#FFAA5E"/>
<path d="M22.5 38.4375H21.5625V39.375H22.5V38.4375Z" fill="#FFAA5E"/>
<path d="M23.4375 38.4375H22.5V39.375H23.4375V38.4375Z" fill="#FFAA5E"/>
<path d="M24.375 38.4375H23.4375V39.375H24.375V38.4375Z" fill="#FFAA5E"/>
<path d="M25.3125 38.4375H24.375V39.375H25.3125V38.4375Z" fill="#FFAA5E"/>
<path d="M26.25 38.4375H25.3125V39.375H26.25V38.4375Z" fill="#FFAA5E"/>
<path d="M27.1875 38.4375H26.25V39.375H27.1875V38.4375Z" fill="#FFAA5E"/>
<path d="M28.125 38.4375H27.1875V39.375H28.125V38.4375Z" fill="#FFAA5E"/>
<path d="M29.0625 38.4375H28.125V39.375H29.0625V38.4375Z" fill="#FFAA5E"/>
<path d="M30 38.4375H29.0625V39.375H30V38.4375Z" fill="#FFAA5E"/>
<path d="M30.9375 38.4375H30V39.375H30.9375V38.4375Z" fill="#FFAA5E"/>
<path d="M31.875 38.4375H30.9375V39.375H31.875V38.4375Z" fill="#FFAA5E"/>
<path d="M32.8125 38.4375H31.875V39.375H32.8125V38.4375Z" fill="#FFAA5E"/>
<path d="M33.75 38.4375H32.8125V39.375H33.75V38.4375Z" fill="#FFAA5E"/>
<path d="M34.6875 38.4375H33.75V39.375H34.6875V38.4375Z" fill="#FFAA5E"/>
<path d="M35.625 38.4375H34.6875V39.375H35.625V38.4375Z" fill="#FFAA5E"/>
<path d="M19.6875 39.375H18.75V40.3125H19.6875V39.375Z" fill="#FFAA5E"/>
<path d="M20.625 39.375H19.6875V40.3125H20.625V39.375Z" fill="#FFAA5E"/>
<path d="M21.5625 39.375H20.625V40.3125H21.5625V39.375Z" fill="#FFAA5E"/>
<path d="M22.5 39.375H21.5625V40.3125H22.5V39.375Z" fill="#FFAA5E"/>
<path d="M23.4375 39.375H22.5V40.3125H23.4375V39.375Z" fill="#FFAA5E"/>
<path d="M24.375 39.375H23.4375V40.3125H24.375V39.375Z" fill="#FFAA5E"/>
<path d="M25.3125 39.375H24.375V40.3125H25.3125V39.375Z" fill="#FFAA5E"/>
<path d="M26.25 39.375H25.3125V40.3125H26.25V39.375Z" fill="#FFAA5E"/>
<path d="M27.1875 39.375H26.25V40.3125H27.1875V39.375Z" fill="#FFAA5E"/>
<path d="M28.125 39.375H27.1875V40.3125H28.125V39.375Z" fill="#FFAA5E"/>
<path d="M29.0625 39.375H28.125V40.3125H29.0625V39.375Z" fill="#FFAA5E"/>
<path d="M30 39.375H29.0625V40.3125H30V39.375Z" fill="#FFAA5E"/>
<path d="M30.9375 39.375H30V40.3125H30.9375V39.375Z" fill="#FFAA5E"/>
<path d="M31.875 39.375H30.9375V40.3125H31.875V39.375Z" fill="#FFAA5E"/>
<path d="M32.8125 39.375H31.875V40.3125H32.8125V39.375Z" fill="#FFAA5E"/>
<path d="M33.75 39.375H32.8125V40.3125H33.75V39.375Z" fill="#FFAA5E"/>
<path d="M34.6875 39.375H33.75V40.3125H34.6875V39.375Z" fill="#FFAA5E"/>
<path d="M35.625 39.375H34.6875V40.3125H35.625V39.375Z" fill="#FFAA5E"/>
<path d="M36.5625 39.375H35.625V40.3125H36.5625V39.375Z" fill="#FFAA5E"/>
<path d="M19.6875 40.3125H18.75V41.25H19.6875V40.3125Z" fill="#FFAA5E"/>
<path d="M20.625 40.3125H19.6875V41.25H20.625V40.3125Z" fill="#FFAA5E"/>
<path d="M21.5625 40.3125H20.625V41.25H21.5625V40.3125Z" fill="#FFAA5E"/>
<path d="M22.5 40.3125H21.5625V41.25H22.5V40.3125Z" fill="#FFAA5E"/>
<path d="M23.4375 40.3125H22.5V41.25H23.4375V40.3125Z" fill="#FFAA5E"/>
<path d="M24.375 40.3125H23.4375V41.25H24.375V40.3125Z" fill="#FFAA5E"/>
<path d="M25.3125 40.3125H24.375V41.25H25.3125V40.3125Z" fill="#FFAA5E"/>
<path d="M26.25 40.3125H25.3125V41.25H26.25V40.3125Z" fill="#FFAA5E"/>
<path d="M27.1875 40.3125H26.25V41.25H27.1875V40.3125Z" fill="#FFAA5E"/>
<path d="M28.125 40.3125H27.1875V41.25H28.125V40.3125Z" fill="#FFAA5E"/>
<path d="M29.0625 40.3125H28.125V41.25H29.0625V40.3125Z" fill="#FFAA5E"/>
<path d="M30 40.3125H29.0625V41.25H30V40.3125Z" fill="#FFAA5E"/>
<path d="M30.9375 40.3125H30V41.25H30.9375V40.3125Z" fill="#FFAA5E"/>
<path d="M31.875 40.3125H30.9375V41.25H31.875V40.3125Z" fill="#FFAA5E"/>
<path d="M32.8125 40.3125H31.875V41.25H32.8125V40.3125Z" fill="#FFAA5E"/>
<path d="M33.75 40.3125H32.8125V41.25H33.75V40.3125Z" fill="#FFAA5E"/>
<path d="M34.6875 40.3125H33.75V41.25H34.6875V40.3125Z" fill="#FFAA5E"/>
<path d="M35.625 40.3125H34.6875V41.25H35.625V40.3125Z" fill="#FFAA5E"/>
<path d="M36.5625 40.3125H35.625V41.25H36.5625V40.3125Z" fill="#FFAA5E"/>
<path d="M37.5 40.3125H36.5625V41.25H37.5V40.3125Z" fill="#FFAA5E"/>
<path d="M23.4375 41.25H22.5V42.1875H23.4375V41.25Z" fill="#FFAA5E"/>
<path d="M24.375 41.25H23.4375V42.1875H24.375V41.25Z" fill="#FFAA5E"/>
<path d="M25.3125 41.25H24.375V42.1875H25.3125V41.25Z" fill="#FFAA5E"/>
<path d="M26.25 41.25H25.3125V42.1875H26.25V41.25Z" fill="#FFAA5E"/>
<path d="M27.1875 41.25H26.25V42.1875H27.1875V41.25Z" fill="#FFAA5E"/>
<path d="M28.125 41.25H27.1875V42.1875H28.125V41.25Z" fill="#FFAA5E"/>
<path d="M29.0625 41.25H28.125V42.1875H29.0625V41.25Z" fill="#FFAA5E"/>
<path d="M30 41.25H29.0625V42.1875H30V41.25Z" fill="#FFAA5E"/>
<path d="M30.9375 41.25H30V42.1875H30.9375V41.25Z" fill="#FFAA5E"/>
<path d="M31.875 41.25H30.9375V42.1875H31.875V41.25Z" fill="#FFAA5E"/>
<path d="M32.8125 41.25H31.875V42.1875H32.8125V41.25Z" fill="#FFAA5E"/>
<path d="M33.75 41.25H32.8125V42.1875H33.75V41.25Z" fill="#FFAA5E"/>
<path d="M34.6875 41.25H33.75V42.1875H34.6875V41.25Z" fill="#FFAA5E"/>
<path d="M35.625 41.25H34.6875V42.1875H35.625V41.25Z" fill="#FFAA5E"/>
<path d="M36.5625 41.25H35.625V42.1875H36.5625V41.25Z" fill="#FFAA5E"/>
<path d="M37.5 41.25H36.5625V42.1875H37.5V41.25Z" fill="#FFAA5E"/>
<path d="M38.4375 41.25H37.5V42.1875H38.4375V41.25Z" fill="#FFAA5E"/>
<path d="M22.5 42.1875H21.5625V43.125H22.5V42.1875Z" fill="#FFAA5E"/>
<path d="M23.4375 42.1875H22.5V43.125H23.4375V42.1875Z" fill="#FFAA5E"/>
<path d="M24.375 42.1875H23.4375V43.125H24.375V42.1875Z" fill="#FFAA5E"/>
<path d="M25.3125 42.1875H24.375V43.125H25.3125V42.1875Z" fill="#FFAA5E"/>
<path d="M26.25 42.1875H25.3125V43.125H26.25V42.1875Z" fill="#FFAA5E"/>
<path d="M27.1875 42.1875H26.25V43.125H27.1875V42.1875Z" fill="#FFAA5E"/>
<path d="M28.125 42.1875H27.1875V43.125H28.125V42.1875Z" fill="#FFAA5E"/>
<path d="M29.0625 42.1875H28.125V43.125H29.0625V42.1875Z" fill="#FFAA5E"/>
<path d="M30 42.1875H29.0625V43.125H30V42.1875Z" fill="#FFAA5E"/>
<path d="M30.9375 42.1875H30V43.125H30.9375V42.1875Z" fill="#FFAA5E"/>
<path d="M31.875 42.1875H30.9375V43.125H31.875V42.1875Z" fill="#FFAA5E"/>
<path d="M32.8125 42.1875H31.875V43.125H32.8125V42.1875Z" fill="#FFAA5E"/>
<path d="M33.75 42.1875H32.8125V43.125H33.75V42.1875Z" fill="#FFAA5E"/>
<path d="M34.6875 42.1875H33.75V43.125H34.6875V42.1875Z" fill="#FFAA5E"/>
<path d="M35.625 42.1875H34.6875V43.125H35.625V42.1875Z" fill="#FFAA5E"/>
<path d="M36.5625 42.1875H35.625V43.125H36.5625V42.1875Z" fill="#FFAA5E"/>
<path d="M37.5 42.1875H36.5625V43.125H37.5V42.1875Z" fill="#FFAA5E"/>
<path d="M38.4375 42.1875H37.5V43.125H38.4375V42.1875Z" fill="#FFAA5E"/>
<path d="M39.375 42.1875H38.4375V43.125H39.375V42.1875Z" fill="#FFAA5E"/>
<path d="M21.5625 43.125H20.625V44.0625H21.5625V43.125Z" fill="#FFAA5E"/>
<path d="M22.5 43.125H21.5625V44.0625H22.5V43.125Z" fill="#FFAA5E"/>
<path d="M23.4375 43.125H22.5V44.0625H23.4375V43.125Z" fill="#FFAA5E"/>
<path d="M24.375 43.125H23.4375V44.0625H24.375V43.125Z" fill="#FFAA5E"/>
<path d="M25.3125 43.125H24.375V44.0625H25.3125V43.125Z" fill="#FFAA5E"/>
<path d="M26.25 43.125H25.3125V44.0625H26.25V43.125Z" fill="#FFAA5E"/>
<path d="M27.1875 43.125H26.25V44.0625H27.1875V43.125Z" fill="#FFAA5E"/>
<path d="M28.125 43.125H27.1875V44.0625H28.125V43.125Z" fill="#FFAA5E"/>
<path d="M29.0625 43.125H28.125V44.0625H29.0625V43.125Z" fill="#FFAA5E"/>
<path d="M30 43.125H29.0625V44.0625H30V43.125Z" fill="#FFAA5E"/>
<path d="M30.9375 43.125H30V44.0625H30.9375V43.125Z" fill="#FFAA5E"/>
<path d="M31.875 43.125H30.9375V44.0625H31.875V43.125Z" fill="#FFAA5E"/>
<path d="M32.8125 43.125H31.875V44.0625H32.8125V43.125Z" fill="#FFAA5E"/>
<path d="M33.75 43.125H32.8125V44.0625H33.75V43.125Z" fill="#FFAA5E"/>
<path d="M34.6875 43.125H33.75V44.0625H34.6875V43.125Z" fill="#FFAA5E"/>
<path d="M35.625 43.125H34.6875V44.0625H35.625V43.125Z" fill="#FFAA5E"/>
<path d="M36.5625 43.125H35.625V44.0625H36.5625V43.125Z" fill="#FFAA5E"/>
<path d="M37.5 43.125H36.5625V44.0625H37.5V43.125Z" fill="#FFAA5E"/>
<path d="M38.4375 43.125H37.5V44.0625H38.4375V43.125Z" fill="#FFAA5E"/>
<path d="M39.375 43.125H38.4375V44.0625H39.375V43.125Z" fill="#FFAA5E"/>
<path d="M40.3125 43.125H39.375V44.0625H40.3125V43.125Z" fill="#FFAA5E"/>
<path d="M20.625 44.0625H19.6875V45H20.625V44.0625Z" fill="#FFAA5E"/>
<path d="M21.5625 44.0625H20.625V45H21.5625V44.0625Z" fill="#FFAA5E"/>
<path d="M22.5 44.0625H21.5625V45H22.5V44.0625Z" fill="#FFAA5E"/>
<path d="M23.4375 44.0625H22.5V45H23.4375V44.0625Z" fill="#FFAA5E"/>
<path d="M24.375 44.0625H23.4375V45H24.375V44.0625Z" fill="#FFAA5E"/>
<path d="M25.3125 44.0625H24.375V45H25.3125V44.0625Z" fill="#FFAA5E"/>
<path d="M26.25 44.0625H25.3125V45H26.25V44.0625Z" fill="#FFAA5E"/>
<path d="M27.1875 44.0625H26.25V45H27.1875V44.0625Z" fill="#FFAA5E"/>
<path d="M28.125 44.0625H27.1875V45H28.125V44.0625Z" fill="#FFAA5E"/>
<path d="M29.0625 44.0625H28.125V45H29.0625V44.0625Z" fill="#FFAA5E"/>
<path d="M30 44.0625H29.0625V45H30V44.0625Z" fill="#FFAA5E"/>
<path d="M30.9375 44.0625H30V45H30.9375V44.0625Z" fill="#FFAA5E"/>
<path d="M31.875 44.0625H30.9375V45H31.875V44.0625Z" fill="#FFAA5E"/>
<path d="M32.8125 44.0625H31.875V45H32.8125V44.0625Z" fill="#FFAA5E"/>
<path d="M33.75 44.0625H32.8125V45H33.75V44.0625Z" fill="#FFAA5E"/>
<path d="M34.6875 44.0625H33.75V45H34.6875V44.0625Z" fill="#FFAA5E"/>
<path d="M35.625 44.0625H34.6875V45H35.625V44.0625Z" fill="#FFAA5E"/>
<path d="M36.5625 44.0625H35.625V45H36.5625V44.0625Z" fill="#FFAA5E"/>
<path d="M37.5 44.0625H36.5625V45H37.5V44.0625Z" fill="#FFAA5E"/>
<path d="M38.4375 44.0625H37.5V45H38.4375V44.0625Z" fill="#FFAA5E"/>
<path d="M39.375 44.0625H38.4375V45H39.375V44.0625Z" fill="#FFAA5E"/>
<path d="M40.3125 44.0625H39.375V45H40.3125V44.0625Z" fill="#FFAA5E"/>
<path d="M41.25 44.0625H40.3125V45H41.25V44.0625Z" fill="#FFAA5E"/>
<path d="M19.6875 45H18.75V45.9375H19.6875V45Z" fill="#FFAA5E"/>
<path d="M20.625 45H19.6875V45.9375H20.625V45Z" fill="#FFAA5E"/>
<path d="M21.5625 45H20.625V45.9375H21.5625V45Z" fill="#FFAA5E"/>
<path d="M22.5 45H21.5625V45.9375H22.5V45Z" fill="#FFAA5E"/>
<path d="M23.4375 45H22.5V45.9375H23.4375V45Z" fill="#FFAA5E"/>
<path d="M24.375 45H23.4375V45.9375H24.375V45Z" fill="#FFAA5E"/>
<path d="M25.3125 45H24.375V45.9375H25.3125V45Z" fill="#FFAA5E"/>
<path d="M26.25 45H25.3125V45.9375H26.25V45Z" fill="#FFAA5E"/>
<path d="M27.1875 45H26.25V45.9375H27.1875V45Z" fill="#FFAA5E"/>
<path d="M28.125 45H27.1875V45.9375H28.125V45Z" fill="#FFAA5E"/>
<path d="M29.0625 45H28.125V45.9375H29.0625V45Z" fill="#FFAA5E"/>
<path d="M30 45H29.0625V45.9375H30V45Z" fill="#FFAA5E"/>
<path d="M30.9375 45H30V45.9375H30.9375V45Z" fill="#FFAA5E"/>
<path d="M31.875 45H30.9375V45.9375H31.875V45Z" fill="#FFAA5E"/>
<path d="M32.8125 45H31.875V45.9375H32.8125V45Z" fill="#FFAA5E"/>
<path d="M33.75 45H32.8125V45.9375H33.75V45Z" fill="#FFAA5E"/>
<path d="M34.6875 45H33.75V45.9375H34.6875V45Z" fill="#FFAA5E"/>
<path d="M35.625 45H34.6875V45.9375H35.625V45Z" fill="#FFAA5E"/>
<path d="M36.5625 45H35.625V45.9375H36.5625V45Z" fill="#FFAA5E"/>
<path d="M37.5 45H36.5625V45.9375H37.5V45Z" fill="#FFAA5E"/>
<path d="M38.4375 45H37.5V45.9375H38.4375V45Z" fill="#FFAA5E"/>
<path d="M39.375 45H38.4375V45.9375H39.375V45Z" fill="#FFAA5E"/>
<path d="M40.3125 45H39.375V45.9375H40.3125V45Z" fill="#FFAA5E"/>
<path d="M41.25 45H40.3125V45.9375H41.25V45Z" fill="#FFAA5E"/>
<path d="M42.1875 45H41.25V45.9375H42.1875V45Z" fill="#FFAA5E"/>
<path d="M18.75 45.9375H17.8125V46.875H18.75V45.9375Z" fill="#FFAA5E"/>
<path d="M19.6875 45.9375H18.75V46.875H19.6875V45.9375Z" fill="#FFAA5E"/>
<path d="M20.625 45.9375H19.6875V46.875H20.625V45.9375Z" fill="#FFAA5E"/>
<path d="M21.5625 45.9375H20.625V46.875H21.5625V45.9375Z" fill="#FFAA5E"/>
<path d="M22.5 45.9375H21.5625V46.875H22.5V45.9375Z" fill="#FFAA5E"/>
<path d="M23.4375 45.9375H22.5V46.875H23.4375V45.9375Z" fill="#FFAA5E"/>
<path d="M24.375 45.9375H23.4375V46.875H24.375V45.9375Z" fill="#FFAA5E"/>
<path d="M25.3125 45.9375H24.375V46.875H25.3125V45.9375Z" fill="#FFAA5E"/>
<path d="M26.25 45.9375H25.3125V46.875H26.25V45.9375Z" fill="#FFAA5E"/>
<path d="M27.1875 45.9375H26.25V46.875H27.1875V45.9375Z" fill="#FFAA5E"/>
<path d="M28.125 45.9375H27.1875V46.875H28.125V45.9375Z" fill="#FFAA5E"/>
<path d="M29.0625 45.9375H28.125V46.875H29.0625V45.9375Z" fill="#FFAA5E"/>
<path d="M30 45.9375H29.0625V46.875H30V45.9375Z" fill="#FFAA5E"/>
<path d="M30.9375 45.9375H30V46.875H30.9375V45.9375Z" fill="#FFAA5E"/>
<path d="M31.875 45.9375H30.9375V46.875H31.875V45.9375Z" fill="#FFAA5E"/>
<path d="M32.8125 45.9375H31.875V46.875H32.8125V45.9375Z" fill="#FFAA5E"/>
<path d="M33.75 45.9375H32.8125V46.875H33.75V45.9375Z" fill="#FFAA5E"/>
<path d="M34.6875 45.9375H33.75V46.875H34.6875V45.9375Z" fill="#FFAA5E"/>
<path d="M35.625 45.9375H34.6875V46.875H35.625V45.9375Z" fill="#FFAA5E"/>
<path d="M36.5625 45.9375H35.625V46.875H36.5625V45.9375Z" fill="#FFAA5E"/>
<path d="M37.5 45.9375H36.5625V46.875H37.5V45.9375Z" fill="#FFAA5E"/>
<path d="M38.4375 45.9375H37.5V46.875H38.4375V45.9375Z" fill="#FFAA5E"/>
<path d="M39.375 45.9375H38.4375V46.875H39.375V45.9375Z" fill="#FFAA5E"/>
<path d="M40.3125 45.9375H39.375V46.875H40.3125V45.9375Z" fill="#FFAA5E"/>
<path d="M41.25 45.9375H40.3125V46.875H41.25V45.9375Z" fill="#FFAA5E"/>
<path d="M42.1875 45.9375H41.25V46.875H42.1875V45.9375Z" fill="#FFAA5E"/>
<path d="M43.125 45.9375H42.1875V46.875H43.125V45.9375Z" fill="#FFAA5E"/>
<path d="M18.75 46.875H17.8125V47.8125H18.75V46.875Z" fill="#FFAA5E"/>
<path d="M19.6875 46.875H18.75V47.8125H19.6875V46.875Z" fill="#FFAA5E"/>
<path d="M20.625 46.875H19.6875V47.8125H20.625V46.875Z" fill="#FFAA5E"/>
<path d="M21.5625 46.875H20.625V47.8125H21.5625V46.875Z" fill="#FFAA5E"/>
<path d="M22.5 46.875H21.5625V47.8125H22.5V46.875Z" fill="#FFAA5E"/>
<path d="M23.4375 46.875H22.5V47.8125H23.4375V46.875Z" fill="#FFAA5E"/>
<path d="M24.375 46.875H23.4375V47.8125H24.375V46.875Z" fill="#FFAA5E"/>
<path d="M25.3125 46.875H24.375V47.8125H25.3125V46.875Z" fill="#FFAA5E"/>
<path d="M26.25 46.875H25.3125V47.8125H26.25V46.875Z" fill="#FFAA5E"/>
<path d="M27.1875 46.875H26.25V47.8125H27.1875V46.875Z" fill="#FFAA5E"/>
<path d="M28.125 46.875H27.1875V47.8125H28.125V46.875Z" fill="#FFAA5E"/>
<path d="M29.0625 46.875H28.125V47.8125H29.0625V46.875Z" fill="#FFAA5E"/>
<path d="M30 46.875H29.0625V47.8125H30V46.875Z" fill="#FFAA5E"/>
<path d="M30.9375 46.875H30V47.8125H30.9375V46.875Z" fill="#FFAA5E"/>
<path d="M31.875 46.875H30.9375V47.8125H31.875V46.875Z" fill="#FFAA5E"/>
<path d="M32.8125 46.875H31.875V47.8125H32.8125V46.875Z" fill="#FFAA5E"/>
<path d="M33.75 46.875H32.8125V47.8125H33.75V46.875Z" fill="#FFAA5E"/>
<path d="M34.6875 46.875H33.75V47.8125H34.6875V46.875Z" fill="#FFAA5E"/>
<path d="M35.625 46.875H34.6875V47.8125H35.625V46.875Z" fill="#FFAA5E"/>
<path d="M36.5625 46.875H35.625V47.8125H36.5625V46.875Z" fill="#FFAA5E"/>
<path d="M37.5 46.875H36.5625V47.8125H37.5V46.875Z" fill="#FFAA5E"/>
<path d="M38.4375 46.875H37.5V47.8125H38.4375V46.875Z" fill="#FFAA5E"/>
<path d="M39.375 46.875H38.4375V47.8125H39.375V46.875Z" fill="#FFAA5E"/>
<path d="M40.3125 46.875H39.375V47.8125H40.3125V46.875Z" fill="#FFAA5E"/>
<path d="M41.25 46.875H40.3125V47.8125H41.25V46.875Z" fill="#FFAA5E"/>
<path d="M42.1875 46.875H41.25V47.8125H42.1875V46.875Z" fill="#FFAA5E"/>
<path d="M43.125 46.875H42.1875V47.8125H43.125V46.875Z" fill="#FFAA5E"/>
</svg>
