<svg width="73" height="63" viewBox="0 0 73 63" fill="none" xmlns="http://www.w3.org/2000/svg">
<path d="M65.0364 0H63.7091V1.4H65.0364V0Z" fill="#FFAA5E"/>
<path d="M66.3636 0H65.0364V1.4H66.3636V0Z" fill="#FFAA5E"/>
<path d="M67.6909 0H66.3636V1.4H67.6909V0Z" fill="#FFAA5E"/>
<path d="M69.0182 0H67.6909V1.4H69.0182V0Z" fill="#FFAA5E"/>
<path d="M70.3455 0H69.0182V1.4H70.3455V0Z" fill="#FFAA5E"/>
<path d="M71.6727 0H70.3455V1.4H71.6727V0Z" fill="#FFAA5E"/>
<path d="M61.0545 1.4H59.7273V2.8H61.0545V1.4Z" fill="#FFAA5E"/>
<path d="M62.3818 1.4H61.0545V2.8H62.3818V1.4Z" fill="#FFAA5E"/>
<path d="M63.7091 1.4H62.3818V2.8H63.7091V1.4Z" fill="#FFAA5E"/>
<path d="M65.0364 1.4H63.7091V2.8H65.0364V1.4Z" fill="#FFAA5E"/>
<path d="M66.3636 1.4H65.0364V2.8H66.3636V1.4Z" fill="#FFAA5E"/>
<path d="M67.6909 1.4H66.3636V2.8H67.6909V1.4Z" fill="#FFAA5E"/>
<path d="M69.0182 1.4H67.6909V2.8H69.0182V1.4Z" fill="#FFAA5E"/>
<path d="M70.3455 1.4H69.0182V2.8H70.3455V1.4Z" fill="#FFAA5E"/>
<path d="M71.6727 1.4H70.3455V2.8H71.6727V1.4Z" fill="#FFAA5E"/>
<path d="M73 1.4H71.6727V2.8H73V1.4Z" fill="#FFAA5E"/>
<path d="M58.4 2.8H57.0727V4.2H58.4V2.8Z" fill="#FFAA5E"/>
<path d="M59.7273 2.8H58.4V4.2H59.7273V2.8Z" fill="#FFAA5E"/>
<path d="M61.0545 2.8H59.7273V4.2H61.0545V2.8Z" fill="#FFAA5E"/>
<path d="M62.3818 2.8H61.0545V4.2H62.3818V2.8Z" fill="#FFAA5E"/>
<path d="M63.7091 2.8H62.3818V4.2H63.7091V2.8Z" fill="#FFAA5E"/>
<path d="M65.0364 2.8H63.7091V4.2H65.0364V2.8Z" fill="#FFAA5E"/>
<path d="M66.3636 2.8H65.0364V4.2H66.3636V2.8Z" fill="#FFAA5E"/>
<path d="M67.6909 2.8H66.3636V4.2H67.6909V2.8Z" fill="#FFAA5E"/>
<path d="M69.0182 2.8H67.6909V4.2H69.0182V2.8Z" fill="#FFAA5E"/>
<path d="M70.3455 2.8H69.0182V4.2H70.3455V2.8Z" fill="#FFAA5E"/>
<path d="M71.6727 2.8H70.3455V4.2H71.6727V2.8Z" fill="#FFAA5E"/>
<path d="M73 2.8H71.6727V4.2H73V2.8Z" fill="#FFAA5E"/>
<path d="M54.4182 4.2H53.0909V5.6H54.4182V4.2Z" fill="#FFAA5E"/>
<path d="M55.7455 4.2H54.4182V5.6H55.7455V4.2Z" fill="#FFAA5E"/>
<path d="M57.0727 4.2H55.7455V5.6H57.0727V4.2Z" fill="#FFAA5E"/>
<path d="M58.4 4.2H57.0727V5.6H58.4V4.2Z" fill="#FFAA5E"/>
<path d="M59.7273 4.2H58.4V5.6H59.7273V4.2Z" fill="#FFAA5E"/>
<path d="M61.0545 4.2H59.7273V5.6H61.0545V4.2Z" fill="#FFAA5E"/>
<path d="M62.3818 4.2H61.0545V5.6H62.3818V4.2Z" fill="#FFAA5E"/>
<path d="M63.7091 4.2H62.3818V5.6H63.7091V4.2Z" fill="#FFAA5E"/>
<path d="M65.0364 4.2H63.7091V5.6H65.0364V4.2Z" fill="#FFAA5E"/>
<path d="M66.3636 4.2H65.0364V5.6H66.3636V4.2Z" fill="#FFAA5E"/>
<path d="M67.6909 4.2H66.3636V5.6H67.6909V4.2Z" fill="#FFAA5E"/>
<path d="M69.0182 4.2H67.6909V5.6H69.0182V4.2Z" fill="#FFAA5E"/>
<path d="M70.3455 4.2H69.0182V5.6H70.3455V4.2Z" fill="#FFAA5E"/>
<path d="M71.6727 4.2H70.3455V5.6H71.6727V4.2Z" fill="#FFAA5E"/>
<path d="M73 4.2H71.6727V5.6H73V4.2Z" fill="#FFAA5E"/>
<path d="M51.7636 5.6H50.4364V7H51.7636V5.6Z" fill="#FFAA5E"/>
<path d="M53.0909 5.6H51.7636V7H53.0909V5.6Z" fill="#FFAA5E"/>
<path d="M54.4182 5.6H53.0909V7H54.4182V5.6Z" fill="#FFAA5E"/>
<path d="M55.7455 5.6H54.4182V7H55.7455V5.6Z" fill="#FFAA5E"/>
<path d="M57.0727 5.6H55.7455V7H57.0727V5.6Z" fill="#FFAA5E"/>
<path d="M58.4 5.6H57.0727V7H58.4V5.6Z" fill="#FFAA5E"/>
<path d="M59.7273 5.6H58.4V7H59.7273V5.6Z" fill="#FFAA5E"/>
<path d="M61.0545 5.6H59.7273V7H61.0545V5.6Z" fill="#FFAA5E"/>
<path d="M62.3818 5.6H61.0545V7H62.3818V5.6Z" fill="#FFAA5E"/>
<path d="M63.7091 5.6H62.3818V7H63.7091V5.6Z" fill="#FFAA5E"/>
<path d="M65.0364 5.6H63.7091V7H65.0364V5.6Z" fill="#FFAA5E"/>
<path d="M66.3636 5.6H65.0364V7H66.3636V5.6Z" fill="#FFAA5E"/>
<path d="M67.6909 5.6H66.3636V7H67.6909V5.6Z" fill="#FFAA5E"/>
<path d="M69.0182 5.6H67.6909V7H69.0182V5.6Z" fill="#FFAA5E"/>
<path d="M70.3455 5.6H69.0182V7H70.3455V5.6Z" fill="#FFAA5E"/>
<path d="M71.6727 5.6H70.3455V7H71.6727V5.6Z" fill="#FFAA5E"/>
<path d="M73 5.6H71.6727V7H73V5.6Z" fill="#FFAA5E"/>
<path d="M47.7818 7H46.4545V8.4H47.7818V7Z" fill="#FFAA5E"/>
<path d="M49.1091 7H47.7818V8.4H49.1091V7Z" fill="#FFAA5E"/>
<path d="M50.4364 7H49.1091V8.4H50.4364V7Z" fill="#FFAA5E"/>
<path d="M51.7636 7H50.4364V8.4H51.7636V7Z" fill="#FFAA5E"/>
<path d="M53.0909 7H51.7636V8.4H53.0909V7Z" fill="#FFAA5E"/>
<path d="M54.4182 7H53.0909V8.4H54.4182V7Z" fill="#FFAA5E"/>
<path d="M55.7455 7H54.4182V8.4H55.7455V7Z" fill="#FFAA5E"/>
<path d="M57.0727 7H55.7455V8.4H57.0727V7Z" fill="#FFAA5E"/>
<path d="M58.4 7H57.0727V8.4H58.4V7Z" fill="#FFAA5E"/>
<path d="M59.7273 7H58.4V8.4H59.7273V7Z" fill="#FFAA5E"/>
<path d="M61.0545 7H59.7273V8.4H61.0545V7Z" fill="#FFAA5E"/>
<path d="M62.3818 7H61.0545V8.4H62.3818V7Z" fill="#FFAA5E"/>
<path d="M63.7091 7H62.3818V8.4H63.7091V7Z" fill="#FFAA5E"/>
<path d="M65.0364 7H63.7091V8.4H65.0364V7Z" fill="#FFAA5E"/>
<path d="M66.3636 7H65.0364V8.4H66.3636V7Z" fill="#FFAA5E"/>
<path d="M67.6909 7H66.3636V8.4H67.6909V7Z" fill="#FFAA5E"/>
<path d="M69.0182 7H67.6909V8.4H69.0182V7Z" fill="#FFAA5E"/>
<path d="M70.3455 7H69.0182V8.4H70.3455V7Z" fill="#FFAA5E"/>
<path d="M71.6727 7H70.3455V8.4H71.6727V7Z" fill="#FFAA5E"/>
<path d="M45.1273 8.4H43.8V9.8H45.1273V8.4Z" fill="#FFAA5E"/>
<path d="M46.4545 8.4H45.1273V9.8H46.4545V8.4Z" fill="#FFAA5E"/>
<path d="M47.7818 8.4H46.4545V9.8H47.7818V8.4Z" fill="#FFAA5E"/>
<path d="M49.1091 8.4H47.7818V9.8H49.1091V8.4Z" fill="#FFAA5E"/>
<path d="M50.4364 8.4H49.1091V9.8H50.4364V8.4Z" fill="#FFAA5E"/>
<path d="M51.7636 8.4H50.4364V9.8H51.7636V8.4Z" fill="#FFAA5E"/>
<path d="M53.0909 8.4H51.7636V9.8H53.0909V8.4Z" fill="#FFAA5E"/>
<path d="M54.4182 8.4H53.0909V9.8H54.4182V8.4Z" fill="#FFAA5E"/>
<path d="M55.7455 8.4H54.4182V9.8H55.7455V8.4Z" fill="#FFAA5E"/>
<path d="M57.0727 8.4H55.7455V9.8H57.0727V8.4Z" fill="#FFAA5E"/>
<path d="M58.4 8.4H57.0727V9.8H58.4V8.4Z" fill="#FFAA5E"/>
<path d="M59.7273 8.4H58.4V9.8H59.7273V8.4Z" fill="#FFAA5E"/>
<path d="M61.0545 8.4H59.7273V9.8H61.0545V8.4Z" fill="#FFAA5E"/>
<path d="M62.3818 8.4H61.0545V9.8H62.3818V8.4Z" fill="#FFAA5E"/>
<path d="M63.7091 8.4H62.3818V9.8H63.7091V8.4Z" fill="#FFAA5E"/>
<path d="M65.0364 8.4H63.7091V9.8H65.0364V8.4Z" fill="#FFAA5E"/>
<path d="M66.3636 8.4H65.0364V9.8H66.3636V8.4Z" fill="#FFAA5E"/>
<path d="M67.6909 8.4H66.3636V9.8H67.6909V8.4Z" fill="#FFAA5E"/>
<path d="M69.0182 8.4H67.6909V9.8H69.0182V8.4Z" fill="#FFAA5E"/>
<path d="M70.3455 8.4H69.0182V9.8H70.3455V8.4Z" fill="#FFAA5E"/>
<path d="M71.6727 8.4H70.3455V9.8H71.6727V8.4Z" fill="#FFAA5E"/>
<path d="M42.4727 9.8H41.1455V11.2H42.4727V9.8Z" fill="#FFAA5E"/>
<path d="M43.8 9.8H42.4727V11.2H43.8V9.8Z" fill="#FFAA5E"/>
<path d="M45.1273 9.8H43.8V11.2H45.1273V9.8Z" fill="#FFAA5E"/>
<path d="M46.4545 9.8H45.1273V11.2H46.4545V9.8Z" fill="#FFAA5E"/>
<path d="M47.7818 9.8H46.4545V11.2H47.7818V9.8Z" fill="#FFAA5E"/>
<path d="M49.1091 9.8H47.7818V11.2H49.1091V9.8Z" fill="#FFAA5E"/>
<path d="M50.4364 9.8H49.1091V11.2H50.4364V9.8Z" fill="#FFAA5E"/>
<path d="M51.7636 9.8H50.4364V11.2H51.7636V9.8Z" fill="#FFAA5E"/>
<path d="M53.0909 9.8H51.7636V11.2H53.0909V9.8Z" fill="#FFAA5E"/>
<path d="M54.4182 9.8H53.0909V11.2H54.4182V9.8Z" fill="#FFAA5E"/>
<path d="M55.7455 9.8H54.4182V11.2H55.7455V9.8Z" fill="#FFAA5E"/>
<path d="M57.0727 9.8H55.7455V11.2H57.0727V9.8Z" fill="#FFAA5E"/>
<path d="M58.4 9.8H57.0727V11.2H58.4V9.8Z" fill="#FFAA5E"/>
<path d="M59.7273 9.8H58.4V11.2H59.7273V9.8Z" fill="#FFAA5E"/>
<path d="M61.0545 9.8H59.7273V11.2H61.0545V9.8Z" fill="#FFAA5E"/>
<path d="M62.3818 9.8H61.0545V11.2H62.3818V9.8Z" fill="#FFAA5E"/>
<path d="M63.7091 9.8H62.3818V11.2H63.7091V9.8Z" fill="#FFAA5E"/>
<path d="M65.0364 9.8H63.7091V11.2H65.0364V9.8Z" fill="#FFAA5E"/>
<path d="M66.3636 9.8H65.0364V11.2H66.3636V9.8Z" fill="#FFAA5E"/>
<path d="M67.6909 9.8H66.3636V11.2H67.6909V9.8Z" fill="#FFAA5E"/>
<path d="M69.0182 9.8H67.6909V11.2H69.0182V9.8Z" fill="#FFAA5E"/>
<path d="M70.3455 9.8H69.0182V11.2H70.3455V9.8Z" fill="#FFAA5E"/>
<path d="M71.6727 9.8H70.3455V11.2H71.6727V9.8Z" fill="#FFAA5E"/>
<path d="M38.4909 11.2H37.1636V12.6H38.4909V11.2Z" fill="#FFAA5E"/>
<path d="M39.8182 11.2H38.4909V12.6H39.8182V11.2Z" fill="#FFAA5E"/>
<path d="M41.1455 11.2H39.8182V12.6H41.1455V11.2Z" fill="#FFAA5E"/>
<path d="M42.4727 11.2H41.1455V12.6H42.4727V11.2Z" fill="#FFAA5E"/>
<path d="M43.8 11.2H42.4727V12.6H43.8V11.2Z" fill="#FFAA5E"/>
<path d="M45.1273 11.2H43.8V12.6H45.1273V11.2Z" fill="#FFAA5E"/>
<path d="M46.4545 11.2H45.1273V12.6H46.4545V11.2Z" fill="#FFAA5E"/>
<path d="M47.7818 11.2H46.4545V12.6H47.7818V11.2Z" fill="#FFAA5E"/>
<path d="M49.1091 11.2H47.7818V12.6H49.1091V11.2Z" fill="#FFAA5E"/>
<path d="M50.4364 11.2H49.1091V12.6H50.4364V11.2Z" fill="#FFAA5E"/>
<path d="M51.7636 11.2H50.4364V12.6H51.7636V11.2Z" fill="#FFAA5E"/>
<path d="M53.0909 11.2H51.7636V12.6H53.0909V11.2Z" fill="#FFAA5E"/>
<path d="M54.4182 11.2H53.0909V12.6H54.4182V11.2Z" fill="#FFAA5E"/>
<path d="M55.7455 11.2H54.4182V12.6H55.7455V11.2Z" fill="#FFAA5E"/>
<path d="M57.0727 11.2H55.7455V12.6H57.0727V11.2Z" fill="#FFAA5E"/>
<path d="M58.4 11.2H57.0727V12.6H58.4V11.2Z" fill="#FFAA5E"/>
<path d="M59.7273 11.2H58.4V12.6H59.7273V11.2Z" fill="#FFAA5E"/>
<path d="M61.0545 11.2H59.7273V12.6H61.0545V11.2Z" fill="#FFAA5E"/>
<path d="M62.3818 11.2H61.0545V12.6H62.3818V11.2Z" fill="#FFAA5E"/>
<path d="M63.7091 11.2H62.3818V12.6H63.7091V11.2Z" fill="#FFAA5E"/>
<path d="M65.0364 11.2H63.7091V12.6H65.0364V11.2Z" fill="#FFAA5E"/>
<path d="M66.3636 11.2H65.0364V12.6H66.3636V11.2Z" fill="#FFAA5E"/>
<path d="M67.6909 11.2H66.3636V12.6H67.6909V11.2Z" fill="#FFAA5E"/>
<path d="M69.0182 11.2H67.6909V12.6H69.0182V11.2Z" fill="#FFAA5E"/>
<path d="M70.3455 11.2H69.0182V12.6H70.3455V11.2Z" fill="#FFAA5E"/>
<path d="M71.6727 11.2H70.3455V12.6H71.6727V11.2Z" fill="#FFAA5E"/>
<path d="M35.8364 12.6H34.5091V14H35.8364V12.6Z" fill="#FFAA5E"/>
<path d="M37.1636 12.6H35.8364V14H37.1636V12.6Z" fill="#FFAA5E"/>
<path d="M38.4909 12.6H37.1636V14H38.4909V12.6Z" fill="#FFAA5E"/>
<path d="M39.8182 12.6H38.4909V14H39.8182V12.6Z" fill="#FFAA5E"/>
<path d="M41.1455 12.6H39.8182V14H41.1455V12.6Z" fill="#FFAA5E"/>
<path d="M42.4727 12.6H41.1455V14H42.4727V12.6Z" fill="#FFAA5E"/>
<path d="M43.8 12.6H42.4727V14H43.8V12.6Z" fill="#FFAA5E"/>
<path d="M45.1273 12.6H43.8V14H45.1273V12.6Z" fill="#FFAA5E"/>
<path d="M46.4545 12.6H45.1273V14H46.4545V12.6Z" fill="#FFAA5E"/>
<path d="M47.7818 12.6H46.4545V14H47.7818V12.6Z" fill="#FFAA5E"/>
<path d="M49.1091 12.6H47.7818V14H49.1091V12.6Z" fill="#FFAA5E"/>
<path d="M50.4364 12.6H49.1091V14H50.4364V12.6Z" fill="#FFAA5E"/>
<path d="M51.7636 12.6H50.4364V14H51.7636V12.6Z" fill="#FFAA5E"/>
<path d="M53.0909 12.6H51.7636V14H53.0909V12.6Z" fill="#FFAA5E"/>
<path d="M54.4182 12.6H53.0909V14H54.4182V12.6Z" fill="#FFAA5E"/>
<path d="M55.7455 12.6H54.4182V14H55.7455V12.6Z" fill="#FFAA5E"/>
<path d="M57.0727 12.6H55.7455V14H57.0727V12.6Z" fill="#FFAA5E"/>
<path d="M58.4 12.6H57.0727V14H58.4V12.6Z" fill="#FFAA5E"/>
<path d="M59.7273 12.6H58.4V14H59.7273V12.6Z" fill="#FFAA5E"/>
<path d="M61.0545 12.6H59.7273V14H61.0545V12.6Z" fill="#FFAA5E"/>
<path d="M62.3818 12.6H61.0545V14H62.3818V12.6Z" fill="#FFAA5E"/>
<path d="M63.7091 12.6H62.3818V14H63.7091V12.6Z" fill="#FFAA5E"/>
<path d="M65.0364 12.6H63.7091V14H65.0364V12.6Z" fill="#FFAA5E"/>
<path d="M66.3636 12.6H65.0364V14H66.3636V12.6Z" fill="#FFAA5E"/>
<path d="M67.6909 12.6H66.3636V14H67.6909V12.6Z" fill="#FFAA5E"/>
<path d="M69.0182 12.6H67.6909V14H69.0182V12.6Z" fill="#FFAA5E"/>
<path d="M70.3455 12.6H69.0182V14H70.3455V12.6Z" fill="#FFAA5E"/>
<path d="M71.6727 12.6H70.3455V14H71.6727V12.6Z" fill="#FFAA5E"/>
<path d="M33.1818 14H31.8545V15.4H33.1818V14Z" fill="#FFAA5E"/>
<path d="M34.5091 14H33.1818V15.4H34.5091V14Z" fill="#FFAA5E"/>
<path d="M35.8364 14H34.5091V15.4H35.8364V14Z" fill="#FFAA5E"/>
<path d="M37.1636 14H35.8364V15.4H37.1636V14Z" fill="#FFAA5E"/>
<path d="M38.4909 14H37.1636V15.4H38.4909V14Z" fill="#FFAA5E"/>
<path d="M39.8182 14H38.4909V15.4H39.8182V14Z" fill="#FFAA5E"/>
<path d="M41.1455 14H39.8182V15.4H41.1455V14Z" fill="#FFAA5E"/>
<path d="M42.4727 14H41.1455V15.4H42.4727V14Z" fill="#FFAA5E"/>
<path d="M43.8 14H42.4727V15.4H43.8V14Z" fill="#FFAA5E"/>
<path d="M45.1273 14H43.8V15.4H45.1273V14Z" fill="#FFAA5E"/>
<path d="M46.4545 14H45.1273V15.4H46.4545V14Z" fill="#FFAA5E"/>
<path d="M47.7818 14H46.4545V15.4H47.7818V14Z" fill="#FFAA5E"/>
<path d="M49.1091 14H47.7818V15.4H49.1091V14Z" fill="#FFAA5E"/>
<path d="M50.4364 14H49.1091V15.4H50.4364V14Z" fill="#FFAA5E"/>
<path d="M51.7636 14H50.4364V15.4H51.7636V14Z" fill="#FFAA5E"/>
<path d="M53.0909 14H51.7636V15.4H53.0909V14Z" fill="#FFAA5E"/>
<path d="M54.4182 14H53.0909V15.4H54.4182V14Z" fill="#FFAA5E"/>
<path d="M55.7455 14H54.4182V15.4H55.7455V14Z" fill="#FFAA5E"/>
<path d="M57.0727 14H55.7455V15.4H57.0727V14Z" fill="#FFAA5E"/>
<path d="M58.4 14H57.0727V15.4H58.4V14Z" fill="#FFAA5E"/>
<path d="M59.7273 14H58.4V15.4H59.7273V14Z" fill="#FFAA5E"/>
<path d="M61.0545 14H59.7273V15.4H61.0545V14Z" fill="#FFAA5E"/>
<path d="M62.3818 14H61.0545V15.4H62.3818V14Z" fill="#FFAA5E"/>
<path d="M63.7091 14H62.3818V15.4H63.7091V14Z" fill="#FFAA5E"/>
<path d="M65.0364 14H63.7091V15.4H65.0364V14Z" fill="#FFAA5E"/>
<path d="M66.3636 14H65.0364V15.4H66.3636V14Z" fill="#FFAA5E"/>
<path d="M67.6909 14H66.3636V15.4H67.6909V14Z" fill="#FFAA5E"/>
<path d="M69.0182 14H67.6909V15.4H69.0182V14Z" fill="#FFAA5E"/>
<path d="M70.3455 14H69.0182V15.4H70.3455V14Z" fill="#FFAA5E"/>
<path d="M71.6727 14H70.3455V15.4H71.6727V14Z" fill="#FFAA5E"/>
<path d="M29.2 15.4H27.8727V16.8H29.2V15.4Z" fill="#FFAA5E"/>
<path d="M30.5273 15.4H29.2V16.8H30.5273V15.4Z" fill="#FFAA5E"/>
<path d="M31.8545 15.4H30.5273V16.8H31.8545V15.4Z" fill="#FFAA5E"/>
<path d="M33.1818 15.4H31.8545V16.8H33.1818V15.4Z" fill="#FFAA5E"/>
<path d="M34.5091 15.4H33.1818V16.8H34.5091V15.4Z" fill="#FFAA5E"/>
<path d="M35.8364 15.4H34.5091V16.8H35.8364V15.4Z" fill="#FFAA5E"/>
<path d="M37.1636 15.4H35.8364V16.8H37.1636V15.4Z" fill="#FFAA5E"/>
<path d="M38.4909 15.4H37.1636V16.8H38.4909V15.4Z" fill="#FFAA5E"/>
<path d="M39.8182 15.4H38.4909V16.8H39.8182V15.4Z" fill="#FFAA5E"/>
<path d="M41.1455 15.4H39.8182V16.8H41.1455V15.4Z" fill="#FFAA5E"/>
<path d="M42.4727 15.4H41.1455V16.8H42.4727V15.4Z" fill="#FFAA5E"/>
<path d="M43.8 15.4H42.4727V16.8H43.8V15.4Z" fill="#FFAA5E"/>
<path d="M45.1273 15.4H43.8V16.8H45.1273V15.4Z" fill="#FFAA5E"/>
<path d="M46.4545 15.4H45.1273V16.8H46.4545V15.4Z" fill="#FFAA5E"/>
<path d="M47.7818 15.4H46.4545V16.8H47.7818V15.4Z" fill="#FFAA5E"/>
<path d="M49.1091 15.4H47.7818V16.8H49.1091V15.4Z" fill="#FFAA5E"/>
<path d="M50.4364 15.4H49.1091V16.8H50.4364V15.4Z" fill="#FFAA5E"/>
<path d="M51.7636 15.4H50.4364V16.8H51.7636V15.4Z" fill="#FFAA5E"/>
<path d="M57.0727 15.4H55.7455V16.8H57.0727V15.4Z" fill="#FFAA5E"/>
<path d="M58.4 15.4H57.0727V16.8H58.4V15.4Z" fill="#FFAA5E"/>
<path d="M59.7273 15.4H58.4V16.8H59.7273V15.4Z" fill="#FFAA5E"/>
<path d="M61.0545 15.4H59.7273V16.8H61.0545V15.4Z" fill="#FFAA5E"/>
<path d="M62.3818 15.4H61.0545V16.8H62.3818V15.4Z" fill="#FFAA5E"/>
<path d="M63.7091 15.4H62.3818V16.8H63.7091V15.4Z" fill="#FFAA5E"/>
<path d="M65.0364 15.4H63.7091V16.8H65.0364V15.4Z" fill="#FFAA5E"/>
<path d="M66.3636 15.4H65.0364V16.8H66.3636V15.4Z" fill="#FFAA5E"/>
<path d="M67.6909 15.4H66.3636V16.8H67.6909V15.4Z" fill="#FFAA5E"/>
<path d="M69.0182 15.4H67.6909V16.8H69.0182V15.4Z" fill="#FFAA5E"/>
<path d="M70.3455 15.4H69.0182V16.8H70.3455V15.4Z" fill="#FFAA5E"/>
<path d="M71.6727 15.4H70.3455V16.8H71.6727V15.4Z" fill="#FFAA5E"/>
<path d="M26.5455 16.8H25.2182V18.2H26.5455V16.8Z" fill="#FFAA5E"/>
<path d="M27.8727 16.8H26.5455V18.2H27.8727V16.8Z" fill="#FFAA5E"/>
<path d="M29.2 16.8H27.8727V18.2H29.2V16.8Z" fill="#FFAA5E"/>
<path d="M30.5273 16.8H29.2V18.2H30.5273V16.8Z" fill="#FFAA5E"/>
<path d="M31.8545 16.8H30.5273V18.2H31.8545V16.8Z" fill="#FFAA5E"/>
<path d="M33.1818 16.8H31.8545V18.2H33.1818V16.8Z" fill="#FFAA5E"/>
<path d="M34.5091 16.8H33.1818V18.2H34.5091V16.8Z" fill="#FFAA5E"/>
<path d="M35.8364 16.8H34.5091V18.2H35.8364V16.8Z" fill="#FFAA5E"/>
<path d="M37.1636 16.8H35.8364V18.2H37.1636V16.8Z" fill="#FFAA5E"/>
<path d="M38.4909 16.8H37.1636V18.2H38.4909V16.8Z" fill="#FFAA5E"/>
<path d="M39.8182 16.8H38.4909V18.2H39.8182V16.8Z" fill="#FFAA5E"/>
<path d="M41.1455 16.8H39.8182V18.2H41.1455V16.8Z" fill="#FFAA5E"/>
<path d="M42.4727 16.8H41.1455V18.2H42.4727V16.8Z" fill="#FFAA5E"/>
<path d="M43.8 16.8H42.4727V18.2H43.8V16.8Z" fill="#FFAA5E"/>
<path d="M45.1273 16.8H43.8V18.2H45.1273V16.8Z" fill="#FFAA5E"/>
<path d="M46.4545 16.8H45.1273V18.2H46.4545V16.8Z" fill="#FFAA5E"/>
<path d="M47.7818 16.8H46.4545V18.2H47.7818V16.8Z" fill="#FFAA5E"/>
<path d="M49.1091 16.8H47.7818V18.2H49.1091V16.8Z" fill="#FFAA5E"/>
<path d="M55.7455 16.8H54.4182V18.2H55.7455V16.8Z" fill="#FFAA5E"/>
<path d="M57.0727 16.8H55.7455V18.2H57.0727V16.8Z" fill="#FFAA5E"/>
<path d="M58.4 16.8H57.0727V18.2H58.4V16.8Z" fill="#FFAA5E"/>
<path d="M59.7273 16.8H58.4V18.2H59.7273V16.8Z" fill="#FFAA5E"/>
<path d="M61.0545 16.8H59.7273V18.2H61.0545V16.8Z" fill="#FFAA5E"/>
<path d="M62.3818 16.8H61.0545V18.2H62.3818V16.8Z" fill="#FFAA5E"/>
<path d="M63.7091 16.8H62.3818V18.2H63.7091V16.8Z" fill="#FFAA5E"/>
<path d="M65.0364 16.8H63.7091V18.2H65.0364V16.8Z" fill="#FFAA5E"/>
<path d="M66.3636 16.8H65.0364V18.2H66.3636V16.8Z" fill="#FFAA5E"/>
<path d="M67.6909 16.8H66.3636V18.2H67.6909V16.8Z" fill="#FFAA5E"/>
<path d="M69.0182 16.8H67.6909V18.2H69.0182V16.8Z" fill="#FFAA5E"/>
<path d="M70.3455 16.8H69.0182V18.2H70.3455V16.8Z" fill="#FFAA5E"/>
<path d="M23.8909 18.2H22.5636V19.6H23.8909V18.2Z" fill="#FFAA5E"/>
<path d="M25.2182 18.2H23.8909V19.6H25.2182V18.2Z" fill="#FFAA5E"/>
<path d="M26.5455 18.2H25.2182V19.6H26.5455V18.2Z" fill="#FFAA5E"/>
<path d="M27.8727 18.2H26.5455V19.6H27.8727V18.2Z" fill="#FFAA5E"/>
<path d="M29.2 18.2H27.8727V19.6H29.2V18.2Z" fill="#FFAA5E"/>
<path d="M30.5273 18.2H29.2V19.6H30.5273V18.2Z" fill="#FFAA5E"/>
<path d="M31.8545 18.2H30.5273V19.6H31.8545V18.2Z" fill="#FFAA5E"/>
<path d="M33.1818 18.2H31.8545V19.6H33.1818V18.2Z" fill="#FFAA5E"/>
<path d="M34.5091 18.2H33.1818V19.6H34.5091V18.2Z" fill="#FFAA5E"/>
<path d="M35.8364 18.2H34.5091V19.6H35.8364V18.2Z" fill="#FFAA5E"/>
<path d="M37.1636 18.2H35.8364V19.6H37.1636V18.2Z" fill="#FFAA5E"/>
<path d="M38.4909 18.2H37.1636V19.6H38.4909V18.2Z" fill="#FFAA5E"/>
<path d="M39.8182 18.2H38.4909V19.6H39.8182V18.2Z" fill="#FFAA5E"/>
<path d="M41.1455 18.2H39.8182V19.6H41.1455V18.2Z" fill="#FFAA5E"/>
<path d="M42.4727 18.2H41.1455V19.6H42.4727V18.2Z" fill="#FFAA5E"/>
<path d="M43.8 18.2H42.4727V19.6H43.8V18.2Z" fill="#FFAA5E"/>
<path d="M45.1273 18.2H43.8V19.6H45.1273V18.2Z" fill="#FFAA5E"/>
<path d="M46.4545 18.2H45.1273V19.6H46.4545V18.2Z" fill="#FFAA5E"/>
<path d="M47.7818 18.2H46.4545V19.6H47.7818V18.2Z" fill="#FFAA5E"/>
<path d="M54.4182 18.2H53.0909V19.6H54.4182V18.2Z" fill="#FFAA5E"/>
<path d="M55.7455 18.2H54.4182V19.6H55.7455V18.2Z" fill="#FFAA5E"/>
<path d="M57.0727 18.2H55.7455V19.6H57.0727V18.2Z" fill="#FFAA5E"/>
<path d="M58.4 18.2H57.0727V19.6H58.4V18.2Z" fill="#FFAA5E"/>
<path d="M59.7273 18.2H58.4V19.6H59.7273V18.2Z" fill="#FFAA5E"/>
<path d="M61.0545 18.2H59.7273V19.6H61.0545V18.2Z" fill="#FFAA5E"/>
<path d="M62.3818 18.2H61.0545V19.6H62.3818V18.2Z" fill="#FFAA5E"/>
<path d="M63.7091 18.2H62.3818V19.6H63.7091V18.2Z" fill="#FFAA5E"/>
<path d="M65.0364 18.2H63.7091V19.6H65.0364V18.2Z" fill="#FFAA5E"/>
<path d="M66.3636 18.2H65.0364V19.6H66.3636V18.2Z" fill="#FFAA5E"/>
<path d="M67.6909 18.2H66.3636V19.6H67.6909V18.2Z" fill="#FFAA5E"/>
<path d="M69.0182 18.2H67.6909V19.6H69.0182V18.2Z" fill="#FFAA5E"/>
<path d="M70.3455 18.2H69.0182V19.6H70.3455V18.2Z" fill="#FFAA5E"/>
<path d="M19.9091 19.6H18.5818V21H19.9091V19.6Z" fill="#FFAA5E"/>
<path d="M21.2364 19.6H19.9091V21H21.2364V19.6Z" fill="#FFAA5E"/>
<path d="M22.5636 19.6H21.2364V21H22.5636V19.6Z" fill="#FFAA5E"/>
<path d="M23.8909 19.6H22.5636V21H23.8909V19.6Z" fill="#FFAA5E"/>
<path d="M25.2182 19.6H23.8909V21H25.2182V19.6Z" fill="#FFAA5E"/>
<path d="M26.5455 19.6H25.2182V21H26.5455V19.6Z" fill="#FFAA5E"/>
<path d="M27.8727 19.6H26.5455V21H27.8727V19.6Z" fill="#FFAA5E"/>
<path d="M29.2 19.6H27.8727V21H29.2V19.6Z" fill="#FFAA5E"/>
<path d="M30.5273 19.6H29.2V21H30.5273V19.6Z" fill="#FFAA5E"/>
<path d="M31.8545 19.6H30.5273V21H31.8545V19.6Z" fill="#FFAA5E"/>
<path d="M33.1818 19.6H31.8545V21H33.1818V19.6Z" fill="#FFAA5E"/>
<path d="M34.5091 19.6H33.1818V21H34.5091V19.6Z" fill="#FFAA5E"/>
<path d="M35.8364 19.6H34.5091V21H35.8364V19.6Z" fill="#FFAA5E"/>
<path d="M37.1636 19.6H35.8364V21H37.1636V19.6Z" fill="#FFAA5E"/>
<path d="M38.4909 19.6H37.1636V21H38.4909V19.6Z" fill="#FFAA5E"/>
<path d="M39.8182 19.6H38.4909V21H39.8182V19.6Z" fill="#FFAA5E"/>
<path d="M41.1455 19.6H39.8182V21H41.1455V19.6Z" fill="#FFAA5E"/>
<path d="M42.4727 19.6H41.1455V21H42.4727V19.6Z" fill="#FFAA5E"/>
<path d="M43.8 19.6H42.4727V21H43.8V19.6Z" fill="#FFAA5E"/>
<path d="M45.1273 19.6H43.8V21H45.1273V19.6Z" fill="#FFAA5E"/>
<path d="M53.0909 19.6H51.7636V21H53.0909V19.6Z" fill="#FFAA5E"/>
<path d="M54.4182 19.6H53.0909V21H54.4182V19.6Z" fill="#FFAA5E"/>
<path d="M55.7455 19.6H54.4182V21H55.7455V19.6Z" fill="#FFAA5E"/>
<path d="M57.0727 19.6H55.7455V21H57.0727V19.6Z" fill="#FFAA5E"/>
<path d="M58.4 19.6H57.0727V21H58.4V19.6Z" fill="#FFAA5E"/>
<path d="M59.7273 19.6H58.4V21H59.7273V19.6Z" fill="#FFAA5E"/>
<path d="M61.0545 19.6H59.7273V21H61.0545V19.6Z" fill="#FFAA5E"/>
<path d="M62.3818 19.6H61.0545V21H62.3818V19.6Z" fill="#FFAA5E"/>
<path d="M63.7091 19.6H62.3818V21H63.7091V19.6Z" fill="#FFAA5E"/>
<path d="M65.0364 19.6H63.7091V21H65.0364V19.6Z" fill="#FFAA5E"/>
<path d="M66.3636 19.6H65.0364V21H66.3636V19.6Z" fill="#FFAA5E"/>
<path d="M67.6909 19.6H66.3636V21H67.6909V19.6Z" fill="#FFAA5E"/>
<path d="M69.0182 19.6H67.6909V21H69.0182V19.6Z" fill="#FFAA5E"/>
<path d="M70.3455 19.6H69.0182V21H70.3455V19.6Z" fill="#FFAA5E"/>
<path d="M17.2545 21H15.9273V22.4H17.2545V21Z" fill="#FFAA5E"/>
<path d="M18.5818 21H17.2545V22.4H18.5818V21Z" fill="#FFAA5E"/>
<path d="M19.9091 21H18.5818V22.4H19.9091V21Z" fill="#FFAA5E"/>
<path d="M21.2364 21H19.9091V22.4H21.2364V21Z" fill="#FFAA5E"/>
<path d="M22.5636 21H21.2364V22.4H22.5636V21Z" fill="#FFAA5E"/>
<path d="M23.8909 21H22.5636V22.4H23.8909V21Z" fill="#FFAA5E"/>
<path d="M25.2182 21H23.8909V22.4H25.2182V21Z" fill="#FFAA5E"/>
<path d="M26.5455 21H25.2182V22.4H26.5455V21Z" fill="#FFAA5E"/>
<path d="M27.8727 21H26.5455V22.4H27.8727V21Z" fill="#FFAA5E"/>
<path d="M29.2 21H27.8727V22.4H29.2V21Z" fill="#FFAA5E"/>
<path d="M30.5273 21H29.2V22.4H30.5273V21Z" fill="#FFAA5E"/>
<path d="M31.8545 21H30.5273V22.4H31.8545V21Z" fill="#FFAA5E"/>
<path d="M33.1818 21H31.8545V22.4H33.1818V21Z" fill="#FFAA5E"/>
<path d="M34.5091 21H33.1818V22.4H34.5091V21Z" fill="#FFAA5E"/>
<path d="M35.8364 21H34.5091V22.4H35.8364V21Z" fill="#FFAA5E"/>
<path d="M37.1636 21H35.8364V22.4H37.1636V21Z" fill="#FFAA5E"/>
<path d="M38.4909 21H37.1636V22.4H38.4909V21Z" fill="#FFAA5E"/>
<path d="M39.8182 21H38.4909V22.4H39.8182V21Z" fill="#FFAA5E"/>
<path d="M41.1455 21H39.8182V22.4H41.1455V21Z" fill="#FFAA5E"/>
<path d="M42.4727 21H41.1455V22.4H42.4727V21Z" fill="#FFAA5E"/>
<path d="M43.8 21H42.4727V22.4H43.8V21Z" fill="#FFAA5E"/>
<path d="M51.7636 21H50.4364V22.4H51.7636V21Z" fill="#FFAA5E"/>
<path d="M53.0909 21H51.7636V22.4H53.0909V21Z" fill="#FFAA5E"/>
<path d="M54.4182 21H53.0909V22.4H54.4182V21Z" fill="#FFAA5E"/>
<path d="M55.7455 21H54.4182V22.4H55.7455V21Z" fill="#FFAA5E"/>
<path d="M57.0727 21H55.7455V22.4H57.0727V21Z" fill="#FFAA5E"/>
<path d="M58.4 21H57.0727V22.4H58.4V21Z" fill="#FFAA5E"/>
<path d="M59.7273 21H58.4V22.4H59.7273V21Z" fill="#FFAA5E"/>
<path d="M61.0545 21H59.7273V22.4H61.0545V21Z" fill="#FFAA5E"/>
<path d="M62.3818 21H61.0545V22.4H62.3818V21Z" fill="#FFAA5E"/>
<path d="M63.7091 21H62.3818V22.4H63.7091V21Z" fill="#FFAA5E"/>
<path d="M65.0364 21H63.7091V22.4H65.0364V21Z" fill="#FFAA5E"/>
<path d="M66.3636 21H65.0364V22.4H66.3636V21Z" fill="#FFAA5E"/>
<path d="M67.6909 21H66.3636V22.4H67.6909V21Z" fill="#FFAA5E"/>
<path d="M69.0182 21H67.6909V22.4H69.0182V21Z" fill="#FFAA5E"/>
<path d="M70.3455 21H69.0182V22.4H70.3455V21Z" fill="#FFAA5E"/>
<path d="M14.6 22.4H13.2727V23.8H14.6V22.4Z" fill="#FFAA5E"/>
<path d="M15.9273 22.4H14.6V23.8H15.9273V22.4Z" fill="#FFAA5E"/>
<path d="M17.2545 22.4H15.9273V23.8H17.2545V22.4Z" fill="#FFAA5E"/>
<path d="M18.5818 22.4H17.2545V23.8H18.5818V22.4Z" fill="#FFAA5E"/>
<path d="M19.9091 22.4H18.5818V23.8H19.9091V22.4Z" fill="#FFAA5E"/>
<path d="M21.2364 22.4H19.9091V23.8H21.2364V22.4Z" fill="#FFAA5E"/>
<path d="M22.5636 22.4H21.2364V23.8H22.5636V22.4Z" fill="#FFAA5E"/>
<path d="M23.8909 22.4H22.5636V23.8H23.8909V22.4Z" fill="#FFAA5E"/>
<path d="M25.2182 22.4H23.8909V23.8H25.2182V22.4Z" fill="#FFAA5E"/>
<path d="M26.5455 22.4H25.2182V23.8H26.5455V22.4Z" fill="#FFAA5E"/>
<path d="M27.8727 22.4H26.5455V23.8H27.8727V22.4Z" fill="#FFAA5E"/>
<path d="M29.2 22.4H27.8727V23.8H29.2V22.4Z" fill="#FFAA5E"/>
<path d="M30.5273 22.4H29.2V23.8H30.5273V22.4Z" fill="#FFAA5E"/>
<path d="M31.8545 22.4H30.5273V23.8H31.8545V22.4Z" fill="#FFAA5E"/>
<path d="M33.1818 22.4H31.8545V23.8H33.1818V22.4Z" fill="#FFAA5E"/>
<path d="M34.5091 22.4H33.1818V23.8H34.5091V22.4Z" fill="#FFAA5E"/>
<path d="M35.8364 22.4H34.5091V23.8H35.8364V22.4Z" fill="#FFAA5E"/>
<path d="M37.1636 22.4H35.8364V23.8H37.1636V22.4Z" fill="#FFAA5E"/>
<path d="M38.4909 22.4H37.1636V23.8H38.4909V22.4Z" fill="#FFAA5E"/>
<path d="M39.8182 22.4H38.4909V23.8H39.8182V22.4Z" fill="#FFAA5E"/>
<path d="M41.1455 22.4H39.8182V23.8H41.1455V22.4Z" fill="#FFAA5E"/>
<path d="M50.4364 22.4H49.1091V23.8H50.4364V22.4Z" fill="#FFAA5E"/>
<path d="M51.7636 22.4H50.4364V23.8H51.7636V22.4Z" fill="#FFAA5E"/>
<path d="M53.0909 22.4H51.7636V23.8H53.0909V22.4Z" fill="#FFAA5E"/>
<path d="M54.4182 22.4H53.0909V23.8H54.4182V22.4Z" fill="#FFAA5E"/>
<path d="M55.7455 22.4H54.4182V23.8H55.7455V22.4Z" fill="#FFAA5E"/>
<path d="M57.0727 22.4H55.7455V23.8H57.0727V22.4Z" fill="#FFAA5E"/>
<path d="M58.4 22.4H57.0727V23.8H58.4V22.4Z" fill="#FFAA5E"/>
<path d="M59.7273 22.4H58.4V23.8H59.7273V22.4Z" fill="#FFAA5E"/>
<path d="M61.0545 22.4H59.7273V23.8H61.0545V22.4Z" fill="#FFAA5E"/>
<path d="M62.3818 22.4H61.0545V23.8H62.3818V22.4Z" fill="#FFAA5E"/>
<path d="M63.7091 22.4H62.3818V23.8H63.7091V22.4Z" fill="#FFAA5E"/>
<path d="M65.0364 22.4H63.7091V23.8H65.0364V22.4Z" fill="#FFAA5E"/>
<path d="M66.3636 22.4H65.0364V23.8H66.3636V22.4Z" fill="#FFAA5E"/>
<path d="M67.6909 22.4H66.3636V23.8H67.6909V22.4Z" fill="#FFAA5E"/>
<path d="M69.0182 22.4H67.6909V23.8H69.0182V22.4Z" fill="#FFAA5E"/>
<path d="M70.3455 22.4H69.0182V23.8H70.3455V22.4Z" fill="#FFAA5E"/>
<path d="M10.6182 23.8H9.29091V25.2H10.6182V23.8Z" fill="#FFAA5E"/>
<path d="M11.9455 23.8H10.6182V25.2H11.9455V23.8Z" fill="#FFAA5E"/>
<path d="M13.2727 23.8H11.9455V25.2H13.2727V23.8Z" fill="#FFAA5E"/>
<path d="M14.6 23.8H13.2727V25.2H14.6V23.8Z" fill="#FFAA5E"/>
<path d="M15.9273 23.8H14.6V25.2H15.9273V23.8Z" fill="#FFAA5E"/>
<path d="M17.2545 23.8H15.9273V25.2H17.2545V23.8Z" fill="#FFAA5E"/>
<path d="M18.5818 23.8H17.2545V25.2H18.5818V23.8Z" fill="#FFAA5E"/>
<path d="M19.9091 23.8H18.5818V25.2H19.9091V23.8Z" fill="#FFAA5E"/>
<path d="M21.2364 23.8H19.9091V25.2H21.2364V23.8Z" fill="#FFAA5E"/>
<path d="M22.5636 23.8H21.2364V25.2H22.5636V23.8Z" fill="#FFAA5E"/>
<path d="M23.8909 23.8H22.5636V25.2H23.8909V23.8Z" fill="#FFAA5E"/>
<path d="M25.2182 23.8H23.8909V25.2H25.2182V23.8Z" fill="#FFAA5E"/>
<path d="M26.5455 23.8H25.2182V25.2H26.5455V23.8Z" fill="#FFAA5E"/>
<path d="M27.8727 23.8H26.5455V25.2H27.8727V23.8Z" fill="#FFAA5E"/>
<path d="M29.2 23.8H27.8727V25.2H29.2V23.8Z" fill="#FFAA5E"/>
<path d="M30.5273 23.8H29.2V25.2H30.5273V23.8Z" fill="#FFAA5E"/>
<path d="M31.8545 23.8H30.5273V25.2H31.8545V23.8Z" fill="#FFAA5E"/>
<path d="M33.1818 23.8H31.8545V25.2H33.1818V23.8Z" fill="#FFAA5E"/>
<path d="M34.5091 23.8H33.1818V25.2H34.5091V23.8Z" fill="#FFAA5E"/>
<path d="M35.8364 23.8H34.5091V25.2H35.8364V23.8Z" fill="#FFAA5E"/>
<path d="M37.1636 23.8H35.8364V25.2H37.1636V23.8Z" fill="#FFAA5E"/>
<path d="M38.4909 23.8H37.1636V25.2H38.4909V23.8Z" fill="#FFAA5E"/>
<path d="M39.8182 23.8H38.4909V25.2H39.8182V23.8Z" fill="#FFAA5E"/>
<path d="M49.1091 23.8H47.7818V25.2H49.1091V23.8Z" fill="#FFAA5E"/>
<path d="M50.4364 23.8H49.1091V25.2H50.4364V23.8Z" fill="#FFAA5E"/>
<path d="M51.7636 23.8H50.4364V25.2H51.7636V23.8Z" fill="#FFAA5E"/>
<path d="M53.0909 23.8H51.7636V25.2H53.0909V23.8Z" fill="#FFAA5E"/>
<path d="M54.4182 23.8H53.0909V25.2H54.4182V23.8Z" fill="#FFAA5E"/>
<path d="M55.7455 23.8H54.4182V25.2H55.7455V23.8Z" fill="#FFAA5E"/>
<path d="M57.0727 23.8H55.7455V25.2H57.0727V23.8Z" fill="#FFAA5E"/>
<path d="M58.4 23.8H57.0727V25.2H58.4V23.8Z" fill="#FFAA5E"/>
<path d="M59.7273 23.8H58.4V25.2H59.7273V23.8Z" fill="#FFAA5E"/>
<path d="M61.0545 23.8H59.7273V25.2H61.0545V23.8Z" fill="#FFAA5E"/>
<path d="M62.3818 23.8H61.0545V25.2H62.3818V23.8Z" fill="#FFAA5E"/>
<path d="M63.7091 23.8H62.3818V25.2H63.7091V23.8Z" fill="#FFAA5E"/>
<path d="M65.0364 23.8H63.7091V25.2H65.0364V23.8Z" fill="#FFAA5E"/>
<path d="M66.3636 23.8H65.0364V25.2H66.3636V23.8Z" fill="#FFAA5E"/>
<path d="M67.6909 23.8H66.3636V25.2H67.6909V23.8Z" fill="#FFAA5E"/>
<path d="M69.0182 23.8H67.6909V25.2H69.0182V23.8Z" fill="#FFAA5E"/>
<path d="M70.3455 23.8H69.0182V25.2H70.3455V23.8Z" fill="#FFAA5E"/>
<path d="M7.96364 25.2H6.63636V26.6H7.96364V25.2Z" fill="#FFAA5E"/>
<path d="M9.29091 25.2H7.96364V26.6H9.29091V25.2Z" fill="#FFAA5E"/>
<path d="M10.6182 25.2H9.29091V26.6H10.6182V25.2Z" fill="#FFAA5E"/>
<path d="M11.9455 25.2H10.6182V26.6H11.9455V25.2Z" fill="#FFAA5E"/>
<path d="M13.2727 25.2H11.9455V26.6H13.2727V25.2Z" fill="#FFAA5E"/>
<path d="M14.6 25.2H13.2727V26.6H14.6V25.2Z" fill="#FFAA5E"/>
<path d="M15.9273 25.2H14.6V26.6H15.9273V25.2Z" fill="#FFAA5E"/>
<path d="M17.2545 25.2H15.9273V26.6H17.2545V25.2Z" fill="#FFAA5E"/>
<path d="M18.5818 25.2H17.2545V26.6H18.5818V25.2Z" fill="#FFAA5E"/>
<path d="M19.9091 25.2H18.5818V26.6H19.9091V25.2Z" fill="#FFAA5E"/>
<path d="M21.2364 25.2H19.9091V26.6H21.2364V25.2Z" fill="#FFAA5E"/>
<path d="M22.5636 25.2H21.2364V26.6H22.5636V25.2Z" fill="#FFAA5E"/>
<path d="M23.8909 25.2H22.5636V26.6H23.8909V25.2Z" fill="#FFAA5E"/>
<path d="M25.2182 25.2H23.8909V26.6H25.2182V25.2Z" fill="#FFAA5E"/>
<path d="M26.5455 25.2H25.2182V26.6H26.5455V25.2Z" fill="#FFAA5E"/>
<path d="M27.8727 25.2H26.5455V26.6H27.8727V25.2Z" fill="#FFAA5E"/>
<path d="M29.2 25.2H27.8727V26.6H29.2V25.2Z" fill="#FFAA5E"/>
<path d="M30.5273 25.2H29.2V26.6H30.5273V25.2Z" fill="#FFAA5E"/>
<path d="M31.8545 25.2H30.5273V26.6H31.8545V25.2Z" fill="#FFAA5E"/>
<path d="M33.1818 25.2H31.8545V26.6H33.1818V25.2Z" fill="#FFAA5E"/>
<path d="M34.5091 25.2H33.1818V26.6H34.5091V25.2Z" fill="#FFAA5E"/>
<path d="M35.8364 25.2H34.5091V26.6H35.8364V25.2Z" fill="#FFAA5E"/>
<path d="M37.1636 25.2H35.8364V26.6H37.1636V25.2Z" fill="#FFAA5E"/>
<path d="M47.7818 25.2H46.4545V26.6H47.7818V25.2Z" fill="#FFAA5E"/>
<path d="M49.1091 25.2H47.7818V26.6H49.1091V25.2Z" fill="#FFAA5E"/>
<path d="M50.4364 25.2H49.1091V26.6H50.4364V25.2Z" fill="#FFAA5E"/>
<path d="M51.7636 25.2H50.4364V26.6H51.7636V25.2Z" fill="#FFAA5E"/>
<path d="M53.0909 25.2H51.7636V26.6H53.0909V25.2Z" fill="#FFAA5E"/>
<path d="M54.4182 25.2H53.0909V26.6H54.4182V25.2Z" fill="#FFAA5E"/>
<path d="M55.7455 25.2H54.4182V26.6H55.7455V25.2Z" fill="#FFAA5E"/>
<path d="M57.0727 25.2H55.7455V26.6H57.0727V25.2Z" fill="#FFAA5E"/>
<path d="M58.4 25.2H57.0727V26.6H58.4V25.2Z" fill="#FFAA5E"/>
<path d="M59.7273 25.2H58.4V26.6H59.7273V25.2Z" fill="#FFAA5E"/>
<path d="M61.0545 25.2H59.7273V26.6H61.0545V25.2Z" fill="#FFAA5E"/>
<path d="M62.3818 25.2H61.0545V26.6H62.3818V25.2Z" fill="#FFAA5E"/>
<path d="M63.7091 25.2H62.3818V26.6H63.7091V25.2Z" fill="#FFAA5E"/>
<path d="M65.0364 25.2H63.7091V26.6H65.0364V25.2Z" fill="#FFAA5E"/>
<path d="M66.3636 25.2H65.0364V26.6H66.3636V25.2Z" fill="#FFAA5E"/>
<path d="M67.6909 25.2H66.3636V26.6H67.6909V25.2Z" fill="#FFAA5E"/>
<path d="M69.0182 25.2H67.6909V26.6H69.0182V25.2Z" fill="#FFAA5E"/>
<path d="M70.3455 25.2H69.0182V26.6H70.3455V25.2Z" fill="#FFAA5E"/>
<path d="M5.30909 26.6H3.98182V28H5.30909V26.6Z" fill="#FFAA5E"/>
<path d="M6.63636 26.6H5.30909V28H6.63636V26.6Z" fill="#FFAA5E"/>
<path d="M7.96364 26.6H6.63636V28H7.96364V26.6Z" fill="#FFAA5E"/>
<path d="M9.29091 26.6H7.96364V28H9.29091V26.6Z" fill="#FFAA5E"/>
<path d="M10.6182 26.6H9.29091V28H10.6182V26.6Z" fill="#FFAA5E"/>
<path d="M11.9455 26.6H10.6182V28H11.9455V26.6Z" fill="#FFAA5E"/>
<path d="M13.2727 26.6H11.9455V28H13.2727V26.6Z" fill="#FFAA5E"/>
<path d="M14.6 26.6H13.2727V28H14.6V26.6Z" fill="#FFAA5E"/>
<path d="M15.9273 26.6H14.6V28H15.9273V26.6Z" fill="#FFAA5E"/>
<path d="M17.2545 26.6H15.9273V28H17.2545V26.6Z" fill="#FFAA5E"/>
<path d="M18.5818 26.6H17.2545V28H18.5818V26.6Z" fill="#FFAA5E"/>
<path d="M19.9091 26.6H18.5818V28H19.9091V26.6Z" fill="#FFAA5E"/>
<path d="M21.2364 26.6H19.9091V28H21.2364V26.6Z" fill="#FFAA5E"/>
<path d="M22.5636 26.6H21.2364V28H22.5636V26.6Z" fill="#FFAA5E"/>
<path d="M23.8909 26.6H22.5636V28H23.8909V26.6Z" fill="#FFAA5E"/>
<path d="M25.2182 26.6H23.8909V28H25.2182V26.6Z" fill="#FFAA5E"/>
<path d="M26.5455 26.6H25.2182V28H26.5455V26.6Z" fill="#FFAA5E"/>
<path d="M27.8727 26.6H26.5455V28H27.8727V26.6Z" fill="#FFAA5E"/>
<path d="M29.2 26.6H27.8727V28H29.2V26.6Z" fill="#FFAA5E"/>
<path d="M30.5273 26.6H29.2V28H30.5273V26.6Z" fill="#FFAA5E"/>
<path d="M31.8545 26.6H30.5273V28H31.8545V26.6Z" fill="#FFAA5E"/>
<path d="M33.1818 26.6H31.8545V28H33.1818V26.6Z" fill="#FFAA5E"/>
<path d="M34.5091 26.6H33.1818V28H34.5091V26.6Z" fill="#FFAA5E"/>
<path d="M35.8364 26.6H34.5091V28H35.8364V26.6Z" fill="#FFAA5E"/>
<path d="M46.4545 26.6H45.1273V28H46.4545V26.6Z" fill="#FFAA5E"/>
<path d="M47.7818 26.6H46.4545V28H47.7818V26.6Z" fill="#FFAA5E"/>
<path d="M49.1091 26.6H47.7818V28H49.1091V26.6Z" fill="#FFAA5E"/>
<path d="M50.4364 26.6H49.1091V28H50.4364V26.6Z" fill="#FFAA5E"/>
<path d="M51.7636 26.6H50.4364V28H51.7636V26.6Z" fill="#FFAA5E"/>
<path d="M53.0909 26.6H51.7636V28H53.0909V26.6Z" fill="#FFAA5E"/>
<path d="M54.4182 26.6H53.0909V28H54.4182V26.6Z" fill="#FFAA5E"/>
<path d="M55.7455 26.6H54.4182V28H55.7455V26.6Z" fill="#FFAA5E"/>
<path d="M57.0727 26.6H55.7455V28H57.0727V26.6Z" fill="#FFAA5E"/>
<path d="M58.4 26.6H57.0727V28H58.4V26.6Z" fill="#FFAA5E"/>
<path d="M59.7273 26.6H58.4V28H59.7273V26.6Z" fill="#FFAA5E"/>
<path d="M61.0545 26.6H59.7273V28H61.0545V26.6Z" fill="#FFAA5E"/>
<path d="M62.3818 26.6H61.0545V28H62.3818V26.6Z" fill="#FFAA5E"/>
<path d="M63.7091 26.6H62.3818V28H63.7091V26.6Z" fill="#FFAA5E"/>
<path d="M65.0364 26.6H63.7091V28H65.0364V26.6Z" fill="#FFAA5E"/>
<path d="M66.3636 26.6H65.0364V28H66.3636V26.6Z" fill="#FFAA5E"/>
<path d="M67.6909 26.6H66.3636V28H67.6909V26.6Z" fill="#FFAA5E"/>
<path d="M69.0182 26.6H67.6909V28H69.0182V26.6Z" fill="#FFAA5E"/>
<path d="M2.65455 28H1.32727V29.4H2.65455V28Z" fill="#FFAA5E"/>
<path d="M3.98182 28H2.65455V29.4H3.98182V28Z" fill="#FFAA5E"/>
<path d="M5.30909 28H3.98182V29.4H5.30909V28Z" fill="#FFAA5E"/>
<path d="M6.63636 28H5.30909V29.4H6.63636V28Z" fill="#FFAA5E"/>
<path d="M7.96364 28H6.63636V29.4H7.96364V28Z" fill="#FFAA5E"/>
<path d="M9.29091 28H7.96364V29.4H9.29091V28Z" fill="#FFAA5E"/>
<path d="M10.6182 28H9.29091V29.4H10.6182V28Z" fill="#FFAA5E"/>
<path d="M11.9455 28H10.6182V29.4H11.9455V28Z" fill="#FFAA5E"/>
<path d="M13.2727 28H11.9455V29.4H13.2727V28Z" fill="#FFAA5E"/>
<path d="M14.6 28H13.2727V29.4H14.6V28Z" fill="#FFAA5E"/>
<path d="M15.9273 28H14.6V29.4H15.9273V28Z" fill="#FFAA5E"/>
<path d="M17.2545 28H15.9273V29.4H17.2545V28Z" fill="#FFAA5E"/>
<path d="M18.5818 28H17.2545V29.4H18.5818V28Z" fill="#FFAA5E"/>
<path d="M19.9091 28H18.5818V29.4H19.9091V28Z" fill="#FFAA5E"/>
<path d="M21.2364 28H19.9091V29.4H21.2364V28Z" fill="#FFAA5E"/>
<path d="M22.5636 28H21.2364V29.4H22.5636V28Z" fill="#FFAA5E"/>
<path d="M23.8909 28H22.5636V29.4H23.8909V28Z" fill="#FFAA5E"/>
<path d="M25.2182 28H23.8909V29.4H25.2182V28Z" fill="#FFAA5E"/>
<path d="M26.5455 28H25.2182V29.4H26.5455V28Z" fill="#FFAA5E"/>
<path d="M27.8727 28H26.5455V29.4H27.8727V28Z" fill="#FFAA5E"/>
<path d="M29.2 28H27.8727V29.4H29.2V28Z" fill="#FFAA5E"/>
<path d="M30.5273 28H29.2V29.4H30.5273V28Z" fill="#FFAA5E"/>
<path d="M31.8545 28H30.5273V29.4H31.8545V28Z" fill="#FFAA5E"/>
<path d="M33.1818 28H31.8545V29.4H33.1818V28Z" fill="#FFAA5E"/>
<path d="M45.1273 28H43.8V29.4H45.1273V28Z" fill="#FFAA5E"/>
<path d="M46.4545 28H45.1273V29.4H46.4545V28Z" fill="#FFAA5E"/>
<path d="M47.7818 28H46.4545V29.4H47.7818V28Z" fill="#FFAA5E"/>
<path d="M49.1091 28H47.7818V29.4H49.1091V28Z" fill="#FFAA5E"/>
<path d="M50.4364 28H49.1091V29.4H50.4364V28Z" fill="#FFAA5E"/>
<path d="M51.7636 28H50.4364V29.4H51.7636V28Z" fill="#FFAA5E"/>
<path d="M53.0909 28H51.7636V29.4H53.0909V28Z" fill="#FFAA5E"/>
<path d="M54.4182 28H53.0909V29.4H54.4182V28Z" fill="#FFAA5E"/>
<path d="M55.7455 28H54.4182V29.4H55.7455V28Z" fill="#FFAA5E"/>
<path d="M57.0727 28H55.7455V29.4H57.0727V28Z" fill="#FFAA5E"/>
<path d="M58.4 28H57.0727V29.4H58.4V28Z" fill="#FFAA5E"/>
<path d="M59.7273 28H58.4V29.4H59.7273V28Z" fill="#FFAA5E"/>
<path d="M61.0545 28H59.7273V29.4H61.0545V28Z" fill="#FFAA5E"/>
<path d="M62.3818 28H61.0545V29.4H62.3818V28Z" fill="#FFAA5E"/>
<path d="M63.7091 28H62.3818V29.4H63.7091V28Z" fill="#FFAA5E"/>
<path d="M65.0364 28H63.7091V29.4H65.0364V28Z" fill="#FFAA5E"/>
<path d="M66.3636 28H65.0364V29.4H66.3636V28Z" fill="#FFAA5E"/>
<path d="M67.6909 28H66.3636V29.4H67.6909V28Z" fill="#FFAA5E"/>
<path d="M69.0182 28H67.6909V29.4H69.0182V28Z" fill="#FFAA5E"/>
<path d="M1.32727 29.4H0V30.8H1.32727V29.4Z" fill="#FFAA5E"/>
<path d="M2.65455 29.4H1.32727V30.8H2.65455V29.4Z" fill="#FFAA5E"/>
<path d="M3.98182 29.4H2.65455V30.8H3.98182V29.4Z" fill="#FFAA5E"/>
<path d="M5.30909 29.4H3.98182V30.8H5.30909V29.4Z" fill="#FFAA5E"/>
<path d="M6.63636 29.4H5.30909V30.8H6.63636V29.4Z" fill="#FFAA5E"/>
<path d="M7.96364 29.4H6.63636V30.8H7.96364V29.4Z" fill="#FFAA5E"/>
<path d="M9.29091 29.4H7.96364V30.8H9.29091V29.4Z" fill="#FFAA5E"/>
<path d="M10.6182 29.4H9.29091V30.8H10.6182V29.4Z" fill="#FFAA5E"/>
<path d="M11.9455 29.4H10.6182V30.8H11.9455V29.4Z" fill="#FFAA5E"/>
<path d="M13.2727 29.4H11.9455V30.8H13.2727V29.4Z" fill="#FFAA5E"/>
<path d="M14.6 29.4H13.2727V30.8H14.6V29.4Z" fill="#FFAA5E"/>
<path d="M15.9273 29.4H14.6V30.8H15.9273V29.4Z" fill="#FFAA5E"/>
<path d="M17.2545 29.4H15.9273V30.8H17.2545V29.4Z" fill="#FFAA5E"/>
<path d="M18.5818 29.4H17.2545V30.8H18.5818V29.4Z" fill="#FFAA5E"/>
<path d="M19.9091 29.4H18.5818V30.8H19.9091V29.4Z" fill="#FFAA5E"/>
<path d="M21.2364 29.4H19.9091V30.8H21.2364V29.4Z" fill="#FFAA5E"/>
<path d="M22.5636 29.4H21.2364V30.8H22.5636V29.4Z" fill="#FFAA5E"/>
<path d="M23.8909 29.4H22.5636V30.8H23.8909V29.4Z" fill="#FFAA5E"/>
<path d="M25.2182 29.4H23.8909V30.8H25.2182V29.4Z" fill="#FFAA5E"/>
<path d="M26.5455 29.4H25.2182V30.8H26.5455V29.4Z" fill="#FFAA5E"/>
<path d="M27.8727 29.4H26.5455V30.8H27.8727V29.4Z" fill="#FFAA5E"/>
<path d="M29.2 29.4H27.8727V30.8H29.2V29.4Z" fill="#FFAA5E"/>
<path d="M30.5273 29.4H29.2V30.8H30.5273V29.4Z" fill="#FFAA5E"/>
<path d="M31.8545 29.4H30.5273V30.8H31.8545V29.4Z" fill="#FFAA5E"/>
<path d="M43.8 29.4H42.4727V30.8H43.8V29.4Z" fill="#FFAA5E"/>
<path d="M45.1273 29.4H43.8V30.8H45.1273V29.4Z" fill="#FFAA5E"/>
<path d="M46.4545 29.4H45.1273V30.8H46.4545V29.4Z" fill="#FFAA5E"/>
<path d="M47.7818 29.4H46.4545V30.8H47.7818V29.4Z" fill="#FFAA5E"/>
<path d="M49.1091 29.4H47.7818V30.8H49.1091V29.4Z" fill="#FFAA5E"/>
<path d="M50.4364 29.4H49.1091V30.8H50.4364V29.4Z" fill="#FFAA5E"/>
<path d="M51.7636 29.4H50.4364V30.8H51.7636V29.4Z" fill="#FFAA5E"/>
<path d="M53.0909 29.4H51.7636V30.8H53.0909V29.4Z" fill="#FFAA5E"/>
<path d="M54.4182 29.4H53.0909V30.8H54.4182V29.4Z" fill="#FFAA5E"/>
<path d="M55.7455 29.4H54.4182V30.8H55.7455V29.4Z" fill="#FFAA5E"/>
<path d="M57.0727 29.4H55.7455V30.8H57.0727V29.4Z" fill="#FFAA5E"/>
<path d="M58.4 29.4H57.0727V30.8H58.4V29.4Z" fill="#FFAA5E"/>
<path d="M59.7273 29.4H58.4V30.8H59.7273V29.4Z" fill="#FFAA5E"/>
<path d="M61.0545 29.4H59.7273V30.8H61.0545V29.4Z" fill="#FFAA5E"/>
<path d="M62.3818 29.4H61.0545V30.8H62.3818V29.4Z" fill="#FFAA5E"/>
<path d="M63.7091 29.4H62.3818V30.8H63.7091V29.4Z" fill="#FFAA5E"/>
<path d="M65.0364 29.4H63.7091V30.8H65.0364V29.4Z" fill="#FFAA5E"/>
<path d="M66.3636 29.4H65.0364V30.8H66.3636V29.4Z" fill="#FFAA5E"/>
<path d="M67.6909 29.4H66.3636V30.8H67.6909V29.4Z" fill="#FFAA5E"/>
<path d="M69.0182 29.4H67.6909V30.8H69.0182V29.4Z" fill="#FFAA5E"/>
<path d="M1.32727 30.8H0V32.2H1.32727V30.8Z" fill="#FFAA5E"/>
<path d="M2.65455 30.8H1.32727V32.2H2.65455V30.8Z" fill="#FFAA5E"/>
<path d="M3.98182 30.8H2.65455V32.2H3.98182V30.8Z" fill="#FFAA5E"/>
<path d="M5.30909 30.8H3.98182V32.2H5.30909V30.8Z" fill="#FFAA5E"/>
<path d="M6.63636 30.8H5.30909V32.2H6.63636V30.8Z" fill="#FFAA5E"/>
<path d="M7.96364 30.8H6.63636V32.2H7.96364V30.8Z" fill="#FFAA5E"/>
<path d="M9.29091 30.8H7.96364V32.2H9.29091V30.8Z" fill="#FFAA5E"/>
<path d="M10.6182 30.8H9.29091V32.2H10.6182V30.8Z" fill="#FFAA5E"/>
<path d="M11.9455 30.8H10.6182V32.2H11.9455V30.8Z" fill="#FFAA5E"/>
<path d="M13.2727 30.8H11.9455V32.2H13.2727V30.8Z" fill="#FFAA5E"/>
<path d="M14.6 30.8H13.2727V32.2H14.6V30.8Z" fill="#FFAA5E"/>
<path d="M15.9273 30.8H14.6V32.2H15.9273V30.8Z" fill="#FFAA5E"/>
<path d="M17.2545 30.8H15.9273V32.2H17.2545V30.8Z" fill="#FFAA5E"/>
<path d="M18.5818 30.8H17.2545V32.2H18.5818V30.8Z" fill="#FFAA5E"/>
<path d="M19.9091 30.8H18.5818V32.2H19.9091V30.8Z" fill="#FFAA5E"/>
<path d="M21.2364 30.8H19.9091V32.2H21.2364V30.8Z" fill="#FFAA5E"/>
<path d="M22.5636 30.8H21.2364V32.2H22.5636V30.8Z" fill="#FFAA5E"/>
<path d="M23.8909 30.8H22.5636V32.2H23.8909V30.8Z" fill="#FFAA5E"/>
<path d="M25.2182 30.8H23.8909V32.2H25.2182V30.8Z" fill="#FFAA5E"/>
<path d="M26.5455 30.8H25.2182V32.2H26.5455V30.8Z" fill="#FFAA5E"/>
<path d="M27.8727 30.8H26.5455V32.2H27.8727V30.8Z" fill="#FFAA5E"/>
<path d="M29.2 30.8H27.8727V32.2H29.2V30.8Z" fill="#FFAA5E"/>
<path d="M42.4727 30.8H41.1455V32.2H42.4727V30.8Z" fill="#FFAA5E"/>
<path d="M43.8 30.8H42.4727V32.2H43.8V30.8Z" fill="#FFAA5E"/>
<path d="M45.1273 30.8H43.8V32.2H45.1273V30.8Z" fill="#FFAA5E"/>
<path d="M46.4545 30.8H45.1273V32.2H46.4545V30.8Z" fill="#FFAA5E"/>
<path d="M47.7818 30.8H46.4545V32.2H47.7818V30.8Z" fill="#FFAA5E"/>
<path d="M49.1091 30.8H47.7818V32.2H49.1091V30.8Z" fill="#FFAA5E"/>
<path d="M50.4364 30.8H49.1091V32.2H50.4364V30.8Z" fill="#FFAA5E"/>
<path d="M51.7636 30.8H50.4364V32.2H51.7636V30.8Z" fill="#FFAA5E"/>
<path d="M53.0909 30.8H51.7636V32.2H53.0909V30.8Z" fill="#FFAA5E"/>
<path d="M54.4182 30.8H53.0909V32.2H54.4182V30.8Z" fill="#FFAA5E"/>
<path d="M55.7455 30.8H54.4182V32.2H55.7455V30.8Z" fill="#FFAA5E"/>
<path d="M57.0727 30.8H55.7455V32.2H57.0727V30.8Z" fill="#FFAA5E"/>
<path d="M58.4 30.8H57.0727V32.2H58.4V30.8Z" fill="#FFAA5E"/>
<path d="M59.7273 30.8H58.4V32.2H59.7273V30.8Z" fill="#FFAA5E"/>
<path d="M61.0545 30.8H59.7273V32.2H61.0545V30.8Z" fill="#FFAA5E"/>
<path d="M62.3818 30.8H61.0545V32.2H62.3818V30.8Z" fill="#FFAA5E"/>
<path d="M63.7091 30.8H62.3818V32.2H63.7091V30.8Z" fill="#FFAA5E"/>
<path d="M65.0364 30.8H63.7091V32.2H65.0364V30.8Z" fill="#FFAA5E"/>
<path d="M66.3636 30.8H65.0364V32.2H66.3636V30.8Z" fill="#FFAA5E"/>
<path d="M67.6909 30.8H66.3636V32.2H67.6909V30.8Z" fill="#FFAA5E"/>
<path d="M69.0182 30.8H67.6909V32.2H69.0182V30.8Z" fill="#FFAA5E"/>
<path d="M2.65455 32.2H1.32727V33.6H2.65455V32.2Z" fill="#FFAA5E"/>
<path d="M3.98182 32.2H2.65455V33.6H3.98182V32.2Z" fill="#FFAA5E"/>
<path d="M5.30909 32.2H3.98182V33.6H5.30909V32.2Z" fill="#FFAA5E"/>
<path d="M6.63636 32.2H5.30909V33.6H6.63636V32.2Z" fill="#FFAA5E"/>
<path d="M7.96364 32.2H6.63636V33.6H7.96364V32.2Z" fill="#FFAA5E"/>
<path d="M9.29091 32.2H7.96364V33.6H9.29091V32.2Z" fill="#FFAA5E"/>
<path d="M10.6182 32.2H9.29091V33.6H10.6182V32.2Z" fill="#FFAA5E"/>
<path d="M11.9455 32.2H10.6182V33.6H11.9455V32.2Z" fill="#FFAA5E"/>
<path d="M13.2727 32.2H11.9455V33.6H13.2727V32.2Z" fill="#FFAA5E"/>
<path d="M14.6 32.2H13.2727V33.6H14.6V32.2Z" fill="#FFAA5E"/>
<path d="M15.9273 32.2H14.6V33.6H15.9273V32.2Z" fill="#FFAA5E"/>
<path d="M17.2545 32.2H15.9273V33.6H17.2545V32.2Z" fill="#FFAA5E"/>
<path d="M18.5818 32.2H17.2545V33.6H18.5818V32.2Z" fill="#FFAA5E"/>
<path d="M19.9091 32.2H18.5818V33.6H19.9091V32.2Z" fill="#FFAA5E"/>
<path d="M21.2364 32.2H19.9091V33.6H21.2364V32.2Z" fill="#FFAA5E"/>
<path d="M22.5636 32.2H21.2364V33.6H22.5636V32.2Z" fill="#FFAA5E"/>
<path d="M23.8909 32.2H22.5636V33.6H23.8909V32.2Z" fill="#FFAA5E"/>
<path d="M25.2182 32.2H23.8909V33.6H25.2182V32.2Z" fill="#FFAA5E"/>
<path d="M26.5455 32.2H25.2182V33.6H26.5455V32.2Z" fill="#FFAA5E"/>
<path d="M27.8727 32.2H26.5455V33.6H27.8727V32.2Z" fill="#FFAA5E"/>
<path d="M39.8182 32.2H38.4909V33.6H39.8182V32.2Z" fill="#FFAA5E"/>
<path d="M41.1455 32.2H39.8182V33.6H41.1455V32.2Z" fill="#FFAA5E"/>
<path d="M42.4727 32.2H41.1455V33.6H42.4727V32.2Z" fill="#FFAA5E"/>
<path d="M43.8 32.2H42.4727V33.6H43.8V32.2Z" fill="#FFAA5E"/>
<path d="M45.1273 32.2H43.8V33.6H45.1273V32.2Z" fill="#FFAA5E"/>
<path d="M46.4545 32.2H45.1273V33.6H46.4545V32.2Z" fill="#FFAA5E"/>
<path d="M47.7818 32.2H46.4545V33.6H47.7818V32.2Z" fill="#FFAA5E"/>
<path d="M49.1091 32.2H47.7818V33.6H49.1091V32.2Z" fill="#FFAA5E"/>
<path d="M50.4364 32.2H49.1091V33.6H50.4364V32.2Z" fill="#FFAA5E"/>
<path d="M51.7636 32.2H50.4364V33.6H51.7636V32.2Z" fill="#FFAA5E"/>
<path d="M53.0909 32.2H51.7636V33.6H53.0909V32.2Z" fill="#FFAA5E"/>
<path d="M54.4182 32.2H53.0909V33.6H54.4182V32.2Z" fill="#FFAA5E"/>
<path d="M55.7455 32.2H54.4182V33.6H55.7455V32.2Z" fill="#FFAA5E"/>
<path d="M57.0727 32.2H55.7455V33.6H57.0727V32.2Z" fill="#FFAA5E"/>
<path d="M58.4 32.2H57.0727V33.6H58.4V32.2Z" fill="#FFAA5E"/>
<path d="M59.7273 32.2H58.4V33.6H59.7273V32.2Z" fill="#FFAA5E"/>
<path d="M61.0545 32.2H59.7273V33.6H61.0545V32.2Z" fill="#FFAA5E"/>
<path d="M62.3818 32.2H61.0545V33.6H62.3818V32.2Z" fill="#FFAA5E"/>
<path d="M63.7091 32.2H62.3818V33.6H63.7091V32.2Z" fill="#FFAA5E"/>
<path d="M65.0364 32.2H63.7091V33.6H65.0364V32.2Z" fill="#FFAA5E"/>
<path d="M66.3636 32.2H65.0364V33.6H66.3636V32.2Z" fill="#FFAA5E"/>
<path d="M67.6909 32.2H66.3636V33.6H67.6909V32.2Z" fill="#FFAA5E"/>
<path d="M69.0182 32.2H67.6909V33.6H69.0182V32.2Z" fill="#FFAA5E"/>
<path d="M5.30909 33.6H3.98182V35H5.30909V33.6Z" fill="#FFAA5E"/>
<path d="M6.63636 33.6H5.30909V35H6.63636V33.6Z" fill="#FFAA5E"/>
<path d="M7.96364 33.6H6.63636V35H7.96364V33.6Z" fill="#FFAA5E"/>
<path d="M9.29091 33.6H7.96364V35H9.29091V33.6Z" fill="#FFAA5E"/>
<path d="M10.6182 33.6H9.29091V35H10.6182V33.6Z" fill="#FFAA5E"/>
<path d="M11.9455 33.6H10.6182V35H11.9455V33.6Z" fill="#FFAA5E"/>
<path d="M13.2727 33.6H11.9455V35H13.2727V33.6Z" fill="#FFAA5E"/>
<path d="M14.6 33.6H13.2727V35H14.6V33.6Z" fill="#FFAA5E"/>
<path d="M15.9273 33.6H14.6V35H15.9273V33.6Z" fill="#FFAA5E"/>
<path d="M17.2545 33.6H15.9273V35H17.2545V33.6Z" fill="#FFAA5E"/>
<path d="M18.5818 33.6H17.2545V35H18.5818V33.6Z" fill="#FFAA5E"/>
<path d="M19.9091 33.6H18.5818V35H19.9091V33.6Z" fill="#FFAA5E"/>
<path d="M21.2364 33.6H19.9091V35H21.2364V33.6Z" fill="#FFAA5E"/>
<path d="M22.5636 33.6H21.2364V35H22.5636V33.6Z" fill="#FFAA5E"/>
<path d="M23.8909 33.6H22.5636V35H23.8909V33.6Z" fill="#FFAA5E"/>
<path d="M25.2182 33.6H23.8909V35H25.2182V33.6Z" fill="#FFAA5E"/>
<path d="M38.4909 33.6H37.1636V35H38.4909V33.6Z" fill="#FFAA5E"/>
<path d="M39.8182 33.6H38.4909V35H39.8182V33.6Z" fill="#FFAA5E"/>
<path d="M41.1455 33.6H39.8182V35H41.1455V33.6Z" fill="#FFAA5E"/>
<path d="M42.4727 33.6H41.1455V35H42.4727V33.6Z" fill="#FFAA5E"/>
<path d="M43.8 33.6H42.4727V35H43.8V33.6Z" fill="#FFAA5E"/>
<path d="M45.1273 33.6H43.8V35H45.1273V33.6Z" fill="#FFAA5E"/>
<path d="M46.4545 33.6H45.1273V35H46.4545V33.6Z" fill="#FFAA5E"/>
<path d="M47.7818 33.6H46.4545V35H47.7818V33.6Z" fill="#FFAA5E"/>
<path d="M49.1091 33.6H47.7818V35H49.1091V33.6Z" fill="#FFAA5E"/>
<path d="M50.4364 33.6H49.1091V35H50.4364V33.6Z" fill="#FFAA5E"/>
<path d="M51.7636 33.6H50.4364V35H51.7636V33.6Z" fill="#FFAA5E"/>
<path d="M53.0909 33.6H51.7636V35H53.0909V33.6Z" fill="#FFAA5E"/>
<path d="M54.4182 33.6H53.0909V35H54.4182V33.6Z" fill="#FFAA5E"/>
<path d="M55.7455 33.6H54.4182V35H55.7455V33.6Z" fill="#FFAA5E"/>
<path d="M57.0727 33.6H55.7455V35H57.0727V33.6Z" fill="#FFAA5E"/>
<path d="M58.4 33.6H57.0727V35H58.4V33.6Z" fill="#FFAA5E"/>
<path d="M59.7273 33.6H58.4V35H59.7273V33.6Z" fill="#FFAA5E"/>
<path d="M61.0545 33.6H59.7273V35H61.0545V33.6Z" fill="#FFAA5E"/>
<path d="M62.3818 33.6H61.0545V35H62.3818V33.6Z" fill="#FFAA5E"/>
<path d="M63.7091 33.6H62.3818V35H63.7091V33.6Z" fill="#FFAA5E"/>
<path d="M65.0364 33.6H63.7091V35H65.0364V33.6Z" fill="#FFAA5E"/>
<path d="M66.3636 33.6H65.0364V35H66.3636V33.6Z" fill="#FFAA5E"/>
<path d="M67.6909 33.6H66.3636V35H67.6909V33.6Z" fill="#FFAA5E"/>
<path d="M69.0182 33.6H67.6909V35H69.0182V33.6Z" fill="#FFAA5E"/>
<path d="M9.29091 35H7.96364V36.4H9.29091V35Z" fill="#FFAA5E"/>
<path d="M10.6182 35H9.29091V36.4H10.6182V35Z" fill="#FFAA5E"/>
<path d="M11.9455 35H10.6182V36.4H11.9455V35Z" fill="#FFAA5E"/>
<path d="M13.2727 35H11.9455V36.4H13.2727V35Z" fill="#FFAA5E"/>
<path d="M14.6 35H13.2727V36.4H14.6V35Z" fill="#FFAA5E"/>
<path d="M15.9273 35H14.6V36.4H15.9273V35Z" fill="#FFAA5E"/>
<path d="M17.2545 35H15.9273V36.4H17.2545V35Z" fill="#FFAA5E"/>
<path d="M18.5818 35H17.2545V36.4H18.5818V35Z" fill="#FFAA5E"/>
<path d="M19.9091 35H18.5818V36.4H19.9091V35Z" fill="#FFAA5E"/>
<path d="M21.2364 35H19.9091V36.4H21.2364V35Z" fill="#FFAA5E"/>
<path d="M22.5636 35H21.2364V36.4H22.5636V35Z" fill="#FFAA5E"/>
<path d="M23.8909 35H22.5636V36.4H23.8909V35Z" fill="#FFAA5E"/>
<path d="M37.1636 35H35.8364V36.4H37.1636V35Z" fill="#FFAA5E"/>
<path d="M38.4909 35H37.1636V36.4H38.4909V35Z" fill="#FFAA5E"/>
<path d="M39.8182 35H38.4909V36.4H39.8182V35Z" fill="#FFAA5E"/>
<path d="M41.1455 35H39.8182V36.4H41.1455V35Z" fill="#FFAA5E"/>
<path d="M42.4727 35H41.1455V36.4H42.4727V35Z" fill="#FFAA5E"/>
<path d="M43.8 35H42.4727V36.4H43.8V35Z" fill="#FFAA5E"/>
<path d="M45.1273 35H43.8V36.4H45.1273V35Z" fill="#FFAA5E"/>
<path d="M46.4545 35H45.1273V36.4H46.4545V35Z" fill="#FFAA5E"/>
<path d="M47.7818 35H46.4545V36.4H47.7818V35Z" fill="#FFAA5E"/>
<path d="M49.1091 35H47.7818V36.4H49.1091V35Z" fill="#FFAA5E"/>
<path d="M50.4364 35H49.1091V36.4H50.4364V35Z" fill="#FFAA5E"/>
<path d="M51.7636 35H50.4364V36.4H51.7636V35Z" fill="#FFAA5E"/>
<path d="M53.0909 35H51.7636V36.4H53.0909V35Z" fill="#FFAA5E"/>
<path d="M54.4182 35H53.0909V36.4H54.4182V35Z" fill="#FFAA5E"/>
<path d="M55.7455 35H54.4182V36.4H55.7455V35Z" fill="#FFAA5E"/>
<path d="M57.0727 35H55.7455V36.4H57.0727V35Z" fill="#FFAA5E"/>
<path d="M58.4 35H57.0727V36.4H58.4V35Z" fill="#FFAA5E"/>
<path d="M59.7273 35H58.4V36.4H59.7273V35Z" fill="#FFAA5E"/>
<path d="M61.0545 35H59.7273V36.4H61.0545V35Z" fill="#FFAA5E"/>
<path d="M62.3818 35H61.0545V36.4H62.3818V35Z" fill="#FFAA5E"/>
<path d="M63.7091 35H62.3818V36.4H63.7091V35Z" fill="#FFAA5E"/>
<path d="M65.0364 35H63.7091V36.4H65.0364V35Z" fill="#FFAA5E"/>
<path d="M66.3636 35H65.0364V36.4H66.3636V35Z" fill="#FFAA5E"/>
<path d="M67.6909 35H66.3636V36.4H67.6909V35Z" fill="#FFAA5E"/>
<path d="M14.6 36.4H13.2727V37.8H14.6V36.4Z" fill="#FFAA5E"/>
<path d="M15.9273 36.4H14.6V37.8H15.9273V36.4Z" fill="#FFAA5E"/>
<path d="M17.2545 36.4H15.9273V37.8H17.2545V36.4Z" fill="#FFAA5E"/>
<path d="M18.5818 36.4H17.2545V37.8H18.5818V36.4Z" fill="#FFAA5E"/>
<path d="M19.9091 36.4H18.5818V37.8H19.9091V36.4Z" fill="#FFAA5E"/>
<path d="M21.2364 36.4H19.9091V37.8H21.2364V36.4Z" fill="#FFAA5E"/>
<path d="M35.8364 36.4H34.5091V37.8H35.8364V36.4Z" fill="#FFAA5E"/>
<path d="M37.1636 36.4H35.8364V37.8H37.1636V36.4Z" fill="#FFAA5E"/>
<path d="M38.4909 36.4H37.1636V37.8H38.4909V36.4Z" fill="#FFAA5E"/>
<path d="M39.8182 36.4H38.4909V37.8H39.8182V36.4Z" fill="#FFAA5E"/>
<path d="M41.1455 36.4H39.8182V37.8H41.1455V36.4Z" fill="#FFAA5E"/>
<path d="M42.4727 36.4H41.1455V37.8H42.4727V36.4Z" fill="#FFAA5E"/>
<path d="M43.8 36.4H42.4727V37.8H43.8V36.4Z" fill="#FFAA5E"/>
<path d="M45.1273 36.4H43.8V37.8H45.1273V36.4Z" fill="#FFAA5E"/>
<path d="M46.4545 36.4H45.1273V37.8H46.4545V36.4Z" fill="#FFAA5E"/>
<path d="M47.7818 36.4H46.4545V37.8H47.7818V36.4Z" fill="#FFAA5E"/>
<path d="M49.1091 36.4H47.7818V37.8H49.1091V36.4Z" fill="#FFAA5E"/>
<path d="M50.4364 36.4H49.1091V37.8H50.4364V36.4Z" fill="#FFAA5E"/>
<path d="M51.7636 36.4H50.4364V37.8H51.7636V36.4Z" fill="#FFAA5E"/>
<path d="M53.0909 36.4H51.7636V37.8H53.0909V36.4Z" fill="#FFAA5E"/>
<path d="M54.4182 36.4H53.0909V37.8H54.4182V36.4Z" fill="#FFAA5E"/>
<path d="M55.7455 36.4H54.4182V37.8H55.7455V36.4Z" fill="#FFAA5E"/>
<path d="M57.0727 36.4H55.7455V37.8H57.0727V36.4Z" fill="#FFAA5E"/>
<path d="M58.4 36.4H57.0727V37.8H58.4V36.4Z" fill="#FFAA5E"/>
<path d="M59.7273 36.4H58.4V37.8H59.7273V36.4Z" fill="#FFAA5E"/>
<path d="M61.0545 36.4H59.7273V37.8H61.0545V36.4Z" fill="#FFAA5E"/>
<path d="M62.3818 36.4H61.0545V37.8H62.3818V36.4Z" fill="#FFAA5E"/>
<path d="M63.7091 36.4H62.3818V37.8H63.7091V36.4Z" fill="#FFAA5E"/>
<path d="M65.0364 36.4H63.7091V37.8H65.0364V36.4Z" fill="#FFAA5E"/>
<path d="M66.3636 36.4H65.0364V37.8H66.3636V36.4Z" fill="#FFAA5E"/>
<path d="M67.6909 36.4H66.3636V37.8H67.6909V36.4Z" fill="#FFAA5E"/>
<path d="M34.5091 37.8H33.1818V39.2H34.5091V37.8Z" fill="#FFAA5E"/>
<path d="M35.8364 37.8H34.5091V39.2H35.8364V37.8Z" fill="#FFAA5E"/>
<path d="M37.1636 37.8H35.8364V39.2H37.1636V37.8Z" fill="#FFAA5E"/>
<path d="M38.4909 37.8H37.1636V39.2H38.4909V37.8Z" fill="#FFAA5E"/>
<path d="M39.8182 37.8H38.4909V39.2H39.8182V37.8Z" fill="#FFAA5E"/>
<path d="M41.1455 37.8H39.8182V39.2H41.1455V37.8Z" fill="#FFAA5E"/>
<path d="M42.4727 37.8H41.1455V39.2H42.4727V37.8Z" fill="#FFAA5E"/>
<path d="M43.8 37.8H42.4727V39.2H43.8V37.8Z" fill="#FFAA5E"/>
<path d="M45.1273 37.8H43.8V39.2H45.1273V37.8Z" fill="#FFAA5E"/>
<path d="M46.4545 37.8H45.1273V39.2H46.4545V37.8Z" fill="#FFAA5E"/>
<path d="M47.7818 37.8H46.4545V39.2H47.7818V37.8Z" fill="#FFAA5E"/>
<path d="M49.1091 37.8H47.7818V39.2H49.1091V37.8Z" fill="#FFAA5E"/>
<path d="M50.4364 37.8H49.1091V39.2H50.4364V37.8Z" fill="#FFAA5E"/>
<path d="M51.7636 37.8H50.4364V39.2H51.7636V37.8Z" fill="#FFAA5E"/>
<path d="M53.0909 37.8H51.7636V39.2H53.0909V37.8Z" fill="#FFAA5E"/>
<path d="M54.4182 37.8H53.0909V39.2H54.4182V37.8Z" fill="#FFAA5E"/>
<path d="M55.7455 37.8H54.4182V39.2H55.7455V37.8Z" fill="#FFAA5E"/>
<path d="M57.0727 37.8H55.7455V39.2H57.0727V37.8Z" fill="#FFAA5E"/>
<path d="M58.4 37.8H57.0727V39.2H58.4V37.8Z" fill="#FFAA5E"/>
<path d="M59.7273 37.8H58.4V39.2H59.7273V37.8Z" fill="#FFAA5E"/>
<path d="M61.0545 37.8H59.7273V39.2H61.0545V37.8Z" fill="#FFAA5E"/>
<path d="M62.3818 37.8H61.0545V39.2H62.3818V37.8Z" fill="#FFAA5E"/>
<path d="M63.7091 37.8H62.3818V39.2H63.7091V37.8Z" fill="#FFAA5E"/>
<path d="M65.0364 37.8H63.7091V39.2H65.0364V37.8Z" fill="#FFAA5E"/>
<path d="M66.3636 37.8H65.0364V39.2H66.3636V37.8Z" fill="#FFAA5E"/>
<path d="M67.6909 37.8H66.3636V39.2H67.6909V37.8Z" fill="#FFAA5E"/>
<path d="M33.1818 39.2H31.8545V40.6H33.1818V39.2Z" fill="#FFAA5E"/>
<path d="M34.5091 39.2H33.1818V40.6H34.5091V39.2Z" fill="#FFAA5E"/>
<path d="M35.8364 39.2H34.5091V40.6H35.8364V39.2Z" fill="#FFAA5E"/>
<path d="M37.1636 39.2H35.8364V40.6H37.1636V39.2Z" fill="#FFAA5E"/>
<path d="M38.4909 39.2H37.1636V40.6H38.4909V39.2Z" fill="#FFAA5E"/>
<path d="M39.8182 39.2H38.4909V40.6H39.8182V39.2Z" fill="#FFAA5E"/>
<path d="M41.1455 39.2H39.8182V40.6H41.1455V39.2Z" fill="#FFAA5E"/>
<path d="M42.4727 39.2H41.1455V40.6H42.4727V39.2Z" fill="#FFAA5E"/>
<path d="M43.8 39.2H42.4727V40.6H43.8V39.2Z" fill="#FFAA5E"/>
<path d="M45.1273 39.2H43.8V40.6H45.1273V39.2Z" fill="#FFAA5E"/>
<path d="M46.4545 39.2H45.1273V40.6H46.4545V39.2Z" fill="#FFAA5E"/>
<path d="M47.7818 39.2H46.4545V40.6H47.7818V39.2Z" fill="#FFAA5E"/>
<path d="M49.1091 39.2H47.7818V40.6H49.1091V39.2Z" fill="#FFAA5E"/>
<path d="M50.4364 39.2H49.1091V40.6H50.4364V39.2Z" fill="#FFAA5E"/>
<path d="M51.7636 39.2H50.4364V40.6H51.7636V39.2Z" fill="#FFAA5E"/>
<path d="M53.0909 39.2H51.7636V40.6H53.0909V39.2Z" fill="#FFAA5E"/>
<path d="M54.4182 39.2H53.0909V40.6H54.4182V39.2Z" fill="#FFAA5E"/>
<path d="M55.7455 39.2H54.4182V40.6H55.7455V39.2Z" fill="#FFAA5E"/>
<path d="M57.0727 39.2H55.7455V40.6H57.0727V39.2Z" fill="#FFAA5E"/>
<path d="M58.4 39.2H57.0727V40.6H58.4V39.2Z" fill="#FFAA5E"/>
<path d="M59.7273 39.2H58.4V40.6H59.7273V39.2Z" fill="#FFAA5E"/>
<path d="M61.0545 39.2H59.7273V40.6H61.0545V39.2Z" fill="#FFAA5E"/>
<path d="M62.3818 39.2H61.0545V40.6H62.3818V39.2Z" fill="#FFAA5E"/>
<path d="M63.7091 39.2H62.3818V40.6H63.7091V39.2Z" fill="#FFAA5E"/>
<path d="M65.0364 39.2H63.7091V40.6H65.0364V39.2Z" fill="#FFAA5E"/>
<path d="M66.3636 39.2H65.0364V40.6H66.3636V39.2Z" fill="#FFAA5E"/>
<path d="M67.6909 39.2H66.3636V40.6H67.6909V39.2Z" fill="#FFAA5E"/>
<path d="M33.1818 40.6H31.8545V42H33.1818V40.6Z" fill="#FFAA5E"/>
<path d="M34.5091 40.6H33.1818V42H34.5091V40.6Z" fill="#FFAA5E"/>
<path d="M35.8364 40.6H34.5091V42H35.8364V40.6Z" fill="#FFAA5E"/>
<path d="M37.1636 40.6H35.8364V42H37.1636V40.6Z" fill="#FFAA5E"/>
<path d="M38.4909 40.6H37.1636V42H38.4909V40.6Z" fill="#FFAA5E"/>
<path d="M39.8182 40.6H38.4909V42H39.8182V40.6Z" fill="#FFAA5E"/>
<path d="M41.1455 40.6H39.8182V42H41.1455V40.6Z" fill="#FFAA5E"/>
<path d="M42.4727 40.6H41.1455V42H42.4727V40.6Z" fill="#FFAA5E"/>
<path d="M43.8 40.6H42.4727V42H43.8V40.6Z" fill="#FFAA5E"/>
<path d="M45.1273 40.6H43.8V42H45.1273V40.6Z" fill="#FFAA5E"/>
<path d="M46.4545 40.6H45.1273V42H46.4545V40.6Z" fill="#FFAA5E"/>
<path d="M47.7818 40.6H46.4545V42H47.7818V40.6Z" fill="#FFAA5E"/>
<path d="M49.1091 40.6H47.7818V42H49.1091V40.6Z" fill="#FFAA5E"/>
<path d="M50.4364 40.6H49.1091V42H50.4364V40.6Z" fill="#FFAA5E"/>
<path d="M51.7636 40.6H50.4364V42H51.7636V40.6Z" fill="#FFAA5E"/>
<path d="M53.0909 40.6H51.7636V42H53.0909V40.6Z" fill="#FFAA5E"/>
<path d="M54.4182 40.6H53.0909V42H54.4182V40.6Z" fill="#FFAA5E"/>
<path d="M55.7455 40.6H54.4182V42H55.7455V40.6Z" fill="#FFAA5E"/>
<path d="M57.0727 40.6H55.7455V42H57.0727V40.6Z" fill="#FFAA5E"/>
<path d="M58.4 40.6H57.0727V42H58.4V40.6Z" fill="#FFAA5E"/>
<path d="M59.7273 40.6H58.4V42H59.7273V40.6Z" fill="#FFAA5E"/>
<path d="M61.0545 40.6H59.7273V42H61.0545V40.6Z" fill="#FFAA5E"/>
<path d="M62.3818 40.6H61.0545V42H62.3818V40.6Z" fill="#FFAA5E"/>
<path d="M63.7091 40.6H62.3818V42H63.7091V40.6Z" fill="#FFAA5E"/>
<path d="M65.0364 40.6H63.7091V42H65.0364V40.6Z" fill="#FFAA5E"/>
<path d="M66.3636 40.6H65.0364V42H66.3636V40.6Z" fill="#FFAA5E"/>
<path d="M67.6909 40.6H66.3636V42H67.6909V40.6Z" fill="#FFAA5E"/>
<path d="M33.1818 42H31.8545V43.4H33.1818V42Z" fill="#FFAA5E"/>
<path d="M34.5091 42H33.1818V43.4H34.5091V42Z" fill="#FFAA5E"/>
<path d="M35.8364 42H34.5091V43.4H35.8364V42Z" fill="#FFAA5E"/>
<path d="M37.1636 42H35.8364V43.4H37.1636V42Z" fill="#FFAA5E"/>
<path d="M38.4909 42H37.1636V43.4H38.4909V42Z" fill="#FFAA5E"/>
<path d="M39.8182 42H38.4909V43.4H39.8182V42Z" fill="#FFAA5E"/>
<path d="M41.1455 42H39.8182V43.4H41.1455V42Z" fill="#FFAA5E"/>
<path d="M42.4727 42H41.1455V43.4H42.4727V42Z" fill="#FFAA5E"/>
<path d="M43.8 42H42.4727V43.4H43.8V42Z" fill="#FFAA5E"/>
<path d="M45.1273 42H43.8V43.4H45.1273V42Z" fill="#FFAA5E"/>
<path d="M46.4545 42H45.1273V43.4H46.4545V42Z" fill="#FFAA5E"/>
<path d="M47.7818 42H46.4545V43.4H47.7818V42Z" fill="#FFAA5E"/>
<path d="M49.1091 42H47.7818V43.4H49.1091V42Z" fill="#FFAA5E"/>
<path d="M50.4364 42H49.1091V43.4H50.4364V42Z" fill="#FFAA5E"/>
<path d="M51.7636 42H50.4364V43.4H51.7636V42Z" fill="#FFAA5E"/>
<path d="M53.0909 42H51.7636V43.4H53.0909V42Z" fill="#FFAA5E"/>
<path d="M54.4182 42H53.0909V43.4H54.4182V42Z" fill="#FFAA5E"/>
<path d="M55.7455 42H54.4182V43.4H55.7455V42Z" fill="#FFAA5E"/>
<path d="M57.0727 42H55.7455V43.4H57.0727V42Z" fill="#FFAA5E"/>
<path d="M58.4 42H57.0727V43.4H58.4V42Z" fill="#FFAA5E"/>
<path d="M59.7273 42H58.4V43.4H59.7273V42Z" fill="#FFAA5E"/>
<path d="M61.0545 42H59.7273V43.4H61.0545V42Z" fill="#FFAA5E"/>
<path d="M62.3818 42H61.0545V43.4H62.3818V42Z" fill="#FFAA5E"/>
<path d="M63.7091 42H62.3818V43.4H63.7091V42Z" fill="#FFAA5E"/>
<path d="M65.0364 42H63.7091V43.4H65.0364V42Z" fill="#FFAA5E"/>
<path d="M66.3636 42H65.0364V43.4H66.3636V42Z" fill="#FFAA5E"/>
<path d="M67.6909 42H66.3636V43.4H67.6909V42Z" fill="#FFAA5E"/>
<path d="M33.1818 43.4H31.8545V44.8H33.1818V43.4Z" fill="#FFAA5E"/>
<path d="M34.5091 43.4H33.1818V44.8H34.5091V43.4Z" fill="#FFAA5E"/>
<path d="M35.8364 43.4H34.5091V44.8H35.8364V43.4Z" fill="#FFAA5E"/>
<path d="M37.1636 43.4H35.8364V44.8H37.1636V43.4Z" fill="#FFAA5E"/>
<path d="M38.4909 43.4H37.1636V44.8H38.4909V43.4Z" fill="#FFAA5E"/>
<path d="M39.8182 43.4H38.4909V44.8H39.8182V43.4Z" fill="#FFAA5E"/>
<path d="M41.1455 43.4H39.8182V44.8H41.1455V43.4Z" fill="#FFAA5E"/>
<path d="M42.4727 43.4H41.1455V44.8H42.4727V43.4Z" fill="#FFAA5E"/>
<path d="M43.8 43.4H42.4727V44.8H43.8V43.4Z" fill="#FFAA5E"/>
<path d="M45.1273 43.4H43.8V44.8H45.1273V43.4Z" fill="#FFAA5E"/>
<path d="M46.4545 43.4H45.1273V44.8H46.4545V43.4Z" fill="#FFAA5E"/>
<path d="M47.7818 43.4H46.4545V44.8H47.7818V43.4Z" fill="#FFAA5E"/>
<path d="M49.1091 43.4H47.7818V44.8H49.1091V43.4Z" fill="#FFAA5E"/>
<path d="M50.4364 43.4H49.1091V44.8H50.4364V43.4Z" fill="#FFAA5E"/>
<path d="M51.7636 43.4H50.4364V44.8H51.7636V43.4Z" fill="#FFAA5E"/>
<path d="M53.0909 43.4H51.7636V44.8H53.0909V43.4Z" fill="#FFAA5E"/>
<path d="M54.4182 43.4H53.0909V44.8H54.4182V43.4Z" fill="#FFAA5E"/>
<path d="M55.7455 43.4H54.4182V44.8H55.7455V43.4Z" fill="#FFAA5E"/>
<path d="M57.0727 43.4H55.7455V44.8H57.0727V43.4Z" fill="#FFAA5E"/>
<path d="M58.4 43.4H57.0727V44.8H58.4V43.4Z" fill="#FFAA5E"/>
<path d="M59.7273 43.4H58.4V44.8H59.7273V43.4Z" fill="#FFAA5E"/>
<path d="M61.0545 43.4H59.7273V44.8H61.0545V43.4Z" fill="#FFAA5E"/>
<path d="M62.3818 43.4H61.0545V44.8H62.3818V43.4Z" fill="#FFAA5E"/>
<path d="M63.7091 43.4H62.3818V44.8H63.7091V43.4Z" fill="#FFAA5E"/>
<path d="M65.0364 43.4H63.7091V44.8H65.0364V43.4Z" fill="#FFAA5E"/>
<path d="M66.3636 43.4H65.0364V44.8H66.3636V43.4Z" fill="#FFAA5E"/>
<path d="M34.5091 44.8H33.1818V46.2H34.5091V44.8Z" fill="#FFAA5E"/>
<path d="M35.8364 44.8H34.5091V46.2H35.8364V44.8Z" fill="#FFAA5E"/>
<path d="M37.1636 44.8H35.8364V46.2H37.1636V44.8Z" fill="#FFAA5E"/>
<path d="M38.4909 44.8H37.1636V46.2H38.4909V44.8Z" fill="#FFAA5E"/>
<path d="M39.8182 44.8H38.4909V46.2H39.8182V44.8Z" fill="#FFAA5E"/>
<path d="M41.1455 44.8H39.8182V46.2H41.1455V44.8Z" fill="#FFAA5E"/>
<path d="M42.4727 44.8H41.1455V46.2H42.4727V44.8Z" fill="#FFAA5E"/>
<path d="M43.8 44.8H42.4727V46.2H43.8V44.8Z" fill="#FFAA5E"/>
<path d="M45.1273 44.8H43.8V46.2H45.1273V44.8Z" fill="#FFAA5E"/>
<path d="M46.4545 44.8H45.1273V46.2H46.4545V44.8Z" fill="#FFAA5E"/>
<path d="M47.7818 44.8H46.4545V46.2H47.7818V44.8Z" fill="#FFAA5E"/>
<path d="M49.1091 44.8H47.7818V46.2H49.1091V44.8Z" fill="#FFAA5E"/>
<path d="M50.4364 44.8H49.1091V46.2H50.4364V44.8Z" fill="#FFAA5E"/>
<path d="M51.7636 44.8H50.4364V46.2H51.7636V44.8Z" fill="#FFAA5E"/>
<path d="M53.0909 44.8H51.7636V46.2H53.0909V44.8Z" fill="#FFAA5E"/>
<path d="M54.4182 44.8H53.0909V46.2H54.4182V44.8Z" fill="#FFAA5E"/>
<path d="M55.7455 44.8H54.4182V46.2H55.7455V44.8Z" fill="#FFAA5E"/>
<path d="M57.0727 44.8H55.7455V46.2H57.0727V44.8Z" fill="#FFAA5E"/>
<path d="M58.4 44.8H57.0727V46.2H58.4V44.8Z" fill="#FFAA5E"/>
<path d="M59.7273 44.8H58.4V46.2H59.7273V44.8Z" fill="#FFAA5E"/>
<path d="M61.0545 44.8H59.7273V46.2H61.0545V44.8Z" fill="#FFAA5E"/>
<path d="M62.3818 44.8H61.0545V46.2H62.3818V44.8Z" fill="#FFAA5E"/>
<path d="M63.7091 44.8H62.3818V46.2H63.7091V44.8Z" fill="#FFAA5E"/>
<path d="M65.0364 44.8H63.7091V46.2H65.0364V44.8Z" fill="#FFAA5E"/>
<path d="M66.3636 44.8H65.0364V46.2H66.3636V44.8Z" fill="#FFAA5E"/>
<path d="M37.1636 46.2H35.8364V47.6H37.1636V46.2Z" fill="#FFAA5E"/>
<path d="M38.4909 46.2H37.1636V47.6H38.4909V46.2Z" fill="#FFAA5E"/>
<path d="M39.8182 46.2H38.4909V47.6H39.8182V46.2Z" fill="#FFAA5E"/>
<path d="M41.1455 46.2H39.8182V47.6H41.1455V46.2Z" fill="#FFAA5E"/>
<path d="M42.4727 46.2H41.1455V47.6H42.4727V46.2Z" fill="#FFAA5E"/>
<path d="M43.8 46.2H42.4727V47.6H43.8V46.2Z" fill="#FFAA5E"/>
<path d="M45.1273 46.2H43.8V47.6H45.1273V46.2Z" fill="#FFAA5E"/>
<path d="M46.4545 46.2H45.1273V47.6H46.4545V46.2Z" fill="#FFAA5E"/>
<path d="M47.7818 46.2H46.4545V47.6H47.7818V46.2Z" fill="#FFAA5E"/>
<path d="M49.1091 46.2H47.7818V47.6H49.1091V46.2Z" fill="#FFAA5E"/>
<path d="M50.4364 46.2H49.1091V47.6H50.4364V46.2Z" fill="#FFAA5E"/>
<path d="M51.7636 46.2H50.4364V47.6H51.7636V46.2Z" fill="#FFAA5E"/>
<path d="M53.0909 46.2H51.7636V47.6H53.0909V46.2Z" fill="#FFAA5E"/>
<path d="M54.4182 46.2H53.0909V47.6H54.4182V46.2Z" fill="#FFAA5E"/>
<path d="M55.7455 46.2H54.4182V47.6H55.7455V46.2Z" fill="#FFAA5E"/>
<path d="M57.0727 46.2H55.7455V47.6H57.0727V46.2Z" fill="#FFAA5E"/>
<path d="M58.4 46.2H57.0727V47.6H58.4V46.2Z" fill="#FFAA5E"/>
<path d="M59.7273 46.2H58.4V47.6H59.7273V46.2Z" fill="#FFAA5E"/>
<path d="M61.0545 46.2H59.7273V47.6H61.0545V46.2Z" fill="#FFAA5E"/>
<path d="M62.3818 46.2H61.0545V47.6H62.3818V46.2Z" fill="#FFAA5E"/>
<path d="M63.7091 46.2H62.3818V47.6H63.7091V46.2Z" fill="#FFAA5E"/>
<path d="M65.0364 46.2H63.7091V47.6H65.0364V46.2Z" fill="#FFAA5E"/>
<path d="M66.3636 46.2H65.0364V47.6H66.3636V46.2Z" fill="#FFAA5E"/>
<path d="M38.4909 47.6H37.1636V49H38.4909V47.6Z" fill="#FFAA5E"/>
<path d="M39.8182 47.6H38.4909V49H39.8182V47.6Z" fill="#FFAA5E"/>
<path d="M41.1455 47.6H39.8182V49H41.1455V47.6Z" fill="#FFAA5E"/>
<path d="M42.4727 47.6H41.1455V49H42.4727V47.6Z" fill="#FFAA5E"/>
<path d="M43.8 47.6H42.4727V49H43.8V47.6Z" fill="#FFAA5E"/>
<path d="M45.1273 47.6H43.8V49H45.1273V47.6Z" fill="#FFAA5E"/>
<path d="M46.4545 47.6H45.1273V49H46.4545V47.6Z" fill="#FFAA5E"/>
<path d="M47.7818 47.6H46.4545V49H47.7818V47.6Z" fill="#FFAA5E"/>
<path d="M49.1091 47.6H47.7818V49H49.1091V47.6Z" fill="#FFAA5E"/>
<path d="M50.4364 47.6H49.1091V49H50.4364V47.6Z" fill="#FFAA5E"/>
<path d="M51.7636 47.6H50.4364V49H51.7636V47.6Z" fill="#FFAA5E"/>
<path d="M53.0909 47.6H51.7636V49H53.0909V47.6Z" fill="#FFAA5E"/>
<path d="M54.4182 47.6H53.0909V49H54.4182V47.6Z" fill="#FFAA5E"/>
<path d="M55.7455 47.6H54.4182V49H55.7455V47.6Z" fill="#FFAA5E"/>
<path d="M57.0727 47.6H55.7455V49H57.0727V47.6Z" fill="#FFAA5E"/>
<path d="M58.4 47.6H57.0727V49H58.4V47.6Z" fill="#FFAA5E"/>
<path d="M59.7273 47.6H58.4V49H59.7273V47.6Z" fill="#FFAA5E"/>
<path d="M61.0545 47.6H59.7273V49H61.0545V47.6Z" fill="#FFAA5E"/>
<path d="M62.3818 47.6H61.0545V49H62.3818V47.6Z" fill="#FFAA5E"/>
<path d="M63.7091 47.6H62.3818V49H63.7091V47.6Z" fill="#FFAA5E"/>
<path d="M65.0364 47.6H63.7091V49H65.0364V47.6Z" fill="#FFAA5E"/>
<path d="M66.3636 47.6H65.0364V49H66.3636V47.6Z" fill="#FFAA5E"/>
<path d="M41.1455 49H39.8182V50.4H41.1455V49Z" fill="#FFAA5E"/>
<path d="M42.4727 49H41.1455V50.4H42.4727V49Z" fill="#FFAA5E"/>
<path d="M43.8 49H42.4727V50.4H43.8V49Z" fill="#FFAA5E"/>
<path d="M45.1273 49H43.8V50.4H45.1273V49Z" fill="#FFAA5E"/>
<path d="M46.4545 49H45.1273V50.4H46.4545V49Z" fill="#FFAA5E"/>
<path d="M47.7818 49H46.4545V50.4H47.7818V49Z" fill="#FFAA5E"/>
<path d="M49.1091 49H47.7818V50.4H49.1091V49Z" fill="#FFAA5E"/>
<path d="M50.4364 49H49.1091V50.4H50.4364V49Z" fill="#FFAA5E"/>
<path d="M51.7636 49H50.4364V50.4H51.7636V49Z" fill="#FFAA5E"/>
<path d="M53.0909 49H51.7636V50.4H53.0909V49Z" fill="#FFAA5E"/>
<path d="M54.4182 49H53.0909V50.4H54.4182V49Z" fill="#FFAA5E"/>
<path d="M55.7455 49H54.4182V50.4H55.7455V49Z" fill="#FFAA5E"/>
<path d="M57.0727 49H55.7455V50.4H57.0727V49Z" fill="#FFAA5E"/>
<path d="M58.4 49H57.0727V50.4H58.4V49Z" fill="#FFAA5E"/>
<path d="M59.7273 49H58.4V50.4H59.7273V49Z" fill="#FFAA5E"/>
<path d="M61.0545 49H59.7273V50.4H61.0545V49Z" fill="#FFAA5E"/>
<path d="M62.3818 49H61.0545V50.4H62.3818V49Z" fill="#FFAA5E"/>
<path d="M63.7091 49H62.3818V50.4H63.7091V49Z" fill="#FFAA5E"/>
<path d="M65.0364 49H63.7091V50.4H65.0364V49Z" fill="#FFAA5E"/>
<path d="M66.3636 49H65.0364V50.4H66.3636V49Z" fill="#FFAA5E"/>
<path d="M42.4727 50.4H41.1455V51.8H42.4727V50.4Z" fill="#FFAA5E"/>
<path d="M43.8 50.4H42.4727V51.8H43.8V50.4Z" fill="#FFAA5E"/>
<path d="M45.1273 50.4H43.8V51.8H45.1273V50.4Z" fill="#FFAA5E"/>
<path d="M46.4545 50.4H45.1273V51.8H46.4545V50.4Z" fill="#FFAA5E"/>
<path d="M47.7818 50.4H46.4545V51.8H47.7818V50.4Z" fill="#FFAA5E"/>
<path d="M49.1091 50.4H47.7818V51.8H49.1091V50.4Z" fill="#FFAA5E"/>
<path d="M50.4364 50.4H49.1091V51.8H50.4364V50.4Z" fill="#FFAA5E"/>
<path d="M51.7636 50.4H50.4364V51.8H51.7636V50.4Z" fill="#FFAA5E"/>
<path d="M53.0909 50.4H51.7636V51.8H53.0909V50.4Z" fill="#FFAA5E"/>
<path d="M54.4182 50.4H53.0909V51.8H54.4182V50.4Z" fill="#FFAA5E"/>
<path d="M55.7455 50.4H54.4182V51.8H55.7455V50.4Z" fill="#FFAA5E"/>
<path d="M57.0727 50.4H55.7455V51.8H57.0727V50.4Z" fill="#FFAA5E"/>
<path d="M58.4 50.4H57.0727V51.8H58.4V50.4Z" fill="#FFAA5E"/>
<path d="M59.7273 50.4H58.4V51.8H59.7273V50.4Z" fill="#FFAA5E"/>
<path d="M61.0545 50.4H59.7273V51.8H61.0545V50.4Z" fill="#FFAA5E"/>
<path d="M62.3818 50.4H61.0545V51.8H62.3818V50.4Z" fill="#FFAA5E"/>
<path d="M63.7091 50.4H62.3818V51.8H63.7091V50.4Z" fill="#FFAA5E"/>
<path d="M65.0364 50.4H63.7091V51.8H65.0364V50.4Z" fill="#FFAA5E"/>
<path d="M66.3636 50.4H65.0364V51.8H66.3636V50.4Z" fill="#FFAA5E"/>
<path d="M45.1273 51.8H43.8V53.2H45.1273V51.8Z" fill="#FFAA5E"/>
<path d="M46.4545 51.8H45.1273V53.2H46.4545V51.8Z" fill="#FFAA5E"/>
<path d="M47.7818 51.8H46.4545V53.2H47.7818V51.8Z" fill="#FFAA5E"/>
<path d="M49.1091 51.8H47.7818V53.2H49.1091V51.8Z" fill="#FFAA5E"/>
<path d="M50.4364 51.8H49.1091V53.2H50.4364V51.8Z" fill="#FFAA5E"/>
<path d="M51.7636 51.8H50.4364V53.2H51.7636V51.8Z" fill="#FFAA5E"/>
<path d="M53.0909 51.8H51.7636V53.2H53.0909V51.8Z" fill="#FFAA5E"/>
<path d="M54.4182 51.8H53.0909V53.2H54.4182V51.8Z" fill="#FFAA5E"/>
<path d="M55.7455 51.8H54.4182V53.2H55.7455V51.8Z" fill="#FFAA5E"/>
<path d="M57.0727 51.8H55.7455V53.2H57.0727V51.8Z" fill="#FFAA5E"/>
<path d="M58.4 51.8H57.0727V53.2H58.4V51.8Z" fill="#FFAA5E"/>
<path d="M59.7273 51.8H58.4V53.2H59.7273V51.8Z" fill="#FFAA5E"/>
<path d="M61.0545 51.8H59.7273V53.2H61.0545V51.8Z" fill="#FFAA5E"/>
<path d="M62.3818 51.8H61.0545V53.2H62.3818V51.8Z" fill="#FFAA5E"/>
<path d="M63.7091 51.8H62.3818V53.2H63.7091V51.8Z" fill="#FFAA5E"/>
<path d="M65.0364 51.8H63.7091V53.2H65.0364V51.8Z" fill="#FFAA5E"/>
<path d="M46.4545 53.2H45.1273V54.6H46.4545V53.2Z" fill="#FFAA5E"/>
<path d="M47.7818 53.2H46.4545V54.6H47.7818V53.2Z" fill="#FFAA5E"/>
<path d="M49.1091 53.2H47.7818V54.6H49.1091V53.2Z" fill="#FFAA5E"/>
<path d="M50.4364 53.2H49.1091V54.6H50.4364V53.2Z" fill="#FFAA5E"/>
<path d="M51.7636 53.2H50.4364V54.6H51.7636V53.2Z" fill="#FFAA5E"/>
<path d="M53.0909 53.2H51.7636V54.6H53.0909V53.2Z" fill="#FFAA5E"/>
<path d="M54.4182 53.2H53.0909V54.6H54.4182V53.2Z" fill="#FFAA5E"/>
<path d="M55.7455 53.2H54.4182V54.6H55.7455V53.2Z" fill="#FFAA5E"/>
<path d="M57.0727 53.2H55.7455V54.6H57.0727V53.2Z" fill="#FFAA5E"/>
<path d="M58.4 53.2H57.0727V54.6H58.4V53.2Z" fill="#FFAA5E"/>
<path d="M59.7273 53.2H58.4V54.6H59.7273V53.2Z" fill="#FFAA5E"/>
<path d="M61.0545 53.2H59.7273V54.6H61.0545V53.2Z" fill="#FFAA5E"/>
<path d="M62.3818 53.2H61.0545V54.6H62.3818V53.2Z" fill="#FFAA5E"/>
<path d="M63.7091 53.2H62.3818V54.6H63.7091V53.2Z" fill="#FFAA5E"/>
<path d="M65.0364 53.2H63.7091V54.6H65.0364V53.2Z" fill="#FFAA5E"/>
<path d="M49.1091 54.6H47.7818V56H49.1091V54.6Z" fill="#FFAA5E"/>
<path d="M50.4364 54.6H49.1091V56H50.4364V54.6Z" fill="#FFAA5E"/>
<path d="M51.7636 54.6H50.4364V56H51.7636V54.6Z" fill="#FFAA5E"/>
<path d="M53.0909 54.6H51.7636V56H53.0909V54.6Z" fill="#FFAA5E"/>
<path d="M54.4182 54.6H53.0909V56H54.4182V54.6Z" fill="#FFAA5E"/>
<path d="M55.7455 54.6H54.4182V56H55.7455V54.6Z" fill="#FFAA5E"/>
<path d="M57.0727 54.6H55.7455V56H57.0727V54.6Z" fill="#FFAA5E"/>
<path d="M58.4 54.6H57.0727V56H58.4V54.6Z" fill="#FFAA5E"/>
<path d="M59.7273 54.6H58.4V56H59.7273V54.6Z" fill="#FFAA5E"/>
<path d="M61.0545 54.6H59.7273V56H61.0545V54.6Z" fill="#FFAA5E"/>
<path d="M62.3818 54.6H61.0545V56H62.3818V54.6Z" fill="#FFAA5E"/>
<path d="M63.7091 54.6H62.3818V56H63.7091V54.6Z" fill="#FFAA5E"/>
<path d="M65.0364 54.6H63.7091V56H65.0364V54.6Z" fill="#FFAA5E"/>
<path d="M50.4364 56H49.1091V57.4H50.4364V56Z" fill="#FFAA5E"/>
<path d="M51.7636 56H50.4364V57.4H51.7636V56Z" fill="#FFAA5E"/>
<path d="M53.0909 56H51.7636V57.4H53.0909V56Z" fill="#FFAA5E"/>
<path d="M54.4182 56H53.0909V57.4H54.4182V56Z" fill="#FFAA5E"/>
<path d="M55.7455 56H54.4182V57.4H55.7455V56Z" fill="#FFAA5E"/>
<path d="M57.0727 56H55.7455V57.4H57.0727V56Z" fill="#FFAA5E"/>
<path d="M58.4 56H57.0727V57.4H58.4V56Z" fill="#FFAA5E"/>
<path d="M59.7273 56H58.4V57.4H59.7273V56Z" fill="#FFAA5E"/>
<path d="M61.0545 56H59.7273V57.4H61.0545V56Z" fill="#FFAA5E"/>
<path d="M62.3818 56H61.0545V57.4H62.3818V56Z" fill="#FFAA5E"/>
<path d="M63.7091 56H62.3818V57.4H63.7091V56Z" fill="#FFAA5E"/>
<path d="M65.0364 56H63.7091V57.4H65.0364V56Z" fill="#FFAA5E"/>
<path d="M53.0909 57.4H51.7636V58.8H53.0909V57.4Z" fill="#FFAA5E"/>
<path d="M54.4182 57.4H53.0909V58.8H54.4182V57.4Z" fill="#FFAA5E"/>
<path d="M55.7455 57.4H54.4182V58.8H55.7455V57.4Z" fill="#FFAA5E"/>
<path d="M57.0727 57.4H55.7455V58.8H57.0727V57.4Z" fill="#FFAA5E"/>
<path d="M58.4 57.4H57.0727V58.8H58.4V57.4Z" fill="#FFAA5E"/>
<path d="M59.7273 57.4H58.4V58.8H59.7273V57.4Z" fill="#FFAA5E"/>
<path d="M61.0545 57.4H59.7273V58.8H61.0545V57.4Z" fill="#FFAA5E"/>
<path d="M62.3818 57.4H61.0545V58.8H62.3818V57.4Z" fill="#FFAA5E"/>
<path d="M63.7091 57.4H62.3818V58.8H63.7091V57.4Z" fill="#FFAA5E"/>
<path d="M65.0364 57.4H63.7091V58.8H65.0364V57.4Z" fill="#FFAA5E"/>
<path d="M54.4182 58.8H53.0909V60.2H54.4182V58.8Z" fill="#FFAA5E"/>
<path d="M55.7455 58.8H54.4182V60.2H55.7455V58.8Z" fill="#FFAA5E"/>
<path d="M57.0727 58.8H55.7455V60.2H57.0727V58.8Z" fill="#FFAA5E"/>
<path d="M58.4 58.8H57.0727V60.2H58.4V58.8Z" fill="#FFAA5E"/>
<path d="M59.7273 58.8H58.4V60.2H59.7273V58.8Z" fill="#FFAA5E"/>
<path d="M61.0545 58.8H59.7273V60.2H61.0545V58.8Z" fill="#FFAA5E"/>
<path d="M62.3818 58.8H61.0545V60.2H62.3818V58.8Z" fill="#FFAA5E"/>
<path d="M63.7091 58.8H62.3818V60.2H63.7091V58.8Z" fill="#FFAA5E"/>
<path d="M55.7455 60.2H54.4182V61.6H55.7455V60.2Z" fill="#FFAA5E"/>
<path d="M57.0727 60.2H55.7455V61.6H57.0727V60.2Z" fill="#FFAA5E"/>
<path d="M58.4 60.2H57.0727V61.6H58.4V60.2Z" fill="#FFAA5E"/>
<path d="M59.7273 60.2H58.4V61.6H59.7273V60.2Z" fill="#FFAA5E"/>
<path d="M61.0545 60.2H59.7273V61.6H61.0545V60.2Z" fill="#FFAA5E"/>
<path d="M62.3818 60.2H61.0545V61.6H62.3818V60.2Z" fill="#FFAA5E"/>
<path d="M63.7091 60.2H62.3818V61.6H63.7091V60.2Z" fill="#FFAA5E"/>
<path d="M58.4 61.6H57.0727V63H58.4V61.6Z" fill="#FFAA5E"/>
<path d="M59.7273 61.6H58.4V63H59.7273V61.6Z" fill="#FFAA5E"/>
<path d="M61.0545 61.6H59.7273V63H61.0545V61.6Z" fill="#FFAA5E"/>
<path d="M62.3818 61.6H61.0545V63H62.3818V61.6Z" fill="#FFAA5E"/>
</svg>
