<svg width="60" height="60" viewBox="0 0 60 60" fill="none" xmlns="http://www.w3.org/2000/svg">
<path d="M0.9375 0H0V0.9375H0.9375V0Z" fill="#FFAA5E"/>
<path d="M1.875 0H0.9375V0.9375H1.875V0Z" fill="#FFAA5E"/>
<path d="M2.8125 0H1.875V0.9375H2.8125V0Z" fill="#FFAA5E"/>
<path d="M3.75 0H2.8125V0.9375H3.75V0Z" fill="#FFAA5E"/>
<path d="M4.6875 0H3.75V0.9375H4.6875V0Z" fill="#FFAA5E"/>
<path d="M5.625 0H4.6875V0.9375H5.625V0Z" fill="#FFAA5E"/>
<path d="M6.5625 0H5.625V0.9375H6.5625V0Z" fill="#FFAA5E"/>
<path d="M7.5 0H6.5625V0.9375H7.5V0Z" fill="#FFAA5E"/>
<path d="M8.4375 0H7.5V0.9375H8.4375V0Z" fill="#FFAA5E"/>
<path d="M9.375 0H8.4375V0.9375H9.375V0Z" fill="#FFAA5E"/>
<path d="M10.3125 0H9.375V0.9375H10.3125V0Z" fill="#FFAA5E"/>
<path d="M11.25 0H10.3125V0.9375H11.25V0Z" fill="#FFAA5E"/>
<path d="M12.1875 0H11.25V0.9375H12.1875V0Z" fill="#FFAA5E"/>
<path d="M13.125 0H12.1875V0.9375H13.125V0Z" fill="#FFAA5E"/>
<path d="M14.0625 0H13.125V0.9375H14.0625V0Z" fill="#FFAA5E"/>
<path d="M15 0H14.0625V0.9375H15V0Z" fill="#FFAA5E"/>
<path d="M15.9375 0H15V0.9375H15.9375V0Z" fill="#FFAA5E"/>
<path d="M16.875 0H15.9375V0.9375H16.875V0Z" fill="#FFAA5E"/>
<path d="M17.8125 0H16.875V0.9375H17.8125V0Z" fill="#FFAA5E"/>
<path d="M18.75 0H17.8125V0.9375H18.75V0Z" fill="#FFAA5E"/>
<path d="M19.6875 0H18.75V0.9375H19.6875V0Z" fill="#FFAA5E"/>
<path d="M53.4375 0H52.5V0.9375H53.4375V0Z" fill="#FFAA5E"/>
<path d="M54.375 0H53.4375V0.9375H54.375V0Z" fill="#FFAA5E"/>
<path d="M55.3125 0H54.375V0.9375H55.3125V0Z" fill="#FFAA5E"/>
<path d="M56.25 0H55.3125V0.9375H56.25V0Z" fill="#FFAA5E"/>
<path d="M57.1875 0H56.25V0.9375H57.1875V0Z" fill="#FFAA5E"/>
<path d="M58.125 0H57.1875V0.9375H58.125V0Z" fill="#FFAA5E"/>
<path d="M59.0625 0H58.125V0.9375H59.0625V0Z" fill="#FFAA5E"/>
<path d="M0.9375 0.9375H0V1.875H0.9375V0.9375Z" fill="#FFAA5E"/>
<path d="M1.875 0.9375H0.9375V1.875H1.875V0.9375Z" fill="#FFAA5E"/>
<path d="M2.8125 0.9375H1.875V1.875H2.8125V0.9375Z" fill="#FFAA5E"/>
<path d="M3.75 0.9375H2.8125V1.875H3.75V0.9375Z" fill="#FFAA5E"/>
<path d="M4.6875 0.9375H3.75V1.875H4.6875V0.9375Z" fill="#FFAA5E"/>
<path d="M5.625 0.9375H4.6875V1.875H5.625V0.9375Z" fill="#FFAA5E"/>
<path d="M6.5625 0.9375H5.625V1.875H6.5625V0.9375Z" fill="#FFAA5E"/>
<path d="M7.5 0.9375H6.5625V1.875H7.5V0.9375Z" fill="#FFAA5E"/>
<path d="M8.4375 0.9375H7.5V1.875H8.4375V0.9375Z" fill="#FFAA5E"/>
<path d="M9.375 0.9375H8.4375V1.875H9.375V0.9375Z" fill="#FFAA5E"/>
<path d="M10.3125 0.9375H9.375V1.875H10.3125V0.9375Z" fill="#FFAA5E"/>
<path d="M11.25 0.9375H10.3125V1.875H11.25V0.9375Z" fill="#FFAA5E"/>
<path d="M12.1875 0.9375H11.25V1.875H12.1875V0.9375Z" fill="#FFAA5E"/>
<path d="M13.125 0.9375H12.1875V1.875H13.125V0.9375Z" fill="#FFAA5E"/>
<path d="M14.0625 0.9375H13.125V1.875H14.0625V0.9375Z" fill="#FFAA5E"/>
<path d="M15 0.9375H14.0625V1.875H15V0.9375Z" fill="#FFAA5E"/>
<path d="M15.9375 0.9375H15V1.875H15.9375V0.9375Z" fill="#FFAA5E"/>
<path d="M16.875 0.9375H15.9375V1.875H16.875V0.9375Z" fill="#FFAA5E"/>
<path d="M17.8125 0.9375H16.875V1.875H17.8125V0.9375Z" fill="#FFAA5E"/>
<path d="M18.75 0.9375H17.8125V1.875H18.75V0.9375Z" fill="#FFAA5E"/>
<path d="M19.6875 0.9375H18.75V1.875H19.6875V0.9375Z" fill="#FFAA5E"/>
<path d="M20.625 0.9375H19.6875V1.875H20.625V0.9375Z" fill="#FFAA5E"/>
<path d="M52.5 0.9375H51.5625V1.875H52.5V0.9375Z" fill="#FFAA5E"/>
<path d="M53.4375 0.9375H52.5V1.875H53.4375V0.9375Z" fill="#FFAA5E"/>
<path d="M54.375 0.9375H53.4375V1.875H54.375V0.9375Z" fill="#FFAA5E"/>
<path d="M55.3125 0.9375H54.375V1.875H55.3125V0.9375Z" fill="#FFAA5E"/>
<path d="M56.25 0.9375H55.3125V1.875H56.25V0.9375Z" fill="#FFAA5E"/>
<path d="M57.1875 0.9375H56.25V1.875H57.1875V0.9375Z" fill="#FFAA5E"/>
<path d="M58.125 0.9375H57.1875V1.875H58.125V0.9375Z" fill="#FFAA5E"/>
<path d="M59.0625 0.9375H58.125V1.875H59.0625V0.9375Z" fill="#FFAA5E"/>
<path d="M1.875 1.875H0.9375V2.8125H1.875V1.875Z" fill="#FFAA5E"/>
<path d="M2.8125 1.875H1.875V2.8125H2.8125V1.875Z" fill="#FFAA5E"/>
<path d="M3.75 1.875H2.8125V2.8125H3.75V1.875Z" fill="#FFAA5E"/>
<path d="M4.6875 1.875H3.75V2.8125H4.6875V1.875Z" fill="#FFAA5E"/>
<path d="M5.625 1.875H4.6875V2.8125H5.625V1.875Z" fill="#FFAA5E"/>
<path d="M6.5625 1.875H5.625V2.8125H6.5625V1.875Z" fill="#FFAA5E"/>
<path d="M7.5 1.875H6.5625V2.8125H7.5V1.875Z" fill="#FFAA5E"/>
<path d="M8.4375 1.875H7.5V2.8125H8.4375V1.875Z" fill="#FFAA5E"/>
<path d="M9.375 1.875H8.4375V2.8125H9.375V1.875Z" fill="#FFAA5E"/>
<path d="M10.3125 1.875H9.375V2.8125H10.3125V1.875Z" fill="#FFAA5E"/>
<path d="M11.25 1.875H10.3125V2.8125H11.25V1.875Z" fill="#FFAA5E"/>
<path d="M12.1875 1.875H11.25V2.8125H12.1875V1.875Z" fill="#FFAA5E"/>
<path d="M13.125 1.875H12.1875V2.8125H13.125V1.875Z" fill="#FFAA5E"/>
<path d="M14.0625 1.875H13.125V2.8125H14.0625V1.875Z" fill="#FFAA5E"/>
<path d="M15 1.875H14.0625V2.8125H15V1.875Z" fill="#FFAA5E"/>
<path d="M15.9375 1.875H15V2.8125H15.9375V1.875Z" fill="#FFAA5E"/>
<path d="M16.875 1.875H15.9375V2.8125H16.875V1.875Z" fill="#FFAA5E"/>
<path d="M17.8125 1.875H16.875V2.8125H17.8125V1.875Z" fill="#FFAA5E"/>
<path d="M18.75 1.875H17.8125V2.8125H18.75V1.875Z" fill="#FFAA5E"/>
<path d="M19.6875 1.875H18.75V2.8125H19.6875V1.875Z" fill="#FFAA5E"/>
<path d="M20.625 1.875H19.6875V2.8125H20.625V1.875Z" fill="#FFAA5E"/>
<path d="M51.5625 1.875H50.625V2.8125H51.5625V1.875Z" fill="#FFAA5E"/>
<path d="M52.5 1.875H51.5625V2.8125H52.5V1.875Z" fill="#FFAA5E"/>
<path d="M53.4375 1.875H52.5V2.8125H53.4375V1.875Z" fill="#FFAA5E"/>
<path d="M54.375 1.875H53.4375V2.8125H54.375V1.875Z" fill="#FFAA5E"/>
<path d="M55.3125 1.875H54.375V2.8125H55.3125V1.875Z" fill="#FFAA5E"/>
<path d="M56.25 1.875H55.3125V2.8125H56.25V1.875Z" fill="#FFAA5E"/>
<path d="M57.1875 1.875H56.25V2.8125H57.1875V1.875Z" fill="#FFAA5E"/>
<path d="M58.125 1.875H57.1875V2.8125H58.125V1.875Z" fill="#FFAA5E"/>
<path d="M2.8125 2.8125H1.875V3.75H2.8125V2.8125Z" fill="#FFAA5E"/>
<path d="M3.75 2.8125H2.8125V3.75H3.75V2.8125Z" fill="#FFAA5E"/>
<path d="M4.6875 2.8125H3.75V3.75H4.6875V2.8125Z" fill="#FFAA5E"/>
<path d="M5.625 2.8125H4.6875V3.75H5.625V2.8125Z" fill="#FFAA5E"/>
<path d="M6.5625 2.8125H5.625V3.75H6.5625V2.8125Z" fill="#FFAA5E"/>
<path d="M7.5 2.8125H6.5625V3.75H7.5V2.8125Z" fill="#FFAA5E"/>
<path d="M8.4375 2.8125H7.5V3.75H8.4375V2.8125Z" fill="#FFAA5E"/>
<path d="M9.375 2.8125H8.4375V3.75H9.375V2.8125Z" fill="#FFAA5E"/>
<path d="M10.3125 2.8125H9.375V3.75H10.3125V2.8125Z" fill="#FFAA5E"/>
<path d="M11.25 2.8125H10.3125V3.75H11.25V2.8125Z" fill="#FFAA5E"/>
<path d="M12.1875 2.8125H11.25V3.75H12.1875V2.8125Z" fill="#FFAA5E"/>
<path d="M13.125 2.8125H12.1875V3.75H13.125V2.8125Z" fill="#FFAA5E"/>
<path d="M14.0625 2.8125H13.125V3.75H14.0625V2.8125Z" fill="#FFAA5E"/>
<path d="M15 2.8125H14.0625V3.75H15V2.8125Z" fill="#FFAA5E"/>
<path d="M15.9375 2.8125H15V3.75H15.9375V2.8125Z" fill="#FFAA5E"/>
<path d="M16.875 2.8125H15.9375V3.75H16.875V2.8125Z" fill="#FFAA5E"/>
<path d="M17.8125 2.8125H16.875V3.75H17.8125V2.8125Z" fill="#FFAA5E"/>
<path d="M18.75 2.8125H17.8125V3.75H18.75V2.8125Z" fill="#FFAA5E"/>
<path d="M19.6875 2.8125H18.75V3.75H19.6875V2.8125Z" fill="#FFAA5E"/>
<path d="M20.625 2.8125H19.6875V3.75H20.625V2.8125Z" fill="#FFAA5E"/>
<path d="M21.5625 2.8125H20.625V3.75H21.5625V2.8125Z" fill="#FFAA5E"/>
<path d="M50.625 2.8125H49.6875V3.75H50.625V2.8125Z" fill="#FFAA5E"/>
<path d="M51.5625 2.8125H50.625V3.75H51.5625V2.8125Z" fill="#FFAA5E"/>
<path d="M52.5 2.8125H51.5625V3.75H52.5V2.8125Z" fill="#FFAA5E"/>
<path d="M53.4375 2.8125H52.5V3.75H53.4375V2.8125Z" fill="#FFAA5E"/>
<path d="M54.375 2.8125H53.4375V3.75H54.375V2.8125Z" fill="#FFAA5E"/>
<path d="M55.3125 2.8125H54.375V3.75H55.3125V2.8125Z" fill="#FFAA5E"/>
<path d="M56.25 2.8125H55.3125V3.75H56.25V2.8125Z" fill="#FFAA5E"/>
<path d="M57.1875 2.8125H56.25V3.75H57.1875V2.8125Z" fill="#FFAA5E"/>
<path d="M2.8125 3.75H1.875V4.6875H2.8125V3.75Z" fill="#FFAA5E"/>
<path d="M3.75 3.75H2.8125V4.6875H3.75V3.75Z" fill="#FFAA5E"/>
<path d="M4.6875 3.75H3.75V4.6875H4.6875V3.75Z" fill="#FFAA5E"/>
<path d="M5.625 3.75H4.6875V4.6875H5.625V3.75Z" fill="#FFAA5E"/>
<path d="M6.5625 3.75H5.625V4.6875H6.5625V3.75Z" fill="#FFAA5E"/>
<path d="M7.5 3.75H6.5625V4.6875H7.5V3.75Z" fill="#FFAA5E"/>
<path d="M8.4375 3.75H7.5V4.6875H8.4375V3.75Z" fill="#FFAA5E"/>
<path d="M9.375 3.75H8.4375V4.6875H9.375V3.75Z" fill="#FFAA5E"/>
<path d="M10.3125 3.75H9.375V4.6875H10.3125V3.75Z" fill="#FFAA5E"/>
<path d="M11.25 3.75H10.3125V4.6875H11.25V3.75Z" fill="#FFAA5E"/>
<path d="M12.1875 3.75H11.25V4.6875H12.1875V3.75Z" fill="#FFAA5E"/>
<path d="M13.125 3.75H12.1875V4.6875H13.125V3.75Z" fill="#FFAA5E"/>
<path d="M14.0625 3.75H13.125V4.6875H14.0625V3.75Z" fill="#FFAA5E"/>
<path d="M15 3.75H14.0625V4.6875H15V3.75Z" fill="#FFAA5E"/>
<path d="M15.9375 3.75H15V4.6875H15.9375V3.75Z" fill="#FFAA5E"/>
<path d="M16.875 3.75H15.9375V4.6875H16.875V3.75Z" fill="#FFAA5E"/>
<path d="M17.8125 3.75H16.875V4.6875H17.8125V3.75Z" fill="#FFAA5E"/>
<path d="M18.75 3.75H17.8125V4.6875H18.75V3.75Z" fill="#FFAA5E"/>
<path d="M19.6875 3.75H18.75V4.6875H19.6875V3.75Z" fill="#FFAA5E"/>
<path d="M20.625 3.75H19.6875V4.6875H20.625V3.75Z" fill="#FFAA5E"/>
<path d="M21.5625 3.75H20.625V4.6875H21.5625V3.75Z" fill="#FFAA5E"/>
<path d="M49.6875 3.75H48.75V4.6875H49.6875V3.75Z" fill="#FFAA5E"/>
<path d="M50.625 3.75H49.6875V4.6875H50.625V3.75Z" fill="#FFAA5E"/>
<path d="M51.5625 3.75H50.625V4.6875H51.5625V3.75Z" fill="#FFAA5E"/>
<path d="M52.5 3.75H51.5625V4.6875H52.5V3.75Z" fill="#FFAA5E"/>
<path d="M53.4375 3.75H52.5V4.6875H53.4375V3.75Z" fill="#FFAA5E"/>
<path d="M54.375 3.75H53.4375V4.6875H54.375V3.75Z" fill="#FFAA5E"/>
<path d="M55.3125 3.75H54.375V4.6875H55.3125V3.75Z" fill="#FFAA5E"/>
<path d="M56.25 3.75H55.3125V4.6875H56.25V3.75Z" fill="#FFAA5E"/>
<path d="M3.75 4.6875H2.8125V5.625H3.75V4.6875Z" fill="#FFAA5E"/>
<path d="M4.6875 4.6875H3.75V5.625H4.6875V4.6875Z" fill="#FFAA5E"/>
<path d="M5.625 4.6875H4.6875V5.625H5.625V4.6875Z" fill="#FFAA5E"/>
<path d="M6.5625 4.6875H5.625V5.625H6.5625V4.6875Z" fill="#FFAA5E"/>
<path d="M7.5 4.6875H6.5625V5.625H7.5V4.6875Z" fill="#FFAA5E"/>
<path d="M8.4375 4.6875H7.5V5.625H8.4375V4.6875Z" fill="#FFAA5E"/>
<path d="M9.375 4.6875H8.4375V5.625H9.375V4.6875Z" fill="#FFAA5E"/>
<path d="M10.3125 4.6875H9.375V5.625H10.3125V4.6875Z" fill="#FFAA5E"/>
<path d="M11.25 4.6875H10.3125V5.625H11.25V4.6875Z" fill="#FFAA5E"/>
<path d="M12.1875 4.6875H11.25V5.625H12.1875V4.6875Z" fill="#FFAA5E"/>
<path d="M13.125 4.6875H12.1875V5.625H13.125V4.6875Z" fill="#FFAA5E"/>
<path d="M14.0625 4.6875H13.125V5.625H14.0625V4.6875Z" fill="#FFAA5E"/>
<path d="M15 4.6875H14.0625V5.625H15V4.6875Z" fill="#FFAA5E"/>
<path d="M15.9375 4.6875H15V5.625H15.9375V4.6875Z" fill="#FFAA5E"/>
<path d="M16.875 4.6875H15.9375V5.625H16.875V4.6875Z" fill="#FFAA5E"/>
<path d="M17.8125 4.6875H16.875V5.625H17.8125V4.6875Z" fill="#FFAA5E"/>
<path d="M18.75 4.6875H17.8125V5.625H18.75V4.6875Z" fill="#FFAA5E"/>
<path d="M19.6875 4.6875H18.75V5.625H19.6875V4.6875Z" fill="#FFAA5E"/>
<path d="M20.625 4.6875H19.6875V5.625H20.625V4.6875Z" fill="#FFAA5E"/>
<path d="M21.5625 4.6875H20.625V5.625H21.5625V4.6875Z" fill="#FFAA5E"/>
<path d="M22.5 4.6875H21.5625V5.625H22.5V4.6875Z" fill="#FFAA5E"/>
<path d="M48.75 4.6875H47.8125V5.625H48.75V4.6875Z" fill="#FFAA5E"/>
<path d="M49.6875 4.6875H48.75V5.625H49.6875V4.6875Z" fill="#FFAA5E"/>
<path d="M50.625 4.6875H49.6875V5.625H50.625V4.6875Z" fill="#FFAA5E"/>
<path d="M51.5625 4.6875H50.625V5.625H51.5625V4.6875Z" fill="#FFAA5E"/>
<path d="M52.5 4.6875H51.5625V5.625H52.5V4.6875Z" fill="#FFAA5E"/>
<path d="M53.4375 4.6875H52.5V5.625H53.4375V4.6875Z" fill="#FFAA5E"/>
<path d="M54.375 4.6875H53.4375V5.625H54.375V4.6875Z" fill="#FFAA5E"/>
<path d="M55.3125 4.6875H54.375V5.625H55.3125V4.6875Z" fill="#FFAA5E"/>
<path d="M4.6875 5.625H3.75V6.5625H4.6875V5.625Z" fill="#FFAA5E"/>
<path d="M5.625 5.625H4.6875V6.5625H5.625V5.625Z" fill="#FFAA5E"/>
<path d="M6.5625 5.625H5.625V6.5625H6.5625V5.625Z" fill="#FFAA5E"/>
<path d="M7.5 5.625H6.5625V6.5625H7.5V5.625Z" fill="#FFAA5E"/>
<path d="M8.4375 5.625H7.5V6.5625H8.4375V5.625Z" fill="#FFAA5E"/>
<path d="M9.375 5.625H8.4375V6.5625H9.375V5.625Z" fill="#FFAA5E"/>
<path d="M16.875 5.625H15.9375V6.5625H16.875V5.625Z" fill="#FFAA5E"/>
<path d="M17.8125 5.625H16.875V6.5625H17.8125V5.625Z" fill="#FFAA5E"/>
<path d="M18.75 5.625H17.8125V6.5625H18.75V5.625Z" fill="#FFAA5E"/>
<path d="M19.6875 5.625H18.75V6.5625H19.6875V5.625Z" fill="#FFAA5E"/>
<path d="M20.625 5.625H19.6875V6.5625H20.625V5.625Z" fill="#FFAA5E"/>
<path d="M21.5625 5.625H20.625V6.5625H21.5625V5.625Z" fill="#FFAA5E"/>
<path d="M22.5 5.625H21.5625V6.5625H22.5V5.625Z" fill="#FFAA5E"/>
<path d="M23.4375 5.625H22.5V6.5625H23.4375V5.625Z" fill="#FFAA5E"/>
<path d="M48.75 5.625H47.8125V6.5625H48.75V5.625Z" fill="#FFAA5E"/>
<path d="M49.6875 5.625H48.75V6.5625H49.6875V5.625Z" fill="#FFAA5E"/>
<path d="M50.625 5.625H49.6875V6.5625H50.625V5.625Z" fill="#FFAA5E"/>
<path d="M51.5625 5.625H50.625V6.5625H51.5625V5.625Z" fill="#FFAA5E"/>
<path d="M52.5 5.625H51.5625V6.5625H52.5V5.625Z" fill="#FFAA5E"/>
<path d="M53.4375 5.625H52.5V6.5625H53.4375V5.625Z" fill="#FFAA5E"/>
<path d="M54.375 5.625H53.4375V6.5625H54.375V5.625Z" fill="#FFAA5E"/>
<path d="M4.6875 6.5625H3.75V7.5H4.6875V6.5625Z" fill="#FFAA5E"/>
<path d="M5.625 6.5625H4.6875V7.5H5.625V6.5625Z" fill="#FFAA5E"/>
<path d="M6.5625 6.5625H5.625V7.5H6.5625V6.5625Z" fill="#FFAA5E"/>
<path d="M7.5 6.5625H6.5625V7.5H7.5V6.5625Z" fill="#FFAA5E"/>
<path d="M8.4375 6.5625H7.5V7.5H8.4375V6.5625Z" fill="#FFAA5E"/>
<path d="M9.375 6.5625H8.4375V7.5H9.375V6.5625Z" fill="#FFAA5E"/>
<path d="M10.3125 6.5625H9.375V7.5H10.3125V6.5625Z" fill="#FFAA5E"/>
<path d="M17.8125 6.5625H16.875V7.5H17.8125V6.5625Z" fill="#FFAA5E"/>
<path d="M18.75 6.5625H17.8125V7.5H18.75V6.5625Z" fill="#FFAA5E"/>
<path d="M19.6875 6.5625H18.75V7.5H19.6875V6.5625Z" fill="#FFAA5E"/>
<path d="M20.625 6.5625H19.6875V7.5H20.625V6.5625Z" fill="#FFAA5E"/>
<path d="M21.5625 6.5625H20.625V7.5H21.5625V6.5625Z" fill="#FFAA5E"/>
<path d="M22.5 6.5625H21.5625V7.5H22.5V6.5625Z" fill="#FFAA5E"/>
<path d="M23.4375 6.5625H22.5V7.5H23.4375V6.5625Z" fill="#FFAA5E"/>
<path d="M47.8125 6.5625H46.875V7.5H47.8125V6.5625Z" fill="#FFAA5E"/>
<path d="M48.75 6.5625H47.8125V7.5H48.75V6.5625Z" fill="#FFAA5E"/>
<path d="M49.6875 6.5625H48.75V7.5H49.6875V6.5625Z" fill="#FFAA5E"/>
<path d="M50.625 6.5625H49.6875V7.5H50.625V6.5625Z" fill="#FFAA5E"/>
<path d="M51.5625 6.5625H50.625V7.5H51.5625V6.5625Z" fill="#FFAA5E"/>
<path d="M52.5 6.5625H51.5625V7.5H52.5V6.5625Z" fill="#FFAA5E"/>
<path d="M53.4375 6.5625H52.5V7.5H53.4375V6.5625Z" fill="#FFAA5E"/>
<path d="M5.625 7.5H4.6875V8.4375H5.625V7.5Z" fill="#FFAA5E"/>
<path d="M6.5625 7.5H5.625V8.4375H6.5625V7.5Z" fill="#FFAA5E"/>
<path d="M7.5 7.5H6.5625V8.4375H7.5V7.5Z" fill="#FFAA5E"/>
<path d="M8.4375 7.5H7.5V8.4375H8.4375V7.5Z" fill="#FFAA5E"/>
<path d="M9.375 7.5H8.4375V8.4375H9.375V7.5Z" fill="#FFAA5E"/>
<path d="M10.3125 7.5H9.375V8.4375H10.3125V7.5Z" fill="#FFAA5E"/>
<path d="M11.25 7.5H10.3125V8.4375H11.25V7.5Z" fill="#FFAA5E"/>
<path d="M17.8125 7.5H16.875V8.4375H17.8125V7.5Z" fill="#FFAA5E"/>
<path d="M18.75 7.5H17.8125V8.4375H18.75V7.5Z" fill="#FFAA5E"/>
<path d="M19.6875 7.5H18.75V8.4375H19.6875V7.5Z" fill="#FFAA5E"/>
<path d="M20.625 7.5H19.6875V8.4375H20.625V7.5Z" fill="#FFAA5E"/>
<path d="M21.5625 7.5H20.625V8.4375H21.5625V7.5Z" fill="#FFAA5E"/>
<path d="M22.5 7.5H21.5625V8.4375H22.5V7.5Z" fill="#FFAA5E"/>
<path d="M23.4375 7.5H22.5V8.4375H23.4375V7.5Z" fill="#FFAA5E"/>
<path d="M24.375 7.5H23.4375V8.4375H24.375V7.5Z" fill="#FFAA5E"/>
<path d="M46.875 7.5H45.9375V8.4375H46.875V7.5Z" fill="#FFAA5E"/>
<path d="M47.8125 7.5H46.875V8.4375H47.8125V7.5Z" fill="#FFAA5E"/>
<path d="M48.75 7.5H47.8125V8.4375H48.75V7.5Z" fill="#FFAA5E"/>
<path d="M49.6875 7.5H48.75V8.4375H49.6875V7.5Z" fill="#FFAA5E"/>
<path d="M50.625 7.5H49.6875V8.4375H50.625V7.5Z" fill="#FFAA5E"/>
<path d="M51.5625 7.5H50.625V8.4375H51.5625V7.5Z" fill="#FFAA5E"/>
<path d="M52.5 7.5H51.5625V8.4375H52.5V7.5Z" fill="#FFAA5E"/>
<path d="M6.5625 8.4375H5.625V9.375H6.5625V8.4375Z" fill="#FFAA5E"/>
<path d="M7.5 8.4375H6.5625V9.375H7.5V8.4375Z" fill="#FFAA5E"/>
<path d="M8.4375 8.4375H7.5V9.375H8.4375V8.4375Z" fill="#FFAA5E"/>
<path d="M9.375 8.4375H8.4375V9.375H9.375V8.4375Z" fill="#FFAA5E"/>
<path d="M10.3125 8.4375H9.375V9.375H10.3125V8.4375Z" fill="#FFAA5E"/>
<path d="M11.25 8.4375H10.3125V9.375H11.25V8.4375Z" fill="#FFAA5E"/>
<path d="M12.1875 8.4375H11.25V9.375H12.1875V8.4375Z" fill="#FFAA5E"/>
<path d="M18.75 8.4375H17.8125V9.375H18.75V8.4375Z" fill="#FFAA5E"/>
<path d="M19.6875 8.4375H18.75V9.375H19.6875V8.4375Z" fill="#FFAA5E"/>
<path d="M20.625 8.4375H19.6875V9.375H20.625V8.4375Z" fill="#FFAA5E"/>
<path d="M21.5625 8.4375H20.625V9.375H21.5625V8.4375Z" fill="#FFAA5E"/>
<path d="M22.5 8.4375H21.5625V9.375H22.5V8.4375Z" fill="#FFAA5E"/>
<path d="M23.4375 8.4375H22.5V9.375H23.4375V8.4375Z" fill="#FFAA5E"/>
<path d="M24.375 8.4375H23.4375V9.375H24.375V8.4375Z" fill="#FFAA5E"/>
<path d="M25.3125 8.4375H24.375V9.375H25.3125V8.4375Z" fill="#FFAA5E"/>
<path d="M45.9375 8.4375H45V9.375H45.9375V8.4375Z" fill="#FFAA5E"/>
<path d="M46.875 8.4375H45.9375V9.375H46.875V8.4375Z" fill="#FFAA5E"/>
<path d="M47.8125 8.4375H46.875V9.375H47.8125V8.4375Z" fill="#FFAA5E"/>
<path d="M48.75 8.4375H47.8125V9.375H48.75V8.4375Z" fill="#FFAA5E"/>
<path d="M49.6875 8.4375H48.75V9.375H49.6875V8.4375Z" fill="#FFAA5E"/>
<path d="M50.625 8.4375H49.6875V9.375H50.625V8.4375Z" fill="#FFAA5E"/>
<path d="M51.5625 8.4375H50.625V9.375H51.5625V8.4375Z" fill="#FFAA5E"/>
<path d="M52.5 8.4375H51.5625V9.375H52.5V8.4375Z" fill="#FFAA5E"/>
<path d="M6.5625 9.375H5.625V10.3125H6.5625V9.375Z" fill="#FFAA5E"/>
<path d="M7.5 9.375H6.5625V10.3125H7.5V9.375Z" fill="#FFAA5E"/>
<path d="M8.4375 9.375H7.5V10.3125H8.4375V9.375Z" fill="#FFAA5E"/>
<path d="M9.375 9.375H8.4375V10.3125H9.375V9.375Z" fill="#FFAA5E"/>
<path d="M10.3125 9.375H9.375V10.3125H10.3125V9.375Z" fill="#FFAA5E"/>
<path d="M11.25 9.375H10.3125V10.3125H11.25V9.375Z" fill="#FFAA5E"/>
<path d="M12.1875 9.375H11.25V10.3125H12.1875V9.375Z" fill="#FFAA5E"/>
<path d="M19.6875 9.375H18.75V10.3125H19.6875V9.375Z" fill="#FFAA5E"/>
<path d="M20.625 9.375H19.6875V10.3125H20.625V9.375Z" fill="#FFAA5E"/>
<path d="M21.5625 9.375H20.625V10.3125H21.5625V9.375Z" fill="#FFAA5E"/>
<path d="M22.5 9.375H21.5625V10.3125H22.5V9.375Z" fill="#FFAA5E"/>
<path d="M23.4375 9.375H22.5V10.3125H23.4375V9.375Z" fill="#FFAA5E"/>
<path d="M24.375 9.375H23.4375V10.3125H24.375V9.375Z" fill="#FFAA5E"/>
<path d="M25.3125 9.375H24.375V10.3125H25.3125V9.375Z" fill="#FFAA5E"/>
<path d="M45 9.375H44.0625V10.3125H45V9.375Z" fill="#FFAA5E"/>
<path d="M45.9375 9.375H45V10.3125H45.9375V9.375Z" fill="#FFAA5E"/>
<path d="M46.875 9.375H45.9375V10.3125H46.875V9.375Z" fill="#FFAA5E"/>
<path d="M47.8125 9.375H46.875V10.3125H47.8125V9.375Z" fill="#FFAA5E"/>
<path d="M48.75 9.375H47.8125V10.3125H48.75V9.375Z" fill="#FFAA5E"/>
<path d="M49.6875 9.375H48.75V10.3125H49.6875V9.375Z" fill="#FFAA5E"/>
<path d="M50.625 9.375H49.6875V10.3125H50.625V9.375Z" fill="#FFAA5E"/>
<path d="M51.5625 9.375H50.625V10.3125H51.5625V9.375Z" fill="#FFAA5E"/>
<path d="M7.5 10.3125H6.5625V11.25H7.5V10.3125Z" fill="#FFAA5E"/>
<path d="M8.4375 10.3125H7.5V11.25H8.4375V10.3125Z" fill="#FFAA5E"/>
<path d="M9.375 10.3125H8.4375V11.25H9.375V10.3125Z" fill="#FFAA5E"/>
<path d="M10.3125 10.3125H9.375V11.25H10.3125V10.3125Z" fill="#FFAA5E"/>
<path d="M11.25 10.3125H10.3125V11.25H11.25V10.3125Z" fill="#FFAA5E"/>
<path d="M12.1875 10.3125H11.25V11.25H12.1875V10.3125Z" fill="#FFAA5E"/>
<path d="M13.125 10.3125H12.1875V11.25H13.125V10.3125Z" fill="#FFAA5E"/>
<path d="M20.625 10.3125H19.6875V11.25H20.625V10.3125Z" fill="#FFAA5E"/>
<path d="M21.5625 10.3125H20.625V11.25H21.5625V10.3125Z" fill="#FFAA5E"/>
<path d="M22.5 10.3125H21.5625V11.25H22.5V10.3125Z" fill="#FFAA5E"/>
<path d="M23.4375 10.3125H22.5V11.25H23.4375V10.3125Z" fill="#FFAA5E"/>
<path d="M24.375 10.3125H23.4375V11.25H24.375V10.3125Z" fill="#FFAA5E"/>
<path d="M25.3125 10.3125H24.375V11.25H25.3125V10.3125Z" fill="#FFAA5E"/>
<path d="M26.25 10.3125H25.3125V11.25H26.25V10.3125Z" fill="#FFAA5E"/>
<path d="M44.0625 10.3125H43.125V11.25H44.0625V10.3125Z" fill="#FFAA5E"/>
<path d="M45 10.3125H44.0625V11.25H45V10.3125Z" fill="#FFAA5E"/>
<path d="M45.9375 10.3125H45V11.25H45.9375V10.3125Z" fill="#FFAA5E"/>
<path d="M46.875 10.3125H45.9375V11.25H46.875V10.3125Z" fill="#FFAA5E"/>
<path d="M47.8125 10.3125H46.875V11.25H47.8125V10.3125Z" fill="#FFAA5E"/>
<path d="M48.75 10.3125H47.8125V11.25H48.75V10.3125Z" fill="#FFAA5E"/>
<path d="M49.6875 10.3125H48.75V11.25H49.6875V10.3125Z" fill="#FFAA5E"/>
<path d="M50.625 10.3125H49.6875V11.25H50.625V10.3125Z" fill="#FFAA5E"/>
<path d="M8.4375 11.25H7.5V12.1875H8.4375V11.25Z" fill="#FFAA5E"/>
<path d="M9.375 11.25H8.4375V12.1875H9.375V11.25Z" fill="#FFAA5E"/>
<path d="M10.3125 11.25H9.375V12.1875H10.3125V11.25Z" fill="#FFAA5E"/>
<path d="M11.25 11.25H10.3125V12.1875H11.25V11.25Z" fill="#FFAA5E"/>
<path d="M12.1875 11.25H11.25V12.1875H12.1875V11.25Z" fill="#FFAA5E"/>
<path d="M13.125 11.25H12.1875V12.1875H13.125V11.25Z" fill="#FFAA5E"/>
<path d="M14.0625 11.25H13.125V12.1875H14.0625V11.25Z" fill="#FFAA5E"/>
<path d="M20.625 11.25H19.6875V12.1875H20.625V11.25Z" fill="#FFAA5E"/>
<path d="M21.5625 11.25H20.625V12.1875H21.5625V11.25Z" fill="#FFAA5E"/>
<path d="M22.5 11.25H21.5625V12.1875H22.5V11.25Z" fill="#FFAA5E"/>
<path d="M23.4375 11.25H22.5V12.1875H23.4375V11.25Z" fill="#FFAA5E"/>
<path d="M24.375 11.25H23.4375V12.1875H24.375V11.25Z" fill="#FFAA5E"/>
<path d="M25.3125 11.25H24.375V12.1875H25.3125V11.25Z" fill="#FFAA5E"/>
<path d="M26.25 11.25H25.3125V12.1875H26.25V11.25Z" fill="#FFAA5E"/>
<path d="M27.1875 11.25H26.25V12.1875H27.1875V11.25Z" fill="#FFAA5E"/>
<path d="M43.125 11.25H42.1875V12.1875H43.125V11.25Z" fill="#FFAA5E"/>
<path d="M44.0625 11.25H43.125V12.1875H44.0625V11.25Z" fill="#FFAA5E"/>
<path d="M45 11.25H44.0625V12.1875H45V11.25Z" fill="#FFAA5E"/>
<path d="M45.9375 11.25H45V12.1875H45.9375V11.25Z" fill="#FFAA5E"/>
<path d="M46.875 11.25H45.9375V12.1875H46.875V11.25Z" fill="#FFAA5E"/>
<path d="M47.8125 11.25H46.875V12.1875H47.8125V11.25Z" fill="#FFAA5E"/>
<path d="M48.75 11.25H47.8125V12.1875H48.75V11.25Z" fill="#FFAA5E"/>
<path d="M49.6875 11.25H48.75V12.1875H49.6875V11.25Z" fill="#FFAA5E"/>
<path d="M8.4375 12.1875H7.5V13.125H8.4375V12.1875Z" fill="#FFAA5E"/>
<path d="M9.375 12.1875H8.4375V13.125H9.375V12.1875Z" fill="#FFAA5E"/>
<path d="M10.3125 12.1875H9.375V13.125H10.3125V12.1875Z" fill="#FFAA5E"/>
<path d="M11.25 12.1875H10.3125V13.125H11.25V12.1875Z" fill="#FFAA5E"/>
<path d="M12.1875 12.1875H11.25V13.125H12.1875V12.1875Z" fill="#FFAA5E"/>
<path d="M13.125 12.1875H12.1875V13.125H13.125V12.1875Z" fill="#FFAA5E"/>
<path d="M14.0625 12.1875H13.125V13.125H14.0625V12.1875Z" fill="#FFAA5E"/>
<path d="M21.5625 12.1875H20.625V13.125H21.5625V12.1875Z" fill="#FFAA5E"/>
<path d="M22.5 12.1875H21.5625V13.125H22.5V12.1875Z" fill="#FFAA5E"/>
<path d="M23.4375 12.1875H22.5V13.125H23.4375V12.1875Z" fill="#FFAA5E"/>
<path d="M24.375 12.1875H23.4375V13.125H24.375V12.1875Z" fill="#FFAA5E"/>
<path d="M25.3125 12.1875H24.375V13.125H25.3125V12.1875Z" fill="#FFAA5E"/>
<path d="M26.25 12.1875H25.3125V13.125H26.25V12.1875Z" fill="#FFAA5E"/>
<path d="M27.1875 12.1875H26.25V13.125H27.1875V12.1875Z" fill="#FFAA5E"/>
<path d="M28.125 12.1875H27.1875V13.125H28.125V12.1875Z" fill="#FFAA5E"/>
<path d="M43.125 12.1875H42.1875V13.125H43.125V12.1875Z" fill="#FFAA5E"/>
<path d="M44.0625 12.1875H43.125V13.125H44.0625V12.1875Z" fill="#FFAA5E"/>
<path d="M45 12.1875H44.0625V13.125H45V12.1875Z" fill="#FFAA5E"/>
<path d="M45.9375 12.1875H45V13.125H45.9375V12.1875Z" fill="#FFAA5E"/>
<path d="M46.875 12.1875H45.9375V13.125H46.875V12.1875Z" fill="#FFAA5E"/>
<path d="M47.8125 12.1875H46.875V13.125H47.8125V12.1875Z" fill="#FFAA5E"/>
<path d="M48.75 12.1875H47.8125V13.125H48.75V12.1875Z" fill="#FFAA5E"/>
<path d="M9.375 13.125H8.4375V14.0625H9.375V13.125Z" fill="#FFAA5E"/>
<path d="M10.3125 13.125H9.375V14.0625H10.3125V13.125Z" fill="#FFAA5E"/>
<path d="M11.25 13.125H10.3125V14.0625H11.25V13.125Z" fill="#FFAA5E"/>
<path d="M12.1875 13.125H11.25V14.0625H12.1875V13.125Z" fill="#FFAA5E"/>
<path d="M13.125 13.125H12.1875V14.0625H13.125V13.125Z" fill="#FFAA5E"/>
<path d="M14.0625 13.125H13.125V14.0625H14.0625V13.125Z" fill="#FFAA5E"/>
<path d="M15 13.125H14.0625V14.0625H15V13.125Z" fill="#FFAA5E"/>
<path d="M22.5 13.125H21.5625V14.0625H22.5V13.125Z" fill="#FFAA5E"/>
<path d="M23.4375 13.125H22.5V14.0625H23.4375V13.125Z" fill="#FFAA5E"/>
<path d="M24.375 13.125H23.4375V14.0625H24.375V13.125Z" fill="#FFAA5E"/>
<path d="M25.3125 13.125H24.375V14.0625H25.3125V13.125Z" fill="#FFAA5E"/>
<path d="M26.25 13.125H25.3125V14.0625H26.25V13.125Z" fill="#FFAA5E"/>
<path d="M27.1875 13.125H26.25V14.0625H27.1875V13.125Z" fill="#FFAA5E"/>
<path d="M28.125 13.125H27.1875V14.0625H28.125V13.125Z" fill="#FFAA5E"/>
<path d="M42.1875 13.125H41.25V14.0625H42.1875V13.125Z" fill="#FFAA5E"/>
<path d="M43.125 13.125H42.1875V14.0625H43.125V13.125Z" fill="#FFAA5E"/>
<path d="M44.0625 13.125H43.125V14.0625H44.0625V13.125Z" fill="#FFAA5E"/>
<path d="M45 13.125H44.0625V14.0625H45V13.125Z" fill="#FFAA5E"/>
<path d="M45.9375 13.125H45V14.0625H45.9375V13.125Z" fill="#FFAA5E"/>
<path d="M46.875 13.125H45.9375V14.0625H46.875V13.125Z" fill="#FFAA5E"/>
<path d="M47.8125 13.125H46.875V14.0625H47.8125V13.125Z" fill="#FFAA5E"/>
<path d="M10.3125 14.0625H9.375V15H10.3125V14.0625Z" fill="#FFAA5E"/>
<path d="M11.25 14.0625H10.3125V15H11.25V14.0625Z" fill="#FFAA5E"/>
<path d="M12.1875 14.0625H11.25V15H12.1875V14.0625Z" fill="#FFAA5E"/>
<path d="M13.125 14.0625H12.1875V15H13.125V14.0625Z" fill="#FFAA5E"/>
<path d="M14.0625 14.0625H13.125V15H14.0625V14.0625Z" fill="#FFAA5E"/>
<path d="M15 14.0625H14.0625V15H15V14.0625Z" fill="#FFAA5E"/>
<path d="M15.9375 14.0625H15V15H15.9375V14.0625Z" fill="#FFAA5E"/>
<path d="M22.5 14.0625H21.5625V15H22.5V14.0625Z" fill="#FFAA5E"/>
<path d="M23.4375 14.0625H22.5V15H23.4375V14.0625Z" fill="#FFAA5E"/>
<path d="M24.375 14.0625H23.4375V15H24.375V14.0625Z" fill="#FFAA5E"/>
<path d="M25.3125 14.0625H24.375V15H25.3125V14.0625Z" fill="#FFAA5E"/>
<path d="M26.25 14.0625H25.3125V15H26.25V14.0625Z" fill="#FFAA5E"/>
<path d="M27.1875 14.0625H26.25V15H27.1875V14.0625Z" fill="#FFAA5E"/>
<path d="M28.125 14.0625H27.1875V15H28.125V14.0625Z" fill="#FFAA5E"/>
<path d="M29.0625 14.0625H28.125V15H29.0625V14.0625Z" fill="#FFAA5E"/>
<path d="M41.25 14.0625H40.3125V15H41.25V14.0625Z" fill="#FFAA5E"/>
<path d="M42.1875 14.0625H41.25V15H42.1875V14.0625Z" fill="#FFAA5E"/>
<path d="M43.125 14.0625H42.1875V15H43.125V14.0625Z" fill="#FFAA5E"/>
<path d="M44.0625 14.0625H43.125V15H44.0625V14.0625Z" fill="#FFAA5E"/>
<path d="M45 14.0625H44.0625V15H45V14.0625Z" fill="#FFAA5E"/>
<path d="M45.9375 14.0625H45V15H45.9375V14.0625Z" fill="#FFAA5E"/>
<path d="M46.875 14.0625H45.9375V15H46.875V14.0625Z" fill="#FFAA5E"/>
<path d="M11.25 15H10.3125V15.9375H11.25V15Z" fill="#FFAA5E"/>
<path d="M12.1875 15H11.25V15.9375H12.1875V15Z" fill="#FFAA5E"/>
<path d="M13.125 15H12.1875V15.9375H13.125V15Z" fill="#FFAA5E"/>
<path d="M14.0625 15H13.125V15.9375H14.0625V15Z" fill="#FFAA5E"/>
<path d="M15 15H14.0625V15.9375H15V15Z" fill="#FFAA5E"/>
<path d="M15.9375 15H15V15.9375H15.9375V15Z" fill="#FFAA5E"/>
<path d="M23.4375 15H22.5V15.9375H23.4375V15Z" fill="#FFAA5E"/>
<path d="M24.375 15H23.4375V15.9375H24.375V15Z" fill="#FFAA5E"/>
<path d="M25.3125 15H24.375V15.9375H25.3125V15Z" fill="#FFAA5E"/>
<path d="M26.25 15H25.3125V15.9375H26.25V15Z" fill="#FFAA5E"/>
<path d="M27.1875 15H26.25V15.9375H27.1875V15Z" fill="#FFAA5E"/>
<path d="M28.125 15H27.1875V15.9375H28.125V15Z" fill="#FFAA5E"/>
<path d="M29.0625 15H28.125V15.9375H29.0625V15Z" fill="#FFAA5E"/>
<path d="M30 15H29.0625V15.9375H30V15Z" fill="#FFAA5E"/>
<path d="M40.3125 15H39.375V15.9375H40.3125V15Z" fill="#FFAA5E"/>
<path d="M41.25 15H40.3125V15.9375H41.25V15Z" fill="#FFAA5E"/>
<path d="M42.1875 15H41.25V15.9375H42.1875V15Z" fill="#FFAA5E"/>
<path d="M43.125 15H42.1875V15.9375H43.125V15Z" fill="#FFAA5E"/>
<path d="M44.0625 15H43.125V15.9375H44.0625V15Z" fill="#FFAA5E"/>
<path d="M45 15H44.0625V15.9375H45V15Z" fill="#FFAA5E"/>
<path d="M45.9375 15H45V15.9375H45.9375V15Z" fill="#FFAA5E"/>
<path d="M46.875 15H45.9375V15.9375H46.875V15Z" fill="#FFAA5E"/>
<path d="M11.25 15.9375H10.3125V16.875H11.25V15.9375Z" fill="#FFAA5E"/>
<path d="M12.1875 15.9375H11.25V16.875H12.1875V15.9375Z" fill="#FFAA5E"/>
<path d="M13.125 15.9375H12.1875V16.875H13.125V15.9375Z" fill="#FFAA5E"/>
<path d="M14.0625 15.9375H13.125V16.875H14.0625V15.9375Z" fill="#FFAA5E"/>
<path d="M15 15.9375H14.0625V16.875H15V15.9375Z" fill="#FFAA5E"/>
<path d="M15.9375 15.9375H15V16.875H15.9375V15.9375Z" fill="#FFAA5E"/>
<path d="M16.875 15.9375H15.9375V16.875H16.875V15.9375Z" fill="#FFAA5E"/>
<path d="M24.375 15.9375H23.4375V16.875H24.375V15.9375Z" fill="#FFAA5E"/>
<path d="M25.3125 15.9375H24.375V16.875H25.3125V15.9375Z" fill="#FFAA5E"/>
<path d="M26.25 15.9375H25.3125V16.875H26.25V15.9375Z" fill="#FFAA5E"/>
<path d="M27.1875 15.9375H26.25V16.875H27.1875V15.9375Z" fill="#FFAA5E"/>
<path d="M28.125 15.9375H27.1875V16.875H28.125V15.9375Z" fill="#FFAA5E"/>
<path d="M29.0625 15.9375H28.125V16.875H29.0625V15.9375Z" fill="#FFAA5E"/>
<path d="M30 15.9375H29.0625V16.875H30V15.9375Z" fill="#FFAA5E"/>
<path d="M39.375 15.9375H38.4375V16.875H39.375V15.9375Z" fill="#FFAA5E"/>
<path d="M40.3125 15.9375H39.375V16.875H40.3125V15.9375Z" fill="#FFAA5E"/>
<path d="M41.25 15.9375H40.3125V16.875H41.25V15.9375Z" fill="#FFAA5E"/>
<path d="M42.1875 15.9375H41.25V16.875H42.1875V15.9375Z" fill="#FFAA5E"/>
<path d="M43.125 15.9375H42.1875V16.875H43.125V15.9375Z" fill="#FFAA5E"/>
<path d="M44.0625 15.9375H43.125V16.875H44.0625V15.9375Z" fill="#FFAA5E"/>
<path d="M45 15.9375H44.0625V16.875H45V15.9375Z" fill="#FFAA5E"/>
<path d="M45.9375 15.9375H45V16.875H45.9375V15.9375Z" fill="#FFAA5E"/>
<path d="M12.1875 16.875H11.25V17.8125H12.1875V16.875Z" fill="#FFAA5E"/>
<path d="M13.125 16.875H12.1875V17.8125H13.125V16.875Z" fill="#FFAA5E"/>
<path d="M14.0625 16.875H13.125V17.8125H14.0625V16.875Z" fill="#FFAA5E"/>
<path d="M15 16.875H14.0625V17.8125H15V16.875Z" fill="#FFAA5E"/>
<path d="M15.9375 16.875H15V17.8125H15.9375V16.875Z" fill="#FFAA5E"/>
<path d="M16.875 16.875H15.9375V17.8125H16.875V16.875Z" fill="#FFAA5E"/>
<path d="M17.8125 16.875H16.875V17.8125H17.8125V16.875Z" fill="#FFAA5E"/>
<path d="M25.3125 16.875H24.375V17.8125H25.3125V16.875Z" fill="#FFAA5E"/>
<path d="M26.25 16.875H25.3125V17.8125H26.25V16.875Z" fill="#FFAA5E"/>
<path d="M27.1875 16.875H26.25V17.8125H27.1875V16.875Z" fill="#FFAA5E"/>
<path d="M28.125 16.875H27.1875V17.8125H28.125V16.875Z" fill="#FFAA5E"/>
<path d="M29.0625 16.875H28.125V17.8125H29.0625V16.875Z" fill="#FFAA5E"/>
<path d="M30 16.875H29.0625V17.8125H30V16.875Z" fill="#FFAA5E"/>
<path d="M30.9375 16.875H30V17.8125H30.9375V16.875Z" fill="#FFAA5E"/>
<path d="M38.4375 16.875H37.5V17.8125H38.4375V16.875Z" fill="#FFAA5E"/>
<path d="M39.375 16.875H38.4375V17.8125H39.375V16.875Z" fill="#FFAA5E"/>
<path d="M40.3125 16.875H39.375V17.8125H40.3125V16.875Z" fill="#FFAA5E"/>
<path d="M41.25 16.875H40.3125V17.8125H41.25V16.875Z" fill="#FFAA5E"/>
<path d="M42.1875 16.875H41.25V17.8125H42.1875V16.875Z" fill="#FFAA5E"/>
<path d="M43.125 16.875H42.1875V17.8125H43.125V16.875Z" fill="#FFAA5E"/>
<path d="M44.0625 16.875H43.125V17.8125H44.0625V16.875Z" fill="#FFAA5E"/>
<path d="M45 16.875H44.0625V17.8125H45V16.875Z" fill="#FFAA5E"/>
<path d="M13.125 17.8125H12.1875V18.75H13.125V17.8125Z" fill="#FFAA5E"/>
<path d="M14.0625 17.8125H13.125V18.75H14.0625V17.8125Z" fill="#FFAA5E"/>
<path d="M15 17.8125H14.0625V18.75H15V17.8125Z" fill="#FFAA5E"/>
<path d="M15.9375 17.8125H15V18.75H15.9375V17.8125Z" fill="#FFAA5E"/>
<path d="M16.875 17.8125H15.9375V18.75H16.875V17.8125Z" fill="#FFAA5E"/>
<path d="M17.8125 17.8125H16.875V18.75H17.8125V17.8125Z" fill="#FFAA5E"/>
<path d="M18.75 17.8125H17.8125V18.75H18.75V17.8125Z" fill="#FFAA5E"/>
<path d="M25.3125 17.8125H24.375V18.75H25.3125V17.8125Z" fill="#FFAA5E"/>
<path d="M26.25 17.8125H25.3125V18.75H26.25V17.8125Z" fill="#FFAA5E"/>
<path d="M27.1875 17.8125H26.25V18.75H27.1875V17.8125Z" fill="#FFAA5E"/>
<path d="M28.125 17.8125H27.1875V18.75H28.125V17.8125Z" fill="#FFAA5E"/>
<path d="M29.0625 17.8125H28.125V18.75H29.0625V17.8125Z" fill="#FFAA5E"/>
<path d="M30 17.8125H29.0625V18.75H30V17.8125Z" fill="#FFAA5E"/>
<path d="M30.9375 17.8125H30V18.75H30.9375V17.8125Z" fill="#FFAA5E"/>
<path d="M31.875 17.8125H30.9375V18.75H31.875V17.8125Z" fill="#FFAA5E"/>
<path d="M37.5 17.8125H36.5625V18.75H37.5V17.8125Z" fill="#FFAA5E"/>
<path d="M38.4375 17.8125H37.5V18.75H38.4375V17.8125Z" fill="#FFAA5E"/>
<path d="M39.375 17.8125H38.4375V18.75H39.375V17.8125Z" fill="#FFAA5E"/>
<path d="M40.3125 17.8125H39.375V18.75H40.3125V17.8125Z" fill="#FFAA5E"/>
<path d="M41.25 17.8125H40.3125V18.75H41.25V17.8125Z" fill="#FFAA5E"/>
<path d="M42.1875 17.8125H41.25V18.75H42.1875V17.8125Z" fill="#FFAA5E"/>
<path d="M43.125 17.8125H42.1875V18.75H43.125V17.8125Z" fill="#FFAA5E"/>
<path d="M44.0625 17.8125H43.125V18.75H44.0625V17.8125Z" fill="#FFAA5E"/>
<path d="M13.125 18.75H12.1875V19.6875H13.125V18.75Z" fill="#FFAA5E"/>
<path d="M14.0625 18.75H13.125V19.6875H14.0625V18.75Z" fill="#FFAA5E"/>
<path d="M15 18.75H14.0625V19.6875H15V18.75Z" fill="#FFAA5E"/>
<path d="M15.9375 18.75H15V19.6875H15.9375V18.75Z" fill="#FFAA5E"/>
<path d="M16.875 18.75H15.9375V19.6875H16.875V18.75Z" fill="#FFAA5E"/>
<path d="M17.8125 18.75H16.875V19.6875H17.8125V18.75Z" fill="#FFAA5E"/>
<path d="M18.75 18.75H17.8125V19.6875H18.75V18.75Z" fill="#FFAA5E"/>
<path d="M26.25 18.75H25.3125V19.6875H26.25V18.75Z" fill="#FFAA5E"/>
<path d="M27.1875 18.75H26.25V19.6875H27.1875V18.75Z" fill="#FFAA5E"/>
<path d="M28.125 18.75H27.1875V19.6875H28.125V18.75Z" fill="#FFAA5E"/>
<path d="M29.0625 18.75H28.125V19.6875H29.0625V18.75Z" fill="#FFAA5E"/>
<path d="M30 18.75H29.0625V19.6875H30V18.75Z" fill="#FFAA5E"/>
<path d="M30.9375 18.75H30V19.6875H30.9375V18.75Z" fill="#FFAA5E"/>
<path d="M31.875 18.75H30.9375V19.6875H31.875V18.75Z" fill="#FFAA5E"/>
<path d="M36.5625 18.75H35.625V19.6875H36.5625V18.75Z" fill="#FFAA5E"/>
<path d="M37.5 18.75H36.5625V19.6875H37.5V18.75Z" fill="#FFAA5E"/>
<path d="M38.4375 18.75H37.5V19.6875H38.4375V18.75Z" fill="#FFAA5E"/>
<path d="M39.375 18.75H38.4375V19.6875H39.375V18.75Z" fill="#FFAA5E"/>
<path d="M40.3125 18.75H39.375V19.6875H40.3125V18.75Z" fill="#FFAA5E"/>
<path d="M41.25 18.75H40.3125V19.6875H41.25V18.75Z" fill="#FFAA5E"/>
<path d="M42.1875 18.75H41.25V19.6875H42.1875V18.75Z" fill="#FFAA5E"/>
<path d="M43.125 18.75H42.1875V19.6875H43.125V18.75Z" fill="#FFAA5E"/>
<path d="M14.0625 19.6875H13.125V20.625H14.0625V19.6875Z" fill="#FFAA5E"/>
<path d="M15 19.6875H14.0625V20.625H15V19.6875Z" fill="#FFAA5E"/>
<path d="M15.9375 19.6875H15V20.625H15.9375V19.6875Z" fill="#FFAA5E"/>
<path d="M16.875 19.6875H15.9375V20.625H16.875V19.6875Z" fill="#FFAA5E"/>
<path d="M17.8125 19.6875H16.875V20.625H17.8125V19.6875Z" fill="#FFAA5E"/>
<path d="M18.75 19.6875H17.8125V20.625H18.75V19.6875Z" fill="#FFAA5E"/>
<path d="M19.6875 19.6875H18.75V20.625H19.6875V19.6875Z" fill="#FFAA5E"/>
<path d="M27.1875 19.6875H26.25V20.625H27.1875V19.6875Z" fill="#FFAA5E"/>
<path d="M28.125 19.6875H27.1875V20.625H28.125V19.6875Z" fill="#FFAA5E"/>
<path d="M29.0625 19.6875H28.125V20.625H29.0625V19.6875Z" fill="#FFAA5E"/>
<path d="M30 19.6875H29.0625V20.625H30V19.6875Z" fill="#FFAA5E"/>
<path d="M30.9375 19.6875H30V20.625H30.9375V19.6875Z" fill="#FFAA5E"/>
<path d="M31.875 19.6875H30.9375V20.625H31.875V19.6875Z" fill="#FFAA5E"/>
<path d="M32.8125 19.6875H31.875V20.625H32.8125V19.6875Z" fill="#FFAA5E"/>
<path d="M36.5625 19.6875H35.625V20.625H36.5625V19.6875Z" fill="#FFAA5E"/>
<path d="M37.5 19.6875H36.5625V20.625H37.5V19.6875Z" fill="#FFAA5E"/>
<path d="M38.4375 19.6875H37.5V20.625H38.4375V19.6875Z" fill="#FFAA5E"/>
<path d="M39.375 19.6875H38.4375V20.625H39.375V19.6875Z" fill="#FFAA5E"/>
<path d="M40.3125 19.6875H39.375V20.625H40.3125V19.6875Z" fill="#FFAA5E"/>
<path d="M41.25 19.6875H40.3125V20.625H41.25V19.6875Z" fill="#FFAA5E"/>
<path d="M42.1875 19.6875H41.25V20.625H42.1875V19.6875Z" fill="#FFAA5E"/>
<path d="M15 20.625H14.0625V21.5625H15V20.625Z" fill="#FFAA5E"/>
<path d="M15.9375 20.625H15V21.5625H15.9375V20.625Z" fill="#FFAA5E"/>
<path d="M16.875 20.625H15.9375V21.5625H16.875V20.625Z" fill="#FFAA5E"/>
<path d="M17.8125 20.625H16.875V21.5625H17.8125V20.625Z" fill="#FFAA5E"/>
<path d="M18.75 20.625H17.8125V21.5625H18.75V20.625Z" fill="#FFAA5E"/>
<path d="M19.6875 20.625H18.75V21.5625H19.6875V20.625Z" fill="#FFAA5E"/>
<path d="M20.625 20.625H19.6875V21.5625H20.625V20.625Z" fill="#FFAA5E"/>
<path d="M27.1875 20.625H26.25V21.5625H27.1875V20.625Z" fill="#FFAA5E"/>
<path d="M28.125 20.625H27.1875V21.5625H28.125V20.625Z" fill="#FFAA5E"/>
<path d="M29.0625 20.625H28.125V21.5625H29.0625V20.625Z" fill="#FFAA5E"/>
<path d="M30 20.625H29.0625V21.5625H30V20.625Z" fill="#FFAA5E"/>
<path d="M30.9375 20.625H30V21.5625H30.9375V20.625Z" fill="#FFAA5E"/>
<path d="M31.875 20.625H30.9375V21.5625H31.875V20.625Z" fill="#FFAA5E"/>
<path d="M32.8125 20.625H31.875V21.5625H32.8125V20.625Z" fill="#FFAA5E"/>
<path d="M33.75 20.625H32.8125V21.5625H33.75V20.625Z" fill="#FFAA5E"/>
<path d="M35.625 20.625H34.6875V21.5625H35.625V20.625Z" fill="#FFAA5E"/>
<path d="M36.5625 20.625H35.625V21.5625H36.5625V20.625Z" fill="#FFAA5E"/>
<path d="M37.5 20.625H36.5625V21.5625H37.5V20.625Z" fill="#FFAA5E"/>
<path d="M38.4375 20.625H37.5V21.5625H38.4375V20.625Z" fill="#FFAA5E"/>
<path d="M39.375 20.625H38.4375V21.5625H39.375V20.625Z" fill="#FFAA5E"/>
<path d="M40.3125 20.625H39.375V21.5625H40.3125V20.625Z" fill="#FFAA5E"/>
<path d="M41.25 20.625H40.3125V21.5625H41.25V20.625Z" fill="#FFAA5E"/>
<path d="M15 21.5625H14.0625V22.5H15V21.5625Z" fill="#FFAA5E"/>
<path d="M15.9375 21.5625H15V22.5H15.9375V21.5625Z" fill="#FFAA5E"/>
<path d="M16.875 21.5625H15.9375V22.5H16.875V21.5625Z" fill="#FFAA5E"/>
<path d="M17.8125 21.5625H16.875V22.5H17.8125V21.5625Z" fill="#FFAA5E"/>
<path d="M18.75 21.5625H17.8125V22.5H18.75V21.5625Z" fill="#FFAA5E"/>
<path d="M19.6875 21.5625H18.75V22.5H19.6875V21.5625Z" fill="#FFAA5E"/>
<path d="M20.625 21.5625H19.6875V22.5H20.625V21.5625Z" fill="#FFAA5E"/>
<path d="M28.125 21.5625H27.1875V22.5H28.125V21.5625Z" fill="#FFAA5E"/>
<path d="M29.0625 21.5625H28.125V22.5H29.0625V21.5625Z" fill="#FFAA5E"/>
<path d="M30 21.5625H29.0625V22.5H30V21.5625Z" fill="#FFAA5E"/>
<path d="M30.9375 21.5625H30V22.5H30.9375V21.5625Z" fill="#FFAA5E"/>
<path d="M31.875 21.5625H30.9375V22.5H31.875V21.5625Z" fill="#FFAA5E"/>
<path d="M32.8125 21.5625H31.875V22.5H32.8125V21.5625Z" fill="#FFAA5E"/>
<path d="M33.75 21.5625H32.8125V22.5H33.75V21.5625Z" fill="#FFAA5E"/>
<path d="M34.6875 21.5625H33.75V22.5H34.6875V21.5625Z" fill="#FFAA5E"/>
<path d="M35.625 21.5625H34.6875V22.5H35.625V21.5625Z" fill="#FFAA5E"/>
<path d="M36.5625 21.5625H35.625V22.5H36.5625V21.5625Z" fill="#FFAA5E"/>
<path d="M37.5 21.5625H36.5625V22.5H37.5V21.5625Z" fill="#FFAA5E"/>
<path d="M38.4375 21.5625H37.5V22.5H38.4375V21.5625Z" fill="#FFAA5E"/>
<path d="M39.375 21.5625H38.4375V22.5H39.375V21.5625Z" fill="#FFAA5E"/>
<path d="M40.3125 21.5625H39.375V22.5H40.3125V21.5625Z" fill="#FFAA5E"/>
<path d="M41.25 21.5625H40.3125V22.5H41.25V21.5625Z" fill="#FFAA5E"/>
<path d="M15.9375 22.5H15V23.4375H15.9375V22.5Z" fill="#FFAA5E"/>
<path d="M16.875 22.5H15.9375V23.4375H16.875V22.5Z" fill="#FFAA5E"/>
<path d="M17.8125 22.5H16.875V23.4375H17.8125V22.5Z" fill="#FFAA5E"/>
<path d="M18.75 22.5H17.8125V23.4375H18.75V22.5Z" fill="#FFAA5E"/>
<path d="M19.6875 22.5H18.75V23.4375H19.6875V22.5Z" fill="#FFAA5E"/>
<path d="M20.625 22.5H19.6875V23.4375H20.625V22.5Z" fill="#FFAA5E"/>
<path d="M21.5625 22.5H20.625V23.4375H21.5625V22.5Z" fill="#FFAA5E"/>
<path d="M29.0625 22.5H28.125V23.4375H29.0625V22.5Z" fill="#FFAA5E"/>
<path d="M30 22.5H29.0625V23.4375H30V22.5Z" fill="#FFAA5E"/>
<path d="M30.9375 22.5H30V23.4375H30.9375V22.5Z" fill="#FFAA5E"/>
<path d="M31.875 22.5H30.9375V23.4375H31.875V22.5Z" fill="#FFAA5E"/>
<path d="M32.8125 22.5H31.875V23.4375H32.8125V22.5Z" fill="#FFAA5E"/>
<path d="M33.75 22.5H32.8125V23.4375H33.75V22.5Z" fill="#FFAA5E"/>
<path d="M34.6875 22.5H33.75V23.4375H34.6875V22.5Z" fill="#FFAA5E"/>
<path d="M35.625 22.5H34.6875V23.4375H35.625V22.5Z" fill="#FFAA5E"/>
<path d="M36.5625 22.5H35.625V23.4375H36.5625V22.5Z" fill="#FFAA5E"/>
<path d="M37.5 22.5H36.5625V23.4375H37.5V22.5Z" fill="#FFAA5E"/>
<path d="M38.4375 22.5H37.5V23.4375H38.4375V22.5Z" fill="#FFAA5E"/>
<path d="M39.375 22.5H38.4375V23.4375H39.375V22.5Z" fill="#FFAA5E"/>
<path d="M40.3125 22.5H39.375V23.4375H40.3125V22.5Z" fill="#FFAA5E"/>
<path d="M16.875 23.4375H15.9375V24.375H16.875V23.4375Z" fill="#FFAA5E"/>
<path d="M17.8125 23.4375H16.875V24.375H17.8125V23.4375Z" fill="#FFAA5E"/>
<path d="M18.75 23.4375H17.8125V24.375H18.75V23.4375Z" fill="#FFAA5E"/>
<path d="M19.6875 23.4375H18.75V24.375H19.6875V23.4375Z" fill="#FFAA5E"/>
<path d="M20.625 23.4375H19.6875V24.375H20.625V23.4375Z" fill="#FFAA5E"/>
<path d="M21.5625 23.4375H20.625V24.375H21.5625V23.4375Z" fill="#FFAA5E"/>
<path d="M22.5 23.4375H21.5625V24.375H22.5V23.4375Z" fill="#FFAA5E"/>
<path d="M29.0625 23.4375H28.125V24.375H29.0625V23.4375Z" fill="#FFAA5E"/>
<path d="M30 23.4375H29.0625V24.375H30V23.4375Z" fill="#FFAA5E"/>
<path d="M30.9375 23.4375H30V24.375H30.9375V23.4375Z" fill="#FFAA5E"/>
<path d="M31.875 23.4375H30.9375V24.375H31.875V23.4375Z" fill="#FFAA5E"/>
<path d="M32.8125 23.4375H31.875V24.375H32.8125V23.4375Z" fill="#FFAA5E"/>
<path d="M33.75 23.4375H32.8125V24.375H33.75V23.4375Z" fill="#FFAA5E"/>
<path d="M34.6875 23.4375H33.75V24.375H34.6875V23.4375Z" fill="#FFAA5E"/>
<path d="M35.625 23.4375H34.6875V24.375H35.625V23.4375Z" fill="#FFAA5E"/>
<path d="M36.5625 23.4375H35.625V24.375H36.5625V23.4375Z" fill="#FFAA5E"/>
<path d="M37.5 23.4375H36.5625V24.375H37.5V23.4375Z" fill="#FFAA5E"/>
<path d="M38.4375 23.4375H37.5V24.375H38.4375V23.4375Z" fill="#FFAA5E"/>
<path d="M39.375 23.4375H38.4375V24.375H39.375V23.4375Z" fill="#FFAA5E"/>
<path d="M16.875 24.375H15.9375V25.3125H16.875V24.375Z" fill="#FFAA5E"/>
<path d="M17.8125 24.375H16.875V25.3125H17.8125V24.375Z" fill="#FFAA5E"/>
<path d="M18.75 24.375H17.8125V25.3125H18.75V24.375Z" fill="#FFAA5E"/>
<path d="M19.6875 24.375H18.75V25.3125H19.6875V24.375Z" fill="#FFAA5E"/>
<path d="M20.625 24.375H19.6875V25.3125H20.625V24.375Z" fill="#FFAA5E"/>
<path d="M21.5625 24.375H20.625V25.3125H21.5625V24.375Z" fill="#FFAA5E"/>
<path d="M22.5 24.375H21.5625V25.3125H22.5V24.375Z" fill="#FFAA5E"/>
<path d="M23.4375 24.375H22.5V25.3125H23.4375V24.375Z" fill="#FFAA5E"/>
<path d="M30 24.375H29.0625V25.3125H30V24.375Z" fill="#FFAA5E"/>
<path d="M30.9375 24.375H30V25.3125H30.9375V24.375Z" fill="#FFAA5E"/>
<path d="M31.875 24.375H30.9375V25.3125H31.875V24.375Z" fill="#FFAA5E"/>
<path d="M32.8125 24.375H31.875V25.3125H32.8125V24.375Z" fill="#FFAA5E"/>
<path d="M33.75 24.375H32.8125V25.3125H33.75V24.375Z" fill="#FFAA5E"/>
<path d="M34.6875 24.375H33.75V25.3125H34.6875V24.375Z" fill="#FFAA5E"/>
<path d="M35.625 24.375H34.6875V25.3125H35.625V24.375Z" fill="#FFAA5E"/>
<path d="M36.5625 24.375H35.625V25.3125H36.5625V24.375Z" fill="#FFAA5E"/>
<path d="M37.5 24.375H36.5625V25.3125H37.5V24.375Z" fill="#FFAA5E"/>
<path d="M38.4375 24.375H37.5V25.3125H38.4375V24.375Z" fill="#FFAA5E"/>
<path d="M17.8125 25.3125H16.875V26.25H17.8125V25.3125Z" fill="#FFAA5E"/>
<path d="M18.75 25.3125H17.8125V26.25H18.75V25.3125Z" fill="#FFAA5E"/>
<path d="M19.6875 25.3125H18.75V26.25H19.6875V25.3125Z" fill="#FFAA5E"/>
<path d="M20.625 25.3125H19.6875V26.25H20.625V25.3125Z" fill="#FFAA5E"/>
<path d="M21.5625 25.3125H20.625V26.25H21.5625V25.3125Z" fill="#FFAA5E"/>
<path d="M22.5 25.3125H21.5625V26.25H22.5V25.3125Z" fill="#FFAA5E"/>
<path d="M23.4375 25.3125H22.5V26.25H23.4375V25.3125Z" fill="#FFAA5E"/>
<path d="M30.9375 25.3125H30V26.25H30.9375V25.3125Z" fill="#FFAA5E"/>
<path d="M31.875 25.3125H30.9375V26.25H31.875V25.3125Z" fill="#FFAA5E"/>
<path d="M32.8125 25.3125H31.875V26.25H32.8125V25.3125Z" fill="#FFAA5E"/>
<path d="M33.75 25.3125H32.8125V26.25H33.75V25.3125Z" fill="#FFAA5E"/>
<path d="M34.6875 25.3125H33.75V26.25H34.6875V25.3125Z" fill="#FFAA5E"/>
<path d="M35.625 25.3125H34.6875V26.25H35.625V25.3125Z" fill="#FFAA5E"/>
<path d="M36.5625 25.3125H35.625V26.25H36.5625V25.3125Z" fill="#FFAA5E"/>
<path d="M37.5 25.3125H36.5625V26.25H37.5V25.3125Z" fill="#FFAA5E"/>
<path d="M18.75 26.25H17.8125V27.1875H18.75V26.25Z" fill="#FFAA5E"/>
<path d="M19.6875 26.25H18.75V27.1875H19.6875V26.25Z" fill="#FFAA5E"/>
<path d="M20.625 26.25H19.6875V27.1875H20.625V26.25Z" fill="#FFAA5E"/>
<path d="M21.5625 26.25H20.625V27.1875H21.5625V26.25Z" fill="#FFAA5E"/>
<path d="M22.5 26.25H21.5625V27.1875H22.5V26.25Z" fill="#FFAA5E"/>
<path d="M23.4375 26.25H22.5V27.1875H23.4375V26.25Z" fill="#FFAA5E"/>
<path d="M24.375 26.25H23.4375V27.1875H24.375V26.25Z" fill="#FFAA5E"/>
<path d="M31.875 26.25H30.9375V27.1875H31.875V26.25Z" fill="#FFAA5E"/>
<path d="M32.8125 26.25H31.875V27.1875H32.8125V26.25Z" fill="#FFAA5E"/>
<path d="M33.75 26.25H32.8125V27.1875H33.75V26.25Z" fill="#FFAA5E"/>
<path d="M34.6875 26.25H33.75V27.1875H34.6875V26.25Z" fill="#FFAA5E"/>
<path d="M35.625 26.25H34.6875V27.1875H35.625V26.25Z" fill="#FFAA5E"/>
<path d="M36.5625 26.25H35.625V27.1875H36.5625V26.25Z" fill="#FFAA5E"/>
<path d="M37.5 26.25H36.5625V27.1875H37.5V26.25Z" fill="#FFAA5E"/>
<path d="M19.6875 27.1875H18.75V28.125H19.6875V27.1875Z" fill="#FFAA5E"/>
<path d="M20.625 27.1875H19.6875V28.125H20.625V27.1875Z" fill="#FFAA5E"/>
<path d="M21.5625 27.1875H20.625V28.125H21.5625V27.1875Z" fill="#FFAA5E"/>
<path d="M22.5 27.1875H21.5625V28.125H22.5V27.1875Z" fill="#FFAA5E"/>
<path d="M23.4375 27.1875H22.5V28.125H23.4375V27.1875Z" fill="#FFAA5E"/>
<path d="M24.375 27.1875H23.4375V28.125H24.375V27.1875Z" fill="#FFAA5E"/>
<path d="M25.3125 27.1875H24.375V28.125H25.3125V27.1875Z" fill="#FFAA5E"/>
<path d="M31.875 27.1875H30.9375V28.125H31.875V27.1875Z" fill="#FFAA5E"/>
<path d="M32.8125 27.1875H31.875V28.125H32.8125V27.1875Z" fill="#FFAA5E"/>
<path d="M33.75 27.1875H32.8125V28.125H33.75V27.1875Z" fill="#FFAA5E"/>
<path d="M34.6875 27.1875H33.75V28.125H34.6875V27.1875Z" fill="#FFAA5E"/>
<path d="M35.625 27.1875H34.6875V28.125H35.625V27.1875Z" fill="#FFAA5E"/>
<path d="M36.5625 27.1875H35.625V28.125H36.5625V27.1875Z" fill="#FFAA5E"/>
<path d="M37.5 27.1875H36.5625V28.125H37.5V27.1875Z" fill="#FFAA5E"/>
<path d="M38.4375 27.1875H37.5V28.125H38.4375V27.1875Z" fill="#FFAA5E"/>
<path d="M19.6875 28.125H18.75V29.0625H19.6875V28.125Z" fill="#FFAA5E"/>
<path d="M20.625 28.125H19.6875V29.0625H20.625V28.125Z" fill="#FFAA5E"/>
<path d="M21.5625 28.125H20.625V29.0625H21.5625V28.125Z" fill="#FFAA5E"/>
<path d="M22.5 28.125H21.5625V29.0625H22.5V28.125Z" fill="#FFAA5E"/>
<path d="M23.4375 28.125H22.5V29.0625H23.4375V28.125Z" fill="#FFAA5E"/>
<path d="M24.375 28.125H23.4375V29.0625H24.375V28.125Z" fill="#FFAA5E"/>
<path d="M25.3125 28.125H24.375V29.0625H25.3125V28.125Z" fill="#FFAA5E"/>
<path d="M32.8125 28.125H31.875V29.0625H32.8125V28.125Z" fill="#FFAA5E"/>
<path d="M33.75 28.125H32.8125V29.0625H33.75V28.125Z" fill="#FFAA5E"/>
<path d="M34.6875 28.125H33.75V29.0625H34.6875V28.125Z" fill="#FFAA5E"/>
<path d="M35.625 28.125H34.6875V29.0625H35.625V28.125Z" fill="#FFAA5E"/>
<path d="M36.5625 28.125H35.625V29.0625H36.5625V28.125Z" fill="#FFAA5E"/>
<path d="M37.5 28.125H36.5625V29.0625H37.5V28.125Z" fill="#FFAA5E"/>
<path d="M38.4375 28.125H37.5V29.0625H38.4375V28.125Z" fill="#FFAA5E"/>
<path d="M20.625 29.0625H19.6875V30H20.625V29.0625Z" fill="#FFAA5E"/>
<path d="M21.5625 29.0625H20.625V30H21.5625V29.0625Z" fill="#FFAA5E"/>
<path d="M22.5 29.0625H21.5625V30H22.5V29.0625Z" fill="#FFAA5E"/>
<path d="M23.4375 29.0625H22.5V30H23.4375V29.0625Z" fill="#FFAA5E"/>
<path d="M24.375 29.0625H23.4375V30H24.375V29.0625Z" fill="#FFAA5E"/>
<path d="M25.3125 29.0625H24.375V30H25.3125V29.0625Z" fill="#FFAA5E"/>
<path d="M26.25 29.0625H25.3125V30H26.25V29.0625Z" fill="#FFAA5E"/>
<path d="M33.75 29.0625H32.8125V30H33.75V29.0625Z" fill="#FFAA5E"/>
<path d="M34.6875 29.0625H33.75V30H34.6875V29.0625Z" fill="#FFAA5E"/>
<path d="M35.625 29.0625H34.6875V30H35.625V29.0625Z" fill="#FFAA5E"/>
<path d="M36.5625 29.0625H35.625V30H36.5625V29.0625Z" fill="#FFAA5E"/>
<path d="M37.5 29.0625H36.5625V30H37.5V29.0625Z" fill="#FFAA5E"/>
<path d="M38.4375 29.0625H37.5V30H38.4375V29.0625Z" fill="#FFAA5E"/>
<path d="M39.375 29.0625H38.4375V30H39.375V29.0625Z" fill="#FFAA5E"/>
<path d="M21.5625 30H20.625V30.9375H21.5625V30Z" fill="#FFAA5E"/>
<path d="M22.5 30H21.5625V30.9375H22.5V30Z" fill="#FFAA5E"/>
<path d="M23.4375 30H22.5V30.9375H23.4375V30Z" fill="#FFAA5E"/>
<path d="M24.375 30H23.4375V30.9375H24.375V30Z" fill="#FFAA5E"/>
<path d="M25.3125 30H24.375V30.9375H25.3125V30Z" fill="#FFAA5E"/>
<path d="M26.25 30H25.3125V30.9375H26.25V30Z" fill="#FFAA5E"/>
<path d="M27.1875 30H26.25V30.9375H27.1875V30Z" fill="#FFAA5E"/>
<path d="M33.75 30H32.8125V30.9375H33.75V30Z" fill="#FFAA5E"/>
<path d="M34.6875 30H33.75V30.9375H34.6875V30Z" fill="#FFAA5E"/>
<path d="M35.625 30H34.6875V30.9375H35.625V30Z" fill="#FFAA5E"/>
<path d="M36.5625 30H35.625V30.9375H36.5625V30Z" fill="#FFAA5E"/>
<path d="M37.5 30H36.5625V30.9375H37.5V30Z" fill="#FFAA5E"/>
<path d="M38.4375 30H37.5V30.9375H38.4375V30Z" fill="#FFAA5E"/>
<path d="M39.375 30H38.4375V30.9375H39.375V30Z" fill="#FFAA5E"/>
<path d="M40.3125 30H39.375V30.9375H40.3125V30Z" fill="#FFAA5E"/>
<path d="M21.5625 30.9375H20.625V31.875H21.5625V30.9375Z" fill="#FFAA5E"/>
<path d="M22.5 30.9375H21.5625V31.875H22.5V30.9375Z" fill="#FFAA5E"/>
<path d="M23.4375 30.9375H22.5V31.875H23.4375V30.9375Z" fill="#FFAA5E"/>
<path d="M24.375 30.9375H23.4375V31.875H24.375V30.9375Z" fill="#FFAA5E"/>
<path d="M25.3125 30.9375H24.375V31.875H25.3125V30.9375Z" fill="#FFAA5E"/>
<path d="M26.25 30.9375H25.3125V31.875H26.25V30.9375Z" fill="#FFAA5E"/>
<path d="M27.1875 30.9375H26.25V31.875H27.1875V30.9375Z" fill="#FFAA5E"/>
<path d="M34.6875 30.9375H33.75V31.875H34.6875V30.9375Z" fill="#FFAA5E"/>
<path d="M35.625 30.9375H34.6875V31.875H35.625V30.9375Z" fill="#FFAA5E"/>
<path d="M36.5625 30.9375H35.625V31.875H36.5625V30.9375Z" fill="#FFAA5E"/>
<path d="M37.5 30.9375H36.5625V31.875H37.5V30.9375Z" fill="#FFAA5E"/>
<path d="M38.4375 30.9375H37.5V31.875H38.4375V30.9375Z" fill="#FFAA5E"/>
<path d="M39.375 30.9375H38.4375V31.875H39.375V30.9375Z" fill="#FFAA5E"/>
<path d="M40.3125 30.9375H39.375V31.875H40.3125V30.9375Z" fill="#FFAA5E"/>
<path d="M22.5 31.875H21.5625V32.8125H22.5V31.875Z" fill="#FFAA5E"/>
<path d="M23.4375 31.875H22.5V32.8125H23.4375V31.875Z" fill="#FFAA5E"/>
<path d="M24.375 31.875H23.4375V32.8125H24.375V31.875Z" fill="#FFAA5E"/>
<path d="M25.3125 31.875H24.375V32.8125H25.3125V31.875Z" fill="#FFAA5E"/>
<path d="M26.25 31.875H25.3125V32.8125H26.25V31.875Z" fill="#FFAA5E"/>
<path d="M27.1875 31.875H26.25V32.8125H27.1875V31.875Z" fill="#FFAA5E"/>
<path d="M28.125 31.875H27.1875V32.8125H28.125V31.875Z" fill="#FFAA5E"/>
<path d="M35.625 31.875H34.6875V32.8125H35.625V31.875Z" fill="#FFAA5E"/>
<path d="M36.5625 31.875H35.625V32.8125H36.5625V31.875Z" fill="#FFAA5E"/>
<path d="M37.5 31.875H36.5625V32.8125H37.5V31.875Z" fill="#FFAA5E"/>
<path d="M38.4375 31.875H37.5V32.8125H38.4375V31.875Z" fill="#FFAA5E"/>
<path d="M39.375 31.875H38.4375V32.8125H39.375V31.875Z" fill="#FFAA5E"/>
<path d="M40.3125 31.875H39.375V32.8125H40.3125V31.875Z" fill="#FFAA5E"/>
<path d="M41.25 31.875H40.3125V32.8125H41.25V31.875Z" fill="#FFAA5E"/>
<path d="M23.4375 32.8125H22.5V33.75H23.4375V32.8125Z" fill="#FFAA5E"/>
<path d="M24.375 32.8125H23.4375V33.75H24.375V32.8125Z" fill="#FFAA5E"/>
<path d="M25.3125 32.8125H24.375V33.75H25.3125V32.8125Z" fill="#FFAA5E"/>
<path d="M26.25 32.8125H25.3125V33.75H26.25V32.8125Z" fill="#FFAA5E"/>
<path d="M27.1875 32.8125H26.25V33.75H27.1875V32.8125Z" fill="#FFAA5E"/>
<path d="M28.125 32.8125H27.1875V33.75H28.125V32.8125Z" fill="#FFAA5E"/>
<path d="M29.0625 32.8125H28.125V33.75H29.0625V32.8125Z" fill="#FFAA5E"/>
<path d="M35.625 32.8125H34.6875V33.75H35.625V32.8125Z" fill="#FFAA5E"/>
<path d="M36.5625 32.8125H35.625V33.75H36.5625V32.8125Z" fill="#FFAA5E"/>
<path d="M37.5 32.8125H36.5625V33.75H37.5V32.8125Z" fill="#FFAA5E"/>
<path d="M38.4375 32.8125H37.5V33.75H38.4375V32.8125Z" fill="#FFAA5E"/>
<path d="M39.375 32.8125H38.4375V33.75H39.375V32.8125Z" fill="#FFAA5E"/>
<path d="M40.3125 32.8125H39.375V33.75H40.3125V32.8125Z" fill="#FFAA5E"/>
<path d="M41.25 32.8125H40.3125V33.75H41.25V32.8125Z" fill="#FFAA5E"/>
<path d="M42.1875 32.8125H41.25V33.75H42.1875V32.8125Z" fill="#FFAA5E"/>
<path d="M23.4375 33.75H22.5V34.6875H23.4375V33.75Z" fill="#FFAA5E"/>
<path d="M24.375 33.75H23.4375V34.6875H24.375V33.75Z" fill="#FFAA5E"/>
<path d="M25.3125 33.75H24.375V34.6875H25.3125V33.75Z" fill="#FFAA5E"/>
<path d="M26.25 33.75H25.3125V34.6875H26.25V33.75Z" fill="#FFAA5E"/>
<path d="M27.1875 33.75H26.25V34.6875H27.1875V33.75Z" fill="#FFAA5E"/>
<path d="M28.125 33.75H27.1875V34.6875H28.125V33.75Z" fill="#FFAA5E"/>
<path d="M29.0625 33.75H28.125V34.6875H29.0625V33.75Z" fill="#FFAA5E"/>
<path d="M30 33.75H29.0625V34.6875H30V33.75Z" fill="#FFAA5E"/>
<path d="M36.5625 33.75H35.625V34.6875H36.5625V33.75Z" fill="#FFAA5E"/>
<path d="M37.5 33.75H36.5625V34.6875H37.5V33.75Z" fill="#FFAA5E"/>
<path d="M38.4375 33.75H37.5V34.6875H38.4375V33.75Z" fill="#FFAA5E"/>
<path d="M39.375 33.75H38.4375V34.6875H39.375V33.75Z" fill="#FFAA5E"/>
<path d="M40.3125 33.75H39.375V34.6875H40.3125V33.75Z" fill="#FFAA5E"/>
<path d="M41.25 33.75H40.3125V34.6875H41.25V33.75Z" fill="#FFAA5E"/>
<path d="M42.1875 33.75H41.25V34.6875H42.1875V33.75Z" fill="#FFAA5E"/>
<path d="M23.4375 34.6875H22.5V35.625H23.4375V34.6875Z" fill="#FFAA5E"/>
<path d="M24.375 34.6875H23.4375V35.625H24.375V34.6875Z" fill="#FFAA5E"/>
<path d="M25.3125 34.6875H24.375V35.625H25.3125V34.6875Z" fill="#FFAA5E"/>
<path d="M26.25 34.6875H25.3125V35.625H26.25V34.6875Z" fill="#FFAA5E"/>
<path d="M27.1875 34.6875H26.25V35.625H27.1875V34.6875Z" fill="#FFAA5E"/>
<path d="M28.125 34.6875H27.1875V35.625H28.125V34.6875Z" fill="#FFAA5E"/>
<path d="M29.0625 34.6875H28.125V35.625H29.0625V34.6875Z" fill="#FFAA5E"/>
<path d="M30 34.6875H29.0625V35.625H30V34.6875Z" fill="#FFAA5E"/>
<path d="M37.5 34.6875H36.5625V35.625H37.5V34.6875Z" fill="#FFAA5E"/>
<path d="M38.4375 34.6875H37.5V35.625H38.4375V34.6875Z" fill="#FFAA5E"/>
<path d="M39.375 34.6875H38.4375V35.625H39.375V34.6875Z" fill="#FFAA5E"/>
<path d="M40.3125 34.6875H39.375V35.625H40.3125V34.6875Z" fill="#FFAA5E"/>
<path d="M41.25 34.6875H40.3125V35.625H41.25V34.6875Z" fill="#FFAA5E"/>
<path d="M42.1875 34.6875H41.25V35.625H42.1875V34.6875Z" fill="#FFAA5E"/>
<path d="M43.125 34.6875H42.1875V35.625H43.125V34.6875Z" fill="#FFAA5E"/>
<path d="M22.5 35.625H21.5625V36.5625H22.5V35.625Z" fill="#FFAA5E"/>
<path d="M23.4375 35.625H22.5V36.5625H23.4375V35.625Z" fill="#FFAA5E"/>
<path d="M24.375 35.625H23.4375V36.5625H24.375V35.625Z" fill="#FFAA5E"/>
<path d="M25.3125 35.625H24.375V36.5625H25.3125V35.625Z" fill="#FFAA5E"/>
<path d="M26.25 35.625H25.3125V36.5625H26.25V35.625Z" fill="#FFAA5E"/>
<path d="M27.1875 35.625H26.25V36.5625H27.1875V35.625Z" fill="#FFAA5E"/>
<path d="M28.125 35.625H27.1875V36.5625H28.125V35.625Z" fill="#FFAA5E"/>
<path d="M29.0625 35.625H28.125V36.5625H29.0625V35.625Z" fill="#FFAA5E"/>
<path d="M30 35.625H29.0625V36.5625H30V35.625Z" fill="#FFAA5E"/>
<path d="M30.9375 35.625H30V36.5625H30.9375V35.625Z" fill="#FFAA5E"/>
<path d="M38.4375 35.625H37.5V36.5625H38.4375V35.625Z" fill="#FFAA5E"/>
<path d="M39.375 35.625H38.4375V36.5625H39.375V35.625Z" fill="#FFAA5E"/>
<path d="M40.3125 35.625H39.375V36.5625H40.3125V35.625Z" fill="#FFAA5E"/>
<path d="M41.25 35.625H40.3125V36.5625H41.25V35.625Z" fill="#FFAA5E"/>
<path d="M42.1875 35.625H41.25V36.5625H42.1875V35.625Z" fill="#FFAA5E"/>
<path d="M43.125 35.625H42.1875V36.5625H43.125V35.625Z" fill="#FFAA5E"/>
<path d="M44.0625 35.625H43.125V36.5625H44.0625V35.625Z" fill="#FFAA5E"/>
<path d="M21.5625 36.5625H20.625V37.5H21.5625V36.5625Z" fill="#FFAA5E"/>
<path d="M22.5 36.5625H21.5625V37.5H22.5V36.5625Z" fill="#FFAA5E"/>
<path d="M23.4375 36.5625H22.5V37.5H23.4375V36.5625Z" fill="#FFAA5E"/>
<path d="M24.375 36.5625H23.4375V37.5H24.375V36.5625Z" fill="#FFAA5E"/>
<path d="M25.3125 36.5625H24.375V37.5H25.3125V36.5625Z" fill="#FFAA5E"/>
<path d="M26.25 36.5625H25.3125V37.5H26.25V36.5625Z" fill="#FFAA5E"/>
<path d="M27.1875 36.5625H26.25V37.5H27.1875V36.5625Z" fill="#FFAA5E"/>
<path d="M28.125 36.5625H27.1875V37.5H28.125V36.5625Z" fill="#FFAA5E"/>
<path d="M29.0625 36.5625H28.125V37.5H29.0625V36.5625Z" fill="#FFAA5E"/>
<path d="M30 36.5625H29.0625V37.5H30V36.5625Z" fill="#FFAA5E"/>
<path d="M30.9375 36.5625H30V37.5H30.9375V36.5625Z" fill="#FFAA5E"/>
<path d="M31.875 36.5625H30.9375V37.5H31.875V36.5625Z" fill="#FFAA5E"/>
<path d="M38.4375 36.5625H37.5V37.5H38.4375V36.5625Z" fill="#FFAA5E"/>
<path d="M39.375 36.5625H38.4375V37.5H39.375V36.5625Z" fill="#FFAA5E"/>
<path d="M40.3125 36.5625H39.375V37.5H40.3125V36.5625Z" fill="#FFAA5E"/>
<path d="M41.25 36.5625H40.3125V37.5H41.25V36.5625Z" fill="#FFAA5E"/>
<path d="M42.1875 36.5625H41.25V37.5H42.1875V36.5625Z" fill="#FFAA5E"/>
<path d="M43.125 36.5625H42.1875V37.5H43.125V36.5625Z" fill="#FFAA5E"/>
<path d="M44.0625 36.5625H43.125V37.5H44.0625V36.5625Z" fill="#FFAA5E"/>
<path d="M45 36.5625H44.0625V37.5H45V36.5625Z" fill="#FFAA5E"/>
<path d="M20.625 37.5H19.6875V38.4375H20.625V37.5Z" fill="#FFAA5E"/>
<path d="M21.5625 37.5H20.625V38.4375H21.5625V37.5Z" fill="#FFAA5E"/>
<path d="M22.5 37.5H21.5625V38.4375H22.5V37.5Z" fill="#FFAA5E"/>
<path d="M23.4375 37.5H22.5V38.4375H23.4375V37.5Z" fill="#FFAA5E"/>
<path d="M24.375 37.5H23.4375V38.4375H24.375V37.5Z" fill="#FFAA5E"/>
<path d="M25.3125 37.5H24.375V38.4375H25.3125V37.5Z" fill="#FFAA5E"/>
<path d="M26.25 37.5H25.3125V38.4375H26.25V37.5Z" fill="#FFAA5E"/>
<path d="M27.1875 37.5H26.25V38.4375H27.1875V37.5Z" fill="#FFAA5E"/>
<path d="M28.125 37.5H27.1875V38.4375H28.125V37.5Z" fill="#FFAA5E"/>
<path d="M29.0625 37.5H28.125V38.4375H29.0625V37.5Z" fill="#FFAA5E"/>
<path d="M30 37.5H29.0625V38.4375H30V37.5Z" fill="#FFAA5E"/>
<path d="M30.9375 37.5H30V38.4375H30.9375V37.5Z" fill="#FFAA5E"/>
<path d="M31.875 37.5H30.9375V38.4375H31.875V37.5Z" fill="#FFAA5E"/>
<path d="M39.375 37.5H38.4375V38.4375H39.375V37.5Z" fill="#FFAA5E"/>
<path d="M40.3125 37.5H39.375V38.4375H40.3125V37.5Z" fill="#FFAA5E"/>
<path d="M41.25 37.5H40.3125V38.4375H41.25V37.5Z" fill="#FFAA5E"/>
<path d="M42.1875 37.5H41.25V38.4375H42.1875V37.5Z" fill="#FFAA5E"/>
<path d="M43.125 37.5H42.1875V38.4375H43.125V37.5Z" fill="#FFAA5E"/>
<path d="M44.0625 37.5H43.125V38.4375H44.0625V37.5Z" fill="#FFAA5E"/>
<path d="M45 37.5H44.0625V38.4375H45V37.5Z" fill="#FFAA5E"/>
<path d="M19.6875 38.4375H18.75V39.375H19.6875V38.4375Z" fill="#FFAA5E"/>
<path d="M20.625 38.4375H19.6875V39.375H20.625V38.4375Z" fill="#FFAA5E"/>
<path d="M21.5625 38.4375H20.625V39.375H21.5625V38.4375Z" fill="#FFAA5E"/>
<path d="M22.5 38.4375H21.5625V39.375H22.5V38.4375Z" fill="#FFAA5E"/>
<path d="M23.4375 38.4375H22.5V39.375H23.4375V38.4375Z" fill="#FFAA5E"/>
<path d="M24.375 38.4375H23.4375V39.375H24.375V38.4375Z" fill="#FFAA5E"/>
<path d="M25.3125 38.4375H24.375V39.375H25.3125V38.4375Z" fill="#FFAA5E"/>
<path d="M26.25 38.4375H25.3125V39.375H26.25V38.4375Z" fill="#FFAA5E"/>
<path d="M27.1875 38.4375H26.25V39.375H27.1875V38.4375Z" fill="#FFAA5E"/>
<path d="M28.125 38.4375H27.1875V39.375H28.125V38.4375Z" fill="#FFAA5E"/>
<path d="M29.0625 38.4375H28.125V39.375H29.0625V38.4375Z" fill="#FFAA5E"/>
<path d="M30 38.4375H29.0625V39.375H30V38.4375Z" fill="#FFAA5E"/>
<path d="M30.9375 38.4375H30V39.375H30.9375V38.4375Z" fill="#FFAA5E"/>
<path d="M31.875 38.4375H30.9375V39.375H31.875V38.4375Z" fill="#FFAA5E"/>
<path d="M32.8125 38.4375H31.875V39.375H32.8125V38.4375Z" fill="#FFAA5E"/>
<path d="M40.3125 38.4375H39.375V39.375H40.3125V38.4375Z" fill="#FFAA5E"/>
<path d="M41.25 38.4375H40.3125V39.375H41.25V38.4375Z" fill="#FFAA5E"/>
<path d="M42.1875 38.4375H41.25V39.375H42.1875V38.4375Z" fill="#FFAA5E"/>
<path d="M43.125 38.4375H42.1875V39.375H43.125V38.4375Z" fill="#FFAA5E"/>
<path d="M44.0625 38.4375H43.125V39.375H44.0625V38.4375Z" fill="#FFAA5E"/>
<path d="M45 38.4375H44.0625V39.375H45V38.4375Z" fill="#FFAA5E"/>
<path d="M45.9375 38.4375H45V39.375H45.9375V38.4375Z" fill="#FFAA5E"/>
<path d="M18.75 39.375H17.8125V40.3125H18.75V39.375Z" fill="#FFAA5E"/>
<path d="M19.6875 39.375H18.75V40.3125H19.6875V39.375Z" fill="#FFAA5E"/>
<path d="M20.625 39.375H19.6875V40.3125H20.625V39.375Z" fill="#FFAA5E"/>
<path d="M21.5625 39.375H20.625V40.3125H21.5625V39.375Z" fill="#FFAA5E"/>
<path d="M22.5 39.375H21.5625V40.3125H22.5V39.375Z" fill="#FFAA5E"/>
<path d="M23.4375 39.375H22.5V40.3125H23.4375V39.375Z" fill="#FFAA5E"/>
<path d="M24.375 39.375H23.4375V40.3125H24.375V39.375Z" fill="#FFAA5E"/>
<path d="M25.3125 39.375H24.375V40.3125H25.3125V39.375Z" fill="#FFAA5E"/>
<path d="M28.125 39.375H27.1875V40.3125H28.125V39.375Z" fill="#FFAA5E"/>
<path d="M29.0625 39.375H28.125V40.3125H29.0625V39.375Z" fill="#FFAA5E"/>
<path d="M30 39.375H29.0625V40.3125H30V39.375Z" fill="#FFAA5E"/>
<path d="M30.9375 39.375H30V40.3125H30.9375V39.375Z" fill="#FFAA5E"/>
<path d="M31.875 39.375H30.9375V40.3125H31.875V39.375Z" fill="#FFAA5E"/>
<path d="M32.8125 39.375H31.875V40.3125H32.8125V39.375Z" fill="#FFAA5E"/>
<path d="M33.75 39.375H32.8125V40.3125H33.75V39.375Z" fill="#FFAA5E"/>
<path d="M40.3125 39.375H39.375V40.3125H40.3125V39.375Z" fill="#FFAA5E"/>
<path d="M41.25 39.375H40.3125V40.3125H41.25V39.375Z" fill="#FFAA5E"/>
<path d="M42.1875 39.375H41.25V40.3125H42.1875V39.375Z" fill="#FFAA5E"/>
<path d="M43.125 39.375H42.1875V40.3125H43.125V39.375Z" fill="#FFAA5E"/>
<path d="M44.0625 39.375H43.125V40.3125H44.0625V39.375Z" fill="#FFAA5E"/>
<path d="M45 39.375H44.0625V40.3125H45V39.375Z" fill="#FFAA5E"/>
<path d="M45.9375 39.375H45V40.3125H45.9375V39.375Z" fill="#FFAA5E"/>
<path d="M46.875 39.375H45.9375V40.3125H46.875V39.375Z" fill="#FFAA5E"/>
<path d="M18.75 40.3125H17.8125V41.25H18.75V40.3125Z" fill="#FFAA5E"/>
<path d="M19.6875 40.3125H18.75V41.25H19.6875V40.3125Z" fill="#FFAA5E"/>
<path d="M20.625 40.3125H19.6875V41.25H20.625V40.3125Z" fill="#FFAA5E"/>
<path d="M21.5625 40.3125H20.625V41.25H21.5625V40.3125Z" fill="#FFAA5E"/>
<path d="M22.5 40.3125H21.5625V41.25H22.5V40.3125Z" fill="#FFAA5E"/>
<path d="M23.4375 40.3125H22.5V41.25H23.4375V40.3125Z" fill="#FFAA5E"/>
<path d="M24.375 40.3125H23.4375V41.25H24.375V40.3125Z" fill="#FFAA5E"/>
<path d="M28.125 40.3125H27.1875V41.25H28.125V40.3125Z" fill="#FFAA5E"/>
<path d="M29.0625 40.3125H28.125V41.25H29.0625V40.3125Z" fill="#FFAA5E"/>
<path d="M30 40.3125H29.0625V41.25H30V40.3125Z" fill="#FFAA5E"/>
<path d="M30.9375 40.3125H30V41.25H30.9375V40.3125Z" fill="#FFAA5E"/>
<path d="M31.875 40.3125H30.9375V41.25H31.875V40.3125Z" fill="#FFAA5E"/>
<path d="M32.8125 40.3125H31.875V41.25H32.8125V40.3125Z" fill="#FFAA5E"/>
<path d="M33.75 40.3125H32.8125V41.25H33.75V40.3125Z" fill="#FFAA5E"/>
<path d="M41.25 40.3125H40.3125V41.25H41.25V40.3125Z" fill="#FFAA5E"/>
<path d="M42.1875 40.3125H41.25V41.25H42.1875V40.3125Z" fill="#FFAA5E"/>
<path d="M43.125 40.3125H42.1875V41.25H43.125V40.3125Z" fill="#FFAA5E"/>
<path d="M44.0625 40.3125H43.125V41.25H44.0625V40.3125Z" fill="#FFAA5E"/>
<path d="M45 40.3125H44.0625V41.25H45V40.3125Z" fill="#FFAA5E"/>
<path d="M45.9375 40.3125H45V41.25H45.9375V40.3125Z" fill="#FFAA5E"/>
<path d="M46.875 40.3125H45.9375V41.25H46.875V40.3125Z" fill="#FFAA5E"/>
<path d="M17.8125 41.25H16.875V42.1875H17.8125V41.25Z" fill="#FFAA5E"/>
<path d="M18.75 41.25H17.8125V42.1875H18.75V41.25Z" fill="#FFAA5E"/>
<path d="M19.6875 41.25H18.75V42.1875H19.6875V41.25Z" fill="#FFAA5E"/>
<path d="M20.625 41.25H19.6875V42.1875H20.625V41.25Z" fill="#FFAA5E"/>
<path d="M21.5625 41.25H20.625V42.1875H21.5625V41.25Z" fill="#FFAA5E"/>
<path d="M22.5 41.25H21.5625V42.1875H22.5V41.25Z" fill="#FFAA5E"/>
<path d="M23.4375 41.25H22.5V42.1875H23.4375V41.25Z" fill="#FFAA5E"/>
<path d="M29.0625 41.25H28.125V42.1875H29.0625V41.25Z" fill="#FFAA5E"/>
<path d="M30 41.25H29.0625V42.1875H30V41.25Z" fill="#FFAA5E"/>
<path d="M30.9375 41.25H30V42.1875H30.9375V41.25Z" fill="#FFAA5E"/>
<path d="M31.875 41.25H30.9375V42.1875H31.875V41.25Z" fill="#FFAA5E"/>
<path d="M32.8125 41.25H31.875V42.1875H32.8125V41.25Z" fill="#FFAA5E"/>
<path d="M33.75 41.25H32.8125V42.1875H33.75V41.25Z" fill="#FFAA5E"/>
<path d="M34.6875 41.25H33.75V42.1875H34.6875V41.25Z" fill="#FFAA5E"/>
<path d="M42.1875 41.25H41.25V42.1875H42.1875V41.25Z" fill="#FFAA5E"/>
<path d="M43.125 41.25H42.1875V42.1875H43.125V41.25Z" fill="#FFAA5E"/>
<path d="M44.0625 41.25H43.125V42.1875H44.0625V41.25Z" fill="#FFAA5E"/>
<path d="M45 41.25H44.0625V42.1875H45V41.25Z" fill="#FFAA5E"/>
<path d="M45.9375 41.25H45V42.1875H45.9375V41.25Z" fill="#FFAA5E"/>
<path d="M46.875 41.25H45.9375V42.1875H46.875V41.25Z" fill="#FFAA5E"/>
<path d="M47.8125 41.25H46.875V42.1875H47.8125V41.25Z" fill="#FFAA5E"/>
<path d="M16.875 42.1875H15.9375V43.125H16.875V42.1875Z" fill="#FFAA5E"/>
<path d="M17.8125 42.1875H16.875V43.125H17.8125V42.1875Z" fill="#FFAA5E"/>
<path d="M18.75 42.1875H17.8125V43.125H18.75V42.1875Z" fill="#FFAA5E"/>
<path d="M19.6875 42.1875H18.75V43.125H19.6875V42.1875Z" fill="#FFAA5E"/>
<path d="M20.625 42.1875H19.6875V43.125H20.625V42.1875Z" fill="#FFAA5E"/>
<path d="M21.5625 42.1875H20.625V43.125H21.5625V42.1875Z" fill="#FFAA5E"/>
<path d="M22.5 42.1875H21.5625V43.125H22.5V42.1875Z" fill="#FFAA5E"/>
<path d="M30 42.1875H29.0625V43.125H30V42.1875Z" fill="#FFAA5E"/>
<path d="M30.9375 42.1875H30V43.125H30.9375V42.1875Z" fill="#FFAA5E"/>
<path d="M31.875 42.1875H30.9375V43.125H31.875V42.1875Z" fill="#FFAA5E"/>
<path d="M32.8125 42.1875H31.875V43.125H32.8125V42.1875Z" fill="#FFAA5E"/>
<path d="M33.75 42.1875H32.8125V43.125H33.75V42.1875Z" fill="#FFAA5E"/>
<path d="M34.6875 42.1875H33.75V43.125H34.6875V42.1875Z" fill="#FFAA5E"/>
<path d="M35.625 42.1875H34.6875V43.125H35.625V42.1875Z" fill="#FFAA5E"/>
<path d="M43.125 42.1875H42.1875V43.125H43.125V42.1875Z" fill="#FFAA5E"/>
<path d="M44.0625 42.1875H43.125V43.125H44.0625V42.1875Z" fill="#FFAA5E"/>
<path d="M45 42.1875H44.0625V43.125H45V42.1875Z" fill="#FFAA5E"/>
<path d="M45.9375 42.1875H45V43.125H45.9375V42.1875Z" fill="#FFAA5E"/>
<path d="M46.875 42.1875H45.9375V43.125H46.875V42.1875Z" fill="#FFAA5E"/>
<path d="M47.8125 42.1875H46.875V43.125H47.8125V42.1875Z" fill="#FFAA5E"/>
<path d="M48.75 42.1875H47.8125V43.125H48.75V42.1875Z" fill="#FFAA5E"/>
<path d="M15.9375 43.125H15V44.0625H15.9375V43.125Z" fill="#FFAA5E"/>
<path d="M16.875 43.125H15.9375V44.0625H16.875V43.125Z" fill="#FFAA5E"/>
<path d="M17.8125 43.125H16.875V44.0625H17.8125V43.125Z" fill="#FFAA5E"/>
<path d="M18.75 43.125H17.8125V44.0625H18.75V43.125Z" fill="#FFAA5E"/>
<path d="M19.6875 43.125H18.75V44.0625H19.6875V43.125Z" fill="#FFAA5E"/>
<path d="M20.625 43.125H19.6875V44.0625H20.625V43.125Z" fill="#FFAA5E"/>
<path d="M21.5625 43.125H20.625V44.0625H21.5625V43.125Z" fill="#FFAA5E"/>
<path d="M22.5 43.125H21.5625V44.0625H22.5V43.125Z" fill="#FFAA5E"/>
<path d="M30 43.125H29.0625V44.0625H30V43.125Z" fill="#FFAA5E"/>
<path d="M30.9375 43.125H30V44.0625H30.9375V43.125Z" fill="#FFAA5E"/>
<path d="M31.875 43.125H30.9375V44.0625H31.875V43.125Z" fill="#FFAA5E"/>
<path d="M32.8125 43.125H31.875V44.0625H32.8125V43.125Z" fill="#FFAA5E"/>
<path d="M33.75 43.125H32.8125V44.0625H33.75V43.125Z" fill="#FFAA5E"/>
<path d="M34.6875 43.125H33.75V44.0625H34.6875V43.125Z" fill="#FFAA5E"/>
<path d="M35.625 43.125H34.6875V44.0625H35.625V43.125Z" fill="#FFAA5E"/>
<path d="M36.5625 43.125H35.625V44.0625H36.5625V43.125Z" fill="#FFAA5E"/>
<path d="M43.125 43.125H42.1875V44.0625H43.125V43.125Z" fill="#FFAA5E"/>
<path d="M44.0625 43.125H43.125V44.0625H44.0625V43.125Z" fill="#FFAA5E"/>
<path d="M45 43.125H44.0625V44.0625H45V43.125Z" fill="#FFAA5E"/>
<path d="M45.9375 43.125H45V44.0625H45.9375V43.125Z" fill="#FFAA5E"/>
<path d="M46.875 43.125H45.9375V44.0625H46.875V43.125Z" fill="#FFAA5E"/>
<path d="M47.8125 43.125H46.875V44.0625H47.8125V43.125Z" fill="#FFAA5E"/>
<path d="M48.75 43.125H47.8125V44.0625H48.75V43.125Z" fill="#FFAA5E"/>
<path d="M15 44.0625H14.0625V45H15V44.0625Z" fill="#FFAA5E"/>
<path d="M15.9375 44.0625H15V45H15.9375V44.0625Z" fill="#FFAA5E"/>
<path d="M16.875 44.0625H15.9375V45H16.875V44.0625Z" fill="#FFAA5E"/>
<path d="M17.8125 44.0625H16.875V45H17.8125V44.0625Z" fill="#FFAA5E"/>
<path d="M18.75 44.0625H17.8125V45H18.75V44.0625Z" fill="#FFAA5E"/>
<path d="M19.6875 44.0625H18.75V45H19.6875V44.0625Z" fill="#FFAA5E"/>
<path d="M20.625 44.0625H19.6875V45H20.625V44.0625Z" fill="#FFAA5E"/>
<path d="M21.5625 44.0625H20.625V45H21.5625V44.0625Z" fill="#FFAA5E"/>
<path d="M30.9375 44.0625H30V45H30.9375V44.0625Z" fill="#FFAA5E"/>
<path d="M31.875 44.0625H30.9375V45H31.875V44.0625Z" fill="#FFAA5E"/>
<path d="M32.8125 44.0625H31.875V45H32.8125V44.0625Z" fill="#FFAA5E"/>
<path d="M33.75 44.0625H32.8125V45H33.75V44.0625Z" fill="#FFAA5E"/>
<path d="M34.6875 44.0625H33.75V45H34.6875V44.0625Z" fill="#FFAA5E"/>
<path d="M35.625 44.0625H34.6875V45H35.625V44.0625Z" fill="#FFAA5E"/>
<path d="M36.5625 44.0625H35.625V45H36.5625V44.0625Z" fill="#FFAA5E"/>
<path d="M44.0625 44.0625H43.125V45H44.0625V44.0625Z" fill="#FFAA5E"/>
<path d="M45 44.0625H44.0625V45H45V44.0625Z" fill="#FFAA5E"/>
<path d="M45.9375 44.0625H45V45H45.9375V44.0625Z" fill="#FFAA5E"/>
<path d="M46.875 44.0625H45.9375V45H46.875V44.0625Z" fill="#FFAA5E"/>
<path d="M47.8125 44.0625H46.875V45H47.8125V44.0625Z" fill="#FFAA5E"/>
<path d="M48.75 44.0625H47.8125V45H48.75V44.0625Z" fill="#FFAA5E"/>
<path d="M49.6875 44.0625H48.75V45H49.6875V44.0625Z" fill="#FFAA5E"/>
<path d="M14.0625 45H13.125V45.9375H14.0625V45Z" fill="#FFAA5E"/>
<path d="M15 45H14.0625V45.9375H15V45Z" fill="#FFAA5E"/>
<path d="M15.9375 45H15V45.9375H15.9375V45Z" fill="#FFAA5E"/>
<path d="M16.875 45H15.9375V45.9375H16.875V45Z" fill="#FFAA5E"/>
<path d="M17.8125 45H16.875V45.9375H17.8125V45Z" fill="#FFAA5E"/>
<path d="M18.75 45H17.8125V45.9375H18.75V45Z" fill="#FFAA5E"/>
<path d="M19.6875 45H18.75V45.9375H19.6875V45Z" fill="#FFAA5E"/>
<path d="M20.625 45H19.6875V45.9375H20.625V45Z" fill="#FFAA5E"/>
<path d="M31.875 45H30.9375V45.9375H31.875V45Z" fill="#FFAA5E"/>
<path d="M32.8125 45H31.875V45.9375H32.8125V45Z" fill="#FFAA5E"/>
<path d="M33.75 45H32.8125V45.9375H33.75V45Z" fill="#FFAA5E"/>
<path d="M34.6875 45H33.75V45.9375H34.6875V45Z" fill="#FFAA5E"/>
<path d="M35.625 45H34.6875V45.9375H35.625V45Z" fill="#FFAA5E"/>
<path d="M36.5625 45H35.625V45.9375H36.5625V45Z" fill="#FFAA5E"/>
<path d="M37.5 45H36.5625V45.9375H37.5V45Z" fill="#FFAA5E"/>
<path d="M45 45H44.0625V45.9375H45V45Z" fill="#FFAA5E"/>
<path d="M45.9375 45H45V45.9375H45.9375V45Z" fill="#FFAA5E"/>
<path d="M46.875 45H45.9375V45.9375H46.875V45Z" fill="#FFAA5E"/>
<path d="M47.8125 45H46.875V45.9375H47.8125V45Z" fill="#FFAA5E"/>
<path d="M48.75 45H47.8125V45.9375H48.75V45Z" fill="#FFAA5E"/>
<path d="M49.6875 45H48.75V45.9375H49.6875V45Z" fill="#FFAA5E"/>
<path d="M50.625 45H49.6875V45.9375H50.625V45Z" fill="#FFAA5E"/>
<path d="M13.125 45.9375H12.1875V46.875H13.125V45.9375Z" fill="#FFAA5E"/>
<path d="M14.0625 45.9375H13.125V46.875H14.0625V45.9375Z" fill="#FFAA5E"/>
<path d="M15 45.9375H14.0625V46.875H15V45.9375Z" fill="#FFAA5E"/>
<path d="M15.9375 45.9375H15V46.875H15.9375V45.9375Z" fill="#FFAA5E"/>
<path d="M16.875 45.9375H15.9375V46.875H16.875V45.9375Z" fill="#FFAA5E"/>
<path d="M17.8125 45.9375H16.875V46.875H17.8125V45.9375Z" fill="#FFAA5E"/>
<path d="M18.75 45.9375H17.8125V46.875H18.75V45.9375Z" fill="#FFAA5E"/>
<path d="M19.6875 45.9375H18.75V46.875H19.6875V45.9375Z" fill="#FFAA5E"/>
<path d="M31.875 45.9375H30.9375V46.875H31.875V45.9375Z" fill="#FFAA5E"/>
<path d="M32.8125 45.9375H31.875V46.875H32.8125V45.9375Z" fill="#FFAA5E"/>
<path d="M33.75 45.9375H32.8125V46.875H33.75V45.9375Z" fill="#FFAA5E"/>
<path d="M34.6875 45.9375H33.75V46.875H34.6875V45.9375Z" fill="#FFAA5E"/>
<path d="M35.625 45.9375H34.6875V46.875H35.625V45.9375Z" fill="#FFAA5E"/>
<path d="M36.5625 45.9375H35.625V46.875H36.5625V45.9375Z" fill="#FFAA5E"/>
<path d="M37.5 45.9375H36.5625V46.875H37.5V45.9375Z" fill="#FFAA5E"/>
<path d="M38.4375 45.9375H37.5V46.875H38.4375V45.9375Z" fill="#FFAA5E"/>
<path d="M45 45.9375H44.0625V46.875H45V45.9375Z" fill="#FFAA5E"/>
<path d="M45.9375 45.9375H45V46.875H45.9375V45.9375Z" fill="#FFAA5E"/>
<path d="M46.875 45.9375H45.9375V46.875H46.875V45.9375Z" fill="#FFAA5E"/>
<path d="M47.8125 45.9375H46.875V46.875H47.8125V45.9375Z" fill="#FFAA5E"/>
<path d="M48.75 45.9375H47.8125V46.875H48.75V45.9375Z" fill="#FFAA5E"/>
<path d="M49.6875 45.9375H48.75V46.875H49.6875V45.9375Z" fill="#FFAA5E"/>
<path d="M50.625 45.9375H49.6875V46.875H50.625V45.9375Z" fill="#FFAA5E"/>
<path d="M12.1875 46.875H11.25V47.8125H12.1875V46.875Z" fill="#FFAA5E"/>
<path d="M13.125 46.875H12.1875V47.8125H13.125V46.875Z" fill="#FFAA5E"/>
<path d="M14.0625 46.875H13.125V47.8125H14.0625V46.875Z" fill="#FFAA5E"/>
<path d="M15 46.875H14.0625V47.8125H15V46.875Z" fill="#FFAA5E"/>
<path d="M15.9375 46.875H15V47.8125H15.9375V46.875Z" fill="#FFAA5E"/>
<path d="M16.875 46.875H15.9375V47.8125H16.875V46.875Z" fill="#FFAA5E"/>
<path d="M17.8125 46.875H16.875V47.8125H17.8125V46.875Z" fill="#FFAA5E"/>
<path d="M18.75 46.875H17.8125V47.8125H18.75V46.875Z" fill="#FFAA5E"/>
<path d="M32.8125 46.875H31.875V47.8125H32.8125V46.875Z" fill="#FFAA5E"/>
<path d="M33.75 46.875H32.8125V47.8125H33.75V46.875Z" fill="#FFAA5E"/>
<path d="M34.6875 46.875H33.75V47.8125H34.6875V46.875Z" fill="#FFAA5E"/>
<path d="M35.625 46.875H34.6875V47.8125H35.625V46.875Z" fill="#FFAA5E"/>
<path d="M36.5625 46.875H35.625V47.8125H36.5625V46.875Z" fill="#FFAA5E"/>
<path d="M37.5 46.875H36.5625V47.8125H37.5V46.875Z" fill="#FFAA5E"/>
<path d="M38.4375 46.875H37.5V47.8125H38.4375V46.875Z" fill="#FFAA5E"/>
<path d="M45.9375 46.875H45V47.8125H45.9375V46.875Z" fill="#FFAA5E"/>
<path d="M46.875 46.875H45.9375V47.8125H46.875V46.875Z" fill="#FFAA5E"/>
<path d="M47.8125 46.875H46.875V47.8125H47.8125V46.875Z" fill="#FFAA5E"/>
<path d="M48.75 46.875H47.8125V47.8125H48.75V46.875Z" fill="#FFAA5E"/>
<path d="M49.6875 46.875H48.75V47.8125H49.6875V46.875Z" fill="#FFAA5E"/>
<path d="M50.625 46.875H49.6875V47.8125H50.625V46.875Z" fill="#FFAA5E"/>
<path d="M51.5625 46.875H50.625V47.8125H51.5625V46.875Z" fill="#FFAA5E"/>
<path d="M12.1875 47.8125H11.25V48.75H12.1875V47.8125Z" fill="#FFAA5E"/>
<path d="M13.125 47.8125H12.1875V48.75H13.125V47.8125Z" fill="#FFAA5E"/>
<path d="M14.0625 47.8125H13.125V48.75H14.0625V47.8125Z" fill="#FFAA5E"/>
<path d="M15 47.8125H14.0625V48.75H15V47.8125Z" fill="#FFAA5E"/>
<path d="M15.9375 47.8125H15V48.75H15.9375V47.8125Z" fill="#FFAA5E"/>
<path d="M16.875 47.8125H15.9375V48.75H16.875V47.8125Z" fill="#FFAA5E"/>
<path d="M17.8125 47.8125H16.875V48.75H17.8125V47.8125Z" fill="#FFAA5E"/>
<path d="M33.75 47.8125H32.8125V48.75H33.75V47.8125Z" fill="#FFAA5E"/>
<path d="M34.6875 47.8125H33.75V48.75H34.6875V47.8125Z" fill="#FFAA5E"/>
<path d="M35.625 47.8125H34.6875V48.75H35.625V47.8125Z" fill="#FFAA5E"/>
<path d="M36.5625 47.8125H35.625V48.75H36.5625V47.8125Z" fill="#FFAA5E"/>
<path d="M37.5 47.8125H36.5625V48.75H37.5V47.8125Z" fill="#FFAA5E"/>
<path d="M38.4375 47.8125H37.5V48.75H38.4375V47.8125Z" fill="#FFAA5E"/>
<path d="M39.375 47.8125H38.4375V48.75H39.375V47.8125Z" fill="#FFAA5E"/>
<path d="M46.875 47.8125H45.9375V48.75H46.875V47.8125Z" fill="#FFAA5E"/>
<path d="M47.8125 47.8125H46.875V48.75H47.8125V47.8125Z" fill="#FFAA5E"/>
<path d="M48.75 47.8125H47.8125V48.75H48.75V47.8125Z" fill="#FFAA5E"/>
<path d="M49.6875 47.8125H48.75V48.75H49.6875V47.8125Z" fill="#FFAA5E"/>
<path d="M50.625 47.8125H49.6875V48.75H50.625V47.8125Z" fill="#FFAA5E"/>
<path d="M51.5625 47.8125H50.625V48.75H51.5625V47.8125Z" fill="#FFAA5E"/>
<path d="M52.5 47.8125H51.5625V48.75H52.5V47.8125Z" fill="#FFAA5E"/>
<path d="M11.25 48.75H10.3125V49.6875H11.25V48.75Z" fill="#FFAA5E"/>
<path d="M12.1875 48.75H11.25V49.6875H12.1875V48.75Z" fill="#FFAA5E"/>
<path d="M13.125 48.75H12.1875V49.6875H13.125V48.75Z" fill="#FFAA5E"/>
<path d="M14.0625 48.75H13.125V49.6875H14.0625V48.75Z" fill="#FFAA5E"/>
<path d="M15 48.75H14.0625V49.6875H15V48.75Z" fill="#FFAA5E"/>
<path d="M15.9375 48.75H15V49.6875H15.9375V48.75Z" fill="#FFAA5E"/>
<path d="M16.875 48.75H15.9375V49.6875H16.875V48.75Z" fill="#FFAA5E"/>
<path d="M33.75 48.75H32.8125V49.6875H33.75V48.75Z" fill="#FFAA5E"/>
<path d="M34.6875 48.75H33.75V49.6875H34.6875V48.75Z" fill="#FFAA5E"/>
<path d="M35.625 48.75H34.6875V49.6875H35.625V48.75Z" fill="#FFAA5E"/>
<path d="M36.5625 48.75H35.625V49.6875H36.5625V48.75Z" fill="#FFAA5E"/>
<path d="M37.5 48.75H36.5625V49.6875H37.5V48.75Z" fill="#FFAA5E"/>
<path d="M38.4375 48.75H37.5V49.6875H38.4375V48.75Z" fill="#FFAA5E"/>
<path d="M39.375 48.75H38.4375V49.6875H39.375V48.75Z" fill="#FFAA5E"/>
<path d="M40.3125 48.75H39.375V49.6875H40.3125V48.75Z" fill="#FFAA5E"/>
<path d="M46.875 48.75H45.9375V49.6875H46.875V48.75Z" fill="#FFAA5E"/>
<path d="M47.8125 48.75H46.875V49.6875H47.8125V48.75Z" fill="#FFAA5E"/>
<path d="M48.75 48.75H47.8125V49.6875H48.75V48.75Z" fill="#FFAA5E"/>
<path d="M49.6875 48.75H48.75V49.6875H49.6875V48.75Z" fill="#FFAA5E"/>
<path d="M50.625 48.75H49.6875V49.6875H50.625V48.75Z" fill="#FFAA5E"/>
<path d="M51.5625 48.75H50.625V49.6875H51.5625V48.75Z" fill="#FFAA5E"/>
<path d="M52.5 48.75H51.5625V49.6875H52.5V48.75Z" fill="#FFAA5E"/>
<path d="M53.4375 48.75H52.5V49.6875H53.4375V48.75Z" fill="#FFAA5E"/>
<path d="M10.3125 49.6875H9.375V50.625H10.3125V49.6875Z" fill="#FFAA5E"/>
<path d="M11.25 49.6875H10.3125V50.625H11.25V49.6875Z" fill="#FFAA5E"/>
<path d="M12.1875 49.6875H11.25V50.625H12.1875V49.6875Z" fill="#FFAA5E"/>
<path d="M13.125 49.6875H12.1875V50.625H13.125V49.6875Z" fill="#FFAA5E"/>
<path d="M14.0625 49.6875H13.125V50.625H14.0625V49.6875Z" fill="#FFAA5E"/>
<path d="M15 49.6875H14.0625V50.625H15V49.6875Z" fill="#FFAA5E"/>
<path d="M15.9375 49.6875H15V50.625H15.9375V49.6875Z" fill="#FFAA5E"/>
<path d="M16.875 49.6875H15.9375V50.625H16.875V49.6875Z" fill="#FFAA5E"/>
<path d="M34.6875 49.6875H33.75V50.625H34.6875V49.6875Z" fill="#FFAA5E"/>
<path d="M35.625 49.6875H34.6875V50.625H35.625V49.6875Z" fill="#FFAA5E"/>
<path d="M36.5625 49.6875H35.625V50.625H36.5625V49.6875Z" fill="#FFAA5E"/>
<path d="M37.5 49.6875H36.5625V50.625H37.5V49.6875Z" fill="#FFAA5E"/>
<path d="M38.4375 49.6875H37.5V50.625H38.4375V49.6875Z" fill="#FFAA5E"/>
<path d="M39.375 49.6875H38.4375V50.625H39.375V49.6875Z" fill="#FFAA5E"/>
<path d="M40.3125 49.6875H39.375V50.625H40.3125V49.6875Z" fill="#FFAA5E"/>
<path d="M47.8125 49.6875H46.875V50.625H47.8125V49.6875Z" fill="#FFAA5E"/>
<path d="M48.75 49.6875H47.8125V50.625H48.75V49.6875Z" fill="#FFAA5E"/>
<path d="M49.6875 49.6875H48.75V50.625H49.6875V49.6875Z" fill="#FFAA5E"/>
<path d="M50.625 49.6875H49.6875V50.625H50.625V49.6875Z" fill="#FFAA5E"/>
<path d="M51.5625 49.6875H50.625V50.625H51.5625V49.6875Z" fill="#FFAA5E"/>
<path d="M52.5 49.6875H51.5625V50.625H52.5V49.6875Z" fill="#FFAA5E"/>
<path d="M53.4375 49.6875H52.5V50.625H53.4375V49.6875Z" fill="#FFAA5E"/>
<path d="M9.375 50.625H8.4375V51.5625H9.375V50.625Z" fill="#FFAA5E"/>
<path d="M10.3125 50.625H9.375V51.5625H10.3125V50.625Z" fill="#FFAA5E"/>
<path d="M11.25 50.625H10.3125V51.5625H11.25V50.625Z" fill="#FFAA5E"/>
<path d="M12.1875 50.625H11.25V51.5625H12.1875V50.625Z" fill="#FFAA5E"/>
<path d="M13.125 50.625H12.1875V51.5625H13.125V50.625Z" fill="#FFAA5E"/>
<path d="M14.0625 50.625H13.125V51.5625H14.0625V50.625Z" fill="#FFAA5E"/>
<path d="M15 50.625H14.0625V51.5625H15V50.625Z" fill="#FFAA5E"/>
<path d="M15.9375 50.625H15V51.5625H15.9375V50.625Z" fill="#FFAA5E"/>
<path d="M35.625 50.625H34.6875V51.5625H35.625V50.625Z" fill="#FFAA5E"/>
<path d="M36.5625 50.625H35.625V51.5625H36.5625V50.625Z" fill="#FFAA5E"/>
<path d="M37.5 50.625H36.5625V51.5625H37.5V50.625Z" fill="#FFAA5E"/>
<path d="M38.4375 50.625H37.5V51.5625H38.4375V50.625Z" fill="#FFAA5E"/>
<path d="M39.375 50.625H38.4375V51.5625H39.375V50.625Z" fill="#FFAA5E"/>
<path d="M40.3125 50.625H39.375V51.5625H40.3125V50.625Z" fill="#FFAA5E"/>
<path d="M41.25 50.625H40.3125V51.5625H41.25V50.625Z" fill="#FFAA5E"/>
<path d="M48.75 50.625H47.8125V51.5625H48.75V50.625Z" fill="#FFAA5E"/>
<path d="M49.6875 50.625H48.75V51.5625H49.6875V50.625Z" fill="#FFAA5E"/>
<path d="M50.625 50.625H49.6875V51.5625H50.625V50.625Z" fill="#FFAA5E"/>
<path d="M51.5625 50.625H50.625V51.5625H51.5625V50.625Z" fill="#FFAA5E"/>
<path d="M52.5 50.625H51.5625V51.5625H52.5V50.625Z" fill="#FFAA5E"/>
<path d="M53.4375 50.625H52.5V51.5625H53.4375V50.625Z" fill="#FFAA5E"/>
<path d="M54.375 50.625H53.4375V51.5625H54.375V50.625Z" fill="#FFAA5E"/>
<path d="M8.4375 51.5625H7.5V52.5H8.4375V51.5625Z" fill="#FFAA5E"/>
<path d="M9.375 51.5625H8.4375V52.5H9.375V51.5625Z" fill="#FFAA5E"/>
<path d="M10.3125 51.5625H9.375V52.5H10.3125V51.5625Z" fill="#FFAA5E"/>
<path d="M11.25 51.5625H10.3125V52.5H11.25V51.5625Z" fill="#FFAA5E"/>
<path d="M12.1875 51.5625H11.25V52.5H12.1875V51.5625Z" fill="#FFAA5E"/>
<path d="M13.125 51.5625H12.1875V52.5H13.125V51.5625Z" fill="#FFAA5E"/>
<path d="M14.0625 51.5625H13.125V52.5H14.0625V51.5625Z" fill="#FFAA5E"/>
<path d="M15 51.5625H14.0625V52.5H15V51.5625Z" fill="#FFAA5E"/>
<path d="M36.5625 51.5625H35.625V52.5H36.5625V51.5625Z" fill="#FFAA5E"/>
<path d="M37.5 51.5625H36.5625V52.5H37.5V51.5625Z" fill="#FFAA5E"/>
<path d="M38.4375 51.5625H37.5V52.5H38.4375V51.5625Z" fill="#FFAA5E"/>
<path d="M39.375 51.5625H38.4375V52.5H39.375V51.5625Z" fill="#FFAA5E"/>
<path d="M40.3125 51.5625H39.375V52.5H40.3125V51.5625Z" fill="#FFAA5E"/>
<path d="M41.25 51.5625H40.3125V52.5H41.25V51.5625Z" fill="#FFAA5E"/>
<path d="M42.1875 51.5625H41.25V52.5H42.1875V51.5625Z" fill="#FFAA5E"/>
<path d="M49.6875 51.5625H48.75V52.5H49.6875V51.5625Z" fill="#FFAA5E"/>
<path d="M50.625 51.5625H49.6875V52.5H50.625V51.5625Z" fill="#FFAA5E"/>
<path d="M51.5625 51.5625H50.625V52.5H51.5625V51.5625Z" fill="#FFAA5E"/>
<path d="M52.5 51.5625H51.5625V52.5H52.5V51.5625Z" fill="#FFAA5E"/>
<path d="M53.4375 51.5625H52.5V52.5H53.4375V51.5625Z" fill="#FFAA5E"/>
<path d="M54.375 51.5625H53.4375V52.5H54.375V51.5625Z" fill="#FFAA5E"/>
<path d="M55.3125 51.5625H54.375V52.5H55.3125V51.5625Z" fill="#FFAA5E"/>
<path d="M7.5 52.5H6.5625V53.4375H7.5V52.5Z" fill="#FFAA5E"/>
<path d="M8.4375 52.5H7.5V53.4375H8.4375V52.5Z" fill="#FFAA5E"/>
<path d="M9.375 52.5H8.4375V53.4375H9.375V52.5Z" fill="#FFAA5E"/>
<path d="M10.3125 52.5H9.375V53.4375H10.3125V52.5Z" fill="#FFAA5E"/>
<path d="M11.25 52.5H10.3125V53.4375H11.25V52.5Z" fill="#FFAA5E"/>
<path d="M12.1875 52.5H11.25V53.4375H12.1875V52.5Z" fill="#FFAA5E"/>
<path d="M13.125 52.5H12.1875V53.4375H13.125V52.5Z" fill="#FFAA5E"/>
<path d="M14.0625 52.5H13.125V53.4375H14.0625V52.5Z" fill="#FFAA5E"/>
<path d="M36.5625 52.5H35.625V53.4375H36.5625V52.5Z" fill="#FFAA5E"/>
<path d="M37.5 52.5H36.5625V53.4375H37.5V52.5Z" fill="#FFAA5E"/>
<path d="M38.4375 52.5H37.5V53.4375H38.4375V52.5Z" fill="#FFAA5E"/>
<path d="M39.375 52.5H38.4375V53.4375H39.375V52.5Z" fill="#FFAA5E"/>
<path d="M40.3125 52.5H39.375V53.4375H40.3125V52.5Z" fill="#FFAA5E"/>
<path d="M41.25 52.5H40.3125V53.4375H41.25V52.5Z" fill="#FFAA5E"/>
<path d="M42.1875 52.5H41.25V53.4375H42.1875V52.5Z" fill="#FFAA5E"/>
<path d="M43.125 52.5H42.1875V53.4375H43.125V52.5Z" fill="#FFAA5E"/>
<path d="M49.6875 52.5H48.75V53.4375H49.6875V52.5Z" fill="#FFAA5E"/>
<path d="M50.625 52.5H49.6875V53.4375H50.625V52.5Z" fill="#FFAA5E"/>
<path d="M51.5625 52.5H50.625V53.4375H51.5625V52.5Z" fill="#FFAA5E"/>
<path d="M52.5 52.5H51.5625V53.4375H52.5V52.5Z" fill="#FFAA5E"/>
<path d="M53.4375 52.5H52.5V53.4375H53.4375V52.5Z" fill="#FFAA5E"/>
<path d="M54.375 52.5H53.4375V53.4375H54.375V52.5Z" fill="#FFAA5E"/>
<path d="M55.3125 52.5H54.375V53.4375H55.3125V52.5Z" fill="#FFAA5E"/>
<path d="M6.5625 53.4375H5.625V54.375H6.5625V53.4375Z" fill="#FFAA5E"/>
<path d="M7.5 53.4375H6.5625V54.375H7.5V53.4375Z" fill="#FFAA5E"/>
<path d="M8.4375 53.4375H7.5V54.375H8.4375V53.4375Z" fill="#FFAA5E"/>
<path d="M9.375 53.4375H8.4375V54.375H9.375V53.4375Z" fill="#FFAA5E"/>
<path d="M10.3125 53.4375H9.375V54.375H10.3125V53.4375Z" fill="#FFAA5E"/>
<path d="M11.25 53.4375H10.3125V54.375H11.25V53.4375Z" fill="#FFAA5E"/>
<path d="M12.1875 53.4375H11.25V54.375H12.1875V53.4375Z" fill="#FFAA5E"/>
<path d="M13.125 53.4375H12.1875V54.375H13.125V53.4375Z" fill="#FFAA5E"/>
<path d="M37.5 53.4375H36.5625V54.375H37.5V53.4375Z" fill="#FFAA5E"/>
<path d="M38.4375 53.4375H37.5V54.375H38.4375V53.4375Z" fill="#FFAA5E"/>
<path d="M39.375 53.4375H38.4375V54.375H39.375V53.4375Z" fill="#FFAA5E"/>
<path d="M40.3125 53.4375H39.375V54.375H40.3125V53.4375Z" fill="#FFAA5E"/>
<path d="M41.25 53.4375H40.3125V54.375H41.25V53.4375Z" fill="#FFAA5E"/>
<path d="M42.1875 53.4375H41.25V54.375H42.1875V53.4375Z" fill="#FFAA5E"/>
<path d="M43.125 53.4375H42.1875V54.375H43.125V53.4375Z" fill="#FFAA5E"/>
<path d="M50.625 53.4375H49.6875V54.375H50.625V53.4375Z" fill="#FFAA5E"/>
<path d="M51.5625 53.4375H50.625V54.375H51.5625V53.4375Z" fill="#FFAA5E"/>
<path d="M52.5 53.4375H51.5625V54.375H52.5V53.4375Z" fill="#FFAA5E"/>
<path d="M53.4375 53.4375H52.5V54.375H53.4375V53.4375Z" fill="#FFAA5E"/>
<path d="M54.375 53.4375H53.4375V54.375H54.375V53.4375Z" fill="#FFAA5E"/>
<path d="M55.3125 53.4375H54.375V54.375H55.3125V53.4375Z" fill="#FFAA5E"/>
<path d="M56.25 53.4375H55.3125V54.375H56.25V53.4375Z" fill="#FFAA5E"/>
<path d="M6.5625 54.375H5.625V55.3125H6.5625V54.375Z" fill="#FFAA5E"/>
<path d="M7.5 54.375H6.5625V55.3125H7.5V54.375Z" fill="#FFAA5E"/>
<path d="M8.4375 54.375H7.5V55.3125H8.4375V54.375Z" fill="#FFAA5E"/>
<path d="M9.375 54.375H8.4375V55.3125H9.375V54.375Z" fill="#FFAA5E"/>
<path d="M10.3125 54.375H9.375V55.3125H10.3125V54.375Z" fill="#FFAA5E"/>
<path d="M11.25 54.375H10.3125V55.3125H11.25V54.375Z" fill="#FFAA5E"/>
<path d="M12.1875 54.375H11.25V55.3125H12.1875V54.375Z" fill="#FFAA5E"/>
<path d="M38.4375 54.375H37.5V55.3125H38.4375V54.375Z" fill="#FFAA5E"/>
<path d="M39.375 54.375H38.4375V55.3125H39.375V54.375Z" fill="#FFAA5E"/>
<path d="M40.3125 54.375H39.375V55.3125H40.3125V54.375Z" fill="#FFAA5E"/>
<path d="M41.25 54.375H40.3125V55.3125H41.25V54.375Z" fill="#FFAA5E"/>
<path d="M42.1875 54.375H41.25V55.3125H42.1875V54.375Z" fill="#FFAA5E"/>
<path d="M43.125 54.375H42.1875V55.3125H43.125V54.375Z" fill="#FFAA5E"/>
<path d="M44.0625 54.375H43.125V55.3125H44.0625V54.375Z" fill="#FFAA5E"/>
<path d="M51.5625 54.375H50.625V55.3125H51.5625V54.375Z" fill="#FFAA5E"/>
<path d="M52.5 54.375H51.5625V55.3125H52.5V54.375Z" fill="#FFAA5E"/>
<path d="M53.4375 54.375H52.5V55.3125H53.4375V54.375Z" fill="#FFAA5E"/>
<path d="M54.375 54.375H53.4375V55.3125H54.375V54.375Z" fill="#FFAA5E"/>
<path d="M55.3125 54.375H54.375V55.3125H55.3125V54.375Z" fill="#FFAA5E"/>
<path d="M56.25 54.375H55.3125V55.3125H56.25V54.375Z" fill="#FFAA5E"/>
<path d="M57.1875 54.375H56.25V55.3125H57.1875V54.375Z" fill="#FFAA5E"/>
<path d="M5.625 55.3125H4.6875V56.25H5.625V55.3125Z" fill="#FFAA5E"/>
<path d="M6.5625 55.3125H5.625V56.25H6.5625V55.3125Z" fill="#FFAA5E"/>
<path d="M7.5 55.3125H6.5625V56.25H7.5V55.3125Z" fill="#FFAA5E"/>
<path d="M8.4375 55.3125H7.5V56.25H8.4375V55.3125Z" fill="#FFAA5E"/>
<path d="M9.375 55.3125H8.4375V56.25H9.375V55.3125Z" fill="#FFAA5E"/>
<path d="M10.3125 55.3125H9.375V56.25H10.3125V55.3125Z" fill="#FFAA5E"/>
<path d="M11.25 55.3125H10.3125V56.25H11.25V55.3125Z" fill="#FFAA5E"/>
<path d="M38.4375 55.3125H37.5V56.25H38.4375V55.3125Z" fill="#FFAA5E"/>
<path d="M39.375 55.3125H38.4375V56.25H39.375V55.3125Z" fill="#FFAA5E"/>
<path d="M40.3125 55.3125H39.375V56.25H40.3125V55.3125Z" fill="#FFAA5E"/>
<path d="M41.25 55.3125H40.3125V56.25H41.25V55.3125Z" fill="#FFAA5E"/>
<path d="M42.1875 55.3125H41.25V56.25H42.1875V55.3125Z" fill="#FFAA5E"/>
<path d="M43.125 55.3125H42.1875V56.25H43.125V55.3125Z" fill="#FFAA5E"/>
<path d="M44.0625 55.3125H43.125V56.25H44.0625V55.3125Z" fill="#FFAA5E"/>
<path d="M45 55.3125H44.0625V56.25H45V55.3125Z" fill="#FFAA5E"/>
<path d="M51.5625 55.3125H50.625V56.25H51.5625V55.3125Z" fill="#FFAA5E"/>
<path d="M52.5 55.3125H51.5625V56.25H52.5V55.3125Z" fill="#FFAA5E"/>
<path d="M53.4375 55.3125H52.5V56.25H53.4375V55.3125Z" fill="#FFAA5E"/>
<path d="M54.375 55.3125H53.4375V56.25H54.375V55.3125Z" fill="#FFAA5E"/>
<path d="M55.3125 55.3125H54.375V56.25H55.3125V55.3125Z" fill="#FFAA5E"/>
<path d="M56.25 55.3125H55.3125V56.25H56.25V55.3125Z" fill="#FFAA5E"/>
<path d="M57.1875 55.3125H56.25V56.25H57.1875V55.3125Z" fill="#FFAA5E"/>
<path d="M4.6875 56.25H3.75V57.1875H4.6875V56.25Z" fill="#FFAA5E"/>
<path d="M5.625 56.25H4.6875V57.1875H5.625V56.25Z" fill="#FFAA5E"/>
<path d="M6.5625 56.25H5.625V57.1875H6.5625V56.25Z" fill="#FFAA5E"/>
<path d="M7.5 56.25H6.5625V57.1875H7.5V56.25Z" fill="#FFAA5E"/>
<path d="M8.4375 56.25H7.5V57.1875H8.4375V56.25Z" fill="#FFAA5E"/>
<path d="M9.375 56.25H8.4375V57.1875H9.375V56.25Z" fill="#FFAA5E"/>
<path d="M10.3125 56.25H9.375V57.1875H10.3125V56.25Z" fill="#FFAA5E"/>
<path d="M39.375 56.25H38.4375V57.1875H39.375V56.25Z" fill="#FFAA5E"/>
<path d="M40.3125 56.25H39.375V57.1875H40.3125V56.25Z" fill="#FFAA5E"/>
<path d="M41.25 56.25H40.3125V57.1875H41.25V56.25Z" fill="#FFAA5E"/>
<path d="M42.1875 56.25H41.25V57.1875H42.1875V56.25Z" fill="#FFAA5E"/>
<path d="M43.125 56.25H42.1875V57.1875H43.125V56.25Z" fill="#FFAA5E"/>
<path d="M44.0625 56.25H43.125V57.1875H44.0625V56.25Z" fill="#FFAA5E"/>
<path d="M45 56.25H44.0625V57.1875H45V56.25Z" fill="#FFAA5E"/>
<path d="M45.9375 56.25H45V57.1875H45.9375V56.25Z" fill="#FFAA5E"/>
<path d="M46.875 56.25H45.9375V57.1875H46.875V56.25Z" fill="#FFAA5E"/>
<path d="M47.8125 56.25H46.875V57.1875H47.8125V56.25Z" fill="#FFAA5E"/>
<path d="M48.75 56.25H47.8125V57.1875H48.75V56.25Z" fill="#FFAA5E"/>
<path d="M49.6875 56.25H48.75V57.1875H49.6875V56.25Z" fill="#FFAA5E"/>
<path d="M50.625 56.25H49.6875V57.1875H50.625V56.25Z" fill="#FFAA5E"/>
<path d="M51.5625 56.25H50.625V57.1875H51.5625V56.25Z" fill="#FFAA5E"/>
<path d="M52.5 56.25H51.5625V57.1875H52.5V56.25Z" fill="#FFAA5E"/>
<path d="M53.4375 56.25H52.5V57.1875H53.4375V56.25Z" fill="#FFAA5E"/>
<path d="M54.375 56.25H53.4375V57.1875H54.375V56.25Z" fill="#FFAA5E"/>
<path d="M55.3125 56.25H54.375V57.1875H55.3125V56.25Z" fill="#FFAA5E"/>
<path d="M56.25 56.25H55.3125V57.1875H56.25V56.25Z" fill="#FFAA5E"/>
<path d="M57.1875 56.25H56.25V57.1875H57.1875V56.25Z" fill="#FFAA5E"/>
<path d="M58.125 56.25H57.1875V57.1875H58.125V56.25Z" fill="#FFAA5E"/>
<path d="M3.75 57.1875H2.8125V58.125H3.75V57.1875Z" fill="#FFAA5E"/>
<path d="M4.6875 57.1875H3.75V58.125H4.6875V57.1875Z" fill="#FFAA5E"/>
<path d="M5.625 57.1875H4.6875V58.125H5.625V57.1875Z" fill="#FFAA5E"/>
<path d="M6.5625 57.1875H5.625V58.125H6.5625V57.1875Z" fill="#FFAA5E"/>
<path d="M7.5 57.1875H6.5625V58.125H7.5V57.1875Z" fill="#FFAA5E"/>
<path d="M8.4375 57.1875H7.5V58.125H8.4375V57.1875Z" fill="#FFAA5E"/>
<path d="M9.375 57.1875H8.4375V58.125H9.375V57.1875Z" fill="#FFAA5E"/>
<path d="M10.3125 57.1875H9.375V58.125H10.3125V57.1875Z" fill="#FFAA5E"/>
<path d="M40.3125 57.1875H39.375V58.125H40.3125V57.1875Z" fill="#FFAA5E"/>
<path d="M41.25 57.1875H40.3125V58.125H41.25V57.1875Z" fill="#FFAA5E"/>
<path d="M42.1875 57.1875H41.25V58.125H42.1875V57.1875Z" fill="#FFAA5E"/>
<path d="M43.125 57.1875H42.1875V58.125H43.125V57.1875Z" fill="#FFAA5E"/>
<path d="M44.0625 57.1875H43.125V58.125H44.0625V57.1875Z" fill="#FFAA5E"/>
<path d="M45 57.1875H44.0625V58.125H45V57.1875Z" fill="#FFAA5E"/>
<path d="M45.9375 57.1875H45V58.125H45.9375V57.1875Z" fill="#FFAA5E"/>
<path d="M46.875 57.1875H45.9375V58.125H46.875V57.1875Z" fill="#FFAA5E"/>
<path d="M47.8125 57.1875H46.875V58.125H47.8125V57.1875Z" fill="#FFAA5E"/>
<path d="M48.75 57.1875H47.8125V58.125H48.75V57.1875Z" fill="#FFAA5E"/>
<path d="M49.6875 57.1875H48.75V58.125H49.6875V57.1875Z" fill="#FFAA5E"/>
<path d="M50.625 57.1875H49.6875V58.125H50.625V57.1875Z" fill="#FFAA5E"/>
<path d="M51.5625 57.1875H50.625V58.125H51.5625V57.1875Z" fill="#FFAA5E"/>
<path d="M52.5 57.1875H51.5625V58.125H52.5V57.1875Z" fill="#FFAA5E"/>
<path d="M53.4375 57.1875H52.5V58.125H53.4375V57.1875Z" fill="#FFAA5E"/>
<path d="M54.375 57.1875H53.4375V58.125H54.375V57.1875Z" fill="#FFAA5E"/>
<path d="M55.3125 57.1875H54.375V58.125H55.3125V57.1875Z" fill="#FFAA5E"/>
<path d="M56.25 57.1875H55.3125V58.125H56.25V57.1875Z" fill="#FFAA5E"/>
<path d="M57.1875 57.1875H56.25V58.125H57.1875V57.1875Z" fill="#FFAA5E"/>
<path d="M58.125 57.1875H57.1875V58.125H58.125V57.1875Z" fill="#FFAA5E"/>
<path d="M59.0625 57.1875H58.125V58.125H59.0625V57.1875Z" fill="#FFAA5E"/>
<path d="M2.8125 58.125H1.875V59.0625H2.8125V58.125Z" fill="#FFAA5E"/>
<path d="M3.75 58.125H2.8125V59.0625H3.75V58.125Z" fill="#FFAA5E"/>
<path d="M4.6875 58.125H3.75V59.0625H4.6875V58.125Z" fill="#FFAA5E"/>
<path d="M5.625 58.125H4.6875V59.0625H5.625V58.125Z" fill="#FFAA5E"/>
<path d="M6.5625 58.125H5.625V59.0625H6.5625V58.125Z" fill="#FFAA5E"/>
<path d="M7.5 58.125H6.5625V59.0625H7.5V58.125Z" fill="#FFAA5E"/>
<path d="M8.4375 58.125H7.5V59.0625H8.4375V58.125Z" fill="#FFAA5E"/>
<path d="M9.375 58.125H8.4375V59.0625H9.375V58.125Z" fill="#FFAA5E"/>
<path d="M40.3125 58.125H39.375V59.0625H40.3125V58.125Z" fill="#FFAA5E"/>
<path d="M41.25 58.125H40.3125V59.0625H41.25V58.125Z" fill="#FFAA5E"/>
<path d="M42.1875 58.125H41.25V59.0625H42.1875V58.125Z" fill="#FFAA5E"/>
<path d="M43.125 58.125H42.1875V59.0625H43.125V58.125Z" fill="#FFAA5E"/>
<path d="M44.0625 58.125H43.125V59.0625H44.0625V58.125Z" fill="#FFAA5E"/>
<path d="M45 58.125H44.0625V59.0625H45V58.125Z" fill="#FFAA5E"/>
<path d="M45.9375 58.125H45V59.0625H45.9375V58.125Z" fill="#FFAA5E"/>
<path d="M46.875 58.125H45.9375V59.0625H46.875V58.125Z" fill="#FFAA5E"/>
<path d="M47.8125 58.125H46.875V59.0625H47.8125V58.125Z" fill="#FFAA5E"/>
<path d="M48.75 58.125H47.8125V59.0625H48.75V58.125Z" fill="#FFAA5E"/>
<path d="M49.6875 58.125H48.75V59.0625H49.6875V58.125Z" fill="#FFAA5E"/>
<path d="M50.625 58.125H49.6875V59.0625H50.625V58.125Z" fill="#FFAA5E"/>
<path d="M51.5625 58.125H50.625V59.0625H51.5625V58.125Z" fill="#FFAA5E"/>
<path d="M52.5 58.125H51.5625V59.0625H52.5V58.125Z" fill="#FFAA5E"/>
<path d="M53.4375 58.125H52.5V59.0625H53.4375V58.125Z" fill="#FFAA5E"/>
<path d="M54.375 58.125H53.4375V59.0625H54.375V58.125Z" fill="#FFAA5E"/>
<path d="M55.3125 58.125H54.375V59.0625H55.3125V58.125Z" fill="#FFAA5E"/>
<path d="M56.25 58.125H55.3125V59.0625H56.25V58.125Z" fill="#FFAA5E"/>
<path d="M57.1875 58.125H56.25V59.0625H57.1875V58.125Z" fill="#FFAA5E"/>
<path d="M58.125 58.125H57.1875V59.0625H58.125V58.125Z" fill="#FFAA5E"/>
<path d="M59.0625 58.125H58.125V59.0625H59.0625V58.125Z" fill="#FFAA5E"/>
<path d="M60 58.125H59.0625V59.0625H60V58.125Z" fill="#FFAA5E"/>
<path d="M1.875 59.0625H0.9375V60H1.875V59.0625Z" fill="#FFAA5E"/>
<path d="M2.8125 59.0625H1.875V60H2.8125V59.0625Z" fill="#FFAA5E"/>
<path d="M3.75 59.0625H2.8125V60H3.75V59.0625Z" fill="#FFAA5E"/>
<path d="M4.6875 59.0625H3.75V60H4.6875V59.0625Z" fill="#FFAA5E"/>
<path d="M5.625 59.0625H4.6875V60H5.625V59.0625Z" fill="#FFAA5E"/>
<path d="M6.5625 59.0625H5.625V60H6.5625V59.0625Z" fill="#FFAA5E"/>
<path d="M7.5 59.0625H6.5625V60H7.5V59.0625Z" fill="#FFAA5E"/>
<path d="M8.4375 59.0625H7.5V60H8.4375V59.0625Z" fill="#FFAA5E"/>
<path d="M41.25 59.0625H40.3125V60H41.25V59.0625Z" fill="#FFAA5E"/>
<path d="M42.1875 59.0625H41.25V60H42.1875V59.0625Z" fill="#FFAA5E"/>
<path d="M43.125 59.0625H42.1875V60H43.125V59.0625Z" fill="#FFAA5E"/>
<path d="M44.0625 59.0625H43.125V60H44.0625V59.0625Z" fill="#FFAA5E"/>
<path d="M45 59.0625H44.0625V60H45V59.0625Z" fill="#FFAA5E"/>
<path d="M45.9375 59.0625H45V60H45.9375V59.0625Z" fill="#FFAA5E"/>
<path d="M46.875 59.0625H45.9375V60H46.875V59.0625Z" fill="#FFAA5E"/>
<path d="M47.8125 59.0625H46.875V60H47.8125V59.0625Z" fill="#FFAA5E"/>
<path d="M48.75 59.0625H47.8125V60H48.75V59.0625Z" fill="#FFAA5E"/>
<path d="M49.6875 59.0625H48.75V60H49.6875V59.0625Z" fill="#FFAA5E"/>
<path d="M50.625 59.0625H49.6875V60H50.625V59.0625Z" fill="#FFAA5E"/>
<path d="M51.5625 59.0625H50.625V60H51.5625V59.0625Z" fill="#FFAA5E"/>
<path d="M52.5 59.0625H51.5625V60H52.5V59.0625Z" fill="#FFAA5E"/>
<path d="M53.4375 59.0625H52.5V60H53.4375V59.0625Z" fill="#FFAA5E"/>
<path d="M54.375 59.0625H53.4375V60H54.375V59.0625Z" fill="#FFAA5E"/>
<path d="M55.3125 59.0625H54.375V60H55.3125V59.0625Z" fill="#FFAA5E"/>
<path d="M56.25 59.0625H55.3125V60H56.25V59.0625Z" fill="#FFAA5E"/>
<path d="M57.1875 59.0625H56.25V60H57.1875V59.0625Z" fill="#FFAA5E"/>
<path d="M58.125 59.0625H57.1875V60H58.125V59.0625Z" fill="#FFAA5E"/>
<path d="M59.0625 59.0625H58.125V60H59.0625V59.0625Z" fill="#FFAA5E"/>
<path d="M60 59.0625H59.0625V60H60V59.0625Z" fill="#FFAA5E"/>
</svg>
